M48
; DRILL file {KiCad 8.0.8} date 2025-09-10T22:03:43+0300
; FORMAT={-:-/ absolute / inch / decimal}
; #@! TF.CreationDate,2025-09-10T22:03:43+03:00
; #@! TF.GenerationSoftware,Kicad,Pcbnew,8.0.8
; #@! TF.FileFunction,Plated,1,4,PTH
FMAT,2
INCH
; #@! TA.AperFunction,Plated,PTH,ViaDrill
T1C0.0157
; #@! TA.AperFunction,Plated,PTH,ViaDrill
T2C0.0197
; #@! TA.AperFunction,Plated,PTH,ComponentDrill
T3C0.0394
%
G90
G05
T1
X3.248Y-5.5512
X3.248Y-5.5906
X3.248Y-5.6398
X3.4941Y-5.4528
X3.4941Y-5.502
X3.4941Y-5.5512
X3.6024Y-4.9016
X3.6024Y-5.0591
X3.6319Y-5.0295
X3.6417Y-4.9016
X3.6516Y-5.374
X3.6516Y-5.4232
X3.6516Y-5.4724
X3.6614Y-5.0
X3.6811Y-4.9016
X3.8484Y-5.0394
X3.8878Y-5.0394
X3.9272Y-5.0394
X4.0551Y-4.9016
X4.0945Y-4.9016
X4.1339Y-4.9016
X4.1437Y-5.5118
X4.1748Y-4.972
X4.1929Y-5.5118
X4.2421Y-5.5118
X4.3602Y-4.7146
X4.3602Y-4.7539
X4.3602Y-4.7933
X4.4291Y-5.6201
X4.4291Y-5.6594
X4.4488Y-5.6988
X4.5866Y-4.7047
X4.6555Y-5.4823
X4.6555Y-5.5217
X4.7933Y-4.6654
X4.8327Y-5.1083
X4.8524Y-4.6654
X4.8819Y-5.1083
X4.8819Y-5.4626
X4.9213Y-4.6654
X4.9213Y-5.4823
X4.9311Y-5.1083
X4.9606Y-5.5118
X4.9902Y-5.3248
X5.0197Y-5.3543
X5.0492Y-5.3839
X5.2657Y-5.0394
X5.3051Y-5.0394
X5.315Y-5.3839
X5.315Y-5.8661
X5.3445Y-5.0394
X5.3445Y-5.3543
X5.3543Y-5.8661
X5.4035Y-5.8661
T2
X4.1929Y-5.2953
X4.3799Y-5.2559
X4.5472Y-5.2657
X4.5571Y-5.374
X4.6161Y-5.8953
X4.8622Y-5.5512
X4.9705Y-4.9508
X5.0689Y-5.0098
X5.1476Y-5.0098
X5.1575Y-5.5512
X5.1969Y-5.2756
X5.3445Y-4.9803
X5.374Y-5.3248
X5.4724Y-5.2362
T3
X3.2917Y-4.7535
X3.2925Y-5.1646
X3.2925Y-5.2646
X3.2925Y-5.3646
X3.2925Y-5.7917
X3.3917Y-4.7535
X3.3925Y-5.1646
X3.3925Y-5.2646
X3.3925Y-5.3646
X3.3925Y-5.7917
X3.4917Y-4.7535
X3.4925Y-5.7917
X3.5917Y-4.7535
X3.5925Y-5.7917
X3.6925Y-5.7917
X3.7528Y-4.7535
X3.7925Y-5.7917
X3.8528Y-4.7535
X3.8925Y-5.7917
X3.9528Y-4.7535
X3.9925Y-5.7917
X4.0528Y-4.7535
X4.0925Y-5.7917
X4.2585Y-5.789
X4.3585Y-5.789
M30
