%TF.GenerationSoftware,KiCad,Pcbnew,8.0.8*%
%TF.CreationDate,2025-09-10T22:03:36+03:00*%
%TF.ProjectId,MCU datalogger,4d435520-6461-4746-916c-6f676765722e,rev?*%
%TF.SameCoordinates,Original*%
%TF.FileFunction,Copper,L3,Inr*%
%TF.FilePolarity,Positive*%
%FSLAX46Y46*%
G04 Gerber Fmt 4.6, Leading zero omitted, Abs format (unit mm)*
G04 Created by KiCad (PCBNEW 8.0.8) date 2025-09-10 22:03:36*
%MOMM*%
%LPD*%
G01*
G04 APERTURE LIST*
%TA.AperFunction,ComponentPad*%
%ADD10R,1.700000X1.700000*%
%TD*%
%TA.AperFunction,ComponentPad*%
%ADD11O,1.700000X1.700000*%
%TD*%
%TA.AperFunction,ViaPad*%
%ADD12C,1.100000*%
%TD*%
%TA.AperFunction,ViaPad*%
%ADD13C,0.900000*%
%TD*%
G04 APERTURE END LIST*
D10*
%TO.N,GND*%
%TO.C,J1*%
X91230000Y-120740000D03*
D11*
%TO.N,/Vcc*%
X88690000Y-120740000D03*
%TO.N,/SDA*%
X86150000Y-120740000D03*
%TO.N,/SCK*%
X83610000Y-120740000D03*
%TD*%
D10*
%TO.N,/TX*%
%TO.C,J2*%
X95320000Y-120740000D03*
D11*
%TO.N,/RX*%
X97860000Y-120740000D03*
%TO.N,GND*%
X100400000Y-120740000D03*
%TO.N,/Vcc*%
X102940000Y-120740000D03*
%TD*%
D10*
%TO.N,/Vcc*%
%TO.C,BT1*%
X108165000Y-147040000D03*
D11*
%TO.N,GND*%
X110705000Y-147040000D03*
%TD*%
D10*
%TO.N,GND*%
%TO.C,J3*%
X83630000Y-147110000D03*
D11*
%TO.N,/D2*%
X86170000Y-147110000D03*
%TO.N,/D3*%
X88710000Y-147110000D03*
%TO.N,/D4*%
X91250000Y-147110000D03*
%TO.N,/D5*%
X93790000Y-147110000D03*
%TO.N,/D6*%
X96330000Y-147110000D03*
%TO.N,/D7*%
X98870000Y-147110000D03*
%TO.N,/D8*%
X101410000Y-147110000D03*
%TO.N,/Vcc*%
X103950000Y-147110000D03*
%TD*%
D10*
%TO.N,/MISO*%
%TO.C,J4*%
X83630000Y-131180000D03*
D11*
%TO.N,/Vcc*%
X86170000Y-131180000D03*
%TO.N,/SCK*%
X83630000Y-133720000D03*
%TO.N,/MOSI*%
X86170000Y-133720000D03*
%TO.N,/RESET*%
X83630000Y-136260000D03*
%TO.N,GND*%
X86170000Y-136260000D03*
%TD*%
D12*
%TO.N,/Vcc*%
X117250000Y-149740000D03*
X106500000Y-134500000D03*
X123500000Y-141000000D03*
X115750000Y-136500000D03*
X131000000Y-141000000D03*
X132000000Y-134000000D03*
X139000000Y-133000000D03*
X135750000Y-126500000D03*
X128750000Y-127250000D03*
X126250000Y-125750000D03*
D13*
%TO.N,GND*%
X107750000Y-140000000D03*
X106500000Y-140000000D03*
X105250000Y-140000000D03*
X118250000Y-140250000D03*
X118250000Y-139250000D03*
X99750000Y-128000000D03*
X98750000Y-128000000D03*
X97750000Y-128000000D03*
X82500000Y-143250000D03*
X82500000Y-142000000D03*
X82500000Y-141000000D03*
X137250000Y-149000000D03*
X136000000Y-149000000D03*
X135000000Y-149000000D03*
X125250000Y-129750000D03*
X124000000Y-129750000D03*
X122750000Y-129750000D03*
X125000000Y-118500000D03*
X123250000Y-118500000D03*
X121750000Y-118500000D03*
X116500000Y-119500000D03*
X110750000Y-121750000D03*
X110750000Y-120750000D03*
X110750000Y-119750000D03*
X105000000Y-124500000D03*
X104000000Y-124500000D03*
X103000000Y-124500000D03*
X93000000Y-127000000D03*
X92250000Y-127750000D03*
X91500000Y-128500000D03*
X93500000Y-124500000D03*
X92500000Y-124500000D03*
X91500000Y-124500000D03*
X88750000Y-141000000D03*
X88750000Y-139750000D03*
X88750000Y-138500000D03*
X92750000Y-139000000D03*
X92750000Y-137750000D03*
X92750000Y-136500000D03*
X113000000Y-144750000D03*
X112500000Y-143750000D03*
X112500000Y-142750000D03*
D12*
X111250000Y-133500000D03*
X115500000Y-133750000D03*
D13*
X128250000Y-136750000D03*
X127500000Y-136000000D03*
X126750000Y-135250000D03*
X126000000Y-140000000D03*
X125000000Y-139250000D03*
X124000000Y-138750000D03*
X135000000Y-136750000D03*
X135750000Y-136000000D03*
D12*
X136500000Y-135250000D03*
X130750000Y-127250000D03*
D13*
X135750000Y-128000000D03*
X134750000Y-128000000D03*
X133750000Y-128000000D03*
%TO.N,/RESET*%
X106040000Y-126290000D03*
%TD*%
M02*
