%TF.GenerationSoftware,KiCad,Pcbnew,8.0.8*%
%TF.CreationDate,2025-09-10T22:03:36+03:00*%
%TF.ProjectId,MCU datalogger,4d435520-6461-4746-916c-6f676765722e,rev?*%
%TF.SameCoordinates,Original*%
%TF.FileFunction,Copper,L1,Top*%
%TF.FilePolarity,Positive*%
%FSLAX46Y46*%
G04 Gerber Fmt 4.6, Leading zero omitted, Abs format (unit mm)*
G04 Created by KiCad (PCBNEW 8.0.8) date 2025-09-10 22:03:36*
%MOMM*%
%LPD*%
G01*
G04 APERTURE LIST*
G04 Aperture macros list*
%AMRoundRect*
0 Rectangle with rounded corners*
0 $1 Rounding radius*
0 $2 $3 $4 $5 $6 $7 $8 $9 X,Y pos of 4 corners*
0 Add a 4 corners polygon primitive as box body*
4,1,4,$2,$3,$4,$5,$6,$7,$8,$9,$2,$3,0*
0 Add four circle primitives for the rounded corners*
1,1,$1+$1,$2,$3*
1,1,$1+$1,$4,$5*
1,1,$1+$1,$6,$7*
1,1,$1+$1,$8,$9*
0 Add four rect primitives between the rounded corners*
20,1,$1+$1,$2,$3,$4,$5,0*
20,1,$1+$1,$4,$5,$6,$7,0*
20,1,$1+$1,$6,$7,$8,$9,0*
20,1,$1+$1,$8,$9,$2,$3,0*%
G04 Aperture macros list end*
%TA.AperFunction,SMDPad,CuDef*%
%ADD10RoundRect,0.250000X0.475000X-0.250000X0.475000X0.250000X-0.475000X0.250000X-0.475000X-0.250000X0*%
%TD*%
%TA.AperFunction,SMDPad,CuDef*%
%ADD11RoundRect,0.250000X-0.250000X-0.475000X0.250000X-0.475000X0.250000X0.475000X-0.250000X0.475000X0*%
%TD*%
%TA.AperFunction,SMDPad,CuDef*%
%ADD12R,1.454899X0.532600*%
%TD*%
%TA.AperFunction,SMDPad,CuDef*%
%ADD13RoundRect,0.243750X-0.243750X-0.456250X0.243750X-0.456250X0.243750X0.456250X-0.243750X0.456250X0*%
%TD*%
%TA.AperFunction,SMDPad,CuDef*%
%ADD14RoundRect,0.250000X0.250000X0.475000X-0.250000X0.475000X-0.250000X-0.475000X0.250000X-0.475000X0*%
%TD*%
%TA.AperFunction,SMDPad,CuDef*%
%ADD15R,2.400000X3.500000*%
%TD*%
%TA.AperFunction,ComponentPad*%
%ADD16R,1.700000X1.700000*%
%TD*%
%TA.AperFunction,ComponentPad*%
%ADD17O,1.700000X1.700000*%
%TD*%
%TA.AperFunction,SMDPad,CuDef*%
%ADD18RoundRect,0.250000X-0.262500X-0.450000X0.262500X-0.450000X0.262500X0.450000X-0.262500X0.450000X0*%
%TD*%
%TA.AperFunction,SMDPad,CuDef*%
%ADD19RoundRect,0.250000X0.450000X-0.262500X0.450000X0.262500X-0.450000X0.262500X-0.450000X-0.262500X0*%
%TD*%
%TA.AperFunction,SMDPad,CuDef*%
%ADD20RoundRect,0.250000X0.262500X0.450000X-0.262500X0.450000X-0.262500X-0.450000X0.262500X-0.450000X0*%
%TD*%
%TA.AperFunction,SMDPad,CuDef*%
%ADD21RoundRect,0.150000X-0.825000X-0.150000X0.825000X-0.150000X0.825000X0.150000X-0.825000X0.150000X0*%
%TD*%
%TA.AperFunction,SMDPad,CuDef*%
%ADD22R,1.422400X0.508000*%
%TD*%
%TA.AperFunction,SMDPad,CuDef*%
%ADD23R,0.508000X1.422400*%
%TD*%
%TA.AperFunction,ViaPad*%
%ADD24C,1.100000*%
%TD*%
%TA.AperFunction,ViaPad*%
%ADD25C,0.900000*%
%TD*%
%TA.AperFunction,Conductor*%
%ADD26C,0.500000*%
%TD*%
%TA.AperFunction,Conductor*%
%ADD27C,0.350000*%
%TD*%
G04 APERTURE END LIST*
D10*
%TO.P,C5,1*%
%TO.N,/Vcc*%
X121580000Y-140440000D03*
%TO.P,C5,2*%
%TO.N,GND*%
X121580000Y-138540000D03*
%TD*%
D11*
%TO.P,C2,1*%
%TO.N,Net-(U3-AREF)*%
X122391100Y-134720000D03*
%TO.P,C2,2*%
%TO.N,GND*%
X124291100Y-134720000D03*
%TD*%
D12*
%TO.P,U4,1,X1*%
%TO.N,Net-(U4-X1)*%
X134291348Y-143155000D03*
%TO.P,U4,2,X2*%
%TO.N,Net-(U4-X2)*%
X134291348Y-141885000D03*
%TO.P,U4,3,\u002AINTA*%
%TO.N,/inta*%
X134291348Y-140615000D03*
%TO.P,U4,4,GND*%
%TO.N,GND*%
X134291348Y-139345000D03*
%TO.P,U4,5,SDA*%
%TO.N,/SDA*%
X128848652Y-139345000D03*
%TO.P,U4,6,SCL*%
%TO.N,/SCK*%
X128848652Y-140615000D03*
%TO.P,U4,7,SQW/\u002AINTB*%
%TO.N,Net-(U4-SQW{slash}\u002AINTB)*%
X128848652Y-141885000D03*
%TO.P,U4,8,VCC*%
%TO.N,/Vcc*%
X128848652Y-143155000D03*
%TD*%
D13*
%TO.P,D1,1,K*%
%TO.N,Net-(D1-K)*%
X114252500Y-124810000D03*
%TO.P,D1,2,A*%
%TO.N,/SCK*%
X116127500Y-124810000D03*
%TD*%
D14*
%TO.P,C6,1*%
%TO.N,/Vcc*%
X124060000Y-121210000D03*
%TO.P,C6,2*%
%TO.N,GND*%
X122160000Y-121210000D03*
%TD*%
%TO.P,C3,1*%
%TO.N,Net-(U3-PB7(PCINT7{slash}XTAL2{slash}TOSC2))*%
X96650000Y-138410000D03*
%TO.P,C3,2*%
%TO.N,GND*%
X94750000Y-138410000D03*
%TD*%
D15*
%TO.P,Y1,1,1*%
%TO.N,Net-(U3-PB7(PCINT7{slash}XTAL2{slash}TOSC2))*%
X100730000Y-138180000D03*
%TO.P,Y1,2,2*%
%TO.N,Net-(U3-PB6(PCINT6{slash}XTAL1{slash}TOSC1))*%
X100730000Y-132980000D03*
%TD*%
D16*
%TO.P,J1,1,Pin_1*%
%TO.N,GND*%
X91230000Y-120740000D03*
D17*
%TO.P,J1,2,Pin_2*%
%TO.N,/Vcc*%
X88690000Y-120740000D03*
%TO.P,J1,3,Pin_3*%
%TO.N,/SDA*%
X86150000Y-120740000D03*
%TO.P,J1,4,Pin_4*%
%TO.N,/SCK*%
X83610000Y-120740000D03*
%TD*%
D16*
%TO.P,J2,1,Pin_1*%
%TO.N,/TX*%
X95320000Y-120740000D03*
D17*
%TO.P,J2,2,Pin_2*%
%TO.N,/RX*%
X97860000Y-120740000D03*
%TO.P,J2,3,Pin_3*%
%TO.N,GND*%
X100400000Y-120740000D03*
%TO.P,J2,4,Pin_4*%
%TO.N,/Vcc*%
X102940000Y-120740000D03*
%TD*%
D18*
%TO.P,R1,1*%
%TO.N,/Vcc*%
X129257500Y-145300000D03*
%TO.P,R1,2*%
%TO.N,/inta*%
X131082500Y-145300000D03*
%TD*%
D16*
%TO.P,BT1,1,+*%
%TO.N,/Vcc*%
X108165000Y-147040000D03*
D17*
%TO.P,BT1,2,-*%
%TO.N,GND*%
X110705000Y-147040000D03*
%TD*%
D13*
%TO.P,D2,1,K*%
%TO.N,Net-(D2-K)*%
X116042500Y-145340000D03*
%TO.P,D2,2,A*%
%TO.N,/Vcc*%
X117917500Y-145340000D03*
%TD*%
D11*
%TO.P,C8,1*%
%TO.N,/Vcc*%
X138060000Y-121250000D03*
%TO.P,C8,2*%
%TO.N,GND*%
X139960000Y-121250000D03*
%TD*%
D18*
%TO.P,R7,1*%
%TO.N,Net-(D2-K)*%
X116027500Y-142790000D03*
%TO.P,R7,2*%
%TO.N,GND*%
X117852500Y-142790000D03*
%TD*%
D14*
%TO.P,C1,1*%
%TO.N,/Vcc*%
X124060000Y-123690000D03*
%TO.P,C1,2*%
%TO.N,GND*%
X122160000Y-123690000D03*
%TD*%
D19*
%TO.P,R6,1*%
%TO.N,/RESET*%
X108571100Y-123952500D03*
%TO.P,R6,2*%
%TO.N,/Vcc*%
X108571100Y-122127500D03*
%TD*%
D11*
%TO.P,C4,1*%
%TO.N,GND*%
X94750000Y-132250000D03*
%TO.P,C4,2*%
%TO.N,Net-(U3-PB6(PCINT6{slash}XTAL1{slash}TOSC1))*%
X96650000Y-132250000D03*
%TD*%
D16*
%TO.P,J3,1,Pin_1*%
%TO.N,GND*%
X83630000Y-147110000D03*
D17*
%TO.P,J3,2,Pin_2*%
%TO.N,/D2*%
X86170000Y-147110000D03*
%TO.P,J3,3,Pin_3*%
%TO.N,/D3*%
X88710000Y-147110000D03*
%TO.P,J3,4,Pin_4*%
%TO.N,/D4*%
X91250000Y-147110000D03*
%TO.P,J3,5,Pin_5*%
%TO.N,/D5*%
X93790000Y-147110000D03*
%TO.P,J3,6,Pin_6*%
%TO.N,/D6*%
X96330000Y-147110000D03*
%TO.P,J3,7,Pin_7*%
%TO.N,/D7*%
X98870000Y-147110000D03*
%TO.P,J3,8,Pin_8*%
%TO.N,/D8*%
X101410000Y-147110000D03*
%TO.P,J3,9,Pin_9*%
%TO.N,/Vcc*%
X103950000Y-147110000D03*
%TD*%
D14*
%TO.P,C9,1*%
%TO.N,/Vcc*%
X140590000Y-130950000D03*
%TO.P,C9,2*%
%TO.N,GND*%
X138690000Y-130950000D03*
%TD*%
D20*
%TO.P,R2,1*%
%TO.N,/Vcc*%
X131082500Y-148250000D03*
%TO.P,R2,2*%
%TO.N,Net-(U4-SQW{slash}\u002AINTB)*%
X129257500Y-148250000D03*
%TD*%
D15*
%TO.P,Y2,1,1*%
%TO.N,Net-(U4-X2)*%
X139440000Y-139080000D03*
%TO.P,Y2,2,2*%
%TO.N,Net-(U4-X1)*%
X139440000Y-144280000D03*
%TD*%
D19*
%TO.P,R4,1*%
%TO.N,/Vcc*%
X137830000Y-127742500D03*
%TO.P,R4,2*%
%TO.N,/SDA*%
X137830000Y-125917500D03*
%TD*%
D21*
%TO.P,U1,1,A0*%
%TO.N,/Vcc*%
X129436100Y-129445000D03*
%TO.P,U1,2,A1*%
%TO.N,GND*%
X129436100Y-130715000D03*
%TO.P,U1,3,A2*%
%TO.N,/Vcc*%
X129436100Y-131985000D03*
%TO.P,U1,4,GND*%
%TO.N,GND*%
X129436100Y-133255000D03*
%TO.P,U1,5,SDA*%
%TO.N,/SDA*%
X134386100Y-133255000D03*
%TO.P,U1,6,SCL*%
%TO.N,/SCK*%
X134386100Y-131985000D03*
%TO.P,U1,7,WP*%
%TO.N,GND*%
X134386100Y-130715000D03*
%TO.P,U1,8,VCC*%
%TO.N,/Vcc*%
X134386100Y-129445000D03*
%TD*%
D14*
%TO.P,C7,1*%
%TO.N,/Vcc*%
X124060000Y-126270000D03*
%TO.P,C7,2*%
%TO.N,GND*%
X122160000Y-126270000D03*
%TD*%
D18*
%TO.P,R5,1*%
%TO.N,Net-(D1-K)*%
X114237500Y-122220000D03*
%TO.P,R5,2*%
%TO.N,GND*%
X116062500Y-122220000D03*
%TD*%
D22*
%TO.P,U3,1,PD3(PCINT19/OC2B/INT1)*%
%TO.N,/D3*%
X109413900Y-131980001D03*
%TO.P,U3,2,PD4(PCINT20/XCK/T0)*%
%TO.N,/D4*%
X109413900Y-132779999D03*
%TO.P,U3,3,GND*%
%TO.N,GND*%
X109413900Y-133580000D03*
%TO.P,U3,4,VCC*%
%TO.N,/Vcc*%
X109413900Y-134380001D03*
%TO.P,U3,5,GND*%
%TO.N,GND*%
X109413900Y-135179999D03*
%TO.P,U3,6,VCC*%
%TO.N,unconnected-(U3-VCC-Pad6)*%
X109413900Y-135980000D03*
%TO.P,U3,7,PB6(PCINT6/XTAL1/TOSC1)*%
%TO.N,Net-(U3-PB6(PCINT6{slash}XTAL1{slash}TOSC1))*%
X109413900Y-136779999D03*
%TO.P,U3,8,PB7(PCINT7/XTAL2/TOSC2)*%
%TO.N,Net-(U3-PB7(PCINT7{slash}XTAL2{slash}TOSC2))*%
X109413900Y-137579999D03*
D23*
%TO.P,U3,9,PD5(PCINT21/OC0B/T1)*%
%TO.N,/D5*%
X110881101Y-139047200D03*
%TO.P,U3,10,PD6(PCINT22/OC0A/AIN0)*%
%TO.N,/D6*%
X111681099Y-139047200D03*
%TO.P,U3,11,PD7(PCINT23/AIN1)*%
%TO.N,/D7*%
X112481100Y-139047200D03*
%TO.P,U3,12,PB0(PCINT0/CLKO/ICP1)*%
%TO.N,/D8*%
X113281101Y-139047200D03*
%TO.P,U3,13,PB1(PCINT1/OC1A)*%
%TO.N,unconnected-(U3-PB1(PCINT1{slash}OC1A)-Pad13)*%
X114081099Y-139047200D03*
%TO.P,U3,14,PB2(PCINT2/\u002ASS/OC1B)*%
%TO.N,unconnected-(U3-PB2(PCINT2{slash}\u002ASS{slash}OC1B)-Pad14)*%
X114881100Y-139047200D03*
%TO.P,U3,15,PB3(PCINT3/OC2A/MOSI)*%
%TO.N,/MOSI*%
X115681099Y-139047200D03*
%TO.P,U3,16,PB4(PCINT4/MISO)*%
%TO.N,/MISO*%
X116481099Y-139047200D03*
D22*
%TO.P,U3,17,PB5(SCK/PCINT5)*%
%TO.N,/SCK*%
X117948300Y-137579999D03*
%TO.P,U3,18,AVCC*%
%TO.N,/Vcc*%
X117948300Y-136780001D03*
%TO.P,U3,19,ADC6*%
%TO.N,unconnected-(U3-ADC6-Pad19)*%
X117948300Y-135980000D03*
%TO.P,U3,20,AREF*%
%TO.N,Net-(U3-AREF)*%
X117948300Y-135179999D03*
%TO.P,U3,21,GND*%
%TO.N,GND*%
X117948300Y-134380001D03*
%TO.P,U3,22,ADC7*%
%TO.N,unconnected-(U3-ADC7-Pad22)*%
X117948300Y-133580000D03*
%TO.P,U3,23,PC0(ADC0/PCINT8)*%
%TO.N,unconnected-(U3-PC0(ADC0{slash}PCINT8)-Pad23)*%
X117948300Y-132780001D03*
%TO.P,U3,24,PC1(ADC1/PCINT9)*%
%TO.N,unconnected-(U3-PC1(ADC1{slash}PCINT9)-Pad24)*%
X117948300Y-131980001D03*
D23*
%TO.P,U3,25,PC2(ADC2/PCINT10)*%
%TO.N,unconnected-(U3-PC2(ADC2{slash}PCINT10)-Pad25)*%
X116481099Y-130512800D03*
%TO.P,U3,26,PC3(ADC3/PCINT11)*%
%TO.N,unconnected-(U3-PC3(ADC3{slash}PCINT11)-Pad26)*%
X115681101Y-130512800D03*
%TO.P,U3,27,PC4(ADC4/SDA/PCINT12)*%
%TO.N,/SDA*%
X114881100Y-130512800D03*
%TO.P,U3,28,PC5(ADC5/SCL/PCINT13)*%
%TO.N,/SCK*%
X114081099Y-130512800D03*
%TO.P,U3,29,PC6(\u002ARESET/PCINT14)*%
%TO.N,/RESET*%
X113281101Y-130512800D03*
%TO.P,U3,30,PD0(RXD/PCINT16)*%
%TO.N,/RX*%
X112481100Y-130512800D03*
%TO.P,U3,31,PD1(TXD/PCINT17)*%
%TO.N,/TX*%
X111681101Y-130512800D03*
%TO.P,U3,32,PD2(INT0/PCINT18)*%
%TO.N,/D2*%
X110881101Y-130512800D03*
%TD*%
D16*
%TO.P,J4,1,Pin_1*%
%TO.N,/MISO*%
X83630000Y-131180000D03*
D17*
%TO.P,J4,2,Pin_2*%
%TO.N,/Vcc*%
X86170000Y-131180000D03*
%TO.P,J4,3,Pin_3*%
%TO.N,/SCK*%
X83630000Y-133720000D03*
%TO.P,J4,4,Pin_4*%
%TO.N,/MOSI*%
X86170000Y-133720000D03*
%TO.P,J4,5,Pin_5*%
%TO.N,/RESET*%
X83630000Y-136260000D03*
%TO.P,J4,6,Pin_6*%
%TO.N,GND*%
X86170000Y-136260000D03*
%TD*%
D19*
%TO.P,R3,1*%
%TO.N,/Vcc*%
X140390000Y-127732500D03*
%TO.P,R3,2*%
%TO.N,/SCK*%
X140390000Y-125907500D03*
%TD*%
D21*
%TO.P,U2,1,A0*%
%TO.N,/Vcc*%
X129436100Y-121175000D03*
%TO.P,U2,2,A1*%
X129436100Y-122445000D03*
%TO.P,U2,3,A2*%
X129436100Y-123715000D03*
%TO.P,U2,4,GND*%
%TO.N,GND*%
X129436100Y-124985000D03*
%TO.P,U2,5,SDA*%
%TO.N,/SDA*%
X134386100Y-124985000D03*
%TO.P,U2,6,SCL*%
%TO.N,/SCK*%
X134386100Y-123715000D03*
%TO.P,U2,7,WP*%
%TO.N,GND*%
X134386100Y-122445000D03*
%TO.P,U2,8,VCC*%
%TO.N,/Vcc*%
X134386100Y-121175000D03*
%TD*%
D24*
%TO.N,/Vcc*%
X117250000Y-149740000D03*
X106500000Y-134500000D03*
X123500000Y-141000000D03*
X115750000Y-136500000D03*
X131000000Y-141000000D03*
X132000000Y-134000000D03*
X139000000Y-133000000D03*
X135750000Y-126500000D03*
X128750000Y-127250000D03*
X126250000Y-125750000D03*
D25*
%TO.N,GND*%
X107750000Y-140000000D03*
X106500000Y-140000000D03*
X105250000Y-140000000D03*
X118250000Y-140250000D03*
X118250000Y-139250000D03*
X99750000Y-128000000D03*
X98750000Y-128000000D03*
X97750000Y-128000000D03*
X82500000Y-143250000D03*
X82500000Y-142000000D03*
X82500000Y-141000000D03*
X137250000Y-149000000D03*
X136000000Y-149000000D03*
X135000000Y-149000000D03*
X125250000Y-129750000D03*
X124000000Y-129750000D03*
X122750000Y-129750000D03*
X125000000Y-118500000D03*
X123250000Y-118500000D03*
X121750000Y-118500000D03*
X116500000Y-119500000D03*
X110750000Y-121750000D03*
X110750000Y-120750000D03*
X110750000Y-119750000D03*
X105000000Y-124500000D03*
X104000000Y-124500000D03*
X103000000Y-124500000D03*
X93000000Y-127000000D03*
X92250000Y-127750000D03*
X91500000Y-128500000D03*
X93500000Y-124500000D03*
X92500000Y-124500000D03*
X91500000Y-124500000D03*
X88750000Y-141000000D03*
X88750000Y-139750000D03*
X88750000Y-138500000D03*
X92750000Y-139000000D03*
X92750000Y-137750000D03*
X92750000Y-136500000D03*
X113000000Y-144750000D03*
X112500000Y-143750000D03*
X112500000Y-142750000D03*
D24*
X111250000Y-133500000D03*
X115500000Y-133750000D03*
D25*
X128250000Y-136750000D03*
X127500000Y-136000000D03*
X126750000Y-135250000D03*
X126000000Y-140000000D03*
X125000000Y-139250000D03*
X124000000Y-138750000D03*
X135000000Y-136750000D03*
X135750000Y-136000000D03*
D24*
X136500000Y-135250000D03*
X130750000Y-127250000D03*
D25*
X135750000Y-128000000D03*
X134750000Y-128000000D03*
X133750000Y-128000000D03*
%TO.N,/RESET*%
X106040000Y-126290000D03*
%TD*%
D26*
%TO.N,GND*%
X132911100Y-128838900D02*
X133750000Y-128000000D01*
X132911100Y-130214999D02*
X132911100Y-128838900D01*
X133411101Y-130715000D02*
X132911100Y-130214999D01*
X134386100Y-130715000D02*
X133411101Y-130715000D01*
X116062500Y-119937500D02*
X116500000Y-119500000D01*
X116062500Y-122220000D02*
X116062500Y-119937500D01*
%TO.N,/Vcc*%
X117250000Y-149740000D02*
X117917500Y-149072500D01*
X117917500Y-149072500D02*
X117917500Y-145340000D01*
X106619999Y-134380001D02*
X106500000Y-134500000D01*
X109413900Y-134380001D02*
X106619999Y-134380001D01*
X123500000Y-141000000D02*
X122140000Y-141000000D01*
X122140000Y-141000000D02*
X121580000Y-140440000D01*
X116030001Y-136780001D02*
X115750000Y-136500000D01*
X117948300Y-136780001D02*
X116030001Y-136780001D01*
D27*
%TO.N,/SCK*%
X115131549Y-137579999D02*
X117948300Y-137579999D01*
X114081099Y-136529549D02*
X115131549Y-137579999D01*
X114081099Y-130512800D02*
X114081099Y-136529549D01*
D26*
%TO.N,/Vcc*%
X131000000Y-141000000D02*
X131000000Y-141727401D01*
X131000000Y-141727401D02*
X129572401Y-143155000D01*
X129572401Y-143155000D02*
X128848652Y-143155000D01*
X130911100Y-132911100D02*
X132000000Y-134000000D01*
X130911100Y-131348900D02*
X130911100Y-132911100D01*
X139000000Y-133000000D02*
X139000000Y-132540000D01*
X139000000Y-132540000D02*
X140590000Y-130950000D01*
X136992500Y-127742500D02*
X135750000Y-126500000D01*
X137830000Y-127742500D02*
X136992500Y-127742500D01*
D27*
%TO.N,/SDA*%
X133555000Y-133255000D02*
X134386100Y-133255000D01*
X131730000Y-131430000D02*
X133555000Y-133255000D01*
X131730000Y-126270000D02*
X131730000Y-131430000D01*
X133621100Y-125750000D02*
X132250000Y-125750000D01*
X132250000Y-125750000D02*
X131730000Y-126270000D01*
X134386100Y-124985000D02*
X133621100Y-125750000D01*
X137830000Y-125917500D02*
X137662500Y-125750000D01*
D26*
%TO.N,/Vcc*%
X128750000Y-128758900D02*
X129436100Y-129445000D01*
X128750000Y-127250000D02*
X128750000Y-128758900D01*
X124190000Y-123690000D02*
X126250000Y-125750000D01*
X124060000Y-123690000D02*
X124190000Y-123690000D01*
%TO.N,GND*%
X111250000Y-134555099D02*
X111250000Y-133500000D01*
X110625100Y-135179999D02*
X111250000Y-134555099D01*
X109413900Y-135179999D02*
X110625100Y-135179999D01*
X111170000Y-133580000D02*
X111250000Y-133500000D01*
X109413900Y-133580000D02*
X111170000Y-133580000D01*
X116130001Y-134380001D02*
X115500000Y-133750000D01*
X117948300Y-134380001D02*
X116130001Y-134380001D01*
X94750000Y-132250000D02*
X94750000Y-138410000D01*
D27*
%TO.N,/RESET*%
X108377500Y-123952500D02*
X108571100Y-123952500D01*
X106040000Y-126290000D02*
X108377500Y-123952500D01*
D26*
%TO.N,/Vcc*%
X107183600Y-120740000D02*
X108571100Y-122127500D01*
X102940000Y-120740000D02*
X107183600Y-120740000D01*
%TO.N,GND*%
X98470000Y-118810000D02*
X100400000Y-120740000D01*
X93160000Y-118810000D02*
X98470000Y-118810000D01*
X91230000Y-120740000D02*
X93160000Y-118810000D01*
%TO.N,/Vcc*%
X88690000Y-128660000D02*
X88690000Y-120740000D01*
X86170000Y-131180000D02*
X88690000Y-128660000D01*
%TO.N,GND*%
X83630000Y-138800000D02*
X86170000Y-136260000D01*
X83630000Y-147110000D02*
X83630000Y-138800000D01*
%TO.N,/Vcc*%
X108165000Y-147040000D02*
X104020000Y-147040000D01*
X104020000Y-147040000D02*
X103950000Y-147110000D01*
%TO.N,GND*%
X117852500Y-142267500D02*
X117852500Y-142790000D01*
X121580000Y-138540000D02*
X117852500Y-142267500D01*
%TO.N,/Vcc*%
X120827500Y-142430000D02*
X121580000Y-142430000D01*
X117917500Y-145340000D02*
X120827500Y-142430000D01*
X121580000Y-142430000D02*
X121580000Y-140440000D01*
X128600000Y-149450000D02*
X121580000Y-142430000D01*
X129882500Y-149450000D02*
X128600000Y-149450000D01*
X131082500Y-148250000D02*
X129882500Y-149450000D01*
X129257500Y-146425000D02*
X131082500Y-148250000D01*
X129257500Y-145300000D02*
X129257500Y-146425000D01*
X128848652Y-144891152D02*
X129257500Y-145300000D01*
X128848652Y-143155000D02*
X128848652Y-144891152D01*
D27*
%TO.N,Net-(U4-SQW{slash}\u002AINTB)*%
X127160000Y-142640000D02*
X127160000Y-146152500D01*
X127160000Y-146152500D02*
X129257500Y-148250000D01*
X127915000Y-141885000D02*
X127160000Y-142640000D01*
X128848652Y-141885000D02*
X127915000Y-141885000D01*
D26*
%TO.N,GND*%
X137740000Y-131900000D02*
X137740000Y-135896348D01*
X137740000Y-135896348D02*
X134291348Y-139345000D01*
X138690000Y-130950000D02*
X137740000Y-131900000D01*
X138465001Y-122744999D02*
X139960000Y-121250000D01*
X134686099Y-122744999D02*
X138465001Y-122744999D01*
X134386100Y-122445000D02*
X134686099Y-122744999D01*
%TO.N,/Vcc*%
X134461100Y-121250000D02*
X134386100Y-121175000D01*
X138060000Y-121250000D02*
X134461100Y-121250000D01*
X140390000Y-130750000D02*
X140590000Y-130950000D01*
X140390000Y-127732500D02*
X140390000Y-130750000D01*
%TO.N,GND*%
X125756100Y-133255000D02*
X126926100Y-132085000D01*
X126926100Y-132085000D02*
X126926100Y-128833394D01*
X125756100Y-133255000D02*
X124291100Y-134720000D01*
X129436100Y-133255000D02*
X125756100Y-133255000D01*
X128807706Y-130715000D02*
X129436100Y-130715000D01*
X126926100Y-128833394D02*
X128807706Y-130715000D01*
X126926100Y-127495000D02*
X126926100Y-128833394D01*
%TO.N,/Vcc*%
X130275000Y-131985000D02*
X129436100Y-131985000D01*
X130911100Y-129945001D02*
X130911100Y-131348900D01*
X130911100Y-131348900D02*
X130275000Y-131985000D01*
X130411099Y-129445000D02*
X130911100Y-129945001D01*
X129436100Y-129445000D02*
X130411099Y-129445000D01*
D27*
%TO.N,/SCK*%
X139120000Y-128130000D02*
X135265000Y-131985000D01*
X139120000Y-127328478D02*
X139120000Y-128130000D01*
X140390000Y-126058478D02*
X139120000Y-127328478D01*
X140390000Y-125907500D02*
X140390000Y-126058478D01*
X135265000Y-131985000D02*
X134386100Y-131985000D01*
D26*
%TO.N,/Vcc*%
X136127500Y-129445000D02*
X137830000Y-127742500D01*
X134386100Y-129445000D02*
X136127500Y-129445000D01*
%TO.N,GND*%
X123385000Y-127495000D02*
X122160000Y-126270000D01*
X126926100Y-127495000D02*
X123385000Y-127495000D01*
X129436100Y-124985000D02*
X126926100Y-127495000D01*
X130064494Y-124985000D02*
X129436100Y-124985000D01*
X132604494Y-122445000D02*
X130064494Y-124985000D01*
X134386100Y-122445000D02*
X132604494Y-122445000D01*
%TO.N,/Vcc*%
X129436100Y-121175000D02*
X134386100Y-121175000D01*
X129436100Y-122445000D02*
X129436100Y-121175000D01*
X129436100Y-123715000D02*
X129436100Y-122445000D01*
X129411100Y-123690000D02*
X129436100Y-123715000D01*
X124060000Y-123690000D02*
X129411100Y-123690000D01*
X124060000Y-123690000D02*
X124060000Y-126270000D01*
X124060000Y-121210000D02*
X124060000Y-123690000D01*
%TO.N,GND*%
X122160000Y-123690000D02*
X122160000Y-121210000D01*
X122160000Y-126270000D02*
X122160000Y-123690000D01*
D27*
%TO.N,/SCK*%
X81320000Y-133070000D02*
X81970000Y-133720000D01*
X81320000Y-123030000D02*
X81320000Y-133070000D01*
X83610000Y-120740000D02*
X81320000Y-123030000D01*
X81970000Y-133720000D02*
X83630000Y-133720000D01*
%TO.N,/MISO*%
X84950000Y-132500000D02*
X83630000Y-131180000D01*
X84950000Y-133207588D02*
X84950000Y-132500000D01*
X84945000Y-133212588D02*
X84950000Y-133207588D01*
X84945000Y-134227412D02*
X84945000Y-133212588D01*
X84950000Y-134232412D02*
X84945000Y-134227412D01*
X84950000Y-134760000D02*
X84950000Y-134232412D01*
X84765000Y-134945000D02*
X84950000Y-134760000D01*
X81735000Y-134945000D02*
X84765000Y-134945000D01*
X80945000Y-135735000D02*
X81735000Y-134945000D01*
X116915000Y-148685000D02*
X115485000Y-150115000D01*
X116915000Y-142074190D02*
X116915000Y-148685000D01*
X116555810Y-141715000D02*
X116915000Y-142074190D01*
X83495000Y-150115000D02*
X80945000Y-147565000D01*
X115485000Y-150115000D02*
X83495000Y-150115000D01*
X116481099Y-141715000D02*
X116555810Y-141715000D01*
X80945000Y-147565000D02*
X80945000Y-135735000D01*
X116481099Y-139047200D02*
X116481099Y-141715000D01*
%TO.N,/MOSI*%
X87445000Y-134995000D02*
X86170000Y-133720000D01*
X87445000Y-136805000D02*
X87445000Y-134995000D01*
X84945000Y-139305000D02*
X87445000Y-136805000D01*
X86705000Y-149565000D02*
X84945000Y-147805000D01*
X84945000Y-147805000D02*
X84945000Y-139305000D01*
X115257182Y-149565000D02*
X86705000Y-149565000D01*
X116365000Y-148457182D02*
X115257182Y-149565000D01*
X116365000Y-147244298D02*
X116365000Y-148457182D01*
X115140000Y-142074190D02*
X115140000Y-146019298D01*
X115681099Y-139047200D02*
X115681099Y-141533091D01*
X115681099Y-141533091D02*
X115140000Y-142074190D01*
X115140000Y-146019298D02*
X116365000Y-147244298D01*
%TO.N,/SCK*%
X115125000Y-123807500D02*
X116127500Y-124810000D01*
X115125000Y-119265000D02*
X115125000Y-123807500D01*
X113995000Y-118135000D02*
X115125000Y-119265000D01*
X87415000Y-121268123D02*
X87415000Y-120211877D01*
X86343123Y-122340000D02*
X87415000Y-121268123D01*
X87415000Y-120211877D02*
X89491877Y-118135000D01*
X85210000Y-122340000D02*
X86343123Y-122340000D01*
X89491877Y-118135000D02*
X113995000Y-118135000D01*
X83610000Y-120740000D02*
X85210000Y-122340000D01*
%TO.N,/SDA*%
X117930000Y-119160000D02*
X117930000Y-128630000D01*
X116355000Y-117585000D02*
X117930000Y-119160000D01*
X86150000Y-120699059D02*
X89264059Y-117585000D01*
X86150000Y-120740000D02*
X86150000Y-120699059D01*
X89264059Y-117585000D02*
X116355000Y-117585000D01*
%TO.N,/SCK*%
X128387503Y-140615000D02*
X128848652Y-140615000D01*
X124942503Y-137170000D02*
X128387503Y-140615000D01*
X119373501Y-137170000D02*
X124942503Y-137170000D01*
X118963502Y-137579999D02*
X119373501Y-137170000D01*
X117948300Y-137579999D02*
X118963502Y-137579999D01*
%TO.N,/inta*%
X131082500Y-143350099D02*
X133817599Y-140615000D01*
X131082500Y-145300000D02*
X131082500Y-143350099D01*
X133817599Y-140615000D02*
X134291348Y-140615000D01*
%TO.N,Net-(U4-X1)*%
X138315000Y-143155000D02*
X139440000Y-144280000D01*
X134291348Y-143155000D02*
X138315000Y-143155000D01*
%TO.N,Net-(U4-X2)*%
X136635000Y-141885000D02*
X139440000Y-139080000D01*
X134291348Y-141885000D02*
X136635000Y-141885000D01*
%TO.N,/SDA*%
X136897500Y-124985000D02*
X134386100Y-124985000D01*
X137830000Y-125917500D02*
X136897500Y-124985000D01*
%TO.N,/SCK*%
X140390000Y-125907500D02*
X138197500Y-123715000D01*
X138197500Y-123715000D02*
X134386100Y-123715000D01*
%TO.N,/SDA*%
X129801983Y-139345000D02*
X128848652Y-139345000D01*
X134386100Y-134760883D02*
X129801983Y-139345000D01*
X134386100Y-133255000D02*
X134386100Y-134760883D01*
X117930000Y-128630000D02*
X115702700Y-128630000D01*
X123266100Y-135381522D02*
X123266100Y-133966100D01*
X123266100Y-133966100D02*
X117930000Y-128630000D01*
X123824578Y-135940000D02*
X123266100Y-135381522D01*
X125443652Y-135940000D02*
X123824578Y-135940000D01*
X128848652Y-139345000D02*
X125443652Y-135940000D01*
X115702700Y-128630000D02*
X114881100Y-129451600D01*
X114881100Y-129451600D02*
X114881100Y-130512800D01*
%TO.N,/SCK*%
X135736100Y-132456100D02*
X135265000Y-131985000D01*
X135736100Y-134188701D02*
X135736100Y-132456100D01*
X129309801Y-140615000D02*
X135736100Y-134188701D01*
X128848652Y-140615000D02*
X129309801Y-140615000D01*
%TO.N,Net-(D2-K)*%
X116027500Y-145325000D02*
X116042500Y-145340000D01*
X116027500Y-142790000D02*
X116027500Y-145325000D01*
%TO.N,Net-(U3-AREF)*%
X121931101Y-135179999D02*
X117948300Y-135179999D01*
X122391100Y-134720000D02*
X121931101Y-135179999D01*
%TO.N,/RX*%
X97860000Y-121852182D02*
X97860000Y-120740000D01*
X104197818Y-128190000D02*
X97860000Y-121852182D01*
X111051318Y-128190000D02*
X104197818Y-128190000D01*
X112481100Y-129619782D02*
X111051318Y-128190000D01*
X112481100Y-130512800D02*
X112481100Y-129619782D01*
%TO.N,/TX*%
X111681101Y-129597600D02*
X111681101Y-130512800D01*
X103970000Y-128740000D02*
X110823501Y-128740000D01*
X95320000Y-120740000D02*
X95970000Y-120740000D01*
X95970000Y-120740000D02*
X103970000Y-128740000D01*
X110823501Y-128740000D02*
X111681101Y-129597600D01*
%TO.N,/D4*%
X91250000Y-133685636D02*
X91250000Y-147110000D01*
X94545636Y-130390000D02*
X91250000Y-133685636D01*
X108327700Y-131693799D02*
X107023901Y-130390000D01*
X108327700Y-132609001D02*
X108327700Y-131693799D01*
X107023901Y-130390000D02*
X94545636Y-130390000D01*
X109413900Y-132779999D02*
X108498698Y-132779999D01*
X108498698Y-132779999D02*
X108327700Y-132609001D01*
%TO.N,/D3*%
X90700000Y-133457818D02*
X90700000Y-145120000D01*
X94317818Y-129840000D02*
X90700000Y-133457818D01*
X107273899Y-129840000D02*
X94317818Y-129840000D01*
X90700000Y-145120000D02*
X88710000Y-147110000D01*
X109413900Y-131980001D02*
X107273899Y-129840000D01*
%TO.N,/D2*%
X90150000Y-133230000D02*
X90150000Y-143130000D01*
X94090000Y-129290000D02*
X90150000Y-133230000D01*
X107501717Y-129290000D02*
X94090000Y-129290000D01*
X90150000Y-143130000D02*
X86170000Y-147110000D01*
X110042900Y-131351001D02*
X109562718Y-131351001D01*
X110881101Y-130512800D02*
X110042900Y-131351001D01*
X109562718Y-131351001D02*
X107501717Y-129290000D01*
%TO.N,/RESET*%
X112310000Y-127710000D02*
X112310000Y-127691400D01*
X113281101Y-128681101D02*
X112310000Y-127710000D01*
X112310000Y-127691400D02*
X108571100Y-123952500D01*
X113281101Y-130512800D02*
X113281101Y-128681101D01*
%TO.N,Net-(D1-K)*%
X114252500Y-122235000D02*
X114237500Y-122220000D01*
X114252500Y-124810000D02*
X114252500Y-122235000D01*
%TO.N,/SCK*%
X114081099Y-126856401D02*
X114081099Y-130512800D01*
X116127500Y-124810000D02*
X114081099Y-126856401D01*
%TO.N,Net-(U3-PB7(PCINT7{slash}XTAL2{slash}TOSC2))*%
X100500000Y-138410000D02*
X100730000Y-138180000D01*
X96650000Y-138410000D02*
X100500000Y-138410000D01*
%TO.N,Net-(U3-PB6(PCINT6{slash}XTAL1{slash}TOSC1))*%
X97380000Y-132980000D02*
X100730000Y-132980000D01*
X96650000Y-132250000D02*
X97380000Y-132980000D01*
X104529999Y-136779999D02*
X109413900Y-136779999D01*
X100730000Y-132980000D02*
X104529999Y-136779999D01*
%TO.N,Net-(U3-PB7(PCINT7{slash}XTAL2{slash}TOSC2))*%
X108813899Y-138180000D02*
X109413900Y-137579999D01*
X100730000Y-138180000D02*
X108813899Y-138180000D01*
%TO.N,/D7*%
X98870000Y-146722182D02*
X98870000Y-147110000D01*
X102572182Y-143020000D02*
X98870000Y-146722182D01*
X109569500Y-143020000D02*
X102572182Y-143020000D01*
X112481100Y-140108400D02*
X109569500Y-143020000D01*
X112481100Y-139047200D02*
X112481100Y-140108400D01*
%TO.N,/D8*%
X102800000Y-143570000D02*
X101410000Y-144960000D01*
X113281101Y-140086217D02*
X109797318Y-143570000D01*
X109797318Y-143570000D02*
X102800000Y-143570000D01*
X113281101Y-139047200D02*
X113281101Y-140086217D01*
X101410000Y-144960000D02*
X101410000Y-147110000D01*
%TO.N,/D6*%
X96330000Y-145607818D02*
X96330000Y-147110000D01*
X99467818Y-142470000D02*
X96330000Y-145607818D01*
X111681099Y-140108400D02*
X109319499Y-142470000D01*
X109319499Y-142470000D02*
X99467818Y-142470000D01*
X111681099Y-139047200D02*
X111681099Y-140108400D01*
%TO.N,/D5*%
X99240000Y-141920000D02*
X94050000Y-147110000D01*
X109091681Y-141920000D02*
X99240000Y-141920000D01*
X110881101Y-140130580D02*
X109091681Y-141920000D01*
X94050000Y-147110000D02*
X93790000Y-147110000D01*
X110881101Y-139047200D02*
X110881101Y-140130580D01*
%TD*%
%TA.AperFunction,Conductor*%
%TO.N,GND*%
G36*
X139558834Y-128748980D02*
G01*
X139614767Y-128790852D01*
X139639184Y-128856316D01*
X139639500Y-128865162D01*
X139639500Y-129814477D01*
X139619815Y-129881516D01*
X139567011Y-129927271D01*
X139497853Y-129937215D01*
X139434297Y-129908190D01*
X139427819Y-129902158D01*
X139408345Y-129882684D01*
X139259124Y-129790643D01*
X139259119Y-129790641D01*
X139092697Y-129735494D01*
X139092690Y-129735493D01*
X138989986Y-129725000D01*
X138940000Y-129725000D01*
X138940000Y-130826000D01*
X138920315Y-130893039D01*
X138867511Y-130938794D01*
X138816000Y-130950000D01*
X138690000Y-130950000D01*
X138690000Y-131076000D01*
X138670315Y-131143039D01*
X138617511Y-131188794D01*
X138566000Y-131200000D01*
X137690001Y-131200000D01*
X137690001Y-131474986D01*
X137700494Y-131577697D01*
X137755641Y-131744119D01*
X137755643Y-131744124D01*
X137847684Y-131893345D01*
X137971654Y-132017315D01*
X138120875Y-132109356D01*
X138120878Y-132109357D01*
X138146881Y-132117974D01*
X138204325Y-132157747D01*
X138231148Y-132222263D01*
X138218833Y-132291039D01*
X138203730Y-132314344D01*
X138124436Y-132410965D01*
X138122315Y-132413550D01*
X138102832Y-132450000D01*
X138024769Y-132596043D01*
X137964699Y-132794067D01*
X137944417Y-133000000D01*
X137964699Y-133205932D01*
X137986600Y-133278129D01*
X138021004Y-133391547D01*
X138024769Y-133403956D01*
X138027899Y-133409812D01*
X138122315Y-133586450D01*
X138151750Y-133622317D01*
X138253589Y-133746410D01*
X138327255Y-133806865D01*
X138413550Y-133877685D01*
X138596046Y-133975232D01*
X138794066Y-134035300D01*
X138794065Y-134035300D01*
X138804879Y-134036365D01*
X139000000Y-134055583D01*
X139205934Y-134035300D01*
X139403954Y-133975232D01*
X139586450Y-133877685D01*
X139746410Y-133746410D01*
X139877685Y-133586450D01*
X139975232Y-133403954D01*
X140035300Y-133205934D01*
X140055583Y-133000000D01*
X140035300Y-132794066D01*
X140003808Y-132690252D01*
X140003186Y-132620386D01*
X140034787Y-132566579D01*
X140389548Y-132211817D01*
X140450871Y-132178333D01*
X140477229Y-132175499D01*
X140890002Y-132175499D01*
X140890008Y-132175499D01*
X140992797Y-132164999D01*
X141159334Y-132109814D01*
X141308656Y-132017712D01*
X141417819Y-131908549D01*
X141479142Y-131875064D01*
X141548834Y-131880048D01*
X141604767Y-131921920D01*
X141629184Y-131987384D01*
X141629500Y-131996230D01*
X141629500Y-148214108D01*
X141629500Y-148345892D01*
X141639735Y-148384091D01*
X141663608Y-148473187D01*
X141673664Y-148490604D01*
X141729500Y-148587314D01*
X141822686Y-148680500D01*
X141936814Y-148746392D01*
X142064108Y-148780500D01*
X142125707Y-148780500D01*
X142134293Y-148780798D01*
X142399045Y-148799174D01*
X142416032Y-148801543D01*
X142671513Y-148855436D01*
X142688015Y-148860131D01*
X142933587Y-148948800D01*
X142949286Y-148955732D01*
X143180257Y-149077478D01*
X143194846Y-149086512D01*
X143278107Y-149146418D01*
X143406775Y-149238995D01*
X143419987Y-149249966D01*
X143606433Y-149427993D01*
X143608811Y-149430263D01*
X143620380Y-149442954D01*
X143782492Y-149647618D01*
X143792195Y-149661783D01*
X143924473Y-149886874D01*
X143932123Y-149902237D01*
X144032036Y-150143450D01*
X144037493Y-150159732D01*
X144103119Y-150412420D01*
X144106275Y-150429299D01*
X144136364Y-150688644D01*
X144137157Y-150705799D01*
X144131126Y-150966812D01*
X144129541Y-150983911D01*
X144087510Y-151241575D01*
X144083579Y-151258292D01*
X144006347Y-151507696D01*
X144000143Y-151523709D01*
X143889201Y-151760040D01*
X143880845Y-151775042D01*
X143738314Y-151993783D01*
X143727965Y-152007487D01*
X143556581Y-152204438D01*
X143544438Y-152216581D01*
X143347487Y-152387965D01*
X143333783Y-152398314D01*
X143115042Y-152540845D01*
X143100040Y-152549201D01*
X142863709Y-152660143D01*
X142847696Y-152666347D01*
X142598292Y-152743579D01*
X142581575Y-152747510D01*
X142323911Y-152789541D01*
X142306812Y-152791126D01*
X142045799Y-152797157D01*
X142028644Y-152796364D01*
X141769299Y-152766275D01*
X141752420Y-152763119D01*
X141499732Y-152697493D01*
X141483450Y-152692036D01*
X141242237Y-152592123D01*
X141226874Y-152584473D01*
X141001783Y-152452195D01*
X140987618Y-152442492D01*
X140782954Y-152280380D01*
X140770263Y-152268811D01*
X140589966Y-152079987D01*
X140578995Y-152066775D01*
X140532004Y-152001464D01*
X140426512Y-151854846D01*
X140417478Y-151840257D01*
X140295732Y-151609286D01*
X140288798Y-151593582D01*
X140263569Y-151523709D01*
X140200131Y-151348015D01*
X140195436Y-151331513D01*
X140141543Y-151076032D01*
X140139174Y-151059045D01*
X140120798Y-150794293D01*
X140120500Y-150785707D01*
X140120500Y-150724110D01*
X140120500Y-150724108D01*
X140110731Y-150687648D01*
X140829500Y-150687648D01*
X140829500Y-150892351D01*
X140861522Y-151094534D01*
X140924781Y-151289223D01*
X141017715Y-151471613D01*
X141138028Y-151637213D01*
X141282786Y-151781971D01*
X141383099Y-151854851D01*
X141448390Y-151902287D01*
X141530029Y-151943884D01*
X141630776Y-151995218D01*
X141630778Y-151995218D01*
X141630781Y-151995220D01*
X141735137Y-152029127D01*
X141825465Y-152058477D01*
X141920935Y-152073598D01*
X142027648Y-152090500D01*
X142027649Y-152090500D01*
X142232351Y-152090500D01*
X142232352Y-152090500D01*
X142434534Y-152058477D01*
X142629219Y-151995220D01*
X142811610Y-151902287D01*
X142904590Y-151834732D01*
X142977213Y-151781971D01*
X142977215Y-151781968D01*
X142977219Y-151781966D01*
X143121966Y-151637219D01*
X143121968Y-151637215D01*
X143121971Y-151637213D01*
X143207060Y-151520096D01*
X143242287Y-151471610D01*
X143335220Y-151289219D01*
X143398477Y-151094534D01*
X143430500Y-150892352D01*
X143430500Y-150687648D01*
X143398477Y-150485466D01*
X143380825Y-150431140D01*
X143335218Y-150290776D01*
X143281492Y-150185335D01*
X143242287Y-150108390D01*
X143208872Y-150062398D01*
X143121971Y-149942786D01*
X142977213Y-149798028D01*
X142811613Y-149677715D01*
X142811612Y-149677714D01*
X142811610Y-149677713D01*
X142737494Y-149639949D01*
X142629223Y-149584781D01*
X142434534Y-149521522D01*
X142259995Y-149493878D01*
X142232352Y-149489500D01*
X142027648Y-149489500D01*
X142003329Y-149493351D01*
X141825465Y-149521522D01*
X141630776Y-149584781D01*
X141448386Y-149677715D01*
X141282786Y-149798028D01*
X141138028Y-149942786D01*
X141017715Y-150108386D01*
X140924781Y-150290776D01*
X140861522Y-150485465D01*
X140829500Y-150687648D01*
X140110731Y-150687648D01*
X140086392Y-150596814D01*
X140020500Y-150482686D01*
X139927314Y-150389500D01*
X139844410Y-150341635D01*
X139813187Y-150323608D01*
X139749539Y-150306554D01*
X139685892Y-150289500D01*
X139685891Y-150289500D01*
X130385737Y-150289500D01*
X130318698Y-150269815D01*
X130272943Y-150217011D01*
X130262999Y-150147853D01*
X130292024Y-150084297D01*
X130316847Y-150062397D01*
X130324483Y-150057294D01*
X130360916Y-150032952D01*
X130907048Y-149486817D01*
X130968371Y-149453333D01*
X130994729Y-149450499D01*
X131395002Y-149450499D01*
X131395008Y-149450499D01*
X131402889Y-149449694D01*
X131468869Y-149442954D01*
X131497797Y-149439999D01*
X131664334Y-149384814D01*
X131813656Y-149292712D01*
X131937712Y-149168656D01*
X132029814Y-149019334D01*
X132084999Y-148852797D01*
X132095500Y-148750009D01*
X132095499Y-147749992D01*
X132094991Y-147745023D01*
X132084999Y-147647203D01*
X132084998Y-147647200D01*
X132063403Y-147582032D01*
X132029814Y-147480666D01*
X131937712Y-147331344D01*
X131813656Y-147207288D01*
X131664334Y-147115186D01*
X131497797Y-147060001D01*
X131497795Y-147060000D01*
X131395016Y-147049500D01*
X131395009Y-147049500D01*
X130994730Y-147049500D01*
X130927691Y-147029815D01*
X130907049Y-147013181D01*
X130598090Y-146704222D01*
X130564605Y-146642899D01*
X130569589Y-146573207D01*
X130611461Y-146517274D01*
X130676925Y-146492857D01*
X130698368Y-146493182D01*
X130769991Y-146500500D01*
X131395008Y-146500499D01*
X131395016Y-146500498D01*
X131395019Y-146500498D01*
X131466627Y-146493183D01*
X131497797Y-146489999D01*
X131664334Y-146434814D01*
X131813656Y-146342712D01*
X131937712Y-146218656D01*
X132029814Y-146069334D01*
X132084999Y-145902797D01*
X132095500Y-145800009D01*
X132095499Y-144799992D01*
X132094359Y-144788836D01*
X132084999Y-144697203D01*
X132084998Y-144697200D01*
X132029814Y-144530666D01*
X131937712Y-144381344D01*
X131813656Y-144257288D01*
X131807989Y-144252807D01*
X131809430Y-144250984D01*
X131770175Y-144207335D01*
X131758000Y-144153752D01*
X131758000Y-143681261D01*
X131777685Y-143614222D01*
X131794314Y-143593585D01*
X132965043Y-142422855D01*
X133026364Y-142389372D01*
X133096056Y-142394356D01*
X133151989Y-142436228D01*
X133151990Y-142436229D01*
X133159073Y-142445691D01*
X133183489Y-142511155D01*
X133168637Y-142579428D01*
X133159072Y-142594310D01*
X133120104Y-142646364D01*
X133120100Y-142646371D01*
X133073873Y-142770315D01*
X133069807Y-142781217D01*
X133063398Y-142840827D01*
X133063398Y-142840834D01*
X133063398Y-142840835D01*
X133063398Y-143469170D01*
X133063399Y-143469176D01*
X133069806Y-143528783D01*
X133120100Y-143663628D01*
X133120104Y-143663635D01*
X133206350Y-143778844D01*
X133206352Y-143778846D01*
X133321562Y-143865093D01*
X133321569Y-143865097D01*
X133456415Y-143915391D01*
X133456414Y-143915391D01*
X133463342Y-143916135D01*
X133516025Y-143921800D01*
X135066670Y-143921799D01*
X135126281Y-143915391D01*
X135261129Y-143865096D01*
X135261217Y-143865029D01*
X135274304Y-143855234D01*
X135339768Y-143830816D01*
X135348615Y-143830500D01*
X137615500Y-143830500D01*
X137682539Y-143850185D01*
X137728294Y-143902989D01*
X137739500Y-143954500D01*
X137739500Y-146077870D01*
X137739501Y-146077876D01*
X137745908Y-146137483D01*
X137796202Y-146272328D01*
X137796206Y-146272335D01*
X137882452Y-146387544D01*
X137882455Y-146387547D01*
X137997664Y-146473793D01*
X137997671Y-146473797D01*
X138132517Y-146524091D01*
X138132516Y-146524091D01*
X138139444Y-146524835D01*
X138192127Y-146530500D01*
X140687872Y-146530499D01*
X140747483Y-146524091D01*
X140882331Y-146473796D01*
X140997546Y-146387546D01*
X141083796Y-146272331D01*
X141134091Y-146137483D01*
X141140500Y-146077873D01*
X141140499Y-142482128D01*
X141134091Y-142422517D01*
X141125257Y-142398833D01*
X141083797Y-142287671D01*
X141083793Y-142287664D01*
X140997547Y-142172455D01*
X140997544Y-142172452D01*
X140882335Y-142086206D01*
X140882328Y-142086202D01*
X140747482Y-142035908D01*
X140747483Y-142035908D01*
X140687883Y-142029501D01*
X140687881Y-142029500D01*
X140687873Y-142029500D01*
X140687864Y-142029500D01*
X138192129Y-142029500D01*
X138192123Y-142029501D01*
X138132516Y-142035908D01*
X137997671Y-142086202D01*
X137997664Y-142086206D01*
X137882455Y-142172452D01*
X137882452Y-142172455D01*
X137796206Y-142287664D01*
X137796202Y-142287671D01*
X137754742Y-142398833D01*
X137712871Y-142454767D01*
X137647407Y-142479184D01*
X137638560Y-142479500D01*
X137295164Y-142479500D01*
X137228125Y-142459815D01*
X137182370Y-142407011D01*
X137172426Y-142337853D01*
X137201451Y-142274297D01*
X137207483Y-142267819D01*
X137925805Y-141549495D01*
X138108483Y-141366816D01*
X138169804Y-141333333D01*
X138196152Y-141330499D01*
X140687872Y-141330499D01*
X140747483Y-141324091D01*
X140882331Y-141273796D01*
X140997546Y-141187546D01*
X141083796Y-141072331D01*
X141134091Y-140937483D01*
X141140500Y-140877873D01*
X141140499Y-137282128D01*
X141134091Y-137222517D01*
X141129549Y-137210340D01*
X141083797Y-137087671D01*
X141083793Y-137087664D01*
X140997547Y-136972455D01*
X140997544Y-136972452D01*
X140882335Y-136886206D01*
X140882328Y-136886202D01*
X140747482Y-136835908D01*
X140747483Y-136835908D01*
X140687883Y-136829501D01*
X140687881Y-136829500D01*
X140687873Y-136829500D01*
X140687864Y-136829500D01*
X138192129Y-136829500D01*
X138192123Y-136829501D01*
X138132516Y-136835908D01*
X137997671Y-136886202D01*
X137997664Y-136886206D01*
X137882455Y-136972452D01*
X137882452Y-136972455D01*
X137796206Y-137087664D01*
X137796202Y-137087671D01*
X137745908Y-137222517D01*
X137739930Y-137278127D01*
X137739501Y-137282123D01*
X137739500Y-137282135D01*
X137739500Y-139773836D01*
X137719815Y-139840875D01*
X137703181Y-139861517D01*
X136391518Y-141173181D01*
X136330195Y-141206666D01*
X136303837Y-141209500D01*
X135609160Y-141209500D01*
X135542121Y-141189815D01*
X135496366Y-141137011D01*
X135486422Y-141067853D01*
X135492978Y-141042166D01*
X135508706Y-140999999D01*
X135512889Y-140988783D01*
X135519298Y-140929173D01*
X135519297Y-140300828D01*
X135512889Y-140241217D01*
X135511735Y-140238124D01*
X135462595Y-140106371D01*
X135462591Y-140106365D01*
X135423311Y-140053892D01*
X135398894Y-139988428D01*
X135413746Y-139920155D01*
X135423312Y-139905270D01*
X135462150Y-139853389D01*
X135462152Y-139853386D01*
X135512394Y-139718679D01*
X135512396Y-139718672D01*
X135518797Y-139659144D01*
X135518798Y-139659127D01*
X135518798Y-139595000D01*
X133063898Y-139595000D01*
X133063898Y-139659144D01*
X133070299Y-139718672D01*
X133070301Y-139718679D01*
X133120543Y-139853386D01*
X133120547Y-139853393D01*
X133159384Y-139905273D01*
X133183801Y-139970737D01*
X133168949Y-140039010D01*
X133159384Y-140053893D01*
X133120104Y-140106364D01*
X133120100Y-140106371D01*
X133069806Y-140241217D01*
X133063399Y-140300816D01*
X133063399Y-140300823D01*
X133063398Y-140300835D01*
X133063398Y-140362536D01*
X133043713Y-140429575D01*
X133027079Y-140450217D01*
X132254562Y-141222733D01*
X132193239Y-141256218D01*
X132123547Y-141251234D01*
X132067614Y-141209362D01*
X132043197Y-141143898D01*
X132043477Y-141122903D01*
X132055583Y-141000000D01*
X132035300Y-140794066D01*
X131975232Y-140596046D01*
X131877685Y-140413550D01*
X131785177Y-140300828D01*
X131746410Y-140253589D01*
X131628677Y-140156969D01*
X131586450Y-140122315D01*
X131403954Y-140024768D01*
X131284156Y-139988428D01*
X131205932Y-139964699D01*
X131202361Y-139964348D01*
X131200608Y-139963640D01*
X131199958Y-139963511D01*
X131199982Y-139963387D01*
X131137574Y-139938186D01*
X131097216Y-139881151D01*
X131094100Y-139811351D01*
X131126834Y-139753266D01*
X131849245Y-139030855D01*
X133063898Y-139030855D01*
X133063898Y-139095000D01*
X134041348Y-139095000D01*
X134541348Y-139095000D01*
X135518798Y-139095000D01*
X135518798Y-139030872D01*
X135518797Y-139030855D01*
X135512396Y-138971327D01*
X135512394Y-138971320D01*
X135462152Y-138836613D01*
X135462148Y-138836606D01*
X135375988Y-138721512D01*
X135375985Y-138721509D01*
X135260891Y-138635349D01*
X135260884Y-138635345D01*
X135126177Y-138585103D01*
X135126170Y-138585101D01*
X135066642Y-138578700D01*
X134541348Y-138578700D01*
X134541348Y-139095000D01*
X134041348Y-139095000D01*
X134041348Y-138578700D01*
X133516053Y-138578700D01*
X133456525Y-138585101D01*
X133456518Y-138585103D01*
X133321811Y-138635345D01*
X133321804Y-138635349D01*
X133206710Y-138721509D01*
X133206707Y-138721512D01*
X133120547Y-138836606D01*
X133120543Y-138836613D01*
X133070301Y-138971320D01*
X133070299Y-138971327D01*
X133063898Y-139030855D01*
X131849245Y-139030855D01*
X136260795Y-134619307D01*
X136279441Y-134591401D01*
X136334720Y-134508670D01*
X136385640Y-134385737D01*
X136403875Y-134294066D01*
X136411600Y-134255234D01*
X136411600Y-132389568D01*
X136411599Y-132389567D01*
X136404532Y-132354035D01*
X136385641Y-132259064D01*
X136334720Y-132136131D01*
X136334717Y-132136126D01*
X136334713Y-132136119D01*
X136284893Y-132061557D01*
X136264015Y-131994880D01*
X136282500Y-131927500D01*
X136300310Y-131904990D01*
X137509970Y-130695330D01*
X137571292Y-130661846D01*
X137640984Y-130666830D01*
X137685331Y-130695331D01*
X137690000Y-130700000D01*
X138440000Y-130700000D01*
X138440000Y-129816662D01*
X138459685Y-129749623D01*
X138476319Y-129728981D01*
X139427819Y-128777481D01*
X139489142Y-128743996D01*
X139558834Y-128748980D01*
G37*
%TD.AperFunction*%
%TA.AperFunction,Conductor*%
G36*
X83880000Y-148460000D02*
G01*
X84527828Y-148460000D01*
X84527836Y-148459999D01*
X84574363Y-148454996D01*
X84643123Y-148467399D01*
X84675303Y-148490604D01*
X85412518Y-149227819D01*
X85446003Y-149289142D01*
X85441019Y-149358834D01*
X85399147Y-149414767D01*
X85333683Y-149439184D01*
X85324837Y-149439500D01*
X83826163Y-149439500D01*
X83759124Y-149419815D01*
X83738482Y-149403181D01*
X83006982Y-148671681D01*
X82973497Y-148610358D01*
X82978481Y-148540666D01*
X83020353Y-148484733D01*
X83085817Y-148460316D01*
X83094663Y-148460000D01*
X83380000Y-148460000D01*
X83380000Y-147543012D01*
X83437007Y-147575925D01*
X83564174Y-147610000D01*
X83695826Y-147610000D01*
X83822993Y-147575925D01*
X83880000Y-147543012D01*
X83880000Y-148460000D01*
G37*
%TD.AperFunction*%
%TA.AperFunction,Conductor*%
G36*
X114512911Y-140250906D02*
G01*
X114519610Y-140252489D01*
X114519612Y-140252489D01*
X114519617Y-140252491D01*
X114579227Y-140258900D01*
X114881599Y-140258899D01*
X114948638Y-140278583D01*
X114994393Y-140331387D01*
X115005599Y-140382899D01*
X115005599Y-141201927D01*
X114985914Y-141268966D01*
X114969280Y-141289608D01*
X114615307Y-141643580D01*
X114615304Y-141643584D01*
X114541383Y-141754214D01*
X114541378Y-141754224D01*
X114490460Y-141877151D01*
X114490457Y-141877161D01*
X114475664Y-141951532D01*
X114475664Y-141951533D01*
X114464500Y-142007656D01*
X114464500Y-146085833D01*
X114490457Y-146216326D01*
X114490459Y-146216334D01*
X114541378Y-146339263D01*
X114541383Y-146339273D01*
X114615304Y-146449903D01*
X114615307Y-146449907D01*
X115653181Y-147487780D01*
X115686666Y-147549103D01*
X115689500Y-147575461D01*
X115689500Y-148126019D01*
X115669815Y-148193058D01*
X115653181Y-148213700D01*
X115013700Y-148853181D01*
X114952377Y-148886666D01*
X114926019Y-148889500D01*
X87036163Y-148889500D01*
X86969124Y-148869815D01*
X86948482Y-148853181D01*
X86653545Y-148558244D01*
X86620060Y-148496921D01*
X86625044Y-148427229D01*
X86666916Y-148371296D01*
X86688815Y-148358184D01*
X86847830Y-148284035D01*
X87041401Y-148148495D01*
X87208495Y-147981401D01*
X87338425Y-147795842D01*
X87393002Y-147752217D01*
X87462500Y-147745023D01*
X87524855Y-147776546D01*
X87541575Y-147795842D01*
X87641025Y-147937872D01*
X87671505Y-147981401D01*
X87838599Y-148148495D01*
X87931721Y-148213700D01*
X88032165Y-148284032D01*
X88032167Y-148284033D01*
X88032170Y-148284035D01*
X88246337Y-148383903D01*
X88246343Y-148383904D01*
X88246344Y-148383905D01*
X88301285Y-148398626D01*
X88474592Y-148445063D01*
X88645319Y-148460000D01*
X88709999Y-148465659D01*
X88710000Y-148465659D01*
X88710001Y-148465659D01*
X88774681Y-148460000D01*
X88945408Y-148445063D01*
X89173663Y-148383903D01*
X89387830Y-148284035D01*
X89581401Y-148148495D01*
X89748495Y-147981401D01*
X89878425Y-147795842D01*
X89933002Y-147752217D01*
X90002500Y-147745023D01*
X90064855Y-147776546D01*
X90081575Y-147795842D01*
X90181025Y-147937872D01*
X90211505Y-147981401D01*
X90378599Y-148148495D01*
X90471721Y-148213700D01*
X90572165Y-148284032D01*
X90572167Y-148284033D01*
X90572170Y-148284035D01*
X90786337Y-148383903D01*
X90786343Y-148383904D01*
X90786344Y-148383905D01*
X90841285Y-148398626D01*
X91014592Y-148445063D01*
X91185319Y-148460000D01*
X91249999Y-148465659D01*
X91250000Y-148465659D01*
X91250001Y-148465659D01*
X91314681Y-148460000D01*
X91485408Y-148445063D01*
X91713663Y-148383903D01*
X91927830Y-148284035D01*
X92121401Y-148148495D01*
X92288495Y-147981401D01*
X92418425Y-147795842D01*
X92473002Y-147752217D01*
X92542500Y-147745023D01*
X92604855Y-147776546D01*
X92621575Y-147795842D01*
X92721025Y-147937872D01*
X92751505Y-147981401D01*
X92918599Y-148148495D01*
X93011721Y-148213700D01*
X93112165Y-148284032D01*
X93112167Y-148284033D01*
X93112170Y-148284035D01*
X93326337Y-148383903D01*
X93326343Y-148383904D01*
X93326344Y-148383905D01*
X93381285Y-148398626D01*
X93554592Y-148445063D01*
X93725319Y-148460000D01*
X93789999Y-148465659D01*
X93790000Y-148465659D01*
X93790001Y-148465659D01*
X93854681Y-148460000D01*
X94025408Y-148445063D01*
X94253663Y-148383903D01*
X94467830Y-148284035D01*
X94661401Y-148148495D01*
X94828495Y-147981401D01*
X94958425Y-147795842D01*
X95013002Y-147752217D01*
X95082500Y-147745023D01*
X95144855Y-147776546D01*
X95161575Y-147795842D01*
X95261025Y-147937872D01*
X95291505Y-147981401D01*
X95458599Y-148148495D01*
X95551721Y-148213700D01*
X95652165Y-148284032D01*
X95652167Y-148284033D01*
X95652170Y-148284035D01*
X95866337Y-148383903D01*
X95866343Y-148383904D01*
X95866344Y-148383905D01*
X95921285Y-148398626D01*
X96094592Y-148445063D01*
X96265319Y-148460000D01*
X96329999Y-148465659D01*
X96330000Y-148465659D01*
X96330001Y-148465659D01*
X96394681Y-148460000D01*
X96565408Y-148445063D01*
X96793663Y-148383903D01*
X97007830Y-148284035D01*
X97201401Y-148148495D01*
X97368495Y-147981401D01*
X97498425Y-147795842D01*
X97553002Y-147752217D01*
X97622500Y-147745023D01*
X97684855Y-147776546D01*
X97701575Y-147795842D01*
X97801025Y-147937872D01*
X97831505Y-147981401D01*
X97998599Y-148148495D01*
X98091721Y-148213700D01*
X98192165Y-148284032D01*
X98192167Y-148284033D01*
X98192170Y-148284035D01*
X98406337Y-148383903D01*
X98406343Y-148383904D01*
X98406344Y-148383905D01*
X98461285Y-148398626D01*
X98634592Y-148445063D01*
X98805319Y-148460000D01*
X98869999Y-148465659D01*
X98870000Y-148465659D01*
X98870001Y-148465659D01*
X98934681Y-148460000D01*
X99105408Y-148445063D01*
X99333663Y-148383903D01*
X99547830Y-148284035D01*
X99741401Y-148148495D01*
X99908495Y-147981401D01*
X100038425Y-147795842D01*
X100093002Y-147752217D01*
X100162500Y-147745023D01*
X100224855Y-147776546D01*
X100241575Y-147795842D01*
X100341025Y-147937872D01*
X100371505Y-147981401D01*
X100538599Y-148148495D01*
X100631721Y-148213700D01*
X100732165Y-148284032D01*
X100732167Y-148284033D01*
X100732170Y-148284035D01*
X100946337Y-148383903D01*
X100946343Y-148383904D01*
X100946344Y-148383905D01*
X101001285Y-148398626D01*
X101174592Y-148445063D01*
X101345319Y-148460000D01*
X101409999Y-148465659D01*
X101410000Y-148465659D01*
X101410001Y-148465659D01*
X101474681Y-148460000D01*
X101645408Y-148445063D01*
X101873663Y-148383903D01*
X102087830Y-148284035D01*
X102281401Y-148148495D01*
X102448495Y-147981401D01*
X102578425Y-147795842D01*
X102633002Y-147752217D01*
X102702500Y-147745023D01*
X102764855Y-147776546D01*
X102781575Y-147795842D01*
X102881025Y-147937872D01*
X102911505Y-147981401D01*
X103078599Y-148148495D01*
X103171721Y-148213700D01*
X103272165Y-148284032D01*
X103272167Y-148284033D01*
X103272170Y-148284035D01*
X103486337Y-148383903D01*
X103486343Y-148383904D01*
X103486344Y-148383905D01*
X103541285Y-148398626D01*
X103714592Y-148445063D01*
X103885319Y-148460000D01*
X103949999Y-148465659D01*
X103950000Y-148465659D01*
X103950001Y-148465659D01*
X104014681Y-148460000D01*
X104185408Y-148445063D01*
X104413663Y-148383903D01*
X104627830Y-148284035D01*
X104821401Y-148148495D01*
X104988495Y-147981401D01*
X105085140Y-147843376D01*
X105139717Y-147799752D01*
X105186715Y-147790500D01*
X106690501Y-147790500D01*
X106757540Y-147810185D01*
X106803295Y-147862989D01*
X106814501Y-147914500D01*
X106814501Y-147937876D01*
X106820908Y-147997483D01*
X106871202Y-148132328D01*
X106871206Y-148132335D01*
X106957452Y-148247544D01*
X106957455Y-148247547D01*
X107072664Y-148333793D01*
X107072671Y-148333797D01*
X107207517Y-148384091D01*
X107207516Y-148384091D01*
X107214444Y-148384835D01*
X107267127Y-148390500D01*
X109062872Y-148390499D01*
X109122483Y-148384091D01*
X109257331Y-148333796D01*
X109372546Y-148247546D01*
X109458796Y-148132331D01*
X109508002Y-148000401D01*
X109549872Y-147944468D01*
X109615337Y-147920050D01*
X109683610Y-147934901D01*
X109711865Y-147956053D01*
X109833917Y-148078105D01*
X110027421Y-148213600D01*
X110241507Y-148313429D01*
X110241516Y-148313433D01*
X110455000Y-148370634D01*
X110455000Y-147473012D01*
X110512007Y-147505925D01*
X110639174Y-147540000D01*
X110770826Y-147540000D01*
X110897993Y-147505925D01*
X110955000Y-147473012D01*
X110955000Y-148370633D01*
X111168483Y-148313433D01*
X111168492Y-148313429D01*
X111382578Y-148213600D01*
X111576082Y-148078105D01*
X111743105Y-147911082D01*
X111878600Y-147717578D01*
X111978429Y-147503492D01*
X111978432Y-147503486D01*
X112035636Y-147290000D01*
X111138012Y-147290000D01*
X111170925Y-147232993D01*
X111205000Y-147105826D01*
X111205000Y-146974174D01*
X111170925Y-146847007D01*
X111138012Y-146790000D01*
X112035636Y-146790000D01*
X112035635Y-146789999D01*
X111978432Y-146576513D01*
X111978429Y-146576507D01*
X111878600Y-146362422D01*
X111878599Y-146362420D01*
X111743113Y-146168926D01*
X111743108Y-146168920D01*
X111576082Y-146001894D01*
X111382578Y-145866399D01*
X111168492Y-145766570D01*
X111168486Y-145766567D01*
X110955000Y-145709364D01*
X110955000Y-146606988D01*
X110897993Y-146574075D01*
X110770826Y-146540000D01*
X110639174Y-146540000D01*
X110512007Y-146574075D01*
X110455000Y-146606988D01*
X110455000Y-145709364D01*
X110454999Y-145709364D01*
X110241513Y-145766567D01*
X110241507Y-145766570D01*
X110027422Y-145866399D01*
X110027420Y-145866400D01*
X109833926Y-146001886D01*
X109711865Y-146123947D01*
X109650542Y-146157431D01*
X109580850Y-146152447D01*
X109524917Y-146110575D01*
X109508002Y-146079598D01*
X109507362Y-146077883D01*
X109479018Y-146001886D01*
X109458797Y-145947671D01*
X109458793Y-145947664D01*
X109372547Y-145832455D01*
X109372544Y-145832452D01*
X109257335Y-145746206D01*
X109257328Y-145746202D01*
X109122482Y-145695908D01*
X109122483Y-145695908D01*
X109062883Y-145689501D01*
X109062881Y-145689500D01*
X109062873Y-145689500D01*
X109062864Y-145689500D01*
X107267129Y-145689500D01*
X107267123Y-145689501D01*
X107207516Y-145695908D01*
X107072671Y-145746202D01*
X107072664Y-145746206D01*
X106957455Y-145832452D01*
X106957452Y-145832455D01*
X106871206Y-145947664D01*
X106871202Y-145947671D01*
X106820908Y-146082517D01*
X106814501Y-146142116D01*
X106814500Y-146142135D01*
X106814500Y-146165500D01*
X106794815Y-146232539D01*
X106742011Y-146278294D01*
X106690500Y-146289500D01*
X105088687Y-146289500D01*
X105021648Y-146269815D01*
X104992777Y-146242069D01*
X104991974Y-146242744D01*
X104988496Y-146238599D01*
X104821402Y-146071506D01*
X104821395Y-146071501D01*
X104627834Y-145935967D01*
X104627830Y-145935965D01*
X104556697Y-145902795D01*
X104413663Y-145836097D01*
X104413659Y-145836096D01*
X104413655Y-145836094D01*
X104185413Y-145774938D01*
X104185403Y-145774936D01*
X103950001Y-145754341D01*
X103949999Y-145754341D01*
X103714596Y-145774936D01*
X103714586Y-145774938D01*
X103486344Y-145836094D01*
X103486335Y-145836098D01*
X103272171Y-145935964D01*
X103272169Y-145935965D01*
X103078597Y-146071505D01*
X102911505Y-146238597D01*
X102781575Y-146424158D01*
X102726998Y-146467783D01*
X102657500Y-146474977D01*
X102595145Y-146443454D01*
X102578425Y-146424158D01*
X102448494Y-146238597D01*
X102281402Y-146071506D01*
X102281401Y-146071505D01*
X102262641Y-146058369D01*
X102138375Y-145971357D01*
X102094752Y-145916781D01*
X102085500Y-145869783D01*
X102085500Y-145291163D01*
X102105185Y-145224124D01*
X102121819Y-145203482D01*
X103043482Y-144281819D01*
X103104805Y-144248334D01*
X103131163Y-144245500D01*
X109863850Y-144245500D01*
X109863851Y-144245499D01*
X109994354Y-144219541D01*
X110117287Y-144168620D01*
X110227924Y-144094695D01*
X113805796Y-140516823D01*
X113879721Y-140406186D01*
X113909022Y-140335447D01*
X113952863Y-140281043D01*
X114019157Y-140258978D01*
X114023583Y-140258899D01*
X114382970Y-140258899D01*
X114382971Y-140258899D01*
X114442582Y-140252491D01*
X114450127Y-140250708D01*
X114450755Y-140253366D01*
X114507405Y-140249290D01*
X114512911Y-140250906D01*
G37*
%TD.AperFunction*%
%TA.AperFunction,Conductor*%
G36*
X82310489Y-135640185D02*
G01*
X82356244Y-135692989D01*
X82366188Y-135762147D01*
X82357558Y-135791114D01*
X82357947Y-135791256D01*
X82356094Y-135796344D01*
X82294938Y-136024586D01*
X82294936Y-136024596D01*
X82274341Y-136259999D01*
X82274341Y-136260000D01*
X82294936Y-136495403D01*
X82294938Y-136495413D01*
X82356094Y-136723655D01*
X82356096Y-136723659D01*
X82356097Y-136723663D01*
X82439155Y-136901781D01*
X82455965Y-136937830D01*
X82455967Y-136937834D01*
X82556818Y-137081863D01*
X82591505Y-137131401D01*
X82758599Y-137298495D01*
X82838071Y-137354142D01*
X82952165Y-137434032D01*
X82952167Y-137434033D01*
X82952170Y-137434035D01*
X83166337Y-137533903D01*
X83394592Y-137595063D01*
X83571034Y-137610500D01*
X83629999Y-137615659D01*
X83630000Y-137615659D01*
X83630001Y-137615659D01*
X83688966Y-137610500D01*
X83865408Y-137595063D01*
X84093663Y-137533903D01*
X84307830Y-137434035D01*
X84501401Y-137298495D01*
X84668495Y-137131401D01*
X84798730Y-136945405D01*
X84853307Y-136901781D01*
X84922805Y-136894587D01*
X84985160Y-136926110D01*
X85001879Y-136945405D01*
X85131890Y-137131078D01*
X85298917Y-137298105D01*
X85492421Y-137433600D01*
X85583355Y-137476003D01*
X85635794Y-137522175D01*
X85654946Y-137589369D01*
X85634730Y-137656250D01*
X85618631Y-137676066D01*
X84420307Y-138874390D01*
X84420304Y-138874394D01*
X84346383Y-138985024D01*
X84346378Y-138985034D01*
X84295460Y-139107961D01*
X84295457Y-139107971D01*
X84287787Y-139146532D01*
X84287787Y-139146533D01*
X84269500Y-139238466D01*
X84269500Y-145636000D01*
X84249815Y-145703039D01*
X84197011Y-145748794D01*
X84145500Y-145760000D01*
X83880000Y-145760000D01*
X83880000Y-146676988D01*
X83822993Y-146644075D01*
X83695826Y-146610000D01*
X83564174Y-146610000D01*
X83437007Y-146644075D01*
X83380000Y-146676988D01*
X83380000Y-145760000D01*
X82732155Y-145760000D01*
X82672627Y-145766401D01*
X82672620Y-145766403D01*
X82537913Y-145816645D01*
X82537906Y-145816649D01*
X82422812Y-145902809D01*
X82422809Y-145902812D01*
X82336649Y-146017906D01*
X82336645Y-146017913D01*
X82286403Y-146152620D01*
X82286401Y-146152627D01*
X82280000Y-146212155D01*
X82280000Y-146860000D01*
X83196988Y-146860000D01*
X83164075Y-146917007D01*
X83130000Y-147044174D01*
X83130000Y-147175826D01*
X83164075Y-147302993D01*
X83196988Y-147360000D01*
X82280000Y-147360000D01*
X82280000Y-147645337D01*
X82260315Y-147712376D01*
X82207511Y-147758131D01*
X82138353Y-147768075D01*
X82074797Y-147739050D01*
X82068319Y-147733018D01*
X81656819Y-147321518D01*
X81623334Y-147260195D01*
X81620500Y-147233837D01*
X81620500Y-136066163D01*
X81640185Y-135999124D01*
X81656819Y-135978482D01*
X81978482Y-135656819D01*
X82039805Y-135623334D01*
X82066163Y-135620500D01*
X82243450Y-135620500D01*
X82310489Y-135640185D01*
G37*
%TD.AperFunction*%
%TA.AperFunction,Conductor*%
G36*
X94943039Y-132269685D02*
G01*
X94988794Y-132322489D01*
X95000000Y-132374000D01*
X95000000Y-133474999D01*
X95049972Y-133474999D01*
X95049986Y-133474998D01*
X95152697Y-133464505D01*
X95319119Y-133409358D01*
X95319124Y-133409356D01*
X95468345Y-133317315D01*
X95592318Y-133193342D01*
X95594165Y-133190348D01*
X95595969Y-133188724D01*
X95596798Y-133187677D01*
X95596976Y-133187818D01*
X95646110Y-133143621D01*
X95715073Y-133132396D01*
X95779156Y-133160236D01*
X95805243Y-133190341D01*
X95807288Y-133193656D01*
X95931344Y-133317712D01*
X96080666Y-133409814D01*
X96247203Y-133464999D01*
X96349991Y-133475500D01*
X96869450Y-133475499D01*
X96936489Y-133495183D01*
X96948113Y-133503644D01*
X96949394Y-133504695D01*
X97060024Y-133578616D01*
X97060028Y-133578618D01*
X97060031Y-133578620D01*
X97182964Y-133629541D01*
X97266368Y-133646131D01*
X97313464Y-133655499D01*
X97313468Y-133655500D01*
X97313469Y-133655500D01*
X97446531Y-133655500D01*
X98905501Y-133655500D01*
X98972540Y-133675185D01*
X99018295Y-133727989D01*
X99029501Y-133779500D01*
X99029501Y-134777876D01*
X99035908Y-134837483D01*
X99086202Y-134972328D01*
X99086206Y-134972335D01*
X99172452Y-135087544D01*
X99172455Y-135087547D01*
X99287664Y-135173793D01*
X99287671Y-135173797D01*
X99422517Y-135224091D01*
X99422516Y-135224091D01*
X99429444Y-135224835D01*
X99482127Y-135230500D01*
X101973835Y-135230499D01*
X102040874Y-135250184D01*
X102061516Y-135266818D01*
X104087517Y-137292819D01*
X104121002Y-137354142D01*
X104116018Y-137423834D01*
X104074146Y-137479767D01*
X104008682Y-137504184D01*
X103999836Y-137504500D01*
X102554499Y-137504500D01*
X102487460Y-137484815D01*
X102441705Y-137432011D01*
X102430499Y-137380500D01*
X102430499Y-136382129D01*
X102430498Y-136382123D01*
X102430497Y-136382116D01*
X102424091Y-136322517D01*
X102408928Y-136281864D01*
X102373797Y-136187671D01*
X102373793Y-136187664D01*
X102287547Y-136072455D01*
X102287544Y-136072452D01*
X102172335Y-135986206D01*
X102172328Y-135986202D01*
X102037482Y-135935908D01*
X102037483Y-135935908D01*
X101977883Y-135929501D01*
X101977881Y-135929500D01*
X101977873Y-135929500D01*
X101977864Y-135929500D01*
X99482129Y-135929500D01*
X99482123Y-135929501D01*
X99422516Y-135935908D01*
X99287671Y-135986202D01*
X99287664Y-135986206D01*
X99172455Y-136072452D01*
X99172452Y-136072455D01*
X99086206Y-136187664D01*
X99086202Y-136187671D01*
X99035908Y-136322517D01*
X99029574Y-136381436D01*
X99029501Y-136382123D01*
X99029500Y-136382135D01*
X99029500Y-137610500D01*
X99009815Y-137677539D01*
X98957011Y-137723294D01*
X98905500Y-137734500D01*
X97713733Y-137734500D01*
X97646694Y-137714815D01*
X97600939Y-137662011D01*
X97596028Y-137649506D01*
X97591495Y-137635829D01*
X97584814Y-137615666D01*
X97492712Y-137466344D01*
X97368656Y-137342288D01*
X97271101Y-137282116D01*
X97219336Y-137250187D01*
X97219331Y-137250185D01*
X97217862Y-137249698D01*
X97052797Y-137195001D01*
X97052795Y-137195000D01*
X96950010Y-137184500D01*
X96349998Y-137184500D01*
X96349980Y-137184501D01*
X96247203Y-137195000D01*
X96247200Y-137195001D01*
X96080668Y-137250185D01*
X96080663Y-137250187D01*
X95931342Y-137342289D01*
X95807288Y-137466343D01*
X95807283Y-137466349D01*
X95805241Y-137469661D01*
X95803247Y-137471453D01*
X95802807Y-137472011D01*
X95802711Y-137471935D01*
X95753291Y-137516383D01*
X95684328Y-137527602D01*
X95620247Y-137499755D01*
X95594168Y-137469656D01*
X95592319Y-137466659D01*
X95592316Y-137466655D01*
X95468345Y-137342684D01*
X95319124Y-137250643D01*
X95319119Y-137250641D01*
X95152697Y-137195494D01*
X95152690Y-137195493D01*
X95049986Y-137185000D01*
X95000000Y-137185000D01*
X95000000Y-139634999D01*
X95049972Y-139634999D01*
X95049986Y-139634998D01*
X95152697Y-139624505D01*
X95319119Y-139569358D01*
X95319124Y-139569356D01*
X95468345Y-139477315D01*
X95592318Y-139353342D01*
X95594165Y-139350348D01*
X95595969Y-139348724D01*
X95596798Y-139347677D01*
X95596976Y-139347818D01*
X95646110Y-139303621D01*
X95715073Y-139292396D01*
X95779156Y-139320236D01*
X95805243Y-139350341D01*
X95807288Y-139353656D01*
X95931344Y-139477712D01*
X96080666Y-139569814D01*
X96247203Y-139624999D01*
X96349991Y-139635500D01*
X96950008Y-139635499D01*
X96950016Y-139635498D01*
X96950019Y-139635498D01*
X97006302Y-139629748D01*
X97052797Y-139624999D01*
X97219334Y-139569814D01*
X97368656Y-139477712D01*
X97492712Y-139353656D01*
X97584814Y-139204334D01*
X97596028Y-139170494D01*
X97635801Y-139113050D01*
X97700317Y-139086228D01*
X97713733Y-139085500D01*
X98905501Y-139085500D01*
X98972540Y-139105185D01*
X99018295Y-139157989D01*
X99029501Y-139209500D01*
X99029501Y-139977876D01*
X99035908Y-140037483D01*
X99086202Y-140172328D01*
X99086206Y-140172335D01*
X99172452Y-140287544D01*
X99172455Y-140287547D01*
X99287664Y-140373793D01*
X99287671Y-140373797D01*
X99422517Y-140424091D01*
X99422516Y-140424091D01*
X99429444Y-140424835D01*
X99482127Y-140430500D01*
X101977872Y-140430499D01*
X102037483Y-140424091D01*
X102172331Y-140373796D01*
X102287546Y-140287546D01*
X102373796Y-140172331D01*
X102424091Y-140037483D01*
X102430500Y-139977873D01*
X102430500Y-138979500D01*
X102450185Y-138912461D01*
X102502989Y-138866706D01*
X102554500Y-138855500D01*
X108880431Y-138855500D01*
X108880432Y-138855499D01*
X109010935Y-138829541D01*
X109133868Y-138778620D01*
X109244505Y-138704695D01*
X109578383Y-138370815D01*
X109639705Y-138337332D01*
X109666063Y-138334498D01*
X110002601Y-138334498D01*
X110069640Y-138354183D01*
X110115395Y-138406987D01*
X110126601Y-138458498D01*
X110126601Y-139806270D01*
X110126602Y-139806276D01*
X110132249Y-139858805D01*
X110119842Y-139927564D01*
X110096640Y-139959739D01*
X108848199Y-141208181D01*
X108786876Y-141241666D01*
X108760518Y-141244500D01*
X99173467Y-141244500D01*
X99042969Y-141270458D01*
X99042959Y-141270461D01*
X98920038Y-141321376D01*
X98920020Y-141321386D01*
X98829607Y-141381797D01*
X98829608Y-141381798D01*
X98809394Y-141395304D01*
X98809388Y-141395309D01*
X94393444Y-145811253D01*
X94332121Y-145844738D01*
X94262429Y-145839754D01*
X94253929Y-145836194D01*
X94253655Y-145836094D01*
X94025413Y-145774938D01*
X94025403Y-145774936D01*
X93790001Y-145754341D01*
X93789999Y-145754341D01*
X93554596Y-145774936D01*
X93554586Y-145774938D01*
X93326344Y-145836094D01*
X93326335Y-145836098D01*
X93112171Y-145935964D01*
X93112169Y-145935965D01*
X92918597Y-146071505D01*
X92751505Y-146238597D01*
X92621575Y-146424158D01*
X92566998Y-146467783D01*
X92497500Y-146474977D01*
X92435145Y-146443454D01*
X92418425Y-146424158D01*
X92288494Y-146238597D01*
X92121402Y-146071506D01*
X92121401Y-146071505D01*
X92102641Y-146058369D01*
X91978375Y-145971357D01*
X91934752Y-145916781D01*
X91925500Y-145869783D01*
X91925500Y-138934986D01*
X93750001Y-138934986D01*
X93760494Y-139037697D01*
X93815641Y-139204119D01*
X93815643Y-139204124D01*
X93907684Y-139353345D01*
X94031654Y-139477315D01*
X94180875Y-139569356D01*
X94180880Y-139569358D01*
X94347302Y-139624505D01*
X94347309Y-139624506D01*
X94450019Y-139634999D01*
X94499999Y-139634998D01*
X94500000Y-139634998D01*
X94500000Y-138660000D01*
X93750001Y-138660000D01*
X93750001Y-138934986D01*
X91925500Y-138934986D01*
X91925500Y-137885013D01*
X93750000Y-137885013D01*
X93750000Y-138160000D01*
X94500000Y-138160000D01*
X94500000Y-137185000D01*
X94499999Y-137184999D01*
X94450029Y-137185000D01*
X94450011Y-137185001D01*
X94347302Y-137195494D01*
X94180880Y-137250641D01*
X94180875Y-137250643D01*
X94031654Y-137342684D01*
X93907684Y-137466654D01*
X93815643Y-137615875D01*
X93815641Y-137615880D01*
X93760494Y-137782302D01*
X93760493Y-137782309D01*
X93750000Y-137885013D01*
X91925500Y-137885013D01*
X91925500Y-134016798D01*
X91945185Y-133949759D01*
X91961814Y-133929122D01*
X93538323Y-132352613D01*
X93599642Y-132319131D01*
X93669334Y-132324115D01*
X93725267Y-132365987D01*
X93749684Y-132431451D01*
X93750000Y-132440297D01*
X93750000Y-132774970D01*
X93750001Y-132774987D01*
X93760494Y-132877697D01*
X93815641Y-133044119D01*
X93815643Y-133044124D01*
X93907684Y-133193345D01*
X94031654Y-133317315D01*
X94180875Y-133409356D01*
X94180880Y-133409358D01*
X94347302Y-133464505D01*
X94347309Y-133464506D01*
X94450019Y-133474999D01*
X94499999Y-133474998D01*
X94500000Y-133474998D01*
X94500000Y-132374000D01*
X94519685Y-132306961D01*
X94572489Y-132261206D01*
X94624000Y-132250000D01*
X94876000Y-132250000D01*
X94943039Y-132269685D01*
G37*
%TD.AperFunction*%
%TA.AperFunction,Conductor*%
G36*
X120357507Y-137865185D02*
G01*
X120403262Y-137917989D01*
X120413206Y-137987147D01*
X120408174Y-138008504D01*
X120365494Y-138137302D01*
X120365493Y-138137309D01*
X120355000Y-138240013D01*
X120355000Y-138290000D01*
X122804999Y-138290000D01*
X122804999Y-138240028D01*
X122804998Y-138240013D01*
X122794505Y-138137302D01*
X122751826Y-138008504D01*
X122749424Y-137938676D01*
X122785156Y-137878634D01*
X122847676Y-137847441D01*
X122869532Y-137845500D01*
X124611340Y-137845500D01*
X124678379Y-137865185D01*
X124699021Y-137881819D01*
X127584383Y-140767181D01*
X127617868Y-140828504D01*
X127620702Y-140854860D01*
X127620702Y-140929169D01*
X127620703Y-140929176D01*
X127627110Y-140988783D01*
X127677148Y-141122940D01*
X127682132Y-141192632D01*
X127648647Y-141253955D01*
X127608420Y-141280833D01*
X127595039Y-141286375D01*
X127595024Y-141286383D01*
X127529002Y-141330499D01*
X127484391Y-141360306D01*
X126635307Y-142209390D01*
X126635304Y-142209394D01*
X126561383Y-142320024D01*
X126561378Y-142320034D01*
X126510459Y-142442963D01*
X126510457Y-142442969D01*
X126487898Y-142556375D01*
X126487899Y-142556376D01*
X126484500Y-142573465D01*
X126484500Y-145973770D01*
X126464815Y-146040809D01*
X126412011Y-146086564D01*
X126342853Y-146096508D01*
X126279297Y-146067483D01*
X126272819Y-146061451D01*
X122366819Y-142155451D01*
X122333334Y-142094128D01*
X122330500Y-142067770D01*
X122330500Y-141874500D01*
X122350185Y-141807461D01*
X122402989Y-141761706D01*
X122454500Y-141750500D01*
X122714206Y-141750500D01*
X122781245Y-141770185D01*
X122792871Y-141778647D01*
X122913546Y-141877682D01*
X122913550Y-141877685D01*
X123096046Y-141975232D01*
X123294066Y-142035300D01*
X123294065Y-142035300D01*
X123300249Y-142035909D01*
X123500000Y-142055583D01*
X123705934Y-142035300D01*
X123903954Y-141975232D01*
X124086450Y-141877685D01*
X124246410Y-141746410D01*
X124377685Y-141586450D01*
X124475232Y-141403954D01*
X124535300Y-141205934D01*
X124555583Y-141000000D01*
X124535300Y-140794066D01*
X124475232Y-140596046D01*
X124377685Y-140413550D01*
X124285177Y-140300828D01*
X124246410Y-140253589D01*
X124128677Y-140156969D01*
X124086450Y-140122315D01*
X123903954Y-140024768D01*
X123705934Y-139964700D01*
X123705932Y-139964699D01*
X123705934Y-139964699D01*
X123500000Y-139944417D01*
X123294067Y-139964699D01*
X123096041Y-140024769D01*
X122966644Y-140093934D01*
X122898241Y-140108176D01*
X122832997Y-140083176D01*
X122791627Y-140026871D01*
X122790485Y-140023580D01*
X122770974Y-139964700D01*
X122739814Y-139870666D01*
X122647712Y-139721344D01*
X122523656Y-139597288D01*
X122520342Y-139595243D01*
X122518546Y-139593248D01*
X122517989Y-139592807D01*
X122518064Y-139592711D01*
X122473618Y-139543297D01*
X122462397Y-139474334D01*
X122490240Y-139410252D01*
X122520348Y-139384165D01*
X122523342Y-139382318D01*
X122647315Y-139258345D01*
X122739356Y-139109124D01*
X122739358Y-139109119D01*
X122794505Y-138942697D01*
X122794506Y-138942690D01*
X122804999Y-138839986D01*
X122805000Y-138839973D01*
X122805000Y-138790000D01*
X120355001Y-138790000D01*
X120355001Y-138839986D01*
X120365494Y-138942697D01*
X120420641Y-139109119D01*
X120420643Y-139109124D01*
X120512684Y-139258345D01*
X120636655Y-139382316D01*
X120636659Y-139382319D01*
X120639656Y-139384168D01*
X120641279Y-139385972D01*
X120642323Y-139386798D01*
X120642181Y-139386976D01*
X120686381Y-139436116D01*
X120697602Y-139505079D01*
X120669759Y-139569161D01*
X120639661Y-139595241D01*
X120636349Y-139597283D01*
X120636343Y-139597288D01*
X120512289Y-139721342D01*
X120420187Y-139870663D01*
X120420185Y-139870668D01*
X120403787Y-139920155D01*
X120365001Y-140037203D01*
X120365001Y-140037204D01*
X120365000Y-140037204D01*
X120354500Y-140139983D01*
X120354500Y-140740001D01*
X120354501Y-140740019D01*
X120365000Y-140842796D01*
X120365001Y-140842799D01*
X120396377Y-140937483D01*
X120420186Y-141009334D01*
X120512288Y-141158656D01*
X120636344Y-141282712D01*
X120770597Y-141365519D01*
X120817321Y-141417465D01*
X120829500Y-141471057D01*
X120829500Y-141562634D01*
X120809815Y-141629673D01*
X120757011Y-141675428D01*
X120729693Y-141684251D01*
X120608591Y-141708341D01*
X120608582Y-141708343D01*
X120472011Y-141764912D01*
X120471998Y-141764919D01*
X120349084Y-141847048D01*
X120349080Y-141847051D01*
X119076681Y-143119451D01*
X119015358Y-143152936D01*
X118945666Y-143147952D01*
X118889733Y-143106080D01*
X118865316Y-143040616D01*
X118865304Y-143040304D01*
X118865000Y-143040000D01*
X117976500Y-143040000D01*
X117909461Y-143020315D01*
X117863706Y-142967511D01*
X117852500Y-142916000D01*
X117852500Y-142790000D01*
X117726500Y-142790000D01*
X117659461Y-142770315D01*
X117613706Y-142717511D01*
X117602500Y-142666000D01*
X117602500Y-142540000D01*
X118102500Y-142540000D01*
X118864999Y-142540000D01*
X118864999Y-142290028D01*
X118864998Y-142290013D01*
X118854505Y-142187302D01*
X118799358Y-142020880D01*
X118799356Y-142020875D01*
X118707315Y-141871654D01*
X118583345Y-141747684D01*
X118434124Y-141655643D01*
X118434119Y-141655641D01*
X118267697Y-141600494D01*
X118267690Y-141600493D01*
X118164986Y-141590000D01*
X118102500Y-141590000D01*
X118102500Y-142540000D01*
X117602500Y-142540000D01*
X117602500Y-141590000D01*
X117602499Y-141589999D01*
X117540028Y-141590000D01*
X117540011Y-141590001D01*
X117458995Y-141598278D01*
X117390302Y-141585508D01*
X117358712Y-141562601D01*
X117192918Y-141396807D01*
X117159433Y-141335484D01*
X117156599Y-141309126D01*
X117156599Y-140071786D01*
X117175104Y-140008762D01*
X117174646Y-140008512D01*
X117175797Y-140006402D01*
X117176284Y-140004747D01*
X117178242Y-140001925D01*
X117178896Y-140000729D01*
X117208948Y-139920155D01*
X117229190Y-139865883D01*
X117235599Y-139806273D01*
X117235598Y-138458497D01*
X117255283Y-138391459D01*
X117308086Y-138345704D01*
X117359598Y-138334498D01*
X118707371Y-138334498D01*
X118707372Y-138334498D01*
X118766983Y-138328090D01*
X118901831Y-138277795D01*
X118901834Y-138277792D01*
X118909614Y-138273545D01*
X118910780Y-138275681D01*
X118964031Y-138255816D01*
X118972886Y-138255499D01*
X119030034Y-138255499D01*
X119030035Y-138255498D01*
X119160538Y-138229540D01*
X119283471Y-138178619D01*
X119394108Y-138104694D01*
X119616983Y-137881819D01*
X119678306Y-137848334D01*
X119704664Y-137845500D01*
X120290468Y-137845500D01*
X120357507Y-137865185D01*
G37*
%TD.AperFunction*%
%TA.AperFunction,Conductor*%
G36*
X113730876Y-118830185D02*
G01*
X113751518Y-118846819D01*
X114413181Y-119508482D01*
X114446666Y-119569805D01*
X114449500Y-119596163D01*
X114449500Y-120895500D01*
X114429815Y-120962539D01*
X114377011Y-121008294D01*
X114325500Y-121019500D01*
X113924998Y-121019500D01*
X113924980Y-121019501D01*
X113822203Y-121030000D01*
X113822200Y-121030001D01*
X113655668Y-121085185D01*
X113655663Y-121085187D01*
X113506342Y-121177289D01*
X113382289Y-121301342D01*
X113290187Y-121450663D01*
X113290185Y-121450668D01*
X113276986Y-121490500D01*
X113235001Y-121617203D01*
X113235001Y-121617204D01*
X113235000Y-121617204D01*
X113224500Y-121719983D01*
X113224500Y-122720001D01*
X113224501Y-122720019D01*
X113235000Y-122822796D01*
X113235001Y-122822799D01*
X113290185Y-122989331D01*
X113290187Y-122989336D01*
X113306325Y-123015500D01*
X113382288Y-123138656D01*
X113506344Y-123262712D01*
X113518094Y-123269959D01*
X113564819Y-123321903D01*
X113577000Y-123375499D01*
X113577000Y-123681608D01*
X113557315Y-123748647D01*
X113540682Y-123769289D01*
X113420971Y-123889000D01*
X113329642Y-124037066D01*
X113329637Y-124037077D01*
X113274913Y-124202223D01*
X113264500Y-124304144D01*
X113264500Y-125315855D01*
X113274913Y-125417776D01*
X113329637Y-125582922D01*
X113329642Y-125582933D01*
X113420971Y-125730999D01*
X113420974Y-125731003D01*
X113543996Y-125854025D01*
X113544000Y-125854028D01*
X113692066Y-125945357D01*
X113692069Y-125945358D01*
X113692075Y-125945362D01*
X113760199Y-125967936D01*
X113817643Y-126007707D01*
X113844466Y-126072223D01*
X113832151Y-126140999D01*
X113808875Y-126173322D01*
X113556406Y-126425791D01*
X113556403Y-126425795D01*
X113482482Y-126536425D01*
X113482477Y-126536435D01*
X113431558Y-126659364D01*
X113431556Y-126659372D01*
X113411001Y-126762712D01*
X113411001Y-126762714D01*
X113405599Y-126789869D01*
X113405599Y-127550936D01*
X113385914Y-127617975D01*
X113333110Y-127663730D01*
X113263952Y-127673674D01*
X113200396Y-127644649D01*
X113193918Y-127638617D01*
X112880785Y-127325484D01*
X112865364Y-127306694D01*
X112834694Y-127260793D01*
X112800647Y-127226746D01*
X112740606Y-127166705D01*
X109807918Y-124234017D01*
X109774433Y-124172694D01*
X109771599Y-124146336D01*
X109771599Y-123639998D01*
X109771598Y-123639981D01*
X109761099Y-123537203D01*
X109761098Y-123537200D01*
X109748541Y-123499306D01*
X109705914Y-123370666D01*
X109613812Y-123221344D01*
X109520149Y-123127681D01*
X109486664Y-123066358D01*
X109491648Y-122996666D01*
X109520149Y-122952319D01*
X109565670Y-122906798D01*
X109613812Y-122858656D01*
X109705914Y-122709334D01*
X109761099Y-122542797D01*
X109771600Y-122440009D01*
X109771599Y-121814992D01*
X109762922Y-121730054D01*
X109761099Y-121712203D01*
X109761098Y-121712200D01*
X109752319Y-121685706D01*
X109705914Y-121545666D01*
X109613812Y-121396344D01*
X109489756Y-121272288D01*
X109340434Y-121180186D01*
X109173897Y-121125001D01*
X109173895Y-121125000D01*
X109071116Y-121114500D01*
X109071109Y-121114500D01*
X108670829Y-121114500D01*
X108603790Y-121094815D01*
X108583148Y-121078181D01*
X107662021Y-120157052D01*
X107662020Y-120157051D01*
X107639925Y-120142288D01*
X107562358Y-120090460D01*
X107562358Y-120090459D01*
X107539095Y-120074916D01*
X107539090Y-120074913D01*
X107402517Y-120018343D01*
X107402507Y-120018340D01*
X107257520Y-119989500D01*
X107257518Y-119989500D01*
X104127701Y-119989500D01*
X104060662Y-119969815D01*
X104026126Y-119936623D01*
X103978494Y-119868597D01*
X103811402Y-119701506D01*
X103811395Y-119701501D01*
X103617834Y-119565967D01*
X103617830Y-119565965D01*
X103572444Y-119544801D01*
X103403663Y-119466097D01*
X103403659Y-119466096D01*
X103403655Y-119466094D01*
X103175413Y-119404938D01*
X103175403Y-119404936D01*
X102940001Y-119384341D01*
X102939999Y-119384341D01*
X102704596Y-119404936D01*
X102704586Y-119404938D01*
X102476344Y-119466094D01*
X102476335Y-119466098D01*
X102262171Y-119565964D01*
X102262169Y-119565965D01*
X102068597Y-119701505D01*
X101901508Y-119868594D01*
X101771269Y-120054595D01*
X101716692Y-120098219D01*
X101647193Y-120105412D01*
X101584839Y-120073890D01*
X101568119Y-120054594D01*
X101438113Y-119868926D01*
X101438108Y-119868920D01*
X101271082Y-119701894D01*
X101077578Y-119566399D01*
X100863492Y-119466570D01*
X100863486Y-119466567D01*
X100650000Y-119409364D01*
X100650000Y-120306988D01*
X100592993Y-120274075D01*
X100465826Y-120240000D01*
X100334174Y-120240000D01*
X100207007Y-120274075D01*
X100150000Y-120306988D01*
X100150000Y-119409364D01*
X100149999Y-119409364D01*
X99936513Y-119466567D01*
X99936507Y-119466570D01*
X99722422Y-119566399D01*
X99722420Y-119566400D01*
X99528926Y-119701886D01*
X99528920Y-119701891D01*
X99361891Y-119868920D01*
X99361890Y-119868922D01*
X99231880Y-120054595D01*
X99177303Y-120098219D01*
X99107804Y-120105412D01*
X99045450Y-120073890D01*
X99028730Y-120054594D01*
X98898494Y-119868597D01*
X98731402Y-119701506D01*
X98731395Y-119701501D01*
X98537834Y-119565967D01*
X98537830Y-119565965D01*
X98492444Y-119544801D01*
X98323663Y-119466097D01*
X98323659Y-119466096D01*
X98323655Y-119466094D01*
X98095413Y-119404938D01*
X98095403Y-119404936D01*
X97860001Y-119384341D01*
X97859999Y-119384341D01*
X97624596Y-119404936D01*
X97624586Y-119404938D01*
X97396344Y-119466094D01*
X97396335Y-119466098D01*
X97182171Y-119565964D01*
X97182169Y-119565965D01*
X96988600Y-119701503D01*
X96866673Y-119823430D01*
X96805350Y-119856914D01*
X96735658Y-119851930D01*
X96679725Y-119810058D01*
X96662810Y-119779081D01*
X96613797Y-119647671D01*
X96613793Y-119647664D01*
X96527547Y-119532455D01*
X96527544Y-119532452D01*
X96412335Y-119446206D01*
X96412328Y-119446202D01*
X96277482Y-119395908D01*
X96277483Y-119395908D01*
X96217883Y-119389501D01*
X96217881Y-119389500D01*
X96217873Y-119389500D01*
X96217864Y-119389500D01*
X94422129Y-119389500D01*
X94422123Y-119389501D01*
X94362516Y-119395908D01*
X94227671Y-119446202D01*
X94227664Y-119446206D01*
X94112455Y-119532452D01*
X94112452Y-119532455D01*
X94026206Y-119647664D01*
X94026202Y-119647671D01*
X93975908Y-119782517D01*
X93969501Y-119842116D01*
X93969500Y-119842135D01*
X93969500Y-121637870D01*
X93969501Y-121637876D01*
X93975908Y-121697483D01*
X94026202Y-121832328D01*
X94026206Y-121832335D01*
X94112452Y-121947544D01*
X94112455Y-121947547D01*
X94227664Y-122033793D01*
X94227671Y-122033797D01*
X94362517Y-122084091D01*
X94362516Y-122084091D01*
X94369444Y-122084835D01*
X94422127Y-122090500D01*
X96217872Y-122090499D01*
X96277483Y-122084091D01*
X96277482Y-122084091D01*
X96285196Y-122083262D01*
X96285378Y-122084962D01*
X96345698Y-122088185D01*
X96392147Y-122117448D01*
X102677518Y-128402819D01*
X102711003Y-128464142D01*
X102706019Y-128533834D01*
X102664147Y-128589767D01*
X102598683Y-128614184D01*
X102589837Y-128614500D01*
X94023467Y-128614500D01*
X93892969Y-128640458D01*
X93892959Y-128640461D01*
X93770030Y-128691380D01*
X93770027Y-128691381D01*
X93685845Y-128747630D01*
X93685844Y-128747632D01*
X93683827Y-128748980D01*
X93659388Y-128765309D01*
X89625307Y-132799390D01*
X89625304Y-132799394D01*
X89551383Y-132910024D01*
X89551378Y-132910034D01*
X89500459Y-133032963D01*
X89500457Y-133032971D01*
X89475004Y-133160934D01*
X89475003Y-133160940D01*
X89474501Y-133163461D01*
X89474500Y-133163474D01*
X89474500Y-142798836D01*
X89454815Y-142865875D01*
X89438181Y-142886517D01*
X86569878Y-145754819D01*
X86508555Y-145788304D01*
X86450104Y-145786913D01*
X86405413Y-145774938D01*
X86405403Y-145774936D01*
X86170001Y-145754341D01*
X86169999Y-145754341D01*
X85934596Y-145774936D01*
X85934583Y-145774939D01*
X85776592Y-145817271D01*
X85706742Y-145815608D01*
X85648880Y-145776445D01*
X85621377Y-145712216D01*
X85620500Y-145697496D01*
X85620500Y-139636163D01*
X85640185Y-139569124D01*
X85656819Y-139548482D01*
X87969692Y-137235609D01*
X87969695Y-137235606D01*
X88043620Y-137124969D01*
X88094541Y-137002036D01*
X88120500Y-136871531D01*
X88120500Y-136738469D01*
X88120500Y-134928469D01*
X88120500Y-134928466D01*
X88094541Y-134797969D01*
X88094540Y-134797968D01*
X88094540Y-134797964D01*
X88071148Y-134741491D01*
X88043623Y-134675038D01*
X88043622Y-134675037D01*
X88043620Y-134675031D01*
X88030126Y-134654836D01*
X87969698Y-134564398D01*
X87969697Y-134564397D01*
X87969695Y-134564394D01*
X87875606Y-134470305D01*
X87525180Y-134119879D01*
X87491695Y-134058556D01*
X87493087Y-134000103D01*
X87505061Y-133955415D01*
X87505060Y-133955415D01*
X87505063Y-133955408D01*
X87525659Y-133720000D01*
X87505063Y-133484592D01*
X87456860Y-133304694D01*
X87443905Y-133256344D01*
X87443904Y-133256343D01*
X87443903Y-133256337D01*
X87344035Y-133042171D01*
X87339188Y-133035248D01*
X87208494Y-132848597D01*
X87041402Y-132681506D01*
X87041396Y-132681501D01*
X86855842Y-132551575D01*
X86812217Y-132496998D01*
X86805023Y-132427500D01*
X86836546Y-132365145D01*
X86855842Y-132348425D01*
X86900863Y-132316901D01*
X87041401Y-132218495D01*
X87208495Y-132051401D01*
X87344035Y-131857830D01*
X87443903Y-131643663D01*
X87505063Y-131415408D01*
X87525659Y-131180000D01*
X87507022Y-130966985D01*
X87520788Y-130898486D01*
X87542866Y-130868500D01*
X89272951Y-129138416D01*
X89355084Y-129015495D01*
X89411658Y-128878913D01*
X89429619Y-128788620D01*
X89440500Y-128733920D01*
X89440500Y-121927700D01*
X89460185Y-121860661D01*
X89493375Y-121826126D01*
X89561401Y-121778495D01*
X89683717Y-121656178D01*
X89745036Y-121622696D01*
X89814728Y-121627680D01*
X89870662Y-121669551D01*
X89887577Y-121700528D01*
X89936646Y-121832088D01*
X89936649Y-121832093D01*
X90022809Y-121947187D01*
X90022812Y-121947190D01*
X90137906Y-122033350D01*
X90137913Y-122033354D01*
X90272620Y-122083596D01*
X90272627Y-122083598D01*
X90332155Y-122089999D01*
X90332172Y-122090000D01*
X90980000Y-122090000D01*
X90980000Y-121173012D01*
X91037007Y-121205925D01*
X91164174Y-121240000D01*
X91295826Y-121240000D01*
X91422993Y-121205925D01*
X91480000Y-121173012D01*
X91480000Y-122090000D01*
X92127828Y-122090000D01*
X92127844Y-122089999D01*
X92187372Y-122083598D01*
X92187379Y-122083596D01*
X92322086Y-122033354D01*
X92322093Y-122033350D01*
X92437187Y-121947190D01*
X92437190Y-121947187D01*
X92523350Y-121832093D01*
X92523354Y-121832086D01*
X92573596Y-121697379D01*
X92573598Y-121697372D01*
X92579999Y-121637844D01*
X92580000Y-121637827D01*
X92580000Y-120990000D01*
X91663012Y-120990000D01*
X91695925Y-120932993D01*
X91730000Y-120805826D01*
X91730000Y-120674174D01*
X91695925Y-120547007D01*
X91663012Y-120490000D01*
X92580000Y-120490000D01*
X92580000Y-119842172D01*
X92579999Y-119842155D01*
X92573598Y-119782627D01*
X92573596Y-119782620D01*
X92523354Y-119647913D01*
X92523350Y-119647906D01*
X92437190Y-119532812D01*
X92437187Y-119532809D01*
X92322093Y-119446649D01*
X92322086Y-119446645D01*
X92187379Y-119396403D01*
X92187372Y-119396401D01*
X92127844Y-119390000D01*
X91480000Y-119390000D01*
X91480000Y-120306988D01*
X91422993Y-120274075D01*
X91295826Y-120240000D01*
X91164174Y-120240000D01*
X91037007Y-120274075D01*
X90980000Y-120306988D01*
X90980000Y-119390000D01*
X90332155Y-119390000D01*
X90272627Y-119396401D01*
X90272620Y-119396403D01*
X90137913Y-119446645D01*
X90137906Y-119446649D01*
X90022812Y-119532809D01*
X90022809Y-119532812D01*
X89936649Y-119647906D01*
X89936645Y-119647913D01*
X89887578Y-119779470D01*
X89845707Y-119835404D01*
X89780242Y-119859821D01*
X89711969Y-119844969D01*
X89683715Y-119823819D01*
X89638977Y-119779081D01*
X89561401Y-119701505D01*
X89561397Y-119701502D01*
X89561396Y-119701501D01*
X89367834Y-119565967D01*
X89367831Y-119565965D01*
X89367830Y-119565965D01*
X89312676Y-119540246D01*
X89288529Y-119528986D01*
X89236090Y-119482813D01*
X89216938Y-119415620D01*
X89237154Y-119348738D01*
X89253247Y-119328929D01*
X89735359Y-118846819D01*
X89796682Y-118813334D01*
X89823040Y-118810500D01*
X113663837Y-118810500D01*
X113730876Y-118830185D01*
G37*
%TD.AperFunction*%
%TA.AperFunction,Conductor*%
G36*
X142305894Y-114918831D02*
G01*
X142322985Y-114920415D01*
X142579289Y-114962224D01*
X142596000Y-114966154D01*
X142744015Y-115011989D01*
X142844084Y-115042977D01*
X142860092Y-115049178D01*
X143095184Y-115159539D01*
X143110166Y-115167883D01*
X143302874Y-115293452D01*
X143327761Y-115309669D01*
X143341457Y-115320012D01*
X143537381Y-115490502D01*
X143549497Y-115502618D01*
X143719985Y-115698540D01*
X143730330Y-115712238D01*
X143872111Y-115929825D01*
X143880463Y-115944820D01*
X143943004Y-116078046D01*
X143990819Y-116179903D01*
X143997022Y-116195915D01*
X144073844Y-116443996D01*
X144077775Y-116460713D01*
X144119583Y-116717010D01*
X144121168Y-116734109D01*
X144127167Y-116993739D01*
X144126374Y-117010893D01*
X144096446Y-117268859D01*
X144093290Y-117285740D01*
X144028010Y-117537092D01*
X144022553Y-117553373D01*
X143923171Y-117793305D01*
X143915516Y-117808678D01*
X143783944Y-118032566D01*
X143774240Y-118046733D01*
X143612993Y-118250305D01*
X143601424Y-118262996D01*
X143413598Y-118442339D01*
X143400386Y-118453310D01*
X143189587Y-118604982D01*
X143174987Y-118614022D01*
X142945250Y-118735118D01*
X142929540Y-118742054D01*
X142685289Y-118830245D01*
X142668773Y-118834945D01*
X142414661Y-118888550D01*
X142397652Y-118890922D01*
X142134293Y-118909202D01*
X142125707Y-118909500D01*
X142064108Y-118909500D01*
X141936812Y-118943608D01*
X141822686Y-119009500D01*
X141822683Y-119009502D01*
X141729502Y-119102683D01*
X141729500Y-119102686D01*
X141663608Y-119216812D01*
X141629500Y-119344108D01*
X141629500Y-125073770D01*
X141609815Y-125140809D01*
X141557011Y-125186564D01*
X141487853Y-125196508D01*
X141424297Y-125167483D01*
X141417819Y-125161451D01*
X141308657Y-125052289D01*
X141308656Y-125052288D01*
X141213212Y-124993418D01*
X141159336Y-124960187D01*
X141159331Y-124960185D01*
X141157862Y-124959698D01*
X140992797Y-124905001D01*
X140992795Y-124905000D01*
X140890016Y-124894500D01*
X140890009Y-124894500D01*
X140383663Y-124894500D01*
X140316624Y-124874815D01*
X140295982Y-124858181D01*
X138628109Y-123190307D01*
X138628105Y-123190304D01*
X138517475Y-123116383D01*
X138517465Y-123116378D01*
X138394536Y-123065459D01*
X138394528Y-123065457D01*
X138264035Y-123039500D01*
X138264031Y-123039500D01*
X135920781Y-123039500D01*
X135853742Y-123019815D01*
X135807987Y-122967011D01*
X135798043Y-122897853D01*
X135810372Y-122862824D01*
X135809285Y-122862354D01*
X135812380Y-122855200D01*
X135858200Y-122697486D01*
X135858395Y-122695001D01*
X135858395Y-122695000D01*
X132913805Y-122695000D01*
X132913804Y-122695001D01*
X132913999Y-122697486D01*
X132959818Y-122855198D01*
X133043414Y-122996552D01*
X133048200Y-123002722D01*
X133045740Y-123004629D01*
X133072310Y-123053288D01*
X133067326Y-123122980D01*
X133046262Y-123155781D01*
X133047799Y-123156974D01*
X133043015Y-123163140D01*
X132959355Y-123304603D01*
X132959354Y-123304606D01*
X132913502Y-123462426D01*
X132913501Y-123462432D01*
X132910600Y-123499298D01*
X132910600Y-123930701D01*
X132913501Y-123967567D01*
X132913502Y-123967573D01*
X132959354Y-124125393D01*
X132959355Y-124125396D01*
X133043017Y-124266862D01*
X133047802Y-124273031D01*
X133045356Y-124274927D01*
X133071957Y-124323642D01*
X133066973Y-124393334D01*
X133046169Y-124425703D01*
X133047802Y-124426969D01*
X133043017Y-124433137D01*
X132959355Y-124574603D01*
X132959354Y-124574606D01*
X132913502Y-124732426D01*
X132913501Y-124732432D01*
X132910600Y-124769298D01*
X132910600Y-124950500D01*
X132890915Y-125017539D01*
X132838111Y-125063294D01*
X132786600Y-125074500D01*
X132183467Y-125074500D01*
X132052969Y-125100458D01*
X132052959Y-125100461D01*
X131930038Y-125151376D01*
X131930020Y-125151386D01*
X131819398Y-125225301D01*
X131819390Y-125225307D01*
X131205307Y-125839390D01*
X131205304Y-125839394D01*
X131131383Y-125950024D01*
X131131378Y-125950034D01*
X131080459Y-126072963D01*
X131080457Y-126072971D01*
X131060698Y-126172309D01*
X131060698Y-126172311D01*
X131054500Y-126203467D01*
X131054500Y-128740300D01*
X131034815Y-128807339D01*
X130982011Y-128853094D01*
X130912853Y-128863038D01*
X130861610Y-128843403D01*
X130779688Y-128788665D01*
X130779665Y-128788650D01*
X130779620Y-128788620D01*
X130766594Y-128779916D01*
X130766592Y-128779915D01*
X130766589Y-128779913D01*
X130630016Y-128723343D01*
X130630004Y-128723340D01*
X130563890Y-128710189D01*
X130524958Y-128695302D01*
X130521498Y-128693256D01*
X130521497Y-128693255D01*
X130521496Y-128693255D01*
X130521493Y-128693254D01*
X130363673Y-128647402D01*
X130363667Y-128647401D01*
X130326801Y-128644500D01*
X130326794Y-128644500D01*
X129748330Y-128644500D01*
X129681291Y-128624815D01*
X129660649Y-128608181D01*
X129536819Y-128484351D01*
X129503334Y-128423028D01*
X129500500Y-128396670D01*
X129500500Y-128035793D01*
X129520185Y-127968754D01*
X129528642Y-127957133D01*
X129627685Y-127836450D01*
X129725232Y-127653954D01*
X129785300Y-127455934D01*
X129805583Y-127250000D01*
X129785300Y-127044066D01*
X129725232Y-126846046D01*
X129627685Y-126663550D01*
X129555087Y-126575088D01*
X129496410Y-126503589D01*
X129336452Y-126372317D01*
X129336453Y-126372317D01*
X129336450Y-126372315D01*
X129153954Y-126274768D01*
X128955934Y-126214700D01*
X128955932Y-126214699D01*
X128955934Y-126214699D01*
X128750000Y-126194417D01*
X128544067Y-126214699D01*
X128346043Y-126274769D01*
X128256191Y-126322797D01*
X128163550Y-126372315D01*
X128163548Y-126372316D01*
X128163547Y-126372317D01*
X128003589Y-126503589D01*
X127872317Y-126663547D01*
X127774769Y-126846043D01*
X127714699Y-127044067D01*
X127694417Y-127250000D01*
X127714699Y-127455932D01*
X127736981Y-127529385D01*
X127771945Y-127644649D01*
X127774769Y-127653956D01*
X127872317Y-127836453D01*
X127918586Y-127892831D01*
X127971353Y-127957129D01*
X127998666Y-128021438D01*
X127999500Y-128035793D01*
X127999500Y-128832822D01*
X128022765Y-128949783D01*
X128016538Y-129019374D01*
X128011344Y-129030007D01*
X128009354Y-129034607D01*
X127963502Y-129192426D01*
X127963501Y-129192432D01*
X127960600Y-129229298D01*
X127960600Y-129660701D01*
X127963501Y-129697567D01*
X127963502Y-129697573D01*
X128009354Y-129855393D01*
X128009355Y-129855396D01*
X128093017Y-129996862D01*
X128097802Y-130003031D01*
X128095469Y-130004840D01*
X128122310Y-130053995D01*
X128117326Y-130123687D01*
X128096570Y-130156021D01*
X128098197Y-130157283D01*
X128093413Y-130163449D01*
X128009818Y-130304801D01*
X127963999Y-130462513D01*
X127963804Y-130464998D01*
X127963805Y-130465000D01*
X129312100Y-130465000D01*
X129379139Y-130484685D01*
X129424894Y-130537489D01*
X129436100Y-130589000D01*
X129436100Y-130841000D01*
X129416415Y-130908039D01*
X129363611Y-130953794D01*
X129312100Y-130965000D01*
X127963805Y-130965000D01*
X127963804Y-130965001D01*
X127963999Y-130967486D01*
X128009818Y-131125198D01*
X128093414Y-131266552D01*
X128098200Y-131272722D01*
X128095740Y-131274629D01*
X128122310Y-131323288D01*
X128117326Y-131392980D01*
X128096262Y-131425781D01*
X128097799Y-131426974D01*
X128093015Y-131433140D01*
X128009355Y-131574603D01*
X128009354Y-131574606D01*
X127963502Y-131732426D01*
X127963501Y-131732432D01*
X127960600Y-131769298D01*
X127960600Y-132200701D01*
X127963501Y-132237567D01*
X127963502Y-132237573D01*
X128009354Y-132395393D01*
X128009355Y-132395396D01*
X128093017Y-132536862D01*
X128097802Y-132543031D01*
X128095469Y-132544840D01*
X128122310Y-132593995D01*
X128117326Y-132663687D01*
X128096570Y-132696021D01*
X128098197Y-132697283D01*
X128093413Y-132703449D01*
X128009818Y-132844801D01*
X127963999Y-133002513D01*
X127963804Y-133004998D01*
X127963805Y-133005000D01*
X129312100Y-133005000D01*
X129379139Y-133024685D01*
X129424894Y-133077489D01*
X129436100Y-133129000D01*
X129436100Y-133255000D01*
X129562100Y-133255000D01*
X129629139Y-133274685D01*
X129674894Y-133327489D01*
X129686100Y-133379000D01*
X129686100Y-134055000D01*
X130326734Y-134055000D01*
X130326749Y-134054999D01*
X130363589Y-134052100D01*
X130363595Y-134052099D01*
X130521293Y-134006283D01*
X130521296Y-134006282D01*
X130662650Y-133922686D01*
X130662653Y-133922684D01*
X130674301Y-133911036D01*
X130735623Y-133877550D01*
X130805315Y-133882532D01*
X130849666Y-133911034D01*
X130913674Y-133975042D01*
X130947159Y-134036365D01*
X130949396Y-134050568D01*
X130964699Y-134205932D01*
X130964700Y-134205934D01*
X131024768Y-134403954D01*
X131122315Y-134586450D01*
X131149280Y-134619307D01*
X131253589Y-134746410D01*
X131334559Y-134812859D01*
X131413550Y-134877685D01*
X131596046Y-134975232D01*
X131794066Y-135035300D01*
X131794065Y-135035300D01*
X131812529Y-135037118D01*
X132000000Y-135055583D01*
X132205934Y-135035300D01*
X132403954Y-134975232D01*
X132586450Y-134877685D01*
X132746410Y-134746410D01*
X132877685Y-134586450D01*
X132975232Y-134403954D01*
X133035300Y-134205934D01*
X133049378Y-134062998D01*
X133075539Y-133998212D01*
X133132573Y-133957853D01*
X133202373Y-133954736D01*
X133235899Y-133968419D01*
X133300702Y-134006744D01*
X133335308Y-134016798D01*
X133458526Y-134052597D01*
X133458529Y-134052597D01*
X133458531Y-134052598D01*
X133495406Y-134055500D01*
X133586600Y-134055500D01*
X133653639Y-134075185D01*
X133699394Y-134127989D01*
X133710600Y-134179500D01*
X133710600Y-134429719D01*
X133690915Y-134496758D01*
X133674281Y-134517400D01*
X129649800Y-138541881D01*
X129588477Y-138575366D01*
X129562119Y-138578200D01*
X129088515Y-138578200D01*
X129021476Y-138558515D01*
X129000834Y-138541881D01*
X125874261Y-135415307D01*
X125874257Y-135415304D01*
X125763627Y-135341383D01*
X125763617Y-135341378D01*
X125640688Y-135290459D01*
X125640680Y-135290457D01*
X125510187Y-135264500D01*
X125510183Y-135264500D01*
X125415100Y-135264500D01*
X125348061Y-135244815D01*
X125302306Y-135192011D01*
X125291100Y-135140500D01*
X125291100Y-134970000D01*
X124415100Y-134970000D01*
X124348061Y-134950315D01*
X124302306Y-134897511D01*
X124291100Y-134846000D01*
X124291100Y-134720000D01*
X124165100Y-134720000D01*
X124098061Y-134700315D01*
X124052306Y-134647511D01*
X124041100Y-134596000D01*
X124041100Y-134470000D01*
X124541100Y-134470000D01*
X125291099Y-134470000D01*
X125291099Y-134195028D01*
X125291098Y-134195013D01*
X125280605Y-134092302D01*
X125225458Y-133925880D01*
X125225456Y-133925875D01*
X125133415Y-133776654D01*
X125009445Y-133652684D01*
X124860224Y-133560643D01*
X124860219Y-133560641D01*
X124693797Y-133505494D01*
X124693790Y-133505493D01*
X124688974Y-133505001D01*
X127963804Y-133505001D01*
X127963999Y-133507486D01*
X128009818Y-133665198D01*
X128093414Y-133806552D01*
X128093421Y-133806561D01*
X128209538Y-133922678D01*
X128209547Y-133922685D01*
X128350903Y-134006282D01*
X128350906Y-134006283D01*
X128508604Y-134052099D01*
X128508610Y-134052100D01*
X128545450Y-134054999D01*
X128545466Y-134055000D01*
X129186100Y-134055000D01*
X129186100Y-133505000D01*
X127963805Y-133505000D01*
X127963804Y-133505001D01*
X124688974Y-133505001D01*
X124591086Y-133495000D01*
X124541100Y-133495000D01*
X124541100Y-134470000D01*
X124041100Y-134470000D01*
X124041100Y-133495000D01*
X124041099Y-133494999D01*
X123991129Y-133495000D01*
X123991111Y-133495001D01*
X123888403Y-133505494D01*
X123865156Y-133513197D01*
X123795327Y-133515597D01*
X123738473Y-133483171D01*
X118641819Y-128386517D01*
X118608334Y-128325194D01*
X118605500Y-128298836D01*
X118605500Y-126794986D01*
X121160001Y-126794986D01*
X121170494Y-126897697D01*
X121225641Y-127064119D01*
X121225643Y-127064124D01*
X121317684Y-127213345D01*
X121441654Y-127337315D01*
X121590875Y-127429356D01*
X121590880Y-127429358D01*
X121757302Y-127484505D01*
X121757309Y-127484506D01*
X121860019Y-127494999D01*
X121909999Y-127494998D01*
X121910000Y-127494998D01*
X121910000Y-126520000D01*
X121160001Y-126520000D01*
X121160001Y-126794986D01*
X118605500Y-126794986D01*
X118605500Y-125745013D01*
X121160000Y-125745013D01*
X121160000Y-126020000D01*
X121910000Y-126020000D01*
X121910000Y-125026142D01*
X121899196Y-125006357D01*
X121904180Y-124936665D01*
X121910000Y-124927609D01*
X121910000Y-123940000D01*
X121160001Y-123940000D01*
X121160001Y-124214986D01*
X121170494Y-124317697D01*
X121225641Y-124484119D01*
X121225643Y-124484124D01*
X121317684Y-124633345D01*
X121441654Y-124757315D01*
X121590876Y-124849356D01*
X121629915Y-124862292D01*
X121687361Y-124902064D01*
X121714185Y-124966580D01*
X121701871Y-125035356D01*
X121654329Y-125086556D01*
X121629920Y-125097704D01*
X121590882Y-125110640D01*
X121590875Y-125110643D01*
X121441654Y-125202684D01*
X121317684Y-125326654D01*
X121225643Y-125475875D01*
X121225641Y-125475880D01*
X121170494Y-125642302D01*
X121170493Y-125642309D01*
X121160000Y-125745013D01*
X118605500Y-125745013D01*
X118605500Y-123165013D01*
X121160000Y-123165013D01*
X121160000Y-123440000D01*
X121910000Y-123440000D01*
X121910000Y-121460000D01*
X121160001Y-121460000D01*
X121160001Y-121734986D01*
X121170494Y-121837697D01*
X121225641Y-122004119D01*
X121225643Y-122004124D01*
X121317684Y-122153345D01*
X121441654Y-122277315D01*
X121550514Y-122344461D01*
X121597239Y-122396409D01*
X121608460Y-122465372D01*
X121580617Y-122529454D01*
X121550514Y-122555539D01*
X121441654Y-122622684D01*
X121317684Y-122746654D01*
X121225643Y-122895875D01*
X121225641Y-122895880D01*
X121170494Y-123062302D01*
X121170493Y-123062309D01*
X121160000Y-123165013D01*
X118605500Y-123165013D01*
X118605500Y-120685013D01*
X121160000Y-120685013D01*
X121160000Y-120960000D01*
X121910000Y-120960000D01*
X121910000Y-119985000D01*
X122410000Y-119985000D01*
X122410000Y-124933855D01*
X122420804Y-124953641D01*
X122415820Y-125023333D01*
X122410000Y-125032389D01*
X122410000Y-127494999D01*
X122459972Y-127494999D01*
X122459986Y-127494998D01*
X122562697Y-127484505D01*
X122729119Y-127429358D01*
X122729124Y-127429356D01*
X122878345Y-127337315D01*
X123002318Y-127213342D01*
X123004165Y-127210348D01*
X123005969Y-127208724D01*
X123006798Y-127207677D01*
X123006976Y-127207818D01*
X123056110Y-127163621D01*
X123125073Y-127152396D01*
X123189156Y-127180236D01*
X123215243Y-127210341D01*
X123217288Y-127213656D01*
X123341344Y-127337712D01*
X123490666Y-127429814D01*
X123657203Y-127484999D01*
X123759991Y-127495500D01*
X124360008Y-127495499D01*
X124360016Y-127495498D01*
X124360019Y-127495498D01*
X124416302Y-127489748D01*
X124462797Y-127484999D01*
X124629334Y-127429814D01*
X124778656Y-127337712D01*
X124902712Y-127213656D01*
X124994814Y-127064334D01*
X125049999Y-126897797D01*
X125060500Y-126795009D01*
X125060499Y-126248119D01*
X125080183Y-126181082D01*
X125132987Y-126135327D01*
X125202146Y-126125383D01*
X125265702Y-126154408D01*
X125293857Y-126189667D01*
X125305587Y-126211612D01*
X125372315Y-126336450D01*
X125401750Y-126372317D01*
X125503589Y-126496410D01*
X125599460Y-126575088D01*
X125663550Y-126627685D01*
X125846046Y-126725232D01*
X126044066Y-126785300D01*
X126044065Y-126785300D01*
X126062529Y-126787118D01*
X126250000Y-126805583D01*
X126455934Y-126785300D01*
X126653954Y-126725232D01*
X126836450Y-126627685D01*
X126996410Y-126496410D01*
X127127685Y-126336450D01*
X127225232Y-126153954D01*
X127285300Y-125955934D01*
X127305583Y-125750000D01*
X127285300Y-125544066D01*
X127225232Y-125346046D01*
X127165877Y-125235001D01*
X127963804Y-125235001D01*
X127963999Y-125237486D01*
X128009818Y-125395198D01*
X128093414Y-125536552D01*
X128093421Y-125536561D01*
X128209538Y-125652678D01*
X128209547Y-125652685D01*
X128350903Y-125736282D01*
X128350906Y-125736283D01*
X128508604Y-125782099D01*
X128508610Y-125782100D01*
X128545450Y-125784999D01*
X128545466Y-125785000D01*
X129186100Y-125785000D01*
X129686100Y-125785000D01*
X130326734Y-125785000D01*
X130326749Y-125784999D01*
X130363589Y-125782100D01*
X130363595Y-125782099D01*
X130521293Y-125736283D01*
X130521296Y-125736282D01*
X130662652Y-125652685D01*
X130662661Y-125652678D01*
X130778778Y-125536561D01*
X130778785Y-125536552D01*
X130862381Y-125395198D01*
X130908200Y-125237486D01*
X130908395Y-125235001D01*
X130908395Y-125235000D01*
X129686100Y-125235000D01*
X129686100Y-125785000D01*
X129186100Y-125785000D01*
X129186100Y-125235000D01*
X127963805Y-125235000D01*
X127963804Y-125235001D01*
X127165877Y-125235001D01*
X127127685Y-125163550D01*
X127036376Y-125052289D01*
X126996410Y-125003589D01*
X126836452Y-124872317D01*
X126836453Y-124872317D01*
X126836450Y-124872315D01*
X126653954Y-124774768D01*
X126522855Y-124735000D01*
X126455932Y-124714699D01*
X126300569Y-124699397D01*
X126235782Y-124673236D01*
X126225043Y-124663675D01*
X126213549Y-124652181D01*
X126180064Y-124590858D01*
X126185048Y-124521166D01*
X126226920Y-124465233D01*
X126292384Y-124440816D01*
X126301230Y-124440500D01*
X127883684Y-124440500D01*
X127950723Y-124460185D01*
X127996478Y-124512989D01*
X128006422Y-124582147D01*
X128002760Y-124599095D01*
X127964000Y-124732505D01*
X127963999Y-124732511D01*
X127963804Y-124734998D01*
X127963805Y-124735000D01*
X130908395Y-124735000D01*
X130908395Y-124734998D01*
X130908200Y-124732513D01*
X130862381Y-124574801D01*
X130778785Y-124433447D01*
X130774000Y-124427278D01*
X130776466Y-124425364D01*
X130749902Y-124376776D01*
X130754849Y-124307082D01*
X130775956Y-124274232D01*
X130774401Y-124273026D01*
X130779177Y-124266868D01*
X130779181Y-124266865D01*
X130862844Y-124125398D01*
X130908698Y-123967569D01*
X130911600Y-123930694D01*
X130911600Y-123499306D01*
X130908698Y-123462431D01*
X130862844Y-123304602D01*
X130779181Y-123163135D01*
X130779178Y-123163132D01*
X130774398Y-123156969D01*
X130776850Y-123155066D01*
X130750255Y-123106421D01*
X130755204Y-123036726D01*
X130776040Y-123004304D01*
X130774398Y-123003031D01*
X130779175Y-122996870D01*
X130779181Y-122996865D01*
X130862844Y-122855398D01*
X130908698Y-122697569D01*
X130911600Y-122660694D01*
X130911600Y-122229306D01*
X130908698Y-122192431D01*
X130908094Y-122190351D01*
X130877224Y-122084095D01*
X130877423Y-122014225D01*
X130915365Y-121955555D01*
X130979004Y-121926712D01*
X130996300Y-121925500D01*
X132826421Y-121925500D01*
X132893460Y-121945185D01*
X132939215Y-121997989D01*
X132949159Y-122067147D01*
X132945497Y-122084095D01*
X132914000Y-122192505D01*
X132913999Y-122192511D01*
X132913804Y-122194998D01*
X132913805Y-122195000D01*
X135858395Y-122195000D01*
X135858395Y-122194998D01*
X135858200Y-122192511D01*
X135858199Y-122192508D01*
X135848492Y-122159093D01*
X135848693Y-122089224D01*
X135886635Y-122030555D01*
X135950274Y-122001712D01*
X135967569Y-122000500D01*
X137028942Y-122000500D01*
X137095981Y-122020185D01*
X137134479Y-122059401D01*
X137217288Y-122193656D01*
X137341344Y-122317712D01*
X137490666Y-122409814D01*
X137657203Y-122464999D01*
X137759991Y-122475500D01*
X138360008Y-122475499D01*
X138360016Y-122475498D01*
X138360019Y-122475498D01*
X138416302Y-122469748D01*
X138462797Y-122464999D01*
X138629334Y-122409814D01*
X138778656Y-122317712D01*
X138902712Y-122193656D01*
X138904752Y-122190347D01*
X138906745Y-122188555D01*
X138907193Y-122187989D01*
X138907289Y-122188065D01*
X138956694Y-122143623D01*
X139025656Y-122132395D01*
X139089740Y-122160234D01*
X139115829Y-122190339D01*
X139117681Y-122193341D01*
X139117683Y-122193344D01*
X139241654Y-122317315D01*
X139390875Y-122409356D01*
X139390880Y-122409358D01*
X139557302Y-122464505D01*
X139557309Y-122464506D01*
X139660019Y-122474999D01*
X140210000Y-122474999D01*
X140259972Y-122474999D01*
X140259986Y-122474998D01*
X140362697Y-122464505D01*
X140529119Y-122409358D01*
X140529124Y-122409356D01*
X140678345Y-122317315D01*
X140802315Y-122193345D01*
X140894356Y-122044124D01*
X140894358Y-122044119D01*
X140949505Y-121877697D01*
X140949506Y-121877690D01*
X140959999Y-121774986D01*
X140960000Y-121774973D01*
X140960000Y-121500000D01*
X140210000Y-121500000D01*
X140210000Y-122474999D01*
X139660019Y-122474999D01*
X139709999Y-122474998D01*
X139710000Y-122474998D01*
X139710000Y-121000000D01*
X140210000Y-121000000D01*
X140959999Y-121000000D01*
X140959999Y-120725028D01*
X140959998Y-120725013D01*
X140949505Y-120622302D01*
X140894358Y-120455880D01*
X140894356Y-120455875D01*
X140802315Y-120306654D01*
X140678345Y-120182684D01*
X140529124Y-120090643D01*
X140529119Y-120090641D01*
X140362697Y-120035494D01*
X140362690Y-120035493D01*
X140259986Y-120025000D01*
X140210000Y-120025000D01*
X140210000Y-121000000D01*
X139710000Y-121000000D01*
X139710000Y-120025000D01*
X139709999Y-120024999D01*
X139660029Y-120025000D01*
X139660011Y-120025001D01*
X139557302Y-120035494D01*
X139390880Y-120090641D01*
X139390875Y-120090643D01*
X139241654Y-120182684D01*
X139117683Y-120306655D01*
X139117679Y-120306660D01*
X139115826Y-120309665D01*
X139114018Y-120311290D01*
X139113202Y-120312323D01*
X139113025Y-120312183D01*
X139063874Y-120356385D01*
X138994911Y-120367601D01*
X138930831Y-120339752D01*
X138904753Y-120309653D01*
X138904737Y-120309628D01*
X138902712Y-120306344D01*
X138778656Y-120182288D01*
X138685888Y-120125069D01*
X138629336Y-120090187D01*
X138629331Y-120090185D01*
X138583243Y-120074913D01*
X138462797Y-120035001D01*
X138462795Y-120035000D01*
X138360010Y-120024500D01*
X137759998Y-120024500D01*
X137759980Y-120024501D01*
X137657203Y-120035000D01*
X137657200Y-120035001D01*
X137490668Y-120090185D01*
X137490663Y-120090187D01*
X137341342Y-120182289D01*
X137217289Y-120306342D01*
X137214237Y-120311290D01*
X137144410Y-120424500D01*
X137134481Y-120440597D01*
X137082533Y-120487321D01*
X137028942Y-120499500D01*
X135634342Y-120499500D01*
X135571221Y-120482232D01*
X135526654Y-120455875D01*
X135471498Y-120423256D01*
X135471497Y-120423255D01*
X135471496Y-120423255D01*
X135471493Y-120423254D01*
X135313673Y-120377402D01*
X135313667Y-120377401D01*
X135276801Y-120374500D01*
X135276794Y-120374500D01*
X133495406Y-120374500D01*
X133495398Y-120374500D01*
X133458532Y-120377401D01*
X133458526Y-120377402D01*
X133313367Y-120419576D01*
X133278772Y-120424500D01*
X130543428Y-120424500D01*
X130508833Y-120419576D01*
X130363673Y-120377402D01*
X130363667Y-120377401D01*
X130326801Y-120374500D01*
X130326794Y-120374500D01*
X128545406Y-120374500D01*
X128545398Y-120374500D01*
X128508532Y-120377401D01*
X128508526Y-120377402D01*
X128350706Y-120423254D01*
X128350703Y-120423255D01*
X128209237Y-120506917D01*
X128209229Y-120506923D01*
X128093023Y-120623129D01*
X128093017Y-120623137D01*
X128009355Y-120764603D01*
X128009354Y-120764606D01*
X127963502Y-120922426D01*
X127963501Y-120922432D01*
X127960600Y-120959298D01*
X127960600Y-121390701D01*
X127963501Y-121427567D01*
X127963502Y-121427573D01*
X128009354Y-121585393D01*
X128009355Y-121585396D01*
X128009356Y-121585398D01*
X128024734Y-121611401D01*
X128093017Y-121726862D01*
X128097802Y-121733031D01*
X128095356Y-121734927D01*
X128121957Y-121783642D01*
X128116973Y-121853334D01*
X128096169Y-121885703D01*
X128097802Y-121886969D01*
X128093017Y-121893137D01*
X128009355Y-122034603D01*
X128009354Y-122034606D01*
X127963502Y-122192426D01*
X127963501Y-122192432D01*
X127960600Y-122229298D01*
X127960600Y-122660701D01*
X127963501Y-122697567D01*
X127963502Y-122697573D01*
X127987713Y-122780905D01*
X127987514Y-122850774D01*
X127949572Y-122909444D01*
X127885934Y-122938288D01*
X127868637Y-122939500D01*
X125091058Y-122939500D01*
X125024019Y-122919815D01*
X124985519Y-122880597D01*
X124902712Y-122746344D01*
X124846819Y-122690451D01*
X124813334Y-122629128D01*
X124810500Y-122602770D01*
X124810500Y-122297230D01*
X124830185Y-122230191D01*
X124846819Y-122209549D01*
X124868379Y-122187989D01*
X124902712Y-122153656D01*
X124994814Y-122004334D01*
X125049999Y-121837797D01*
X125060500Y-121735009D01*
X125060499Y-120684992D01*
X125054180Y-120623137D01*
X125049999Y-120582203D01*
X125049998Y-120582200D01*
X125038336Y-120547007D01*
X124994814Y-120415666D01*
X124902712Y-120266344D01*
X124778656Y-120142288D01*
X124648762Y-120062169D01*
X124629336Y-120050187D01*
X124629331Y-120050185D01*
X124627862Y-120049698D01*
X124462797Y-119995001D01*
X124462795Y-119995000D01*
X124360010Y-119984500D01*
X123759998Y-119984500D01*
X123759980Y-119984501D01*
X123657203Y-119995000D01*
X123657200Y-119995001D01*
X123490668Y-120050185D01*
X123490663Y-120050187D01*
X123341342Y-120142289D01*
X123217288Y-120266343D01*
X123217283Y-120266349D01*
X123215241Y-120269661D01*
X123213247Y-120271453D01*
X123212807Y-120272011D01*
X123212711Y-120271935D01*
X123163291Y-120316383D01*
X123094328Y-120327602D01*
X123030247Y-120299755D01*
X123004168Y-120269656D01*
X123002319Y-120266659D01*
X123002316Y-120266655D01*
X122878345Y-120142684D01*
X122729124Y-120050643D01*
X122729119Y-120050641D01*
X122562697Y-119995494D01*
X122562690Y-119995493D01*
X122459986Y-119985000D01*
X122410000Y-119985000D01*
X121910000Y-119985000D01*
X121909999Y-119984999D01*
X121860029Y-119985000D01*
X121860011Y-119985001D01*
X121757302Y-119995494D01*
X121590880Y-120050641D01*
X121590875Y-120050643D01*
X121441654Y-120142684D01*
X121317684Y-120266654D01*
X121225643Y-120415875D01*
X121225641Y-120415880D01*
X121170494Y-120582302D01*
X121170493Y-120582309D01*
X121160000Y-120685013D01*
X118605500Y-120685013D01*
X118605500Y-119093466D01*
X118579541Y-118962969D01*
X118579540Y-118962968D01*
X118579540Y-118962964D01*
X118572112Y-118945031D01*
X118528623Y-118840038D01*
X118528622Y-118840037D01*
X118528620Y-118840031D01*
X118524856Y-118834398D01*
X118454698Y-118729398D01*
X118454697Y-118729397D01*
X118454695Y-118729394D01*
X118360606Y-118635305D01*
X117347482Y-117622181D01*
X117313997Y-117560858D01*
X117318981Y-117491166D01*
X117360853Y-117435233D01*
X117426317Y-117410816D01*
X117435163Y-117410500D01*
X139695890Y-117410500D01*
X139695892Y-117410500D01*
X139823186Y-117376392D01*
X139937314Y-117310500D01*
X140030500Y-117217314D01*
X140096392Y-117103186D01*
X140130500Y-116975892D01*
X140130500Y-116914292D01*
X140130798Y-116905706D01*
X140137604Y-116807648D01*
X140829500Y-116807648D01*
X140829500Y-117012351D01*
X140861522Y-117214534D01*
X140924781Y-117409223D01*
X141017715Y-117591613D01*
X141138028Y-117757213D01*
X141282786Y-117901971D01*
X141437749Y-118014556D01*
X141448390Y-118022287D01*
X141564607Y-118081503D01*
X141630776Y-118115218D01*
X141630778Y-118115218D01*
X141630781Y-118115220D01*
X141735137Y-118149127D01*
X141825465Y-118178477D01*
X141926557Y-118194488D01*
X142027648Y-118210500D01*
X142027649Y-118210500D01*
X142232351Y-118210500D01*
X142232352Y-118210500D01*
X142434534Y-118178477D01*
X142629219Y-118115220D01*
X142811610Y-118022287D01*
X142904590Y-117954732D01*
X142977213Y-117901971D01*
X142977215Y-117901968D01*
X142977219Y-117901966D01*
X143121966Y-117757219D01*
X143121968Y-117757215D01*
X143121971Y-117757213D01*
X143174732Y-117684590D01*
X143242287Y-117591610D01*
X143335220Y-117409219D01*
X143398477Y-117214534D01*
X143430500Y-117012352D01*
X143430500Y-116807648D01*
X143416144Y-116717010D01*
X143398477Y-116605465D01*
X143335218Y-116410776D01*
X143301503Y-116344607D01*
X143242287Y-116228390D01*
X143212722Y-116187697D01*
X143121971Y-116062786D01*
X142977213Y-115918028D01*
X142811613Y-115797715D01*
X142811612Y-115797714D01*
X142811610Y-115797713D01*
X142737494Y-115759949D01*
X142629223Y-115704781D01*
X142434534Y-115641522D01*
X142259995Y-115613878D01*
X142232352Y-115609500D01*
X142027648Y-115609500D01*
X142003329Y-115613351D01*
X141825465Y-115641522D01*
X141630776Y-115704781D01*
X141448386Y-115797715D01*
X141282786Y-115918028D01*
X141138028Y-116062786D01*
X141017715Y-116228386D01*
X140924781Y-116410776D01*
X140861522Y-116605465D01*
X140829500Y-116807648D01*
X140137604Y-116807648D01*
X140149078Y-116642336D01*
X140151447Y-116625348D01*
X140205057Y-116371214D01*
X140209750Y-116354723D01*
X140297948Y-116110449D01*
X140304876Y-116094758D01*
X140425984Y-115864999D01*
X140435009Y-115850423D01*
X140586694Y-115639605D01*
X140597654Y-115626407D01*
X140777011Y-115438567D01*
X140789685Y-115427013D01*
X140993273Y-115265753D01*
X141007425Y-115256060D01*
X141231336Y-115124475D01*
X141246683Y-115116832D01*
X141486626Y-115017446D01*
X141502902Y-115011990D01*
X141754265Y-114946707D01*
X141771133Y-114943554D01*
X142029119Y-114913624D01*
X142046248Y-114912832D01*
X142305894Y-114918831D01*
G37*
%TD.AperFunction*%
%TA.AperFunction,Conductor*%
G36*
X112912912Y-131716506D02*
G01*
X112919611Y-131718089D01*
X112919613Y-131718089D01*
X112919618Y-131718091D01*
X112979228Y-131724500D01*
X113281599Y-131724499D01*
X113348638Y-131744183D01*
X113394393Y-131796987D01*
X113405599Y-131848499D01*
X113405599Y-136596084D01*
X113431556Y-136726577D01*
X113431558Y-136726585D01*
X113482477Y-136849514D01*
X113482482Y-136849524D01*
X113556403Y-136960154D01*
X113556406Y-136960158D01*
X114220068Y-137623819D01*
X114253553Y-137685142D01*
X114248569Y-137754833D01*
X114206698Y-137810767D01*
X114141233Y-137835184D01*
X114132387Y-137835500D01*
X113779229Y-137835500D01*
X113779222Y-137835501D01*
X113719614Y-137841909D01*
X113712070Y-137843692D01*
X113711444Y-137841044D01*
X113654718Y-137845091D01*
X113649224Y-137843477D01*
X113642583Y-137841908D01*
X113582983Y-137835501D01*
X113582974Y-137835500D01*
X113582964Y-137835500D01*
X112979230Y-137835500D01*
X112979224Y-137835501D01*
X112919616Y-137841909D01*
X112912072Y-137843692D01*
X112911447Y-137841047D01*
X112854703Y-137845088D01*
X112849214Y-137843475D01*
X112842588Y-137841910D01*
X112842584Y-137841909D01*
X112842583Y-137841909D01*
X112782973Y-137835500D01*
X112782963Y-137835500D01*
X112179229Y-137835500D01*
X112179223Y-137835501D01*
X112119615Y-137841909D01*
X112112071Y-137843692D01*
X112111446Y-137841047D01*
X112054702Y-137845088D01*
X112049213Y-137843475D01*
X112042587Y-137841910D01*
X112042583Y-137841909D01*
X112042582Y-137841909D01*
X111982972Y-137835500D01*
X111982962Y-137835500D01*
X111379228Y-137835500D01*
X111379222Y-137835501D01*
X111319614Y-137841909D01*
X111312070Y-137843692D01*
X111311444Y-137841044D01*
X111254718Y-137845091D01*
X111249224Y-137843477D01*
X111242583Y-137841908D01*
X111182984Y-137835501D01*
X111182982Y-137835500D01*
X111182974Y-137835500D01*
X111182966Y-137835500D01*
X110749599Y-137835500D01*
X110682560Y-137815815D01*
X110636805Y-137763011D01*
X110625599Y-137711500D01*
X110625599Y-137278128D01*
X110625598Y-137278122D01*
X110622645Y-137250643D01*
X110619191Y-137218516D01*
X110619190Y-137218514D01*
X110619190Y-137218511D01*
X110617408Y-137210968D01*
X110620061Y-137210340D01*
X110615999Y-137153660D01*
X110617609Y-137148177D01*
X110619189Y-137141487D01*
X110619188Y-137141487D01*
X110619191Y-137141482D01*
X110625600Y-137081872D01*
X110625599Y-136478127D01*
X110619191Y-136418516D01*
X110619190Y-136418514D01*
X110619190Y-136418511D01*
X110617408Y-136410968D01*
X110620058Y-136410341D01*
X110616002Y-136353643D01*
X110617614Y-136348154D01*
X110619188Y-136341490D01*
X110619191Y-136341483D01*
X110625600Y-136281873D01*
X110625599Y-135678128D01*
X110619191Y-135618517D01*
X110619190Y-135618515D01*
X110619190Y-135618512D01*
X110617408Y-135610969D01*
X110619848Y-135610392D01*
X110615733Y-135552939D01*
X110616920Y-135548895D01*
X110618698Y-135541374D01*
X110625099Y-135481843D01*
X110625100Y-135481826D01*
X110625100Y-135429999D01*
X110590788Y-135429999D01*
X110523749Y-135410314D01*
X110491520Y-135380308D01*
X110482649Y-135368457D01*
X110482647Y-135368455D01*
X110482646Y-135368454D01*
X110410747Y-135314630D01*
X110363507Y-135279266D01*
X110321637Y-135223332D01*
X110316653Y-135153641D01*
X110350139Y-135092318D01*
X110363508Y-135080733D01*
X110367428Y-135077797D01*
X110367431Y-135077797D01*
X110482646Y-134991547D01*
X110482649Y-134991543D01*
X110491525Y-134979687D01*
X110547459Y-134937817D01*
X110590791Y-134929999D01*
X110625100Y-134929999D01*
X110625100Y-134878171D01*
X110625099Y-134878154D01*
X110618698Y-134818623D01*
X110616914Y-134811073D01*
X110619745Y-134810403D01*
X110615737Y-134754354D01*
X110617849Y-134747162D01*
X110619189Y-134741491D01*
X110619189Y-134741488D01*
X110619191Y-134741484D01*
X110625600Y-134681874D01*
X110625599Y-134078129D01*
X110619191Y-134018518D01*
X110619190Y-134018516D01*
X110619190Y-134018513D01*
X110617408Y-134010970D01*
X110619848Y-134010393D01*
X110615733Y-133952940D01*
X110616920Y-133948896D01*
X110618698Y-133941375D01*
X110625099Y-133881844D01*
X110625100Y-133881827D01*
X110625100Y-133830000D01*
X110590788Y-133830000D01*
X110523749Y-133810315D01*
X110491520Y-133780309D01*
X110482649Y-133768458D01*
X110482646Y-133768456D01*
X110482646Y-133768455D01*
X110453198Y-133746410D01*
X110363506Y-133679266D01*
X110321635Y-133623333D01*
X110316651Y-133553641D01*
X110350137Y-133492318D01*
X110363506Y-133480734D01*
X110414464Y-133442585D01*
X110482646Y-133391545D01*
X110491520Y-133379691D01*
X110547453Y-133337819D01*
X110590788Y-133330000D01*
X110625100Y-133330000D01*
X110625100Y-133278172D01*
X110625099Y-133278155D01*
X110618698Y-133218627D01*
X110616914Y-133211076D01*
X110619743Y-133210407D01*
X110615738Y-133154346D01*
X110617850Y-133147153D01*
X110619189Y-133141488D01*
X110619191Y-133141482D01*
X110625600Y-133081872D01*
X110625599Y-132478127D01*
X110619191Y-132418516D01*
X110619191Y-132418515D01*
X110617407Y-132410965D01*
X110620061Y-132410337D01*
X110615999Y-132353659D01*
X110617608Y-132348177D01*
X110619189Y-132341489D01*
X110619191Y-132341484D01*
X110625600Y-132281874D01*
X110625599Y-131848498D01*
X110645283Y-131781460D01*
X110698087Y-131735705D01*
X110749599Y-131724499D01*
X111182972Y-131724499D01*
X111182973Y-131724499D01*
X111242584Y-131718091D01*
X111242586Y-131718090D01*
X111242588Y-131718090D01*
X111250132Y-131716308D01*
X111250759Y-131718964D01*
X111307422Y-131714895D01*
X111312912Y-131716506D01*
X111319612Y-131718089D01*
X111319618Y-131718091D01*
X111379228Y-131724500D01*
X111982973Y-131724499D01*
X112042584Y-131718091D01*
X112050135Y-131716307D01*
X112050763Y-131718967D01*
X112107406Y-131714891D01*
X112112901Y-131716504D01*
X112119611Y-131718089D01*
X112119617Y-131718091D01*
X112179227Y-131724500D01*
X112782972Y-131724499D01*
X112842583Y-131718091D01*
X112850128Y-131716308D01*
X112850756Y-131718966D01*
X112907406Y-131714890D01*
X112912912Y-131716506D01*
G37*
%TD.AperFunction*%
%TA.AperFunction,Conductor*%
G36*
X115312912Y-131716506D02*
G01*
X115319611Y-131718089D01*
X115319613Y-131718089D01*
X115319618Y-131718091D01*
X115379228Y-131724500D01*
X115982973Y-131724499D01*
X116042584Y-131718091D01*
X116050135Y-131716307D01*
X116050762Y-131718964D01*
X116107423Y-131714895D01*
X116112912Y-131716506D01*
X116119610Y-131718088D01*
X116119616Y-131718091D01*
X116179226Y-131724500D01*
X116612600Y-131724499D01*
X116679639Y-131744183D01*
X116725394Y-131796987D01*
X116736600Y-131848499D01*
X116736600Y-132281871D01*
X116736601Y-132281875D01*
X116743009Y-132341485D01*
X116744792Y-132349029D01*
X116742141Y-132349655D01*
X116746198Y-132406355D01*
X116744582Y-132411856D01*
X116743008Y-132418518D01*
X116740667Y-132440297D01*
X116736601Y-132478127D01*
X116736600Y-132478137D01*
X116736600Y-133081871D01*
X116736601Y-133081877D01*
X116743009Y-133141485D01*
X116744792Y-133149030D01*
X116742144Y-133149655D01*
X116746191Y-133206382D01*
X116744577Y-133211879D01*
X116743008Y-133218517D01*
X116738942Y-133256344D01*
X116736601Y-133278123D01*
X116736600Y-133278136D01*
X116736600Y-133881870D01*
X116736601Y-133881876D01*
X116743009Y-133941484D01*
X116744792Y-133949029D01*
X116742356Y-133949604D01*
X116746459Y-134007093D01*
X116745268Y-134011150D01*
X116743501Y-134018625D01*
X116737100Y-134078156D01*
X116737100Y-134130001D01*
X116771412Y-134130001D01*
X116838451Y-134149686D01*
X116870680Y-134179692D01*
X116879550Y-134191542D01*
X116879552Y-134191544D01*
X116879554Y-134191546D01*
X116898771Y-134205932D01*
X116998691Y-134280733D01*
X117040562Y-134336667D01*
X117045546Y-134406358D01*
X117012060Y-134467681D01*
X116998692Y-134479265D01*
X116879554Y-134568452D01*
X116879550Y-134568456D01*
X116870675Y-134580313D01*
X116814741Y-134622183D01*
X116771409Y-134630001D01*
X116737100Y-134630001D01*
X116737100Y-134681845D01*
X116743502Y-134741378D01*
X116745287Y-134748934D01*
X116742458Y-134749602D01*
X116746457Y-134805667D01*
X116744345Y-134812859D01*
X116743010Y-134818507D01*
X116743009Y-134818515D01*
X116743009Y-134818516D01*
X116736600Y-134878126D01*
X116736600Y-134878133D01*
X116736600Y-134878134D01*
X116736600Y-135481869D01*
X116736601Y-135481875D01*
X116743009Y-135541486D01*
X116744792Y-135549030D01*
X116742144Y-135549655D01*
X116746191Y-135606381D01*
X116744577Y-135611878D01*
X116743010Y-135618508D01*
X116743009Y-135618516D01*
X116743009Y-135618517D01*
X116736600Y-135678127D01*
X116736600Y-135678134D01*
X116736600Y-135678135D01*
X116736600Y-135699705D01*
X116716915Y-135766744D01*
X116664111Y-135812499D01*
X116594953Y-135822443D01*
X116531397Y-135793418D01*
X116516747Y-135778370D01*
X116496410Y-135753590D01*
X116440848Y-135707992D01*
X116336450Y-135622315D01*
X116153954Y-135524768D01*
X115955934Y-135464700D01*
X115955932Y-135464699D01*
X115955934Y-135464699D01*
X115750000Y-135444417D01*
X115544067Y-135464699D01*
X115346043Y-135524769D01*
X115242717Y-135579999D01*
X115163550Y-135622315D01*
X115163548Y-135622316D01*
X115163547Y-135622317D01*
X115003589Y-135753590D01*
X114976452Y-135786657D01*
X114918706Y-135825991D01*
X114848862Y-135827862D01*
X114789094Y-135791674D01*
X114758378Y-135728919D01*
X114756599Y-135707992D01*
X114756599Y-131848499D01*
X114776284Y-131781460D01*
X114829088Y-131735705D01*
X114880599Y-131724499D01*
X115182971Y-131724499D01*
X115182972Y-131724499D01*
X115242583Y-131718091D01*
X115250128Y-131716308D01*
X115250756Y-131718966D01*
X115307406Y-131714890D01*
X115312912Y-131716506D01*
G37*
%TD.AperFunction*%
%TA.AperFunction,Conductor*%
G36*
X134800917Y-125805185D02*
G01*
X134846672Y-125857989D01*
X134856616Y-125927147D01*
X134843237Y-125967950D01*
X134820494Y-126010500D01*
X134774769Y-126096043D01*
X134714699Y-126294067D01*
X134694417Y-126500000D01*
X134714699Y-126705932D01*
X134714700Y-126705934D01*
X134774768Y-126903954D01*
X134872315Y-127086450D01*
X134906969Y-127128677D01*
X135003589Y-127246410D01*
X135089418Y-127316847D01*
X135163550Y-127377685D01*
X135346046Y-127475232D01*
X135544066Y-127535300D01*
X135544065Y-127535300D01*
X135606589Y-127541458D01*
X135699429Y-127550602D01*
X135764216Y-127576763D01*
X135774956Y-127586324D01*
X136038930Y-127850298D01*
X136262201Y-128073568D01*
X136295686Y-128134891D01*
X136290702Y-128204582D01*
X136262201Y-128248930D01*
X135852951Y-128658181D01*
X135791628Y-128691666D01*
X135765270Y-128694500D01*
X135493428Y-128694500D01*
X135458833Y-128689576D01*
X135313673Y-128647402D01*
X135313667Y-128647401D01*
X135276801Y-128644500D01*
X135276794Y-128644500D01*
X133495406Y-128644500D01*
X133495398Y-128644500D01*
X133458532Y-128647401D01*
X133458526Y-128647402D01*
X133300706Y-128693254D01*
X133300703Y-128693255D01*
X133159237Y-128776917D01*
X133159229Y-128776923D01*
X133043023Y-128893129D01*
X133043017Y-128893137D01*
X132959355Y-129034603D01*
X132959354Y-129034606D01*
X132913502Y-129192426D01*
X132913501Y-129192432D01*
X132910600Y-129229298D01*
X132910600Y-129660701D01*
X132913501Y-129697567D01*
X132913502Y-129697573D01*
X132959354Y-129855393D01*
X132959355Y-129855396D01*
X133043017Y-129996862D01*
X133047802Y-130003031D01*
X133045469Y-130004840D01*
X133072310Y-130053995D01*
X133067326Y-130123687D01*
X133046570Y-130156021D01*
X133048197Y-130157283D01*
X133043413Y-130163449D01*
X132959818Y-130304801D01*
X132913999Y-130462513D01*
X132913804Y-130464998D01*
X132913805Y-130465000D01*
X134262100Y-130465000D01*
X134329139Y-130484685D01*
X134374894Y-130537489D01*
X134386100Y-130589000D01*
X134386100Y-130841000D01*
X134366415Y-130908039D01*
X134313611Y-130953794D01*
X134262100Y-130965000D01*
X132913805Y-130965000D01*
X132913804Y-130965001D01*
X132913999Y-130967486D01*
X132959818Y-131125198D01*
X133043414Y-131266552D01*
X133048200Y-131272722D01*
X133045740Y-131274629D01*
X133072310Y-131323288D01*
X133067326Y-131392980D01*
X133046262Y-131425781D01*
X133047799Y-131426974D01*
X133043015Y-131433140D01*
X132992623Y-131518349D01*
X132941554Y-131566033D01*
X132872812Y-131578536D01*
X132808223Y-131551890D01*
X132798210Y-131542909D01*
X132441819Y-131186518D01*
X132408334Y-131125195D01*
X132405500Y-131098837D01*
X132405500Y-126601163D01*
X132425185Y-126534124D01*
X132441819Y-126513482D01*
X132493482Y-126461819D01*
X132554805Y-126428334D01*
X132581163Y-126425500D01*
X133687632Y-126425500D01*
X133687633Y-126425499D01*
X133818136Y-126399541D01*
X133941069Y-126348620D01*
X134051706Y-126274695D01*
X134504582Y-125821819D01*
X134565905Y-125788334D01*
X134592263Y-125785500D01*
X134733878Y-125785500D01*
X134800917Y-125805185D01*
G37*
%TD.AperFunction*%
%TA.AperFunction,Conductor*%
G36*
X100650000Y-122070633D02*
G01*
X100863483Y-122013433D01*
X100863492Y-122013429D01*
X101077578Y-121913600D01*
X101271082Y-121778105D01*
X101438105Y-121611082D01*
X101568119Y-121425405D01*
X101622696Y-121381781D01*
X101692195Y-121374588D01*
X101754549Y-121406110D01*
X101771269Y-121425405D01*
X101901505Y-121611401D01*
X102068599Y-121778495D01*
X102153148Y-121837697D01*
X102262165Y-121914032D01*
X102262167Y-121914033D01*
X102262170Y-121914035D01*
X102476337Y-122013903D01*
X102476343Y-122013904D01*
X102476344Y-122013905D01*
X102499782Y-122020185D01*
X102704592Y-122075063D01*
X102881034Y-122090500D01*
X102939999Y-122095659D01*
X102940000Y-122095659D01*
X102940001Y-122095659D01*
X102998966Y-122090500D01*
X103175408Y-122075063D01*
X103403663Y-122013903D01*
X103617830Y-121914035D01*
X103811401Y-121778495D01*
X103978495Y-121611401D01*
X104024523Y-121545666D01*
X104026127Y-121543376D01*
X104080704Y-121499751D01*
X104127701Y-121490500D01*
X106821370Y-121490500D01*
X106888409Y-121510185D01*
X106909051Y-121526819D01*
X107334281Y-121952048D01*
X107367766Y-122013371D01*
X107370600Y-122039729D01*
X107370600Y-122440001D01*
X107370601Y-122440019D01*
X107381100Y-122542796D01*
X107381101Y-122542799D01*
X107436285Y-122709331D01*
X107436287Y-122709336D01*
X107459113Y-122746342D01*
X107526378Y-122855398D01*
X107528389Y-122858657D01*
X107622051Y-122952319D01*
X107655536Y-123013642D01*
X107650552Y-123083334D01*
X107622051Y-123127681D01*
X107528389Y-123221342D01*
X107436287Y-123370663D01*
X107436285Y-123370668D01*
X107426340Y-123400681D01*
X107381101Y-123537203D01*
X107381101Y-123537204D01*
X107381100Y-123537204D01*
X107370600Y-123639983D01*
X107370600Y-123952736D01*
X107350915Y-124019775D01*
X107334281Y-124040417D01*
X106071148Y-125303549D01*
X106009825Y-125337034D01*
X105995622Y-125339271D01*
X105853667Y-125353253D01*
X105853666Y-125353253D01*
X105674497Y-125407604D01*
X105509376Y-125495862D01*
X105509373Y-125495864D01*
X105364642Y-125614642D01*
X105245864Y-125759373D01*
X105245862Y-125759376D01*
X105157604Y-125924497D01*
X105103253Y-126103666D01*
X105103252Y-126103668D01*
X105084901Y-126290000D01*
X105103252Y-126476331D01*
X105103253Y-126476333D01*
X105157604Y-126655502D01*
X105245862Y-126820623D01*
X105245864Y-126820626D01*
X105364642Y-126965357D01*
X105509373Y-127084135D01*
X105509376Y-127084137D01*
X105637081Y-127152396D01*
X105674499Y-127172396D01*
X105853666Y-127226746D01*
X105853668Y-127226747D01*
X105870374Y-127228392D01*
X106040000Y-127245099D01*
X106226331Y-127226747D01*
X106405501Y-127172396D01*
X106570625Y-127084136D01*
X106715357Y-126965357D01*
X106834136Y-126820625D01*
X106922396Y-126655501D01*
X106976747Y-126476331D01*
X106990727Y-126334376D01*
X107016887Y-126269590D01*
X107026440Y-126258859D01*
X108283482Y-125001818D01*
X108344805Y-124968333D01*
X108371163Y-124965499D01*
X108577436Y-124965499D01*
X108644475Y-124985184D01*
X108665117Y-125001818D01*
X110966118Y-127302819D01*
X110999603Y-127364142D01*
X110994619Y-127433834D01*
X110952747Y-127489767D01*
X110887283Y-127514184D01*
X110878437Y-127514500D01*
X104528981Y-127514500D01*
X104461942Y-127494815D01*
X104441300Y-127478181D01*
X98824188Y-121861069D01*
X98790703Y-121799746D01*
X98795687Y-121730054D01*
X98824185Y-121685710D01*
X98898495Y-121611401D01*
X99028732Y-121425403D01*
X99083307Y-121381781D01*
X99152806Y-121374588D01*
X99215160Y-121406110D01*
X99231879Y-121425405D01*
X99361890Y-121611078D01*
X99528917Y-121778105D01*
X99722421Y-121913600D01*
X99936507Y-122013429D01*
X99936516Y-122013433D01*
X100150000Y-122070634D01*
X100150000Y-121173012D01*
X100207007Y-121205925D01*
X100334174Y-121240000D01*
X100465826Y-121240000D01*
X100592993Y-121205925D01*
X100650000Y-121173012D01*
X100650000Y-122070633D01*
G37*
%TD.AperFunction*%
%TA.AperFunction,Conductor*%
G36*
X116090876Y-118280185D02*
G01*
X116111518Y-118296819D01*
X117218181Y-119403482D01*
X117251666Y-119464805D01*
X117254500Y-119491163D01*
X117254500Y-121422244D01*
X117234815Y-121489283D01*
X117182011Y-121535038D01*
X117112853Y-121544982D01*
X117049297Y-121515957D01*
X117012794Y-121461249D01*
X117009357Y-121450878D01*
X117009356Y-121450875D01*
X116917315Y-121301654D01*
X116793345Y-121177684D01*
X116644124Y-121085643D01*
X116644119Y-121085641D01*
X116477697Y-121030494D01*
X116477690Y-121030493D01*
X116374986Y-121020000D01*
X116312500Y-121020000D01*
X116312500Y-122096000D01*
X116292815Y-122163039D01*
X116240011Y-122208794D01*
X116188500Y-122220000D01*
X115936500Y-122220000D01*
X115869461Y-122200315D01*
X115823706Y-122147511D01*
X115812500Y-122096000D01*
X115812500Y-120999782D01*
X115803334Y-120982996D01*
X115800500Y-120956638D01*
X115800500Y-119198466D01*
X115774541Y-119067969D01*
X115774540Y-119067968D01*
X115774540Y-119067964D01*
X115774538Y-119067959D01*
X115723623Y-118945038D01*
X115723622Y-118945037D01*
X115723620Y-118945031D01*
X115722669Y-118943608D01*
X115649698Y-118834398D01*
X115649697Y-118834397D01*
X115649695Y-118834394D01*
X115555606Y-118740305D01*
X115287482Y-118472181D01*
X115253997Y-118410858D01*
X115258981Y-118341166D01*
X115300853Y-118285233D01*
X115366317Y-118260816D01*
X115375163Y-118260500D01*
X116023837Y-118260500D01*
X116090876Y-118280185D01*
G37*
%TD.AperFunction*%
%TD*%
M02*
