%TF.GenerationSoftware,KiCad,Pcbnew,8.0.8*%
%TF.CreationDate,2025-09-08T13:39:14+03:00*%
%TF.ProjectId,MCU datalogger,4d435520-6461-4746-916c-6f676765722e,rev?*%
%TF.SameCoordinates,Original*%
%TF.FileFunction,Legend,Top*%
%TF.FilePolarity,Positive*%
%FSLAX46Y46*%
G04 Gerber Fmt 4.6, Leading zero omitted, Abs format (unit mm)*
G04 Created by KiCad (PCBNEW 8.0.8) date 2025-09-08 13:39:14*
%MOMM*%
%LPD*%
G01*
G04 APERTURE LIST*
%ADD10C,0.100000*%
%ADD11C,0.150000*%
%ADD12C,0.120000*%
%ADD13C,0.152400*%
%ADD14C,0.000000*%
G04 APERTURE END LIST*
D10*
X84500000Y-126500000D02*
X90000000Y-126500000D01*
X90000000Y-129500000D01*
X84500000Y-129500000D01*
X84500000Y-126500000D01*
D11*
X98006303Y-123654295D02*
X97739636Y-123273342D01*
X97549160Y-123654295D02*
X97549160Y-122854295D01*
X97549160Y-122854295D02*
X97853922Y-122854295D01*
X97853922Y-122854295D02*
X97930112Y-122892390D01*
X97930112Y-122892390D02*
X97968207Y-122930485D01*
X97968207Y-122930485D02*
X98006303Y-123006676D01*
X98006303Y-123006676D02*
X98006303Y-123120961D01*
X98006303Y-123120961D02*
X97968207Y-123197152D01*
X97968207Y-123197152D02*
X97930112Y-123235247D01*
X97930112Y-123235247D02*
X97853922Y-123273342D01*
X97853922Y-123273342D02*
X97549160Y-123273342D01*
X98272969Y-122854295D02*
X98806303Y-123654295D01*
X98806303Y-122854295D02*
X98272969Y-123654295D01*
X98589160Y-145144295D02*
X98589160Y-144344295D01*
X98589160Y-144344295D02*
X98779636Y-144344295D01*
X98779636Y-144344295D02*
X98893922Y-144382390D01*
X98893922Y-144382390D02*
X98970112Y-144458580D01*
X98970112Y-144458580D02*
X99008207Y-144534771D01*
X99008207Y-144534771D02*
X99046303Y-144687152D01*
X99046303Y-144687152D02*
X99046303Y-144801438D01*
X99046303Y-144801438D02*
X99008207Y-144953819D01*
X99008207Y-144953819D02*
X98970112Y-145030009D01*
X98970112Y-145030009D02*
X98893922Y-145106200D01*
X98893922Y-145106200D02*
X98779636Y-145144295D01*
X98779636Y-145144295D02*
X98589160Y-145144295D01*
X99312969Y-144344295D02*
X99846303Y-144344295D01*
X99846303Y-144344295D02*
X99503445Y-145144295D01*
X93299160Y-145144295D02*
X93299160Y-144344295D01*
X93299160Y-144344295D02*
X93489636Y-144344295D01*
X93489636Y-144344295D02*
X93603922Y-144382390D01*
X93603922Y-144382390D02*
X93680112Y-144458580D01*
X93680112Y-144458580D02*
X93718207Y-144534771D01*
X93718207Y-144534771D02*
X93756303Y-144687152D01*
X93756303Y-144687152D02*
X93756303Y-144801438D01*
X93756303Y-144801438D02*
X93718207Y-144953819D01*
X93718207Y-144953819D02*
X93680112Y-145030009D01*
X93680112Y-145030009D02*
X93603922Y-145106200D01*
X93603922Y-145106200D02*
X93489636Y-145144295D01*
X93489636Y-145144295D02*
X93299160Y-145144295D01*
X94480112Y-144344295D02*
X94099160Y-144344295D01*
X94099160Y-144344295D02*
X94061064Y-144725247D01*
X94061064Y-144725247D02*
X94099160Y-144687152D01*
X94099160Y-144687152D02*
X94175350Y-144649057D01*
X94175350Y-144649057D02*
X94365826Y-144649057D01*
X94365826Y-144649057D02*
X94442017Y-144687152D01*
X94442017Y-144687152D02*
X94480112Y-144725247D01*
X94480112Y-144725247D02*
X94518207Y-144801438D01*
X94518207Y-144801438D02*
X94518207Y-144991914D01*
X94518207Y-144991914D02*
X94480112Y-145068104D01*
X94480112Y-145068104D02*
X94442017Y-145106200D01*
X94442017Y-145106200D02*
X94365826Y-145144295D01*
X94365826Y-145144295D02*
X94175350Y-145144295D01*
X94175350Y-145144295D02*
X94099160Y-145106200D01*
X94099160Y-145106200D02*
X94061064Y-145068104D01*
X85501064Y-123616200D02*
X85615350Y-123654295D01*
X85615350Y-123654295D02*
X85805826Y-123654295D01*
X85805826Y-123654295D02*
X85882017Y-123616200D01*
X85882017Y-123616200D02*
X85920112Y-123578104D01*
X85920112Y-123578104D02*
X85958207Y-123501914D01*
X85958207Y-123501914D02*
X85958207Y-123425723D01*
X85958207Y-123425723D02*
X85920112Y-123349533D01*
X85920112Y-123349533D02*
X85882017Y-123311438D01*
X85882017Y-123311438D02*
X85805826Y-123273342D01*
X85805826Y-123273342D02*
X85653445Y-123235247D01*
X85653445Y-123235247D02*
X85577255Y-123197152D01*
X85577255Y-123197152D02*
X85539160Y-123159057D01*
X85539160Y-123159057D02*
X85501064Y-123082866D01*
X85501064Y-123082866D02*
X85501064Y-123006676D01*
X85501064Y-123006676D02*
X85539160Y-122930485D01*
X85539160Y-122930485D02*
X85577255Y-122892390D01*
X85577255Y-122892390D02*
X85653445Y-122854295D01*
X85653445Y-122854295D02*
X85843922Y-122854295D01*
X85843922Y-122854295D02*
X85958207Y-122892390D01*
X86301065Y-123654295D02*
X86301065Y-122854295D01*
X86301065Y-122854295D02*
X86491541Y-122854295D01*
X86491541Y-122854295D02*
X86605827Y-122892390D01*
X86605827Y-122892390D02*
X86682017Y-122968580D01*
X86682017Y-122968580D02*
X86720112Y-123044771D01*
X86720112Y-123044771D02*
X86758208Y-123197152D01*
X86758208Y-123197152D02*
X86758208Y-123311438D01*
X86758208Y-123311438D02*
X86720112Y-123463819D01*
X86720112Y-123463819D02*
X86682017Y-123540009D01*
X86682017Y-123540009D02*
X86605827Y-123616200D01*
X86605827Y-123616200D02*
X86491541Y-123654295D01*
X86491541Y-123654295D02*
X86301065Y-123654295D01*
X87062969Y-123425723D02*
X87443922Y-123425723D01*
X86986779Y-123654295D02*
X87253446Y-122854295D01*
X87253446Y-122854295D02*
X87520112Y-123654295D01*
X102284874Y-122854295D02*
X102551541Y-123654295D01*
X102551541Y-123654295D02*
X102818207Y-122854295D01*
X103427731Y-123616200D02*
X103351540Y-123654295D01*
X103351540Y-123654295D02*
X103199159Y-123654295D01*
X103199159Y-123654295D02*
X103122969Y-123616200D01*
X103122969Y-123616200D02*
X103084874Y-123578104D01*
X103084874Y-123578104D02*
X103046778Y-123501914D01*
X103046778Y-123501914D02*
X103046778Y-123273342D01*
X103046778Y-123273342D02*
X103084874Y-123197152D01*
X103084874Y-123197152D02*
X103122969Y-123159057D01*
X103122969Y-123159057D02*
X103199159Y-123120961D01*
X103199159Y-123120961D02*
X103351540Y-123120961D01*
X103351540Y-123120961D02*
X103427731Y-123159057D01*
X104113445Y-123616200D02*
X104037254Y-123654295D01*
X104037254Y-123654295D02*
X103884873Y-123654295D01*
X103884873Y-123654295D02*
X103808683Y-123616200D01*
X103808683Y-123616200D02*
X103770588Y-123578104D01*
X103770588Y-123578104D02*
X103732492Y-123501914D01*
X103732492Y-123501914D02*
X103732492Y-123273342D01*
X103732492Y-123273342D02*
X103770588Y-123197152D01*
X103770588Y-123197152D02*
X103808683Y-123159057D01*
X103808683Y-123159057D02*
X103884873Y-123120961D01*
X103884873Y-123120961D02*
X104037254Y-123120961D01*
X104037254Y-123120961D02*
X104113445Y-123159057D01*
X95859160Y-145144295D02*
X95859160Y-144344295D01*
X95859160Y-144344295D02*
X96049636Y-144344295D01*
X96049636Y-144344295D02*
X96163922Y-144382390D01*
X96163922Y-144382390D02*
X96240112Y-144458580D01*
X96240112Y-144458580D02*
X96278207Y-144534771D01*
X96278207Y-144534771D02*
X96316303Y-144687152D01*
X96316303Y-144687152D02*
X96316303Y-144801438D01*
X96316303Y-144801438D02*
X96278207Y-144953819D01*
X96278207Y-144953819D02*
X96240112Y-145030009D01*
X96240112Y-145030009D02*
X96163922Y-145106200D01*
X96163922Y-145106200D02*
X96049636Y-145144295D01*
X96049636Y-145144295D02*
X95859160Y-145144295D01*
X97002017Y-144344295D02*
X96849636Y-144344295D01*
X96849636Y-144344295D02*
X96773445Y-144382390D01*
X96773445Y-144382390D02*
X96735350Y-144420485D01*
X96735350Y-144420485D02*
X96659160Y-144534771D01*
X96659160Y-144534771D02*
X96621064Y-144687152D01*
X96621064Y-144687152D02*
X96621064Y-144991914D01*
X96621064Y-144991914D02*
X96659160Y-145068104D01*
X96659160Y-145068104D02*
X96697255Y-145106200D01*
X96697255Y-145106200D02*
X96773445Y-145144295D01*
X96773445Y-145144295D02*
X96925826Y-145144295D01*
X96925826Y-145144295D02*
X97002017Y-145106200D01*
X97002017Y-145106200D02*
X97040112Y-145068104D01*
X97040112Y-145068104D02*
X97078207Y-144991914D01*
X97078207Y-144991914D02*
X97078207Y-144801438D01*
X97078207Y-144801438D02*
X97040112Y-144725247D01*
X97040112Y-144725247D02*
X97002017Y-144687152D01*
X97002017Y-144687152D02*
X96925826Y-144649057D01*
X96925826Y-144649057D02*
X96773445Y-144649057D01*
X96773445Y-144649057D02*
X96697255Y-144687152D01*
X96697255Y-144687152D02*
X96659160Y-144725247D01*
X96659160Y-144725247D02*
X96621064Y-144801438D01*
X90699160Y-145144295D02*
X90699160Y-144344295D01*
X90699160Y-144344295D02*
X90889636Y-144344295D01*
X90889636Y-144344295D02*
X91003922Y-144382390D01*
X91003922Y-144382390D02*
X91080112Y-144458580D01*
X91080112Y-144458580D02*
X91118207Y-144534771D01*
X91118207Y-144534771D02*
X91156303Y-144687152D01*
X91156303Y-144687152D02*
X91156303Y-144801438D01*
X91156303Y-144801438D02*
X91118207Y-144953819D01*
X91118207Y-144953819D02*
X91080112Y-145030009D01*
X91080112Y-145030009D02*
X91003922Y-145106200D01*
X91003922Y-145106200D02*
X90889636Y-145144295D01*
X90889636Y-145144295D02*
X90699160Y-145144295D01*
X91842017Y-144610961D02*
X91842017Y-145144295D01*
X91651541Y-144306200D02*
X91461064Y-144877628D01*
X91461064Y-144877628D02*
X91956303Y-144877628D01*
X83088207Y-144212390D02*
X83012017Y-144174295D01*
X83012017Y-144174295D02*
X82897731Y-144174295D01*
X82897731Y-144174295D02*
X82783445Y-144212390D01*
X82783445Y-144212390D02*
X82707255Y-144288580D01*
X82707255Y-144288580D02*
X82669160Y-144364771D01*
X82669160Y-144364771D02*
X82631064Y-144517152D01*
X82631064Y-144517152D02*
X82631064Y-144631438D01*
X82631064Y-144631438D02*
X82669160Y-144783819D01*
X82669160Y-144783819D02*
X82707255Y-144860009D01*
X82707255Y-144860009D02*
X82783445Y-144936200D01*
X82783445Y-144936200D02*
X82897731Y-144974295D01*
X82897731Y-144974295D02*
X82973922Y-144974295D01*
X82973922Y-144974295D02*
X83088207Y-144936200D01*
X83088207Y-144936200D02*
X83126303Y-144898104D01*
X83126303Y-144898104D02*
X83126303Y-144631438D01*
X83126303Y-144631438D02*
X82973922Y-144631438D01*
X83469160Y-144974295D02*
X83469160Y-144174295D01*
X83469160Y-144174295D02*
X83926303Y-144974295D01*
X83926303Y-144974295D02*
X83926303Y-144174295D01*
X84307255Y-144974295D02*
X84307255Y-144174295D01*
X84307255Y-144174295D02*
X84497731Y-144174295D01*
X84497731Y-144174295D02*
X84612017Y-144212390D01*
X84612017Y-144212390D02*
X84688207Y-144288580D01*
X84688207Y-144288580D02*
X84726302Y-144364771D01*
X84726302Y-144364771D02*
X84764398Y-144517152D01*
X84764398Y-144517152D02*
X84764398Y-144631438D01*
X84764398Y-144631438D02*
X84726302Y-144783819D01*
X84726302Y-144783819D02*
X84688207Y-144860009D01*
X84688207Y-144860009D02*
X84612017Y-144936200D01*
X84612017Y-144936200D02*
X84497731Y-144974295D01*
X84497731Y-144974295D02*
X84307255Y-144974295D01*
X99918207Y-122892390D02*
X99842017Y-122854295D01*
X99842017Y-122854295D02*
X99727731Y-122854295D01*
X99727731Y-122854295D02*
X99613445Y-122892390D01*
X99613445Y-122892390D02*
X99537255Y-122968580D01*
X99537255Y-122968580D02*
X99499160Y-123044771D01*
X99499160Y-123044771D02*
X99461064Y-123197152D01*
X99461064Y-123197152D02*
X99461064Y-123311438D01*
X99461064Y-123311438D02*
X99499160Y-123463819D01*
X99499160Y-123463819D02*
X99537255Y-123540009D01*
X99537255Y-123540009D02*
X99613445Y-123616200D01*
X99613445Y-123616200D02*
X99727731Y-123654295D01*
X99727731Y-123654295D02*
X99803922Y-123654295D01*
X99803922Y-123654295D02*
X99918207Y-123616200D01*
X99918207Y-123616200D02*
X99956303Y-123578104D01*
X99956303Y-123578104D02*
X99956303Y-123311438D01*
X99956303Y-123311438D02*
X99803922Y-123311438D01*
X100299160Y-123654295D02*
X100299160Y-122854295D01*
X100299160Y-122854295D02*
X100756303Y-123654295D01*
X100756303Y-123654295D02*
X100756303Y-122854295D01*
X101137255Y-123654295D02*
X101137255Y-122854295D01*
X101137255Y-122854295D02*
X101327731Y-122854295D01*
X101327731Y-122854295D02*
X101442017Y-122892390D01*
X101442017Y-122892390D02*
X101518207Y-122968580D01*
X101518207Y-122968580D02*
X101556302Y-123044771D01*
X101556302Y-123044771D02*
X101594398Y-123197152D01*
X101594398Y-123197152D02*
X101594398Y-123311438D01*
X101594398Y-123311438D02*
X101556302Y-123463819D01*
X101556302Y-123463819D02*
X101518207Y-123540009D01*
X101518207Y-123540009D02*
X101442017Y-123616200D01*
X101442017Y-123616200D02*
X101327731Y-123654295D01*
X101327731Y-123654295D02*
X101137255Y-123654295D01*
X85669160Y-145144295D02*
X85669160Y-144344295D01*
X85669160Y-144344295D02*
X85859636Y-144344295D01*
X85859636Y-144344295D02*
X85973922Y-144382390D01*
X85973922Y-144382390D02*
X86050112Y-144458580D01*
X86050112Y-144458580D02*
X86088207Y-144534771D01*
X86088207Y-144534771D02*
X86126303Y-144687152D01*
X86126303Y-144687152D02*
X86126303Y-144801438D01*
X86126303Y-144801438D02*
X86088207Y-144953819D01*
X86088207Y-144953819D02*
X86050112Y-145030009D01*
X86050112Y-145030009D02*
X85973922Y-145106200D01*
X85973922Y-145106200D02*
X85859636Y-145144295D01*
X85859636Y-145144295D02*
X85669160Y-145144295D01*
X86431064Y-144420485D02*
X86469160Y-144382390D01*
X86469160Y-144382390D02*
X86545350Y-144344295D01*
X86545350Y-144344295D02*
X86735826Y-144344295D01*
X86735826Y-144344295D02*
X86812017Y-144382390D01*
X86812017Y-144382390D02*
X86850112Y-144420485D01*
X86850112Y-144420485D02*
X86888207Y-144496676D01*
X86888207Y-144496676D02*
X86888207Y-144572866D01*
X86888207Y-144572866D02*
X86850112Y-144687152D01*
X86850112Y-144687152D02*
X86392969Y-145144295D01*
X86392969Y-145144295D02*
X86888207Y-145144295D01*
X95064874Y-122854295D02*
X95522017Y-122854295D01*
X95293445Y-123654295D02*
X95293445Y-122854295D01*
X95712493Y-122854295D02*
X96245827Y-123654295D01*
X96245827Y-122854295D02*
X95712493Y-123654295D01*
X90738207Y-122892390D02*
X90662017Y-122854295D01*
X90662017Y-122854295D02*
X90547731Y-122854295D01*
X90547731Y-122854295D02*
X90433445Y-122892390D01*
X90433445Y-122892390D02*
X90357255Y-122968580D01*
X90357255Y-122968580D02*
X90319160Y-123044771D01*
X90319160Y-123044771D02*
X90281064Y-123197152D01*
X90281064Y-123197152D02*
X90281064Y-123311438D01*
X90281064Y-123311438D02*
X90319160Y-123463819D01*
X90319160Y-123463819D02*
X90357255Y-123540009D01*
X90357255Y-123540009D02*
X90433445Y-123616200D01*
X90433445Y-123616200D02*
X90547731Y-123654295D01*
X90547731Y-123654295D02*
X90623922Y-123654295D01*
X90623922Y-123654295D02*
X90738207Y-123616200D01*
X90738207Y-123616200D02*
X90776303Y-123578104D01*
X90776303Y-123578104D02*
X90776303Y-123311438D01*
X90776303Y-123311438D02*
X90623922Y-123311438D01*
X91119160Y-123654295D02*
X91119160Y-122854295D01*
X91119160Y-122854295D02*
X91576303Y-123654295D01*
X91576303Y-123654295D02*
X91576303Y-122854295D01*
X91957255Y-123654295D02*
X91957255Y-122854295D01*
X91957255Y-122854295D02*
X92147731Y-122854295D01*
X92147731Y-122854295D02*
X92262017Y-122892390D01*
X92262017Y-122892390D02*
X92338207Y-122968580D01*
X92338207Y-122968580D02*
X92376302Y-123044771D01*
X92376302Y-123044771D02*
X92414398Y-123197152D01*
X92414398Y-123197152D02*
X92414398Y-123311438D01*
X92414398Y-123311438D02*
X92376302Y-123463819D01*
X92376302Y-123463819D02*
X92338207Y-123540009D01*
X92338207Y-123540009D02*
X92262017Y-123616200D01*
X92262017Y-123616200D02*
X92147731Y-123654295D01*
X92147731Y-123654295D02*
X91957255Y-123654295D01*
X82841064Y-123616200D02*
X82955350Y-123654295D01*
X82955350Y-123654295D02*
X83145826Y-123654295D01*
X83145826Y-123654295D02*
X83222017Y-123616200D01*
X83222017Y-123616200D02*
X83260112Y-123578104D01*
X83260112Y-123578104D02*
X83298207Y-123501914D01*
X83298207Y-123501914D02*
X83298207Y-123425723D01*
X83298207Y-123425723D02*
X83260112Y-123349533D01*
X83260112Y-123349533D02*
X83222017Y-123311438D01*
X83222017Y-123311438D02*
X83145826Y-123273342D01*
X83145826Y-123273342D02*
X82993445Y-123235247D01*
X82993445Y-123235247D02*
X82917255Y-123197152D01*
X82917255Y-123197152D02*
X82879160Y-123159057D01*
X82879160Y-123159057D02*
X82841064Y-123082866D01*
X82841064Y-123082866D02*
X82841064Y-123006676D01*
X82841064Y-123006676D02*
X82879160Y-122930485D01*
X82879160Y-122930485D02*
X82917255Y-122892390D01*
X82917255Y-122892390D02*
X82993445Y-122854295D01*
X82993445Y-122854295D02*
X83183922Y-122854295D01*
X83183922Y-122854295D02*
X83298207Y-122892390D01*
X84098208Y-123578104D02*
X84060112Y-123616200D01*
X84060112Y-123616200D02*
X83945827Y-123654295D01*
X83945827Y-123654295D02*
X83869636Y-123654295D01*
X83869636Y-123654295D02*
X83755350Y-123616200D01*
X83755350Y-123616200D02*
X83679160Y-123540009D01*
X83679160Y-123540009D02*
X83641065Y-123463819D01*
X83641065Y-123463819D02*
X83602969Y-123311438D01*
X83602969Y-123311438D02*
X83602969Y-123197152D01*
X83602969Y-123197152D02*
X83641065Y-123044771D01*
X83641065Y-123044771D02*
X83679160Y-122968580D01*
X83679160Y-122968580D02*
X83755350Y-122892390D01*
X83755350Y-122892390D02*
X83869636Y-122854295D01*
X83869636Y-122854295D02*
X83945827Y-122854295D01*
X83945827Y-122854295D02*
X84060112Y-122892390D01*
X84060112Y-122892390D02*
X84098208Y-122930485D01*
X84441065Y-123654295D02*
X84441065Y-122854295D01*
X84898208Y-123654295D02*
X84555350Y-123197152D01*
X84898208Y-122854295D02*
X84441065Y-123311438D01*
X100959160Y-145144295D02*
X100959160Y-144344295D01*
X100959160Y-144344295D02*
X101149636Y-144344295D01*
X101149636Y-144344295D02*
X101263922Y-144382390D01*
X101263922Y-144382390D02*
X101340112Y-144458580D01*
X101340112Y-144458580D02*
X101378207Y-144534771D01*
X101378207Y-144534771D02*
X101416303Y-144687152D01*
X101416303Y-144687152D02*
X101416303Y-144801438D01*
X101416303Y-144801438D02*
X101378207Y-144953819D01*
X101378207Y-144953819D02*
X101340112Y-145030009D01*
X101340112Y-145030009D02*
X101263922Y-145106200D01*
X101263922Y-145106200D02*
X101149636Y-145144295D01*
X101149636Y-145144295D02*
X100959160Y-145144295D01*
X101873445Y-144687152D02*
X101797255Y-144649057D01*
X101797255Y-144649057D02*
X101759160Y-144610961D01*
X101759160Y-144610961D02*
X101721064Y-144534771D01*
X101721064Y-144534771D02*
X101721064Y-144496676D01*
X101721064Y-144496676D02*
X101759160Y-144420485D01*
X101759160Y-144420485D02*
X101797255Y-144382390D01*
X101797255Y-144382390D02*
X101873445Y-144344295D01*
X101873445Y-144344295D02*
X102025826Y-144344295D01*
X102025826Y-144344295D02*
X102102017Y-144382390D01*
X102102017Y-144382390D02*
X102140112Y-144420485D01*
X102140112Y-144420485D02*
X102178207Y-144496676D01*
X102178207Y-144496676D02*
X102178207Y-144534771D01*
X102178207Y-144534771D02*
X102140112Y-144610961D01*
X102140112Y-144610961D02*
X102102017Y-144649057D01*
X102102017Y-144649057D02*
X102025826Y-144687152D01*
X102025826Y-144687152D02*
X101873445Y-144687152D01*
X101873445Y-144687152D02*
X101797255Y-144725247D01*
X101797255Y-144725247D02*
X101759160Y-144763342D01*
X101759160Y-144763342D02*
X101721064Y-144839533D01*
X101721064Y-144839533D02*
X101721064Y-144991914D01*
X101721064Y-144991914D02*
X101759160Y-145068104D01*
X101759160Y-145068104D02*
X101797255Y-145106200D01*
X101797255Y-145106200D02*
X101873445Y-145144295D01*
X101873445Y-145144295D02*
X102025826Y-145144295D01*
X102025826Y-145144295D02*
X102102017Y-145106200D01*
X102102017Y-145106200D02*
X102140112Y-145068104D01*
X102140112Y-145068104D02*
X102178207Y-144991914D01*
X102178207Y-144991914D02*
X102178207Y-144839533D01*
X102178207Y-144839533D02*
X102140112Y-144763342D01*
X102140112Y-144763342D02*
X102102017Y-144725247D01*
X102102017Y-144725247D02*
X102025826Y-144687152D01*
X110208207Y-143632390D02*
X110132017Y-143594295D01*
X110132017Y-143594295D02*
X110017731Y-143594295D01*
X110017731Y-143594295D02*
X109903445Y-143632390D01*
X109903445Y-143632390D02*
X109827255Y-143708580D01*
X109827255Y-143708580D02*
X109789160Y-143784771D01*
X109789160Y-143784771D02*
X109751064Y-143937152D01*
X109751064Y-143937152D02*
X109751064Y-144051438D01*
X109751064Y-144051438D02*
X109789160Y-144203819D01*
X109789160Y-144203819D02*
X109827255Y-144280009D01*
X109827255Y-144280009D02*
X109903445Y-144356200D01*
X109903445Y-144356200D02*
X110017731Y-144394295D01*
X110017731Y-144394295D02*
X110093922Y-144394295D01*
X110093922Y-144394295D02*
X110208207Y-144356200D01*
X110208207Y-144356200D02*
X110246303Y-144318104D01*
X110246303Y-144318104D02*
X110246303Y-144051438D01*
X110246303Y-144051438D02*
X110093922Y-144051438D01*
X110589160Y-144394295D02*
X110589160Y-143594295D01*
X110589160Y-143594295D02*
X111046303Y-144394295D01*
X111046303Y-144394295D02*
X111046303Y-143594295D01*
X111427255Y-144394295D02*
X111427255Y-143594295D01*
X111427255Y-143594295D02*
X111617731Y-143594295D01*
X111617731Y-143594295D02*
X111732017Y-143632390D01*
X111732017Y-143632390D02*
X111808207Y-143708580D01*
X111808207Y-143708580D02*
X111846302Y-143784771D01*
X111846302Y-143784771D02*
X111884398Y-143937152D01*
X111884398Y-143937152D02*
X111884398Y-144051438D01*
X111884398Y-144051438D02*
X111846302Y-144203819D01*
X111846302Y-144203819D02*
X111808207Y-144280009D01*
X111808207Y-144280009D02*
X111732017Y-144356200D01*
X111732017Y-144356200D02*
X111617731Y-144394295D01*
X111617731Y-144394295D02*
X111427255Y-144394295D01*
X123139160Y-140629533D02*
X123748684Y-140629533D01*
X123443922Y-140934295D02*
X123443922Y-140324771D01*
D10*
X84732455Y-125909133D02*
X84732455Y-125209133D01*
X85465788Y-125842466D02*
X85432455Y-125875800D01*
X85432455Y-125875800D02*
X85332455Y-125909133D01*
X85332455Y-125909133D02*
X85265788Y-125909133D01*
X85265788Y-125909133D02*
X85165788Y-125875800D01*
X85165788Y-125875800D02*
X85099122Y-125809133D01*
X85099122Y-125809133D02*
X85065788Y-125742466D01*
X85065788Y-125742466D02*
X85032455Y-125609133D01*
X85032455Y-125609133D02*
X85032455Y-125509133D01*
X85032455Y-125509133D02*
X85065788Y-125375800D01*
X85065788Y-125375800D02*
X85099122Y-125309133D01*
X85099122Y-125309133D02*
X85165788Y-125242466D01*
X85165788Y-125242466D02*
X85265788Y-125209133D01*
X85265788Y-125209133D02*
X85332455Y-125209133D01*
X85332455Y-125209133D02*
X85432455Y-125242466D01*
X85432455Y-125242466D02*
X85465788Y-125275800D01*
X85732455Y-125875800D02*
X85832455Y-125909133D01*
X85832455Y-125909133D02*
X85999122Y-125909133D01*
X85999122Y-125909133D02*
X86065788Y-125875800D01*
X86065788Y-125875800D02*
X86099122Y-125842466D01*
X86099122Y-125842466D02*
X86132455Y-125775800D01*
X86132455Y-125775800D02*
X86132455Y-125709133D01*
X86132455Y-125709133D02*
X86099122Y-125642466D01*
X86099122Y-125642466D02*
X86065788Y-125609133D01*
X86065788Y-125609133D02*
X85999122Y-125575800D01*
X85999122Y-125575800D02*
X85865788Y-125542466D01*
X85865788Y-125542466D02*
X85799122Y-125509133D01*
X85799122Y-125509133D02*
X85765788Y-125475800D01*
X85765788Y-125475800D02*
X85732455Y-125409133D01*
X85732455Y-125409133D02*
X85732455Y-125342466D01*
X85732455Y-125342466D02*
X85765788Y-125275800D01*
X85765788Y-125275800D02*
X85799122Y-125242466D01*
X85799122Y-125242466D02*
X85865788Y-125209133D01*
X85865788Y-125209133D02*
X86032455Y-125209133D01*
X86032455Y-125209133D02*
X86132455Y-125242466D01*
X86432455Y-125909133D02*
X86432455Y-125209133D01*
X86432455Y-125209133D02*
X86699122Y-125209133D01*
X86699122Y-125209133D02*
X86765789Y-125242466D01*
X86765789Y-125242466D02*
X86799122Y-125275800D01*
X86799122Y-125275800D02*
X86832455Y-125342466D01*
X86832455Y-125342466D02*
X86832455Y-125442466D01*
X86832455Y-125442466D02*
X86799122Y-125509133D01*
X86799122Y-125509133D02*
X86765789Y-125542466D01*
X86765789Y-125542466D02*
X86699122Y-125575800D01*
X86699122Y-125575800D02*
X86432455Y-125575800D01*
D11*
X87874874Y-122874295D02*
X88141541Y-123674295D01*
X88141541Y-123674295D02*
X88408207Y-122874295D01*
X89017731Y-123636200D02*
X88941540Y-123674295D01*
X88941540Y-123674295D02*
X88789159Y-123674295D01*
X88789159Y-123674295D02*
X88712969Y-123636200D01*
X88712969Y-123636200D02*
X88674874Y-123598104D01*
X88674874Y-123598104D02*
X88636778Y-123521914D01*
X88636778Y-123521914D02*
X88636778Y-123293342D01*
X88636778Y-123293342D02*
X88674874Y-123217152D01*
X88674874Y-123217152D02*
X88712969Y-123179057D01*
X88712969Y-123179057D02*
X88789159Y-123140961D01*
X88789159Y-123140961D02*
X88941540Y-123140961D01*
X88941540Y-123140961D02*
X89017731Y-123179057D01*
X89703445Y-123636200D02*
X89627254Y-123674295D01*
X89627254Y-123674295D02*
X89474873Y-123674295D01*
X89474873Y-123674295D02*
X89398683Y-123636200D01*
X89398683Y-123636200D02*
X89360588Y-123598104D01*
X89360588Y-123598104D02*
X89322492Y-123521914D01*
X89322492Y-123521914D02*
X89322492Y-123293342D01*
X89322492Y-123293342D02*
X89360588Y-123217152D01*
X89360588Y-123217152D02*
X89398683Y-123179057D01*
X89398683Y-123179057D02*
X89474873Y-123140961D01*
X89474873Y-123140961D02*
X89627254Y-123140961D01*
X89627254Y-123140961D02*
X89703445Y-123179057D01*
D10*
X85599122Y-142742466D02*
X85532455Y-142709133D01*
X85532455Y-142709133D02*
X85432455Y-142709133D01*
X85432455Y-142709133D02*
X85332455Y-142742466D01*
X85332455Y-142742466D02*
X85265789Y-142809133D01*
X85265789Y-142809133D02*
X85232455Y-142875800D01*
X85232455Y-142875800D02*
X85199122Y-143009133D01*
X85199122Y-143009133D02*
X85199122Y-143109133D01*
X85199122Y-143109133D02*
X85232455Y-143242466D01*
X85232455Y-143242466D02*
X85265789Y-143309133D01*
X85265789Y-143309133D02*
X85332455Y-143375800D01*
X85332455Y-143375800D02*
X85432455Y-143409133D01*
X85432455Y-143409133D02*
X85499122Y-143409133D01*
X85499122Y-143409133D02*
X85599122Y-143375800D01*
X85599122Y-143375800D02*
X85632455Y-143342466D01*
X85632455Y-143342466D02*
X85632455Y-143109133D01*
X85632455Y-143109133D02*
X85499122Y-143109133D01*
X85932455Y-143409133D02*
X85932455Y-142709133D01*
X85932455Y-142709133D02*
X86199122Y-142709133D01*
X86199122Y-142709133D02*
X86265789Y-142742466D01*
X86265789Y-142742466D02*
X86299122Y-142775800D01*
X86299122Y-142775800D02*
X86332455Y-142842466D01*
X86332455Y-142842466D02*
X86332455Y-142942466D01*
X86332455Y-142942466D02*
X86299122Y-143009133D01*
X86299122Y-143009133D02*
X86265789Y-143042466D01*
X86265789Y-143042466D02*
X86199122Y-143075800D01*
X86199122Y-143075800D02*
X85932455Y-143075800D01*
X86632455Y-143409133D02*
X86632455Y-142709133D01*
X87099122Y-142709133D02*
X87232455Y-142709133D01*
X87232455Y-142709133D02*
X87299122Y-142742466D01*
X87299122Y-142742466D02*
X87365788Y-142809133D01*
X87365788Y-142809133D02*
X87399122Y-142942466D01*
X87399122Y-142942466D02*
X87399122Y-143175800D01*
X87399122Y-143175800D02*
X87365788Y-143309133D01*
X87365788Y-143309133D02*
X87299122Y-143375800D01*
X87299122Y-143375800D02*
X87232455Y-143409133D01*
X87232455Y-143409133D02*
X87099122Y-143409133D01*
X87099122Y-143409133D02*
X87032455Y-143375800D01*
X87032455Y-143375800D02*
X86965788Y-143309133D01*
X86965788Y-143309133D02*
X86932455Y-143175800D01*
X86932455Y-143175800D02*
X86932455Y-142942466D01*
X86932455Y-142942466D02*
X86965788Y-142809133D01*
X86965788Y-142809133D02*
X87032455Y-142742466D01*
X87032455Y-142742466D02*
X87099122Y-142709133D01*
X85184836Y-127323665D02*
X85184836Y-126823665D01*
X85184836Y-126823665D02*
X85351503Y-127180808D01*
X85351503Y-127180808D02*
X85518169Y-126823665D01*
X85518169Y-126823665D02*
X85518169Y-127323665D01*
X85756265Y-127323665D02*
X85756265Y-126823665D01*
X85970551Y-127299856D02*
X86041979Y-127323665D01*
X86041979Y-127323665D02*
X86161027Y-127323665D01*
X86161027Y-127323665D02*
X86208646Y-127299856D01*
X86208646Y-127299856D02*
X86232455Y-127276046D01*
X86232455Y-127276046D02*
X86256265Y-127228427D01*
X86256265Y-127228427D02*
X86256265Y-127180808D01*
X86256265Y-127180808D02*
X86232455Y-127133189D01*
X86232455Y-127133189D02*
X86208646Y-127109379D01*
X86208646Y-127109379D02*
X86161027Y-127085570D01*
X86161027Y-127085570D02*
X86065789Y-127061760D01*
X86065789Y-127061760D02*
X86018170Y-127037951D01*
X86018170Y-127037951D02*
X85994360Y-127014141D01*
X85994360Y-127014141D02*
X85970551Y-126966522D01*
X85970551Y-126966522D02*
X85970551Y-126918903D01*
X85970551Y-126918903D02*
X85994360Y-126871284D01*
X85994360Y-126871284D02*
X86018170Y-126847475D01*
X86018170Y-126847475D02*
X86065789Y-126823665D01*
X86065789Y-126823665D02*
X86184836Y-126823665D01*
X86184836Y-126823665D02*
X86256265Y-126847475D01*
X86565788Y-126823665D02*
X86661026Y-126823665D01*
X86661026Y-126823665D02*
X86708645Y-126847475D01*
X86708645Y-126847475D02*
X86756264Y-126895094D01*
X86756264Y-126895094D02*
X86780074Y-126990332D01*
X86780074Y-126990332D02*
X86780074Y-127156998D01*
X86780074Y-127156998D02*
X86756264Y-127252236D01*
X86756264Y-127252236D02*
X86708645Y-127299856D01*
X86708645Y-127299856D02*
X86661026Y-127323665D01*
X86661026Y-127323665D02*
X86565788Y-127323665D01*
X86565788Y-127323665D02*
X86518169Y-127299856D01*
X86518169Y-127299856D02*
X86470550Y-127252236D01*
X86470550Y-127252236D02*
X86446741Y-127156998D01*
X86446741Y-127156998D02*
X86446741Y-126990332D01*
X86446741Y-126990332D02*
X86470550Y-126895094D01*
X86470550Y-126895094D02*
X86518169Y-126847475D01*
X86518169Y-126847475D02*
X86565788Y-126823665D01*
X87494360Y-127490332D02*
X87494360Y-126776046D01*
X87780074Y-126823665D02*
X87946740Y-127323665D01*
X87946740Y-127323665D02*
X88113407Y-126823665D01*
X88565787Y-127276046D02*
X88541978Y-127299856D01*
X88541978Y-127299856D02*
X88470549Y-127323665D01*
X88470549Y-127323665D02*
X88422930Y-127323665D01*
X88422930Y-127323665D02*
X88351502Y-127299856D01*
X88351502Y-127299856D02*
X88303883Y-127252236D01*
X88303883Y-127252236D02*
X88280073Y-127204617D01*
X88280073Y-127204617D02*
X88256264Y-127109379D01*
X88256264Y-127109379D02*
X88256264Y-127037951D01*
X88256264Y-127037951D02*
X88280073Y-126942713D01*
X88280073Y-126942713D02*
X88303883Y-126895094D01*
X88303883Y-126895094D02*
X88351502Y-126847475D01*
X88351502Y-126847475D02*
X88422930Y-126823665D01*
X88422930Y-126823665D02*
X88470549Y-126823665D01*
X88470549Y-126823665D02*
X88541978Y-126847475D01*
X88541978Y-126847475D02*
X88565787Y-126871284D01*
X89065787Y-127276046D02*
X89041978Y-127299856D01*
X89041978Y-127299856D02*
X88970549Y-127323665D01*
X88970549Y-127323665D02*
X88922930Y-127323665D01*
X88922930Y-127323665D02*
X88851502Y-127299856D01*
X88851502Y-127299856D02*
X88803883Y-127252236D01*
X88803883Y-127252236D02*
X88780073Y-127204617D01*
X88780073Y-127204617D02*
X88756264Y-127109379D01*
X88756264Y-127109379D02*
X88756264Y-127037951D01*
X88756264Y-127037951D02*
X88780073Y-126942713D01*
X88780073Y-126942713D02*
X88803883Y-126895094D01*
X88803883Y-126895094D02*
X88851502Y-126847475D01*
X88851502Y-126847475D02*
X88922930Y-126823665D01*
X88922930Y-126823665D02*
X88970549Y-126823665D01*
X88970549Y-126823665D02*
X89041978Y-126847475D01*
X89041978Y-126847475D02*
X89065787Y-126871284D01*
X85161027Y-128104828D02*
X85232455Y-128128637D01*
X85232455Y-128128637D02*
X85351503Y-128128637D01*
X85351503Y-128128637D02*
X85399122Y-128104828D01*
X85399122Y-128104828D02*
X85422931Y-128081018D01*
X85422931Y-128081018D02*
X85446741Y-128033399D01*
X85446741Y-128033399D02*
X85446741Y-127985780D01*
X85446741Y-127985780D02*
X85422931Y-127938161D01*
X85422931Y-127938161D02*
X85399122Y-127914351D01*
X85399122Y-127914351D02*
X85351503Y-127890542D01*
X85351503Y-127890542D02*
X85256265Y-127866732D01*
X85256265Y-127866732D02*
X85208646Y-127842923D01*
X85208646Y-127842923D02*
X85184836Y-127819113D01*
X85184836Y-127819113D02*
X85161027Y-127771494D01*
X85161027Y-127771494D02*
X85161027Y-127723875D01*
X85161027Y-127723875D02*
X85184836Y-127676256D01*
X85184836Y-127676256D02*
X85208646Y-127652447D01*
X85208646Y-127652447D02*
X85256265Y-127628637D01*
X85256265Y-127628637D02*
X85375312Y-127628637D01*
X85375312Y-127628637D02*
X85446741Y-127652447D01*
X85946740Y-128081018D02*
X85922931Y-128104828D01*
X85922931Y-128104828D02*
X85851502Y-128128637D01*
X85851502Y-128128637D02*
X85803883Y-128128637D01*
X85803883Y-128128637D02*
X85732455Y-128104828D01*
X85732455Y-128104828D02*
X85684836Y-128057208D01*
X85684836Y-128057208D02*
X85661026Y-128009589D01*
X85661026Y-128009589D02*
X85637217Y-127914351D01*
X85637217Y-127914351D02*
X85637217Y-127842923D01*
X85637217Y-127842923D02*
X85661026Y-127747685D01*
X85661026Y-127747685D02*
X85684836Y-127700066D01*
X85684836Y-127700066D02*
X85732455Y-127652447D01*
X85732455Y-127652447D02*
X85803883Y-127628637D01*
X85803883Y-127628637D02*
X85851502Y-127628637D01*
X85851502Y-127628637D02*
X85922931Y-127652447D01*
X85922931Y-127652447D02*
X85946740Y-127676256D01*
X86161026Y-128128637D02*
X86161026Y-127628637D01*
X86446740Y-128128637D02*
X86232455Y-127842923D01*
X86446740Y-127628637D02*
X86161026Y-127914351D01*
X87541978Y-128295304D02*
X87541978Y-127581018D01*
X87899120Y-128128637D02*
X87899120Y-127628637D01*
X87899120Y-127628637D02*
X88065787Y-127985780D01*
X88065787Y-127985780D02*
X88232453Y-127628637D01*
X88232453Y-127628637D02*
X88232453Y-128128637D01*
X88565787Y-127628637D02*
X88661025Y-127628637D01*
X88661025Y-127628637D02*
X88708644Y-127652447D01*
X88708644Y-127652447D02*
X88756263Y-127700066D01*
X88756263Y-127700066D02*
X88780073Y-127795304D01*
X88780073Y-127795304D02*
X88780073Y-127961970D01*
X88780073Y-127961970D02*
X88756263Y-128057208D01*
X88756263Y-128057208D02*
X88708644Y-128104828D01*
X88708644Y-128104828D02*
X88661025Y-128128637D01*
X88661025Y-128128637D02*
X88565787Y-128128637D01*
X88565787Y-128128637D02*
X88518168Y-128104828D01*
X88518168Y-128104828D02*
X88470549Y-128057208D01*
X88470549Y-128057208D02*
X88446740Y-127961970D01*
X88446740Y-127961970D02*
X88446740Y-127795304D01*
X88446740Y-127795304D02*
X88470549Y-127700066D01*
X88470549Y-127700066D02*
X88518168Y-127652447D01*
X88518168Y-127652447D02*
X88565787Y-127628637D01*
X88970550Y-128104828D02*
X89041978Y-128128637D01*
X89041978Y-128128637D02*
X89161026Y-128128637D01*
X89161026Y-128128637D02*
X89208645Y-128104828D01*
X89208645Y-128104828D02*
X89232454Y-128081018D01*
X89232454Y-128081018D02*
X89256264Y-128033399D01*
X89256264Y-128033399D02*
X89256264Y-127985780D01*
X89256264Y-127985780D02*
X89232454Y-127938161D01*
X89232454Y-127938161D02*
X89208645Y-127914351D01*
X89208645Y-127914351D02*
X89161026Y-127890542D01*
X89161026Y-127890542D02*
X89065788Y-127866732D01*
X89065788Y-127866732D02*
X89018169Y-127842923D01*
X89018169Y-127842923D02*
X88994359Y-127819113D01*
X88994359Y-127819113D02*
X88970550Y-127771494D01*
X88970550Y-127771494D02*
X88970550Y-127723875D01*
X88970550Y-127723875D02*
X88994359Y-127676256D01*
X88994359Y-127676256D02*
X89018169Y-127652447D01*
X89018169Y-127652447D02*
X89065788Y-127628637D01*
X89065788Y-127628637D02*
X89184835Y-127628637D01*
X89184835Y-127628637D02*
X89256264Y-127652447D01*
X89470549Y-128128637D02*
X89470549Y-127628637D01*
X85470550Y-128933609D02*
X85303884Y-128695514D01*
X85184836Y-128933609D02*
X85184836Y-128433609D01*
X85184836Y-128433609D02*
X85375312Y-128433609D01*
X85375312Y-128433609D02*
X85422931Y-128457419D01*
X85422931Y-128457419D02*
X85446741Y-128481228D01*
X85446741Y-128481228D02*
X85470550Y-128528847D01*
X85470550Y-128528847D02*
X85470550Y-128600276D01*
X85470550Y-128600276D02*
X85446741Y-128647895D01*
X85446741Y-128647895D02*
X85422931Y-128671704D01*
X85422931Y-128671704D02*
X85375312Y-128695514D01*
X85375312Y-128695514D02*
X85184836Y-128695514D01*
X85684836Y-128671704D02*
X85851503Y-128671704D01*
X85922931Y-128933609D02*
X85684836Y-128933609D01*
X85684836Y-128933609D02*
X85684836Y-128433609D01*
X85684836Y-128433609D02*
X85922931Y-128433609D01*
X86113408Y-128909800D02*
X86184836Y-128933609D01*
X86184836Y-128933609D02*
X86303884Y-128933609D01*
X86303884Y-128933609D02*
X86351503Y-128909800D01*
X86351503Y-128909800D02*
X86375312Y-128885990D01*
X86375312Y-128885990D02*
X86399122Y-128838371D01*
X86399122Y-128838371D02*
X86399122Y-128790752D01*
X86399122Y-128790752D02*
X86375312Y-128743133D01*
X86375312Y-128743133D02*
X86351503Y-128719323D01*
X86351503Y-128719323D02*
X86303884Y-128695514D01*
X86303884Y-128695514D02*
X86208646Y-128671704D01*
X86208646Y-128671704D02*
X86161027Y-128647895D01*
X86161027Y-128647895D02*
X86137217Y-128624085D01*
X86137217Y-128624085D02*
X86113408Y-128576466D01*
X86113408Y-128576466D02*
X86113408Y-128528847D01*
X86113408Y-128528847D02*
X86137217Y-128481228D01*
X86137217Y-128481228D02*
X86161027Y-128457419D01*
X86161027Y-128457419D02*
X86208646Y-128433609D01*
X86208646Y-128433609D02*
X86327693Y-128433609D01*
X86327693Y-128433609D02*
X86399122Y-128457419D01*
X86613407Y-128671704D02*
X86780074Y-128671704D01*
X86851502Y-128933609D02*
X86613407Y-128933609D01*
X86613407Y-128933609D02*
X86613407Y-128433609D01*
X86613407Y-128433609D02*
X86851502Y-128433609D01*
X86994360Y-128433609D02*
X87280074Y-128433609D01*
X87137217Y-128933609D02*
X87137217Y-128433609D01*
X87565788Y-129100276D02*
X87565788Y-128385990D01*
X88184835Y-128457419D02*
X88137216Y-128433609D01*
X88137216Y-128433609D02*
X88065787Y-128433609D01*
X88065787Y-128433609D02*
X87994359Y-128457419D01*
X87994359Y-128457419D02*
X87946740Y-128505038D01*
X87946740Y-128505038D02*
X87922930Y-128552657D01*
X87922930Y-128552657D02*
X87899121Y-128647895D01*
X87899121Y-128647895D02*
X87899121Y-128719323D01*
X87899121Y-128719323D02*
X87922930Y-128814561D01*
X87922930Y-128814561D02*
X87946740Y-128862180D01*
X87946740Y-128862180D02*
X87994359Y-128909800D01*
X87994359Y-128909800D02*
X88065787Y-128933609D01*
X88065787Y-128933609D02*
X88113406Y-128933609D01*
X88113406Y-128933609D02*
X88184835Y-128909800D01*
X88184835Y-128909800D02*
X88208644Y-128885990D01*
X88208644Y-128885990D02*
X88208644Y-128719323D01*
X88208644Y-128719323D02*
X88113406Y-128719323D01*
X88422930Y-128933609D02*
X88422930Y-128433609D01*
X88422930Y-128433609D02*
X88708644Y-128933609D01*
X88708644Y-128933609D02*
X88708644Y-128433609D01*
X88946740Y-128933609D02*
X88946740Y-128433609D01*
X88946740Y-128433609D02*
X89065788Y-128433609D01*
X89065788Y-128433609D02*
X89137216Y-128457419D01*
X89137216Y-128457419D02*
X89184835Y-128505038D01*
X89184835Y-128505038D02*
X89208645Y-128552657D01*
X89208645Y-128552657D02*
X89232454Y-128647895D01*
X89232454Y-128647895D02*
X89232454Y-128719323D01*
X89232454Y-128719323D02*
X89208645Y-128814561D01*
X89208645Y-128814561D02*
X89184835Y-128862180D01*
X89184835Y-128862180D02*
X89137216Y-128909800D01*
X89137216Y-128909800D02*
X89065788Y-128933609D01*
X89065788Y-128933609D02*
X88946740Y-128933609D01*
D11*
X88169160Y-145144295D02*
X88169160Y-144344295D01*
X88169160Y-144344295D02*
X88359636Y-144344295D01*
X88359636Y-144344295D02*
X88473922Y-144382390D01*
X88473922Y-144382390D02*
X88550112Y-144458580D01*
X88550112Y-144458580D02*
X88588207Y-144534771D01*
X88588207Y-144534771D02*
X88626303Y-144687152D01*
X88626303Y-144687152D02*
X88626303Y-144801438D01*
X88626303Y-144801438D02*
X88588207Y-144953819D01*
X88588207Y-144953819D02*
X88550112Y-145030009D01*
X88550112Y-145030009D02*
X88473922Y-145106200D01*
X88473922Y-145106200D02*
X88359636Y-145144295D01*
X88359636Y-145144295D02*
X88169160Y-145144295D01*
X88892969Y-144344295D02*
X89388207Y-144344295D01*
X89388207Y-144344295D02*
X89121541Y-144649057D01*
X89121541Y-144649057D02*
X89235826Y-144649057D01*
X89235826Y-144649057D02*
X89312017Y-144687152D01*
X89312017Y-144687152D02*
X89350112Y-144725247D01*
X89350112Y-144725247D02*
X89388207Y-144801438D01*
X89388207Y-144801438D02*
X89388207Y-144991914D01*
X89388207Y-144991914D02*
X89350112Y-145068104D01*
X89350112Y-145068104D02*
X89312017Y-145106200D01*
X89312017Y-145106200D02*
X89235826Y-145144295D01*
X89235826Y-145144295D02*
X89007255Y-145144295D01*
X89007255Y-145144295D02*
X88931064Y-145106200D01*
X88931064Y-145106200D02*
X88892969Y-145068104D01*
X103244874Y-144374295D02*
X103511541Y-145174295D01*
X103511541Y-145174295D02*
X103778207Y-144374295D01*
X104387731Y-145136200D02*
X104311540Y-145174295D01*
X104311540Y-145174295D02*
X104159159Y-145174295D01*
X104159159Y-145174295D02*
X104082969Y-145136200D01*
X104082969Y-145136200D02*
X104044874Y-145098104D01*
X104044874Y-145098104D02*
X104006778Y-145021914D01*
X104006778Y-145021914D02*
X104006778Y-144793342D01*
X104006778Y-144793342D02*
X104044874Y-144717152D01*
X104044874Y-144717152D02*
X104082969Y-144679057D01*
X104082969Y-144679057D02*
X104159159Y-144640961D01*
X104159159Y-144640961D02*
X104311540Y-144640961D01*
X104311540Y-144640961D02*
X104387731Y-144679057D01*
X105073445Y-145136200D02*
X104997254Y-145174295D01*
X104997254Y-145174295D02*
X104844873Y-145174295D01*
X104844873Y-145174295D02*
X104768683Y-145136200D01*
X104768683Y-145136200D02*
X104730588Y-145098104D01*
X104730588Y-145098104D02*
X104692492Y-145021914D01*
X104692492Y-145021914D02*
X104692492Y-144793342D01*
X104692492Y-144793342D02*
X104730588Y-144717152D01*
X104730588Y-144717152D02*
X104768683Y-144679057D01*
X104768683Y-144679057D02*
X104844873Y-144640961D01*
X104844873Y-144640961D02*
X104997254Y-144640961D01*
X104997254Y-144640961D02*
X105073445Y-144679057D01*
D10*
X83232455Y-139409133D02*
X83232455Y-138709133D01*
X83965788Y-139342466D02*
X83932455Y-139375800D01*
X83932455Y-139375800D02*
X83832455Y-139409133D01*
X83832455Y-139409133D02*
X83765788Y-139409133D01*
X83765788Y-139409133D02*
X83665788Y-139375800D01*
X83665788Y-139375800D02*
X83599122Y-139309133D01*
X83599122Y-139309133D02*
X83565788Y-139242466D01*
X83565788Y-139242466D02*
X83532455Y-139109133D01*
X83532455Y-139109133D02*
X83532455Y-139009133D01*
X83532455Y-139009133D02*
X83565788Y-138875800D01*
X83565788Y-138875800D02*
X83599122Y-138809133D01*
X83599122Y-138809133D02*
X83665788Y-138742466D01*
X83665788Y-138742466D02*
X83765788Y-138709133D01*
X83765788Y-138709133D02*
X83832455Y-138709133D01*
X83832455Y-138709133D02*
X83932455Y-138742466D01*
X83932455Y-138742466D02*
X83965788Y-138775800D01*
X84232455Y-139375800D02*
X84332455Y-139409133D01*
X84332455Y-139409133D02*
X84499122Y-139409133D01*
X84499122Y-139409133D02*
X84565788Y-139375800D01*
X84565788Y-139375800D02*
X84599122Y-139342466D01*
X84599122Y-139342466D02*
X84632455Y-139275800D01*
X84632455Y-139275800D02*
X84632455Y-139209133D01*
X84632455Y-139209133D02*
X84599122Y-139142466D01*
X84599122Y-139142466D02*
X84565788Y-139109133D01*
X84565788Y-139109133D02*
X84499122Y-139075800D01*
X84499122Y-139075800D02*
X84365788Y-139042466D01*
X84365788Y-139042466D02*
X84299122Y-139009133D01*
X84299122Y-139009133D02*
X84265788Y-138975800D01*
X84265788Y-138975800D02*
X84232455Y-138909133D01*
X84232455Y-138909133D02*
X84232455Y-138842466D01*
X84232455Y-138842466D02*
X84265788Y-138775800D01*
X84265788Y-138775800D02*
X84299122Y-138742466D01*
X84299122Y-138742466D02*
X84365788Y-138709133D01*
X84365788Y-138709133D02*
X84532455Y-138709133D01*
X84532455Y-138709133D02*
X84632455Y-138742466D01*
X84932455Y-139409133D02*
X84932455Y-138709133D01*
X84932455Y-138709133D02*
X85199122Y-138709133D01*
X85199122Y-138709133D02*
X85265789Y-138742466D01*
X85265789Y-138742466D02*
X85299122Y-138775800D01*
X85299122Y-138775800D02*
X85332455Y-138842466D01*
X85332455Y-138842466D02*
X85332455Y-138942466D01*
X85332455Y-138942466D02*
X85299122Y-139009133D01*
X85299122Y-139009133D02*
X85265789Y-139042466D01*
X85265789Y-139042466D02*
X85199122Y-139075800D01*
X85199122Y-139075800D02*
X84932455Y-139075800D01*
X150577419Y-138516665D02*
X150577419Y-137897618D01*
X150577419Y-137897618D02*
X150958371Y-138230951D01*
X150958371Y-138230951D02*
X150958371Y-138088094D01*
X150958371Y-138088094D02*
X151005990Y-137992856D01*
X151005990Y-137992856D02*
X151053609Y-137945237D01*
X151053609Y-137945237D02*
X151148847Y-137897618D01*
X151148847Y-137897618D02*
X151386942Y-137897618D01*
X151386942Y-137897618D02*
X151482180Y-137945237D01*
X151482180Y-137945237D02*
X151529800Y-137992856D01*
X151529800Y-137992856D02*
X151577419Y-138088094D01*
X151577419Y-138088094D02*
X151577419Y-138373808D01*
X151577419Y-138373808D02*
X151529800Y-138469046D01*
X151529800Y-138469046D02*
X151482180Y-138516665D01*
X150577419Y-137564284D02*
X150577419Y-136945237D01*
X150577419Y-136945237D02*
X150958371Y-137278570D01*
X150958371Y-137278570D02*
X150958371Y-137135713D01*
X150958371Y-137135713D02*
X151005990Y-137040475D01*
X151005990Y-137040475D02*
X151053609Y-136992856D01*
X151053609Y-136992856D02*
X151148847Y-136945237D01*
X151148847Y-136945237D02*
X151386942Y-136945237D01*
X151386942Y-136945237D02*
X151482180Y-136992856D01*
X151482180Y-136992856D02*
X151529800Y-137040475D01*
X151529800Y-137040475D02*
X151577419Y-137135713D01*
X151577419Y-137135713D02*
X151577419Y-137421427D01*
X151577419Y-137421427D02*
X151529800Y-137516665D01*
X151529800Y-137516665D02*
X151482180Y-137564284D01*
X151482180Y-136516665D02*
X151529800Y-136469046D01*
X151529800Y-136469046D02*
X151577419Y-136516665D01*
X151577419Y-136516665D02*
X151529800Y-136564284D01*
X151529800Y-136564284D02*
X151482180Y-136516665D01*
X151482180Y-136516665D02*
X151577419Y-136516665D01*
X151005990Y-135897618D02*
X150958371Y-135992856D01*
X150958371Y-135992856D02*
X150910752Y-136040475D01*
X150910752Y-136040475D02*
X150815514Y-136088094D01*
X150815514Y-136088094D02*
X150767895Y-136088094D01*
X150767895Y-136088094D02*
X150672657Y-136040475D01*
X150672657Y-136040475D02*
X150625038Y-135992856D01*
X150625038Y-135992856D02*
X150577419Y-135897618D01*
X150577419Y-135897618D02*
X150577419Y-135707142D01*
X150577419Y-135707142D02*
X150625038Y-135611904D01*
X150625038Y-135611904D02*
X150672657Y-135564285D01*
X150672657Y-135564285D02*
X150767895Y-135516666D01*
X150767895Y-135516666D02*
X150815514Y-135516666D01*
X150815514Y-135516666D02*
X150910752Y-135564285D01*
X150910752Y-135564285D02*
X150958371Y-135611904D01*
X150958371Y-135611904D02*
X151005990Y-135707142D01*
X151005990Y-135707142D02*
X151005990Y-135897618D01*
X151005990Y-135897618D02*
X151053609Y-135992856D01*
X151053609Y-135992856D02*
X151101228Y-136040475D01*
X151101228Y-136040475D02*
X151196466Y-136088094D01*
X151196466Y-136088094D02*
X151386942Y-136088094D01*
X151386942Y-136088094D02*
X151482180Y-136040475D01*
X151482180Y-136040475D02*
X151529800Y-135992856D01*
X151529800Y-135992856D02*
X151577419Y-135897618D01*
X151577419Y-135897618D02*
X151577419Y-135707142D01*
X151577419Y-135707142D02*
X151529800Y-135611904D01*
X151529800Y-135611904D02*
X151482180Y-135564285D01*
X151482180Y-135564285D02*
X151386942Y-135516666D01*
X151386942Y-135516666D02*
X151196466Y-135516666D01*
X151196466Y-135516666D02*
X151101228Y-135564285D01*
X151101228Y-135564285D02*
X151053609Y-135611904D01*
X151053609Y-135611904D02*
X151005990Y-135707142D01*
X151005990Y-134945237D02*
X150958371Y-135040475D01*
X150958371Y-135040475D02*
X150910752Y-135088094D01*
X150910752Y-135088094D02*
X150815514Y-135135713D01*
X150815514Y-135135713D02*
X150767895Y-135135713D01*
X150767895Y-135135713D02*
X150672657Y-135088094D01*
X150672657Y-135088094D02*
X150625038Y-135040475D01*
X150625038Y-135040475D02*
X150577419Y-134945237D01*
X150577419Y-134945237D02*
X150577419Y-134754761D01*
X150577419Y-134754761D02*
X150625038Y-134659523D01*
X150625038Y-134659523D02*
X150672657Y-134611904D01*
X150672657Y-134611904D02*
X150767895Y-134564285D01*
X150767895Y-134564285D02*
X150815514Y-134564285D01*
X150815514Y-134564285D02*
X150910752Y-134611904D01*
X150910752Y-134611904D02*
X150958371Y-134659523D01*
X150958371Y-134659523D02*
X151005990Y-134754761D01*
X151005990Y-134754761D02*
X151005990Y-134945237D01*
X151005990Y-134945237D02*
X151053609Y-135040475D01*
X151053609Y-135040475D02*
X151101228Y-135088094D01*
X151101228Y-135088094D02*
X151196466Y-135135713D01*
X151196466Y-135135713D02*
X151386942Y-135135713D01*
X151386942Y-135135713D02*
X151482180Y-135088094D01*
X151482180Y-135088094D02*
X151529800Y-135040475D01*
X151529800Y-135040475D02*
X151577419Y-134945237D01*
X151577419Y-134945237D02*
X151577419Y-134754761D01*
X151577419Y-134754761D02*
X151529800Y-134659523D01*
X151529800Y-134659523D02*
X151482180Y-134611904D01*
X151482180Y-134611904D02*
X151386942Y-134564285D01*
X151386942Y-134564285D02*
X151196466Y-134564285D01*
X151196466Y-134564285D02*
X151101228Y-134611904D01*
X151101228Y-134611904D02*
X151053609Y-134659523D01*
X151053609Y-134659523D02*
X151005990Y-134754761D01*
X150577419Y-133945237D02*
X150577419Y-133849999D01*
X150577419Y-133849999D02*
X150625038Y-133754761D01*
X150625038Y-133754761D02*
X150672657Y-133707142D01*
X150672657Y-133707142D02*
X150767895Y-133659523D01*
X150767895Y-133659523D02*
X150958371Y-133611904D01*
X150958371Y-133611904D02*
X151196466Y-133611904D01*
X151196466Y-133611904D02*
X151386942Y-133659523D01*
X151386942Y-133659523D02*
X151482180Y-133707142D01*
X151482180Y-133707142D02*
X151529800Y-133754761D01*
X151529800Y-133754761D02*
X151577419Y-133849999D01*
X151577419Y-133849999D02*
X151577419Y-133945237D01*
X151577419Y-133945237D02*
X151529800Y-134040475D01*
X151529800Y-134040475D02*
X151482180Y-134088094D01*
X151482180Y-134088094D02*
X151386942Y-134135713D01*
X151386942Y-134135713D02*
X151196466Y-134183332D01*
X151196466Y-134183332D02*
X150958371Y-134183332D01*
X150958371Y-134183332D02*
X150767895Y-134135713D01*
X150767895Y-134135713D02*
X150672657Y-134088094D01*
X150672657Y-134088094D02*
X150625038Y-134040475D01*
X150625038Y-134040475D02*
X150577419Y-133945237D01*
X150577419Y-132992856D02*
X150577419Y-132897618D01*
X150577419Y-132897618D02*
X150625038Y-132802380D01*
X150625038Y-132802380D02*
X150672657Y-132754761D01*
X150672657Y-132754761D02*
X150767895Y-132707142D01*
X150767895Y-132707142D02*
X150958371Y-132659523D01*
X150958371Y-132659523D02*
X151196466Y-132659523D01*
X151196466Y-132659523D02*
X151386942Y-132707142D01*
X151386942Y-132707142D02*
X151482180Y-132754761D01*
X151482180Y-132754761D02*
X151529800Y-132802380D01*
X151529800Y-132802380D02*
X151577419Y-132897618D01*
X151577419Y-132897618D02*
X151577419Y-132992856D01*
X151577419Y-132992856D02*
X151529800Y-133088094D01*
X151529800Y-133088094D02*
X151482180Y-133135713D01*
X151482180Y-133135713D02*
X151386942Y-133183332D01*
X151386942Y-133183332D02*
X151196466Y-133230951D01*
X151196466Y-133230951D02*
X150958371Y-133230951D01*
X150958371Y-133230951D02*
X150767895Y-133183332D01*
X150767895Y-133183332D02*
X150672657Y-133135713D01*
X150672657Y-133135713D02*
X150625038Y-133088094D01*
X150625038Y-133088094D02*
X150577419Y-132992856D01*
X151577419Y-131469046D02*
X150910752Y-131469046D01*
X151005990Y-131469046D02*
X150958371Y-131421427D01*
X150958371Y-131421427D02*
X150910752Y-131326189D01*
X150910752Y-131326189D02*
X150910752Y-131183332D01*
X150910752Y-131183332D02*
X150958371Y-131088094D01*
X150958371Y-131088094D02*
X151053609Y-131040475D01*
X151053609Y-131040475D02*
X151577419Y-131040475D01*
X151053609Y-131040475D02*
X150958371Y-130992856D01*
X150958371Y-130992856D02*
X150910752Y-130897618D01*
X150910752Y-130897618D02*
X150910752Y-130754761D01*
X150910752Y-130754761D02*
X150958371Y-130659522D01*
X150958371Y-130659522D02*
X151053609Y-130611903D01*
X151053609Y-130611903D02*
X151577419Y-130611903D01*
X151577419Y-130135713D02*
X150910752Y-130135713D01*
X151005990Y-130135713D02*
X150958371Y-130088094D01*
X150958371Y-130088094D02*
X150910752Y-129992856D01*
X150910752Y-129992856D02*
X150910752Y-129849999D01*
X150910752Y-129849999D02*
X150958371Y-129754761D01*
X150958371Y-129754761D02*
X151053609Y-129707142D01*
X151053609Y-129707142D02*
X151577419Y-129707142D01*
X151053609Y-129707142D02*
X150958371Y-129659523D01*
X150958371Y-129659523D02*
X150910752Y-129564285D01*
X150910752Y-129564285D02*
X150910752Y-129421428D01*
X150910752Y-129421428D02*
X150958371Y-129326189D01*
X150958371Y-129326189D02*
X151053609Y-129278570D01*
X151053609Y-129278570D02*
X151577419Y-129278570D01*
X142630000Y-116910000D02*
X152806420Y-116910000D01*
X142630000Y-150790000D02*
X152806420Y-150790000D01*
X152220000Y-116910000D02*
X152220000Y-150790000D01*
X152220000Y-116910000D02*
X152220000Y-150790000D01*
X152220000Y-116910000D02*
X152806421Y-118036504D01*
X152220000Y-116910000D02*
X151633579Y-118036504D01*
X152220000Y-150790000D02*
X151633579Y-149663496D01*
X152220000Y-150790000D02*
X152806421Y-149663496D01*
X107057143Y-108127420D02*
X106866667Y-108127420D01*
X106866667Y-108127420D02*
X106771429Y-108175039D01*
X106771429Y-108175039D02*
X106723810Y-108222658D01*
X106723810Y-108222658D02*
X106628572Y-108365515D01*
X106628572Y-108365515D02*
X106580953Y-108555991D01*
X106580953Y-108555991D02*
X106580953Y-108936943D01*
X106580953Y-108936943D02*
X106628572Y-109032181D01*
X106628572Y-109032181D02*
X106676191Y-109079801D01*
X106676191Y-109079801D02*
X106771429Y-109127420D01*
X106771429Y-109127420D02*
X106961905Y-109127420D01*
X106961905Y-109127420D02*
X107057143Y-109079801D01*
X107057143Y-109079801D02*
X107104762Y-109032181D01*
X107104762Y-109032181D02*
X107152381Y-108936943D01*
X107152381Y-108936943D02*
X107152381Y-108698848D01*
X107152381Y-108698848D02*
X107104762Y-108603610D01*
X107104762Y-108603610D02*
X107057143Y-108555991D01*
X107057143Y-108555991D02*
X106961905Y-108508372D01*
X106961905Y-108508372D02*
X106771429Y-108508372D01*
X106771429Y-108508372D02*
X106676191Y-108555991D01*
X106676191Y-108555991D02*
X106628572Y-108603610D01*
X106628572Y-108603610D02*
X106580953Y-108698848D01*
X108104762Y-109127420D02*
X107533334Y-109127420D01*
X107819048Y-109127420D02*
X107819048Y-108127420D01*
X107819048Y-108127420D02*
X107723810Y-108270277D01*
X107723810Y-108270277D02*
X107628572Y-108365515D01*
X107628572Y-108365515D02*
X107533334Y-108413134D01*
X108533334Y-109032181D02*
X108580953Y-109079801D01*
X108580953Y-109079801D02*
X108533334Y-109127420D01*
X108533334Y-109127420D02*
X108485715Y-109079801D01*
X108485715Y-109079801D02*
X108533334Y-109032181D01*
X108533334Y-109032181D02*
X108533334Y-109127420D01*
X109152381Y-108555991D02*
X109057143Y-108508372D01*
X109057143Y-108508372D02*
X109009524Y-108460753D01*
X109009524Y-108460753D02*
X108961905Y-108365515D01*
X108961905Y-108365515D02*
X108961905Y-108317896D01*
X108961905Y-108317896D02*
X109009524Y-108222658D01*
X109009524Y-108222658D02*
X109057143Y-108175039D01*
X109057143Y-108175039D02*
X109152381Y-108127420D01*
X109152381Y-108127420D02*
X109342857Y-108127420D01*
X109342857Y-108127420D02*
X109438095Y-108175039D01*
X109438095Y-108175039D02*
X109485714Y-108222658D01*
X109485714Y-108222658D02*
X109533333Y-108317896D01*
X109533333Y-108317896D02*
X109533333Y-108365515D01*
X109533333Y-108365515D02*
X109485714Y-108460753D01*
X109485714Y-108460753D02*
X109438095Y-108508372D01*
X109438095Y-108508372D02*
X109342857Y-108555991D01*
X109342857Y-108555991D02*
X109152381Y-108555991D01*
X109152381Y-108555991D02*
X109057143Y-108603610D01*
X109057143Y-108603610D02*
X109009524Y-108651229D01*
X109009524Y-108651229D02*
X108961905Y-108746467D01*
X108961905Y-108746467D02*
X108961905Y-108936943D01*
X108961905Y-108936943D02*
X109009524Y-109032181D01*
X109009524Y-109032181D02*
X109057143Y-109079801D01*
X109057143Y-109079801D02*
X109152381Y-109127420D01*
X109152381Y-109127420D02*
X109342857Y-109127420D01*
X109342857Y-109127420D02*
X109438095Y-109079801D01*
X109438095Y-109079801D02*
X109485714Y-109032181D01*
X109485714Y-109032181D02*
X109533333Y-108936943D01*
X109533333Y-108936943D02*
X109533333Y-108746467D01*
X109533333Y-108746467D02*
X109485714Y-108651229D01*
X109485714Y-108651229D02*
X109438095Y-108603610D01*
X109438095Y-108603610D02*
X109342857Y-108555991D01*
X110390476Y-108127420D02*
X110200000Y-108127420D01*
X110200000Y-108127420D02*
X110104762Y-108175039D01*
X110104762Y-108175039D02*
X110057143Y-108222658D01*
X110057143Y-108222658D02*
X109961905Y-108365515D01*
X109961905Y-108365515D02*
X109914286Y-108555991D01*
X109914286Y-108555991D02*
X109914286Y-108936943D01*
X109914286Y-108936943D02*
X109961905Y-109032181D01*
X109961905Y-109032181D02*
X110009524Y-109079801D01*
X110009524Y-109079801D02*
X110104762Y-109127420D01*
X110104762Y-109127420D02*
X110295238Y-109127420D01*
X110295238Y-109127420D02*
X110390476Y-109079801D01*
X110390476Y-109079801D02*
X110438095Y-109032181D01*
X110438095Y-109032181D02*
X110485714Y-108936943D01*
X110485714Y-108936943D02*
X110485714Y-108698848D01*
X110485714Y-108698848D02*
X110438095Y-108603610D01*
X110438095Y-108603610D02*
X110390476Y-108555991D01*
X110390476Y-108555991D02*
X110295238Y-108508372D01*
X110295238Y-108508372D02*
X110104762Y-108508372D01*
X110104762Y-108508372D02*
X110009524Y-108555991D01*
X110009524Y-108555991D02*
X109961905Y-108603610D01*
X109961905Y-108603610D02*
X109914286Y-108698848D01*
X111104762Y-108127420D02*
X111200000Y-108127420D01*
X111200000Y-108127420D02*
X111295238Y-108175039D01*
X111295238Y-108175039D02*
X111342857Y-108222658D01*
X111342857Y-108222658D02*
X111390476Y-108317896D01*
X111390476Y-108317896D02*
X111438095Y-108508372D01*
X111438095Y-108508372D02*
X111438095Y-108746467D01*
X111438095Y-108746467D02*
X111390476Y-108936943D01*
X111390476Y-108936943D02*
X111342857Y-109032181D01*
X111342857Y-109032181D02*
X111295238Y-109079801D01*
X111295238Y-109079801D02*
X111200000Y-109127420D01*
X111200000Y-109127420D02*
X111104762Y-109127420D01*
X111104762Y-109127420D02*
X111009524Y-109079801D01*
X111009524Y-109079801D02*
X110961905Y-109032181D01*
X110961905Y-109032181D02*
X110914286Y-108936943D01*
X110914286Y-108936943D02*
X110866667Y-108746467D01*
X110866667Y-108746467D02*
X110866667Y-108508372D01*
X110866667Y-108508372D02*
X110914286Y-108317896D01*
X110914286Y-108317896D02*
X110961905Y-108222658D01*
X110961905Y-108222658D02*
X111009524Y-108175039D01*
X111009524Y-108175039D02*
X111104762Y-108127420D01*
X112057143Y-108127420D02*
X112152381Y-108127420D01*
X112152381Y-108127420D02*
X112247619Y-108175039D01*
X112247619Y-108175039D02*
X112295238Y-108222658D01*
X112295238Y-108222658D02*
X112342857Y-108317896D01*
X112342857Y-108317896D02*
X112390476Y-108508372D01*
X112390476Y-108508372D02*
X112390476Y-108746467D01*
X112390476Y-108746467D02*
X112342857Y-108936943D01*
X112342857Y-108936943D02*
X112295238Y-109032181D01*
X112295238Y-109032181D02*
X112247619Y-109079801D01*
X112247619Y-109079801D02*
X112152381Y-109127420D01*
X112152381Y-109127420D02*
X112057143Y-109127420D01*
X112057143Y-109127420D02*
X111961905Y-109079801D01*
X111961905Y-109079801D02*
X111914286Y-109032181D01*
X111914286Y-109032181D02*
X111866667Y-108936943D01*
X111866667Y-108936943D02*
X111819048Y-108746467D01*
X111819048Y-108746467D02*
X111819048Y-108508372D01*
X111819048Y-108508372D02*
X111866667Y-108317896D01*
X111866667Y-108317896D02*
X111914286Y-108222658D01*
X111914286Y-108222658D02*
X111961905Y-108175039D01*
X111961905Y-108175039D02*
X112057143Y-108127420D01*
X113580953Y-109127420D02*
X113580953Y-108460753D01*
X113580953Y-108555991D02*
X113628572Y-108508372D01*
X113628572Y-108508372D02*
X113723810Y-108460753D01*
X113723810Y-108460753D02*
X113866667Y-108460753D01*
X113866667Y-108460753D02*
X113961905Y-108508372D01*
X113961905Y-108508372D02*
X114009524Y-108603610D01*
X114009524Y-108603610D02*
X114009524Y-109127420D01*
X114009524Y-108603610D02*
X114057143Y-108508372D01*
X114057143Y-108508372D02*
X114152381Y-108460753D01*
X114152381Y-108460753D02*
X114295238Y-108460753D01*
X114295238Y-108460753D02*
X114390477Y-108508372D01*
X114390477Y-108508372D02*
X114438096Y-108603610D01*
X114438096Y-108603610D02*
X114438096Y-109127420D01*
X114914286Y-109127420D02*
X114914286Y-108460753D01*
X114914286Y-108555991D02*
X114961905Y-108508372D01*
X114961905Y-108508372D02*
X115057143Y-108460753D01*
X115057143Y-108460753D02*
X115200000Y-108460753D01*
X115200000Y-108460753D02*
X115295238Y-108508372D01*
X115295238Y-108508372D02*
X115342857Y-108603610D01*
X115342857Y-108603610D02*
X115342857Y-109127420D01*
X115342857Y-108603610D02*
X115390476Y-108508372D01*
X115390476Y-108508372D02*
X115485714Y-108460753D01*
X115485714Y-108460753D02*
X115628571Y-108460753D01*
X115628571Y-108460753D02*
X115723810Y-108508372D01*
X115723810Y-108508372D02*
X115771429Y-108603610D01*
X115771429Y-108603610D02*
X115771429Y-109127420D01*
X142130000Y-116410000D02*
X142130000Y-109183581D01*
X80270000Y-116410000D02*
X80270000Y-109183581D01*
X142130000Y-109770001D02*
X80270000Y-109770001D01*
X142130000Y-109770001D02*
X80270000Y-109770001D01*
X142130000Y-109770001D02*
X141003496Y-110356422D01*
X142130000Y-109770001D02*
X141003496Y-109183580D01*
X80270000Y-109770001D02*
X81396504Y-109183580D01*
X80270000Y-109770001D02*
X81396504Y-110356422D01*
D11*
X121413333Y-142339580D02*
X121365714Y-142387200D01*
X121365714Y-142387200D02*
X121222857Y-142434819D01*
X121222857Y-142434819D02*
X121127619Y-142434819D01*
X121127619Y-142434819D02*
X120984762Y-142387200D01*
X120984762Y-142387200D02*
X120889524Y-142291961D01*
X120889524Y-142291961D02*
X120841905Y-142196723D01*
X120841905Y-142196723D02*
X120794286Y-142006247D01*
X120794286Y-142006247D02*
X120794286Y-141863390D01*
X120794286Y-141863390D02*
X120841905Y-141672914D01*
X120841905Y-141672914D02*
X120889524Y-141577676D01*
X120889524Y-141577676D02*
X120984762Y-141482438D01*
X120984762Y-141482438D02*
X121127619Y-141434819D01*
X121127619Y-141434819D02*
X121222857Y-141434819D01*
X121222857Y-141434819D02*
X121365714Y-141482438D01*
X121365714Y-141482438D02*
X121413333Y-141530057D01*
X122318095Y-141434819D02*
X121841905Y-141434819D01*
X121841905Y-141434819D02*
X121794286Y-141911009D01*
X121794286Y-141911009D02*
X121841905Y-141863390D01*
X121841905Y-141863390D02*
X121937143Y-141815771D01*
X121937143Y-141815771D02*
X122175238Y-141815771D01*
X122175238Y-141815771D02*
X122270476Y-141863390D01*
X122270476Y-141863390D02*
X122318095Y-141911009D01*
X122318095Y-141911009D02*
X122365714Y-142006247D01*
X122365714Y-142006247D02*
X122365714Y-142244342D01*
X122365714Y-142244342D02*
X122318095Y-142339580D01*
X122318095Y-142339580D02*
X122270476Y-142387200D01*
X122270476Y-142387200D02*
X122175238Y-142434819D01*
X122175238Y-142434819D02*
X121937143Y-142434819D01*
X121937143Y-142434819D02*
X121841905Y-142387200D01*
X121841905Y-142387200D02*
X121794286Y-142339580D01*
D10*
X123440477Y-138976109D02*
X123154763Y-138976109D01*
X123297620Y-138976109D02*
X123297620Y-138476109D01*
X123297620Y-138476109D02*
X123250001Y-138547538D01*
X123250001Y-138547538D02*
X123202382Y-138595157D01*
X123202382Y-138595157D02*
X123154763Y-138618966D01*
X123750000Y-138476109D02*
X123797619Y-138476109D01*
X123797619Y-138476109D02*
X123845238Y-138499919D01*
X123845238Y-138499919D02*
X123869048Y-138523728D01*
X123869048Y-138523728D02*
X123892857Y-138571347D01*
X123892857Y-138571347D02*
X123916667Y-138666585D01*
X123916667Y-138666585D02*
X123916667Y-138785633D01*
X123916667Y-138785633D02*
X123892857Y-138880871D01*
X123892857Y-138880871D02*
X123869048Y-138928490D01*
X123869048Y-138928490D02*
X123845238Y-138952300D01*
X123845238Y-138952300D02*
X123797619Y-138976109D01*
X123797619Y-138976109D02*
X123750000Y-138976109D01*
X123750000Y-138976109D02*
X123702381Y-138952300D01*
X123702381Y-138952300D02*
X123678572Y-138928490D01*
X123678572Y-138928490D02*
X123654762Y-138880871D01*
X123654762Y-138880871D02*
X123630953Y-138785633D01*
X123630953Y-138785633D02*
X123630953Y-138666585D01*
X123630953Y-138666585D02*
X123654762Y-138571347D01*
X123654762Y-138571347D02*
X123678572Y-138523728D01*
X123678572Y-138523728D02*
X123702381Y-138499919D01*
X123702381Y-138499919D02*
X123750000Y-138476109D01*
X124226190Y-138476109D02*
X124273809Y-138476109D01*
X124273809Y-138476109D02*
X124321428Y-138499919D01*
X124321428Y-138499919D02*
X124345238Y-138523728D01*
X124345238Y-138523728D02*
X124369047Y-138571347D01*
X124369047Y-138571347D02*
X124392857Y-138666585D01*
X124392857Y-138666585D02*
X124392857Y-138785633D01*
X124392857Y-138785633D02*
X124369047Y-138880871D01*
X124369047Y-138880871D02*
X124345238Y-138928490D01*
X124345238Y-138928490D02*
X124321428Y-138952300D01*
X124321428Y-138952300D02*
X124273809Y-138976109D01*
X124273809Y-138976109D02*
X124226190Y-138976109D01*
X124226190Y-138976109D02*
X124178571Y-138952300D01*
X124178571Y-138952300D02*
X124154762Y-138928490D01*
X124154762Y-138928490D02*
X124130952Y-138880871D01*
X124130952Y-138880871D02*
X124107143Y-138785633D01*
X124107143Y-138785633D02*
X124107143Y-138666585D01*
X124107143Y-138666585D02*
X124130952Y-138571347D01*
X124130952Y-138571347D02*
X124154762Y-138523728D01*
X124154762Y-138523728D02*
X124178571Y-138499919D01*
X124178571Y-138499919D02*
X124226190Y-138476109D01*
X124607142Y-138642776D02*
X124607142Y-138976109D01*
X124607142Y-138690395D02*
X124630952Y-138666585D01*
X124630952Y-138666585D02*
X124678571Y-138642776D01*
X124678571Y-138642776D02*
X124749999Y-138642776D01*
X124749999Y-138642776D02*
X124797618Y-138666585D01*
X124797618Y-138666585D02*
X124821428Y-138714204D01*
X124821428Y-138714204D02*
X124821428Y-138976109D01*
D11*
X123174433Y-133399580D02*
X123126814Y-133447200D01*
X123126814Y-133447200D02*
X122983957Y-133494819D01*
X122983957Y-133494819D02*
X122888719Y-133494819D01*
X122888719Y-133494819D02*
X122745862Y-133447200D01*
X122745862Y-133447200D02*
X122650624Y-133351961D01*
X122650624Y-133351961D02*
X122603005Y-133256723D01*
X122603005Y-133256723D02*
X122555386Y-133066247D01*
X122555386Y-133066247D02*
X122555386Y-132923390D01*
X122555386Y-132923390D02*
X122603005Y-132732914D01*
X122603005Y-132732914D02*
X122650624Y-132637676D01*
X122650624Y-132637676D02*
X122745862Y-132542438D01*
X122745862Y-132542438D02*
X122888719Y-132494819D01*
X122888719Y-132494819D02*
X122983957Y-132494819D01*
X122983957Y-132494819D02*
X123126814Y-132542438D01*
X123126814Y-132542438D02*
X123174433Y-132590057D01*
X123555386Y-132590057D02*
X123603005Y-132542438D01*
X123603005Y-132542438D02*
X123698243Y-132494819D01*
X123698243Y-132494819D02*
X123936338Y-132494819D01*
X123936338Y-132494819D02*
X124031576Y-132542438D01*
X124031576Y-132542438D02*
X124079195Y-132590057D01*
X124079195Y-132590057D02*
X124126814Y-132685295D01*
X124126814Y-132685295D02*
X124126814Y-132780533D01*
X124126814Y-132780533D02*
X124079195Y-132923390D01*
X124079195Y-132923390D02*
X123507767Y-133494819D01*
X123507767Y-133494819D02*
X124126814Y-133494819D01*
D10*
X122733957Y-136126109D02*
X122781576Y-136126109D01*
X122781576Y-136126109D02*
X122829195Y-136149919D01*
X122829195Y-136149919D02*
X122853005Y-136173728D01*
X122853005Y-136173728D02*
X122876814Y-136221347D01*
X122876814Y-136221347D02*
X122900624Y-136316585D01*
X122900624Y-136316585D02*
X122900624Y-136435633D01*
X122900624Y-136435633D02*
X122876814Y-136530871D01*
X122876814Y-136530871D02*
X122853005Y-136578490D01*
X122853005Y-136578490D02*
X122829195Y-136602300D01*
X122829195Y-136602300D02*
X122781576Y-136626109D01*
X122781576Y-136626109D02*
X122733957Y-136626109D01*
X122733957Y-136626109D02*
X122686338Y-136602300D01*
X122686338Y-136602300D02*
X122662529Y-136578490D01*
X122662529Y-136578490D02*
X122638719Y-136530871D01*
X122638719Y-136530871D02*
X122614910Y-136435633D01*
X122614910Y-136435633D02*
X122614910Y-136316585D01*
X122614910Y-136316585D02*
X122638719Y-136221347D01*
X122638719Y-136221347D02*
X122662529Y-136173728D01*
X122662529Y-136173728D02*
X122686338Y-136149919D01*
X122686338Y-136149919D02*
X122733957Y-136126109D01*
X123114909Y-136578490D02*
X123138719Y-136602300D01*
X123138719Y-136602300D02*
X123114909Y-136626109D01*
X123114909Y-136626109D02*
X123091100Y-136602300D01*
X123091100Y-136602300D02*
X123114909Y-136578490D01*
X123114909Y-136578490D02*
X123114909Y-136626109D01*
X123614909Y-136626109D02*
X123329195Y-136626109D01*
X123472052Y-136626109D02*
X123472052Y-136126109D01*
X123472052Y-136126109D02*
X123424433Y-136197538D01*
X123424433Y-136197538D02*
X123376814Y-136245157D01*
X123376814Y-136245157D02*
X123329195Y-136268966D01*
X124043480Y-136292776D02*
X124043480Y-136626109D01*
X123829194Y-136292776D02*
X123829194Y-136554680D01*
X123829194Y-136554680D02*
X123853004Y-136602300D01*
X123853004Y-136602300D02*
X123900623Y-136626109D01*
X123900623Y-136626109D02*
X123972051Y-136626109D01*
X123972051Y-136626109D02*
X124019670Y-136602300D01*
X124019670Y-136602300D02*
X124043480Y-136578490D01*
D11*
X130808095Y-140704819D02*
X130808095Y-141514342D01*
X130808095Y-141514342D02*
X130855714Y-141609580D01*
X130855714Y-141609580D02*
X130903333Y-141657200D01*
X130903333Y-141657200D02*
X130998571Y-141704819D01*
X130998571Y-141704819D02*
X131189047Y-141704819D01*
X131189047Y-141704819D02*
X131284285Y-141657200D01*
X131284285Y-141657200D02*
X131331904Y-141609580D01*
X131331904Y-141609580D02*
X131379523Y-141514342D01*
X131379523Y-141514342D02*
X131379523Y-140704819D01*
X132284285Y-141038152D02*
X132284285Y-141704819D01*
X132046190Y-140657200D02*
X131808095Y-141371485D01*
X131808095Y-141371485D02*
X132427142Y-141371485D01*
D10*
X129940477Y-138226109D02*
X129940477Y-137726109D01*
X129940477Y-138202300D02*
X129892858Y-138226109D01*
X129892858Y-138226109D02*
X129797620Y-138226109D01*
X129797620Y-138226109D02*
X129750001Y-138202300D01*
X129750001Y-138202300D02*
X129726191Y-138178490D01*
X129726191Y-138178490D02*
X129702382Y-138130871D01*
X129702382Y-138130871D02*
X129702382Y-137988014D01*
X129702382Y-137988014D02*
X129726191Y-137940395D01*
X129726191Y-137940395D02*
X129750001Y-137916585D01*
X129750001Y-137916585D02*
X129797620Y-137892776D01*
X129797620Y-137892776D02*
X129892858Y-137892776D01*
X129892858Y-137892776D02*
X129940477Y-137916585D01*
X130154763Y-138202300D02*
X130202382Y-138226109D01*
X130202382Y-138226109D02*
X130297620Y-138226109D01*
X130297620Y-138226109D02*
X130345239Y-138202300D01*
X130345239Y-138202300D02*
X130369048Y-138154680D01*
X130369048Y-138154680D02*
X130369048Y-138130871D01*
X130369048Y-138130871D02*
X130345239Y-138083252D01*
X130345239Y-138083252D02*
X130297620Y-138059442D01*
X130297620Y-138059442D02*
X130226191Y-138059442D01*
X130226191Y-138059442D02*
X130178572Y-138035633D01*
X130178572Y-138035633D02*
X130154763Y-137988014D01*
X130154763Y-137988014D02*
X130154763Y-137964204D01*
X130154763Y-137964204D02*
X130178572Y-137916585D01*
X130178572Y-137916585D02*
X130226191Y-137892776D01*
X130226191Y-137892776D02*
X130297620Y-137892776D01*
X130297620Y-137892776D02*
X130345239Y-137916585D01*
X130845239Y-138226109D02*
X130559525Y-138226109D01*
X130702382Y-138226109D02*
X130702382Y-137726109D01*
X130702382Y-137726109D02*
X130654763Y-137797538D01*
X130654763Y-137797538D02*
X130607144Y-137845157D01*
X130607144Y-137845157D02*
X130559525Y-137868966D01*
X131011905Y-137726109D02*
X131321429Y-137726109D01*
X131321429Y-137726109D02*
X131154762Y-137916585D01*
X131154762Y-137916585D02*
X131226191Y-137916585D01*
X131226191Y-137916585D02*
X131273810Y-137940395D01*
X131273810Y-137940395D02*
X131297619Y-137964204D01*
X131297619Y-137964204D02*
X131321429Y-138011823D01*
X131321429Y-138011823D02*
X131321429Y-138130871D01*
X131321429Y-138130871D02*
X131297619Y-138178490D01*
X131297619Y-138178490D02*
X131273810Y-138202300D01*
X131273810Y-138202300D02*
X131226191Y-138226109D01*
X131226191Y-138226109D02*
X131083334Y-138226109D01*
X131083334Y-138226109D02*
X131035715Y-138202300D01*
X131035715Y-138202300D02*
X131011905Y-138178490D01*
X131488095Y-137726109D02*
X131797619Y-137726109D01*
X131797619Y-137726109D02*
X131630952Y-137916585D01*
X131630952Y-137916585D02*
X131702381Y-137916585D01*
X131702381Y-137916585D02*
X131750000Y-137940395D01*
X131750000Y-137940395D02*
X131773809Y-137964204D01*
X131773809Y-137964204D02*
X131797619Y-138011823D01*
X131797619Y-138011823D02*
X131797619Y-138130871D01*
X131797619Y-138130871D02*
X131773809Y-138178490D01*
X131773809Y-138178490D02*
X131750000Y-138202300D01*
X131750000Y-138202300D02*
X131702381Y-138226109D01*
X131702381Y-138226109D02*
X131559524Y-138226109D01*
X131559524Y-138226109D02*
X131511905Y-138202300D01*
X131511905Y-138202300D02*
X131488095Y-138178490D01*
X131964285Y-137726109D02*
X132297618Y-137726109D01*
X132297618Y-137726109D02*
X132083333Y-138226109D01*
X132464285Y-138202300D02*
X132511904Y-138226109D01*
X132511904Y-138226109D02*
X132607142Y-138226109D01*
X132607142Y-138226109D02*
X132654761Y-138202300D01*
X132654761Y-138202300D02*
X132678570Y-138154680D01*
X132678570Y-138154680D02*
X132678570Y-138130871D01*
X132678570Y-138130871D02*
X132654761Y-138083252D01*
X132654761Y-138083252D02*
X132607142Y-138059442D01*
X132607142Y-138059442D02*
X132535713Y-138059442D01*
X132535713Y-138059442D02*
X132488094Y-138035633D01*
X132488094Y-138035633D02*
X132464285Y-137988014D01*
X132464285Y-137988014D02*
X132464285Y-137964204D01*
X132464285Y-137964204D02*
X132488094Y-137916585D01*
X132488094Y-137916585D02*
X132535713Y-137892776D01*
X132535713Y-137892776D02*
X132607142Y-137892776D01*
X132607142Y-137892776D02*
X132654761Y-137916585D01*
X132892856Y-138035633D02*
X133273809Y-138035633D01*
X133083332Y-138226109D02*
X133083332Y-137845157D01*
D11*
X134545350Y-144285419D02*
X134545350Y-144523514D01*
X134307255Y-144428276D02*
X134545350Y-144523514D01*
X134545350Y-144523514D02*
X134783445Y-144428276D01*
X134402493Y-144713990D02*
X134545350Y-144523514D01*
X134545350Y-144523514D02*
X134688207Y-144713990D01*
X134545349Y-145375780D02*
X134545349Y-145137685D01*
X134783444Y-145232923D02*
X134545349Y-145137685D01*
X134545349Y-145137685D02*
X134307254Y-145232923D01*
X134688206Y-144947209D02*
X134545349Y-145137685D01*
X134545349Y-145137685D02*
X134402492Y-144947209D01*
X111731905Y-125204819D02*
X111731905Y-124204819D01*
X111731905Y-124204819D02*
X111970000Y-124204819D01*
X111970000Y-124204819D02*
X112112857Y-124252438D01*
X112112857Y-124252438D02*
X112208095Y-124347676D01*
X112208095Y-124347676D02*
X112255714Y-124442914D01*
X112255714Y-124442914D02*
X112303333Y-124633390D01*
X112303333Y-124633390D02*
X112303333Y-124776247D01*
X112303333Y-124776247D02*
X112255714Y-124966723D01*
X112255714Y-124966723D02*
X112208095Y-125061961D01*
X112208095Y-125061961D02*
X112112857Y-125157200D01*
X112112857Y-125157200D02*
X111970000Y-125204819D01*
X111970000Y-125204819D02*
X111731905Y-125204819D01*
X113255714Y-125204819D02*
X112684286Y-125204819D01*
X112970000Y-125204819D02*
X112970000Y-124204819D01*
X112970000Y-124204819D02*
X112874762Y-124347676D01*
X112874762Y-124347676D02*
X112779524Y-124442914D01*
X112779524Y-124442914D02*
X112684286Y-124490533D01*
X119783333Y-121529580D02*
X119735714Y-121577200D01*
X119735714Y-121577200D02*
X119592857Y-121624819D01*
X119592857Y-121624819D02*
X119497619Y-121624819D01*
X119497619Y-121624819D02*
X119354762Y-121577200D01*
X119354762Y-121577200D02*
X119259524Y-121481961D01*
X119259524Y-121481961D02*
X119211905Y-121386723D01*
X119211905Y-121386723D02*
X119164286Y-121196247D01*
X119164286Y-121196247D02*
X119164286Y-121053390D01*
X119164286Y-121053390D02*
X119211905Y-120862914D01*
X119211905Y-120862914D02*
X119259524Y-120767676D01*
X119259524Y-120767676D02*
X119354762Y-120672438D01*
X119354762Y-120672438D02*
X119497619Y-120624819D01*
X119497619Y-120624819D02*
X119592857Y-120624819D01*
X119592857Y-120624819D02*
X119735714Y-120672438D01*
X119735714Y-120672438D02*
X119783333Y-120720057D01*
X120640476Y-120624819D02*
X120450000Y-120624819D01*
X120450000Y-120624819D02*
X120354762Y-120672438D01*
X120354762Y-120672438D02*
X120307143Y-120720057D01*
X120307143Y-120720057D02*
X120211905Y-120862914D01*
X120211905Y-120862914D02*
X120164286Y-121053390D01*
X120164286Y-121053390D02*
X120164286Y-121434342D01*
X120164286Y-121434342D02*
X120211905Y-121529580D01*
X120211905Y-121529580D02*
X120259524Y-121577200D01*
X120259524Y-121577200D02*
X120354762Y-121624819D01*
X120354762Y-121624819D02*
X120545238Y-121624819D01*
X120545238Y-121624819D02*
X120640476Y-121577200D01*
X120640476Y-121577200D02*
X120688095Y-121529580D01*
X120688095Y-121529580D02*
X120735714Y-121434342D01*
X120735714Y-121434342D02*
X120735714Y-121196247D01*
X120735714Y-121196247D02*
X120688095Y-121101009D01*
X120688095Y-121101009D02*
X120640476Y-121053390D01*
X120640476Y-121053390D02*
X120545238Y-121005771D01*
X120545238Y-121005771D02*
X120354762Y-121005771D01*
X120354762Y-121005771D02*
X120259524Y-121053390D01*
X120259524Y-121053390D02*
X120211905Y-121101009D01*
X120211905Y-121101009D02*
X120164286Y-121196247D01*
D10*
X125440477Y-121286109D02*
X125154763Y-121286109D01*
X125297620Y-121286109D02*
X125297620Y-120786109D01*
X125297620Y-120786109D02*
X125250001Y-120857538D01*
X125250001Y-120857538D02*
X125202382Y-120905157D01*
X125202382Y-120905157D02*
X125154763Y-120928966D01*
X125750000Y-120786109D02*
X125797619Y-120786109D01*
X125797619Y-120786109D02*
X125845238Y-120809919D01*
X125845238Y-120809919D02*
X125869048Y-120833728D01*
X125869048Y-120833728D02*
X125892857Y-120881347D01*
X125892857Y-120881347D02*
X125916667Y-120976585D01*
X125916667Y-120976585D02*
X125916667Y-121095633D01*
X125916667Y-121095633D02*
X125892857Y-121190871D01*
X125892857Y-121190871D02*
X125869048Y-121238490D01*
X125869048Y-121238490D02*
X125845238Y-121262300D01*
X125845238Y-121262300D02*
X125797619Y-121286109D01*
X125797619Y-121286109D02*
X125750000Y-121286109D01*
X125750000Y-121286109D02*
X125702381Y-121262300D01*
X125702381Y-121262300D02*
X125678572Y-121238490D01*
X125678572Y-121238490D02*
X125654762Y-121190871D01*
X125654762Y-121190871D02*
X125630953Y-121095633D01*
X125630953Y-121095633D02*
X125630953Y-120976585D01*
X125630953Y-120976585D02*
X125654762Y-120881347D01*
X125654762Y-120881347D02*
X125678572Y-120833728D01*
X125678572Y-120833728D02*
X125702381Y-120809919D01*
X125702381Y-120809919D02*
X125750000Y-120786109D01*
X126226190Y-120786109D02*
X126273809Y-120786109D01*
X126273809Y-120786109D02*
X126321428Y-120809919D01*
X126321428Y-120809919D02*
X126345238Y-120833728D01*
X126345238Y-120833728D02*
X126369047Y-120881347D01*
X126369047Y-120881347D02*
X126392857Y-120976585D01*
X126392857Y-120976585D02*
X126392857Y-121095633D01*
X126392857Y-121095633D02*
X126369047Y-121190871D01*
X126369047Y-121190871D02*
X126345238Y-121238490D01*
X126345238Y-121238490D02*
X126321428Y-121262300D01*
X126321428Y-121262300D02*
X126273809Y-121286109D01*
X126273809Y-121286109D02*
X126226190Y-121286109D01*
X126226190Y-121286109D02*
X126178571Y-121262300D01*
X126178571Y-121262300D02*
X126154762Y-121238490D01*
X126154762Y-121238490D02*
X126130952Y-121190871D01*
X126130952Y-121190871D02*
X126107143Y-121095633D01*
X126107143Y-121095633D02*
X126107143Y-120976585D01*
X126107143Y-120976585D02*
X126130952Y-120881347D01*
X126130952Y-120881347D02*
X126154762Y-120833728D01*
X126154762Y-120833728D02*
X126178571Y-120809919D01*
X126178571Y-120809919D02*
X126226190Y-120786109D01*
X126607142Y-120952776D02*
X126607142Y-121452776D01*
X126607142Y-120976585D02*
X126654761Y-120952776D01*
X126654761Y-120952776D02*
X126749999Y-120952776D01*
X126749999Y-120952776D02*
X126797618Y-120976585D01*
X126797618Y-120976585D02*
X126821428Y-121000395D01*
X126821428Y-121000395D02*
X126845237Y-121048014D01*
X126845237Y-121048014D02*
X126845237Y-121190871D01*
X126845237Y-121190871D02*
X126821428Y-121238490D01*
X126821428Y-121238490D02*
X126797618Y-121262300D01*
X126797618Y-121262300D02*
X126749999Y-121286109D01*
X126749999Y-121286109D02*
X126654761Y-121286109D01*
X126654761Y-121286109D02*
X126607142Y-121262300D01*
D11*
X95533333Y-140449580D02*
X95485714Y-140497200D01*
X95485714Y-140497200D02*
X95342857Y-140544819D01*
X95342857Y-140544819D02*
X95247619Y-140544819D01*
X95247619Y-140544819D02*
X95104762Y-140497200D01*
X95104762Y-140497200D02*
X95009524Y-140401961D01*
X95009524Y-140401961D02*
X94961905Y-140306723D01*
X94961905Y-140306723D02*
X94914286Y-140116247D01*
X94914286Y-140116247D02*
X94914286Y-139973390D01*
X94914286Y-139973390D02*
X94961905Y-139782914D01*
X94961905Y-139782914D02*
X95009524Y-139687676D01*
X95009524Y-139687676D02*
X95104762Y-139592438D01*
X95104762Y-139592438D02*
X95247619Y-139544819D01*
X95247619Y-139544819D02*
X95342857Y-139544819D01*
X95342857Y-139544819D02*
X95485714Y-139592438D01*
X95485714Y-139592438D02*
X95533333Y-139640057D01*
X95866667Y-139544819D02*
X96485714Y-139544819D01*
X96485714Y-139544819D02*
X96152381Y-139925771D01*
X96152381Y-139925771D02*
X96295238Y-139925771D01*
X96295238Y-139925771D02*
X96390476Y-139973390D01*
X96390476Y-139973390D02*
X96438095Y-140021009D01*
X96438095Y-140021009D02*
X96485714Y-140116247D01*
X96485714Y-140116247D02*
X96485714Y-140354342D01*
X96485714Y-140354342D02*
X96438095Y-140449580D01*
X96438095Y-140449580D02*
X96390476Y-140497200D01*
X96390476Y-140497200D02*
X96295238Y-140544819D01*
X96295238Y-140544819D02*
X96009524Y-140544819D01*
X96009524Y-140544819D02*
X95914286Y-140497200D01*
X95914286Y-140497200D02*
X95866667Y-140449580D01*
D10*
X95092858Y-136503728D02*
X95116667Y-136479919D01*
X95116667Y-136479919D02*
X95164286Y-136456109D01*
X95164286Y-136456109D02*
X95283334Y-136456109D01*
X95283334Y-136456109D02*
X95330953Y-136479919D01*
X95330953Y-136479919D02*
X95354762Y-136503728D01*
X95354762Y-136503728D02*
X95378572Y-136551347D01*
X95378572Y-136551347D02*
X95378572Y-136598966D01*
X95378572Y-136598966D02*
X95354762Y-136670395D01*
X95354762Y-136670395D02*
X95069048Y-136956109D01*
X95069048Y-136956109D02*
X95378572Y-136956109D01*
X95569048Y-136503728D02*
X95592857Y-136479919D01*
X95592857Y-136479919D02*
X95640476Y-136456109D01*
X95640476Y-136456109D02*
X95759524Y-136456109D01*
X95759524Y-136456109D02*
X95807143Y-136479919D01*
X95807143Y-136479919D02*
X95830952Y-136503728D01*
X95830952Y-136503728D02*
X95854762Y-136551347D01*
X95854762Y-136551347D02*
X95854762Y-136598966D01*
X95854762Y-136598966D02*
X95830952Y-136670395D01*
X95830952Y-136670395D02*
X95545238Y-136956109D01*
X95545238Y-136956109D02*
X95854762Y-136956109D01*
X96069047Y-136622776D02*
X96069047Y-137122776D01*
X96069047Y-136646585D02*
X96116666Y-136622776D01*
X96116666Y-136622776D02*
X96211904Y-136622776D01*
X96211904Y-136622776D02*
X96259523Y-136646585D01*
X96259523Y-136646585D02*
X96283333Y-136670395D01*
X96283333Y-136670395D02*
X96307142Y-136718014D01*
X96307142Y-136718014D02*
X96307142Y-136860871D01*
X96307142Y-136860871D02*
X96283333Y-136908490D01*
X96283333Y-136908490D02*
X96259523Y-136932300D01*
X96259523Y-136932300D02*
X96211904Y-136956109D01*
X96211904Y-136956109D02*
X96116666Y-136956109D01*
X96116666Y-136956109D02*
X96069047Y-136932300D01*
D11*
X97908628Y-136056190D02*
X98384819Y-136056190D01*
X97384819Y-136389523D02*
X97908628Y-136056190D01*
X97908628Y-136056190D02*
X97384819Y-135722857D01*
X98384819Y-134865714D02*
X98384819Y-135437142D01*
X98384819Y-135151428D02*
X97384819Y-135151428D01*
X97384819Y-135151428D02*
X97527676Y-135246666D01*
X97527676Y-135246666D02*
X97622914Y-135341904D01*
X97622914Y-135341904D02*
X97670533Y-135437142D01*
D10*
X103726109Y-137035713D02*
X103726109Y-137321427D01*
X103726109Y-137178570D02*
X103226109Y-137178570D01*
X103226109Y-137178570D02*
X103297538Y-137226189D01*
X103297538Y-137226189D02*
X103345157Y-137273808D01*
X103345157Y-137273808D02*
X103368966Y-137321427D01*
X103226109Y-136607142D02*
X103226109Y-136702380D01*
X103226109Y-136702380D02*
X103249919Y-136749999D01*
X103249919Y-136749999D02*
X103273728Y-136773809D01*
X103273728Y-136773809D02*
X103345157Y-136821428D01*
X103345157Y-136821428D02*
X103440395Y-136845237D01*
X103440395Y-136845237D02*
X103630871Y-136845237D01*
X103630871Y-136845237D02*
X103678490Y-136821428D01*
X103678490Y-136821428D02*
X103702300Y-136797618D01*
X103702300Y-136797618D02*
X103726109Y-136749999D01*
X103726109Y-136749999D02*
X103726109Y-136654761D01*
X103726109Y-136654761D02*
X103702300Y-136607142D01*
X103702300Y-136607142D02*
X103678490Y-136583333D01*
X103678490Y-136583333D02*
X103630871Y-136559523D01*
X103630871Y-136559523D02*
X103511823Y-136559523D01*
X103511823Y-136559523D02*
X103464204Y-136583333D01*
X103464204Y-136583333D02*
X103440395Y-136607142D01*
X103440395Y-136607142D02*
X103416585Y-136654761D01*
X103416585Y-136654761D02*
X103416585Y-136749999D01*
X103416585Y-136749999D02*
X103440395Y-136797618D01*
X103440395Y-136797618D02*
X103464204Y-136821428D01*
X103464204Y-136821428D02*
X103511823Y-136845237D01*
X103726109Y-135964286D02*
X103226109Y-135964286D01*
X103226109Y-135964286D02*
X103583252Y-135797619D01*
X103583252Y-135797619D02*
X103226109Y-135630953D01*
X103226109Y-135630953D02*
X103726109Y-135630953D01*
X103726109Y-135392857D02*
X103226109Y-135392857D01*
X103464204Y-135392857D02*
X103464204Y-135107143D01*
X103726109Y-135107143D02*
X103226109Y-135107143D01*
X103392776Y-134916666D02*
X103392776Y-134654761D01*
X103392776Y-134654761D02*
X103726109Y-134916666D01*
X103726109Y-134916666D02*
X103726109Y-134654761D01*
D11*
X86916666Y-117954819D02*
X86916666Y-118669104D01*
X86916666Y-118669104D02*
X86869047Y-118811961D01*
X86869047Y-118811961D02*
X86773809Y-118907200D01*
X86773809Y-118907200D02*
X86630952Y-118954819D01*
X86630952Y-118954819D02*
X86535714Y-118954819D01*
X87916666Y-118954819D02*
X87345238Y-118954819D01*
X87630952Y-118954819D02*
X87630952Y-117954819D01*
X87630952Y-117954819D02*
X87535714Y-118097676D01*
X87535714Y-118097676D02*
X87440476Y-118192914D01*
X87440476Y-118192914D02*
X87345238Y-118240533D01*
X99116666Y-124654819D02*
X99116666Y-125369104D01*
X99116666Y-125369104D02*
X99069047Y-125511961D01*
X99069047Y-125511961D02*
X98973809Y-125607200D01*
X98973809Y-125607200D02*
X98830952Y-125654819D01*
X98830952Y-125654819D02*
X98735714Y-125654819D01*
X99545238Y-124750057D02*
X99592857Y-124702438D01*
X99592857Y-124702438D02*
X99688095Y-124654819D01*
X99688095Y-124654819D02*
X99926190Y-124654819D01*
X99926190Y-124654819D02*
X100021428Y-124702438D01*
X100021428Y-124702438D02*
X100069047Y-124750057D01*
X100069047Y-124750057D02*
X100116666Y-124845295D01*
X100116666Y-124845295D02*
X100116666Y-124940533D01*
X100116666Y-124940533D02*
X100069047Y-125083390D01*
X100069047Y-125083390D02*
X99497619Y-125654819D01*
X99497619Y-125654819D02*
X100116666Y-125654819D01*
X127222233Y-145734819D02*
X126888900Y-145258628D01*
X126650805Y-145734819D02*
X126650805Y-144734819D01*
X126650805Y-144734819D02*
X127031757Y-144734819D01*
X127031757Y-144734819D02*
X127126995Y-144782438D01*
X127126995Y-144782438D02*
X127174614Y-144830057D01*
X127174614Y-144830057D02*
X127222233Y-144925295D01*
X127222233Y-144925295D02*
X127222233Y-145068152D01*
X127222233Y-145068152D02*
X127174614Y-145163390D01*
X127174614Y-145163390D02*
X127126995Y-145211009D01*
X127126995Y-145211009D02*
X127031757Y-145258628D01*
X127031757Y-145258628D02*
X126650805Y-145258628D01*
X128174614Y-145734819D02*
X127603186Y-145734819D01*
X127888900Y-145734819D02*
X127888900Y-144734819D01*
X127888900Y-144734819D02*
X127793662Y-144877676D01*
X127793662Y-144877676D02*
X127698424Y-144972914D01*
X127698424Y-144972914D02*
X127603186Y-145020533D01*
D10*
X132702381Y-145636109D02*
X132416667Y-145636109D01*
X132559524Y-145636109D02*
X132559524Y-145136109D01*
X132559524Y-145136109D02*
X132511905Y-145207538D01*
X132511905Y-145207538D02*
X132464286Y-145255157D01*
X132464286Y-145255157D02*
X132416667Y-145278966D01*
X133011904Y-145136109D02*
X133059523Y-145136109D01*
X133059523Y-145136109D02*
X133107142Y-145159919D01*
X133107142Y-145159919D02*
X133130952Y-145183728D01*
X133130952Y-145183728D02*
X133154761Y-145231347D01*
X133154761Y-145231347D02*
X133178571Y-145326585D01*
X133178571Y-145326585D02*
X133178571Y-145445633D01*
X133178571Y-145445633D02*
X133154761Y-145540871D01*
X133154761Y-145540871D02*
X133130952Y-145588490D01*
X133130952Y-145588490D02*
X133107142Y-145612300D01*
X133107142Y-145612300D02*
X133059523Y-145636109D01*
X133059523Y-145636109D02*
X133011904Y-145636109D01*
X133011904Y-145636109D02*
X132964285Y-145612300D01*
X132964285Y-145612300D02*
X132940476Y-145588490D01*
X132940476Y-145588490D02*
X132916666Y-145540871D01*
X132916666Y-145540871D02*
X132892857Y-145445633D01*
X132892857Y-145445633D02*
X132892857Y-145326585D01*
X132892857Y-145326585D02*
X132916666Y-145231347D01*
X132916666Y-145231347D02*
X132940476Y-145183728D01*
X132940476Y-145183728D02*
X132964285Y-145159919D01*
X132964285Y-145159919D02*
X133011904Y-145136109D01*
X133392856Y-145636109D02*
X133392856Y-145136109D01*
X133440475Y-145445633D02*
X133583332Y-145636109D01*
X133583332Y-145302776D02*
X133392856Y-145493252D01*
D11*
X112974285Y-147321009D02*
X113117142Y-147368628D01*
X113117142Y-147368628D02*
X113164761Y-147416247D01*
X113164761Y-147416247D02*
X113212380Y-147511485D01*
X113212380Y-147511485D02*
X113212380Y-147654342D01*
X113212380Y-147654342D02*
X113164761Y-147749580D01*
X113164761Y-147749580D02*
X113117142Y-147797200D01*
X113117142Y-147797200D02*
X113021904Y-147844819D01*
X113021904Y-147844819D02*
X112640952Y-147844819D01*
X112640952Y-147844819D02*
X112640952Y-146844819D01*
X112640952Y-146844819D02*
X112974285Y-146844819D01*
X112974285Y-146844819D02*
X113069523Y-146892438D01*
X113069523Y-146892438D02*
X113117142Y-146940057D01*
X113117142Y-146940057D02*
X113164761Y-147035295D01*
X113164761Y-147035295D02*
X113164761Y-147130533D01*
X113164761Y-147130533D02*
X113117142Y-147225771D01*
X113117142Y-147225771D02*
X113069523Y-147273390D01*
X113069523Y-147273390D02*
X112974285Y-147321009D01*
X112974285Y-147321009D02*
X112640952Y-147321009D01*
X113498095Y-146844819D02*
X114069523Y-146844819D01*
X113783809Y-147844819D02*
X113783809Y-146844819D01*
X114926666Y-147844819D02*
X114355238Y-147844819D01*
X114640952Y-147844819D02*
X114640952Y-146844819D01*
X114640952Y-146844819D02*
X114545714Y-146987676D01*
X114545714Y-146987676D02*
X114450476Y-147082914D01*
X114450476Y-147082914D02*
X114355238Y-147130533D01*
X113270805Y-145974819D02*
X113270805Y-144974819D01*
X113270805Y-144974819D02*
X113508900Y-144974819D01*
X113508900Y-144974819D02*
X113651757Y-145022438D01*
X113651757Y-145022438D02*
X113746995Y-145117676D01*
X113746995Y-145117676D02*
X113794614Y-145212914D01*
X113794614Y-145212914D02*
X113842233Y-145403390D01*
X113842233Y-145403390D02*
X113842233Y-145546247D01*
X113842233Y-145546247D02*
X113794614Y-145736723D01*
X113794614Y-145736723D02*
X113746995Y-145831961D01*
X113746995Y-145831961D02*
X113651757Y-145927200D01*
X113651757Y-145927200D02*
X113508900Y-145974819D01*
X113508900Y-145974819D02*
X113270805Y-145974819D01*
X114223186Y-145070057D02*
X114270805Y-145022438D01*
X114270805Y-145022438D02*
X114366043Y-144974819D01*
X114366043Y-144974819D02*
X114604138Y-144974819D01*
X114604138Y-144974819D02*
X114699376Y-145022438D01*
X114699376Y-145022438D02*
X114746995Y-145070057D01*
X114746995Y-145070057D02*
X114794614Y-145165295D01*
X114794614Y-145165295D02*
X114794614Y-145260533D01*
X114794614Y-145260533D02*
X114746995Y-145403390D01*
X114746995Y-145403390D02*
X114175567Y-145974819D01*
X114175567Y-145974819D02*
X114794614Y-145974819D01*
D10*
X119178571Y-145726109D02*
X118940476Y-145726109D01*
X118940476Y-145726109D02*
X118940476Y-145226109D01*
X119345238Y-145464204D02*
X119511905Y-145464204D01*
X119583333Y-145726109D02*
X119345238Y-145726109D01*
X119345238Y-145726109D02*
X119345238Y-145226109D01*
X119345238Y-145226109D02*
X119583333Y-145226109D01*
X119797619Y-145726109D02*
X119797619Y-145226109D01*
X119797619Y-145226109D02*
X119916667Y-145226109D01*
X119916667Y-145226109D02*
X119988095Y-145249919D01*
X119988095Y-145249919D02*
X120035714Y-145297538D01*
X120035714Y-145297538D02*
X120059524Y-145345157D01*
X120059524Y-145345157D02*
X120083333Y-145440395D01*
X120083333Y-145440395D02*
X120083333Y-145511823D01*
X120083333Y-145511823D02*
X120059524Y-145607061D01*
X120059524Y-145607061D02*
X120035714Y-145654680D01*
X120035714Y-145654680D02*
X119988095Y-145702300D01*
X119988095Y-145702300D02*
X119916667Y-145726109D01*
X119916667Y-145726109D02*
X119797619Y-145726109D01*
D11*
X137873333Y-119909580D02*
X137825714Y-119957200D01*
X137825714Y-119957200D02*
X137682857Y-120004819D01*
X137682857Y-120004819D02*
X137587619Y-120004819D01*
X137587619Y-120004819D02*
X137444762Y-119957200D01*
X137444762Y-119957200D02*
X137349524Y-119861961D01*
X137349524Y-119861961D02*
X137301905Y-119766723D01*
X137301905Y-119766723D02*
X137254286Y-119576247D01*
X137254286Y-119576247D02*
X137254286Y-119433390D01*
X137254286Y-119433390D02*
X137301905Y-119242914D01*
X137301905Y-119242914D02*
X137349524Y-119147676D01*
X137349524Y-119147676D02*
X137444762Y-119052438D01*
X137444762Y-119052438D02*
X137587619Y-119004819D01*
X137587619Y-119004819D02*
X137682857Y-119004819D01*
X137682857Y-119004819D02*
X137825714Y-119052438D01*
X137825714Y-119052438D02*
X137873333Y-119100057D01*
X138444762Y-119433390D02*
X138349524Y-119385771D01*
X138349524Y-119385771D02*
X138301905Y-119338152D01*
X138301905Y-119338152D02*
X138254286Y-119242914D01*
X138254286Y-119242914D02*
X138254286Y-119195295D01*
X138254286Y-119195295D02*
X138301905Y-119100057D01*
X138301905Y-119100057D02*
X138349524Y-119052438D01*
X138349524Y-119052438D02*
X138444762Y-119004819D01*
X138444762Y-119004819D02*
X138635238Y-119004819D01*
X138635238Y-119004819D02*
X138730476Y-119052438D01*
X138730476Y-119052438D02*
X138778095Y-119100057D01*
X138778095Y-119100057D02*
X138825714Y-119195295D01*
X138825714Y-119195295D02*
X138825714Y-119242914D01*
X138825714Y-119242914D02*
X138778095Y-119338152D01*
X138778095Y-119338152D02*
X138730476Y-119385771D01*
X138730476Y-119385771D02*
X138635238Y-119433390D01*
X138635238Y-119433390D02*
X138444762Y-119433390D01*
X138444762Y-119433390D02*
X138349524Y-119481009D01*
X138349524Y-119481009D02*
X138301905Y-119528628D01*
X138301905Y-119528628D02*
X138254286Y-119623866D01*
X138254286Y-119623866D02*
X138254286Y-119814342D01*
X138254286Y-119814342D02*
X138301905Y-119909580D01*
X138301905Y-119909580D02*
X138349524Y-119957200D01*
X138349524Y-119957200D02*
X138444762Y-120004819D01*
X138444762Y-120004819D02*
X138635238Y-120004819D01*
X138635238Y-120004819D02*
X138730476Y-119957200D01*
X138730476Y-119957200D02*
X138778095Y-119909580D01*
X138778095Y-119909580D02*
X138825714Y-119814342D01*
X138825714Y-119814342D02*
X138825714Y-119623866D01*
X138825714Y-119623866D02*
X138778095Y-119528628D01*
X138778095Y-119528628D02*
X138730476Y-119481009D01*
X138730476Y-119481009D02*
X138635238Y-119433390D01*
D10*
X138402857Y-122656109D02*
X138450476Y-122656109D01*
X138450476Y-122656109D02*
X138498095Y-122679919D01*
X138498095Y-122679919D02*
X138521905Y-122703728D01*
X138521905Y-122703728D02*
X138545714Y-122751347D01*
X138545714Y-122751347D02*
X138569524Y-122846585D01*
X138569524Y-122846585D02*
X138569524Y-122965633D01*
X138569524Y-122965633D02*
X138545714Y-123060871D01*
X138545714Y-123060871D02*
X138521905Y-123108490D01*
X138521905Y-123108490D02*
X138498095Y-123132300D01*
X138498095Y-123132300D02*
X138450476Y-123156109D01*
X138450476Y-123156109D02*
X138402857Y-123156109D01*
X138402857Y-123156109D02*
X138355238Y-123132300D01*
X138355238Y-123132300D02*
X138331429Y-123108490D01*
X138331429Y-123108490D02*
X138307619Y-123060871D01*
X138307619Y-123060871D02*
X138283810Y-122965633D01*
X138283810Y-122965633D02*
X138283810Y-122846585D01*
X138283810Y-122846585D02*
X138307619Y-122751347D01*
X138307619Y-122751347D02*
X138331429Y-122703728D01*
X138331429Y-122703728D02*
X138355238Y-122679919D01*
X138355238Y-122679919D02*
X138402857Y-122656109D01*
X138783809Y-123108490D02*
X138807619Y-123132300D01*
X138807619Y-123132300D02*
X138783809Y-123156109D01*
X138783809Y-123156109D02*
X138760000Y-123132300D01*
X138760000Y-123132300D02*
X138783809Y-123108490D01*
X138783809Y-123108490D02*
X138783809Y-123156109D01*
X139283809Y-123156109D02*
X138998095Y-123156109D01*
X139140952Y-123156109D02*
X139140952Y-122656109D01*
X139140952Y-122656109D02*
X139093333Y-122727538D01*
X139093333Y-122727538D02*
X139045714Y-122775157D01*
X139045714Y-122775157D02*
X138998095Y-122798966D01*
X139712380Y-122822776D02*
X139712380Y-123156109D01*
X139498094Y-122822776D02*
X139498094Y-123084680D01*
X139498094Y-123084680D02*
X139521904Y-123132300D01*
X139521904Y-123132300D02*
X139569523Y-123156109D01*
X139569523Y-123156109D02*
X139640951Y-123156109D01*
X139640951Y-123156109D02*
X139688570Y-123132300D01*
X139688570Y-123132300D02*
X139712380Y-123108490D01*
D11*
X113823333Y-143324819D02*
X113490000Y-142848628D01*
X113251905Y-143324819D02*
X113251905Y-142324819D01*
X113251905Y-142324819D02*
X113632857Y-142324819D01*
X113632857Y-142324819D02*
X113728095Y-142372438D01*
X113728095Y-142372438D02*
X113775714Y-142420057D01*
X113775714Y-142420057D02*
X113823333Y-142515295D01*
X113823333Y-142515295D02*
X113823333Y-142658152D01*
X113823333Y-142658152D02*
X113775714Y-142753390D01*
X113775714Y-142753390D02*
X113728095Y-142801009D01*
X113728095Y-142801009D02*
X113632857Y-142848628D01*
X113632857Y-142848628D02*
X113251905Y-142848628D01*
X114156667Y-142324819D02*
X114823333Y-142324819D01*
X114823333Y-142324819D02*
X114394762Y-143324819D01*
D10*
X118857143Y-142726109D02*
X119166667Y-142726109D01*
X119166667Y-142726109D02*
X119000000Y-142916585D01*
X119000000Y-142916585D02*
X119071429Y-142916585D01*
X119071429Y-142916585D02*
X119119048Y-142940395D01*
X119119048Y-142940395D02*
X119142857Y-142964204D01*
X119142857Y-142964204D02*
X119166667Y-143011823D01*
X119166667Y-143011823D02*
X119166667Y-143130871D01*
X119166667Y-143130871D02*
X119142857Y-143178490D01*
X119142857Y-143178490D02*
X119119048Y-143202300D01*
X119119048Y-143202300D02*
X119071429Y-143226109D01*
X119071429Y-143226109D02*
X118928572Y-143226109D01*
X118928572Y-143226109D02*
X118880953Y-143202300D01*
X118880953Y-143202300D02*
X118857143Y-143178490D01*
X119333333Y-142726109D02*
X119642857Y-142726109D01*
X119642857Y-142726109D02*
X119476190Y-142916585D01*
X119476190Y-142916585D02*
X119547619Y-142916585D01*
X119547619Y-142916585D02*
X119595238Y-142940395D01*
X119595238Y-142940395D02*
X119619047Y-142964204D01*
X119619047Y-142964204D02*
X119642857Y-143011823D01*
X119642857Y-143011823D02*
X119642857Y-143130871D01*
X119642857Y-143130871D02*
X119619047Y-143178490D01*
X119619047Y-143178490D02*
X119595238Y-143202300D01*
X119595238Y-143202300D02*
X119547619Y-143226109D01*
X119547619Y-143226109D02*
X119404762Y-143226109D01*
X119404762Y-143226109D02*
X119357143Y-143202300D01*
X119357143Y-143202300D02*
X119333333Y-143178490D01*
X119952380Y-142726109D02*
X119999999Y-142726109D01*
X119999999Y-142726109D02*
X120047618Y-142749919D01*
X120047618Y-142749919D02*
X120071428Y-142773728D01*
X120071428Y-142773728D02*
X120095237Y-142821347D01*
X120095237Y-142821347D02*
X120119047Y-142916585D01*
X120119047Y-142916585D02*
X120119047Y-143035633D01*
X120119047Y-143035633D02*
X120095237Y-143130871D01*
X120095237Y-143130871D02*
X120071428Y-143178490D01*
X120071428Y-143178490D02*
X120047618Y-143202300D01*
X120047618Y-143202300D02*
X119999999Y-143226109D01*
X119999999Y-143226109D02*
X119952380Y-143226109D01*
X119952380Y-143226109D02*
X119904761Y-143202300D01*
X119904761Y-143202300D02*
X119880952Y-143178490D01*
X119880952Y-143178490D02*
X119857142Y-143130871D01*
X119857142Y-143130871D02*
X119833333Y-143035633D01*
X119833333Y-143035633D02*
X119833333Y-142916585D01*
X119833333Y-142916585D02*
X119857142Y-142821347D01*
X119857142Y-142821347D02*
X119880952Y-142773728D01*
X119880952Y-142773728D02*
X119904761Y-142749919D01*
X119904761Y-142749919D02*
X119952380Y-142726109D01*
D11*
X120023333Y-124089580D02*
X119975714Y-124137200D01*
X119975714Y-124137200D02*
X119832857Y-124184819D01*
X119832857Y-124184819D02*
X119737619Y-124184819D01*
X119737619Y-124184819D02*
X119594762Y-124137200D01*
X119594762Y-124137200D02*
X119499524Y-124041961D01*
X119499524Y-124041961D02*
X119451905Y-123946723D01*
X119451905Y-123946723D02*
X119404286Y-123756247D01*
X119404286Y-123756247D02*
X119404286Y-123613390D01*
X119404286Y-123613390D02*
X119451905Y-123422914D01*
X119451905Y-123422914D02*
X119499524Y-123327676D01*
X119499524Y-123327676D02*
X119594762Y-123232438D01*
X119594762Y-123232438D02*
X119737619Y-123184819D01*
X119737619Y-123184819D02*
X119832857Y-123184819D01*
X119832857Y-123184819D02*
X119975714Y-123232438D01*
X119975714Y-123232438D02*
X120023333Y-123280057D01*
X120975714Y-124184819D02*
X120404286Y-124184819D01*
X120690000Y-124184819D02*
X120690000Y-123184819D01*
X120690000Y-123184819D02*
X120594762Y-123327676D01*
X120594762Y-123327676D02*
X120499524Y-123422914D01*
X120499524Y-123422914D02*
X120404286Y-123470533D01*
D10*
X125392857Y-123436109D02*
X125440476Y-123436109D01*
X125440476Y-123436109D02*
X125488095Y-123459919D01*
X125488095Y-123459919D02*
X125511905Y-123483728D01*
X125511905Y-123483728D02*
X125535714Y-123531347D01*
X125535714Y-123531347D02*
X125559524Y-123626585D01*
X125559524Y-123626585D02*
X125559524Y-123745633D01*
X125559524Y-123745633D02*
X125535714Y-123840871D01*
X125535714Y-123840871D02*
X125511905Y-123888490D01*
X125511905Y-123888490D02*
X125488095Y-123912300D01*
X125488095Y-123912300D02*
X125440476Y-123936109D01*
X125440476Y-123936109D02*
X125392857Y-123936109D01*
X125392857Y-123936109D02*
X125345238Y-123912300D01*
X125345238Y-123912300D02*
X125321429Y-123888490D01*
X125321429Y-123888490D02*
X125297619Y-123840871D01*
X125297619Y-123840871D02*
X125273810Y-123745633D01*
X125273810Y-123745633D02*
X125273810Y-123626585D01*
X125273810Y-123626585D02*
X125297619Y-123531347D01*
X125297619Y-123531347D02*
X125321429Y-123483728D01*
X125321429Y-123483728D02*
X125345238Y-123459919D01*
X125345238Y-123459919D02*
X125392857Y-123436109D01*
X125773809Y-123888490D02*
X125797619Y-123912300D01*
X125797619Y-123912300D02*
X125773809Y-123936109D01*
X125773809Y-123936109D02*
X125750000Y-123912300D01*
X125750000Y-123912300D02*
X125773809Y-123888490D01*
X125773809Y-123888490D02*
X125773809Y-123936109D01*
X126273809Y-123936109D02*
X125988095Y-123936109D01*
X126130952Y-123936109D02*
X126130952Y-123436109D01*
X126130952Y-123436109D02*
X126083333Y-123507538D01*
X126083333Y-123507538D02*
X126035714Y-123555157D01*
X126035714Y-123555157D02*
X125988095Y-123578966D01*
X126702380Y-123602776D02*
X126702380Y-123936109D01*
X126488094Y-123602776D02*
X126488094Y-123864680D01*
X126488094Y-123864680D02*
X126511904Y-123912300D01*
X126511904Y-123912300D02*
X126559523Y-123936109D01*
X126559523Y-123936109D02*
X126630951Y-123936109D01*
X126630951Y-123936109D02*
X126678570Y-123912300D01*
X126678570Y-123912300D02*
X126702380Y-123888490D01*
D11*
X108513333Y-121004819D02*
X108180000Y-120528628D01*
X107941905Y-121004819D02*
X107941905Y-120004819D01*
X107941905Y-120004819D02*
X108322857Y-120004819D01*
X108322857Y-120004819D02*
X108418095Y-120052438D01*
X108418095Y-120052438D02*
X108465714Y-120100057D01*
X108465714Y-120100057D02*
X108513333Y-120195295D01*
X108513333Y-120195295D02*
X108513333Y-120338152D01*
X108513333Y-120338152D02*
X108465714Y-120433390D01*
X108465714Y-120433390D02*
X108418095Y-120481009D01*
X108418095Y-120481009D02*
X108322857Y-120528628D01*
X108322857Y-120528628D02*
X107941905Y-120528628D01*
X109370476Y-120004819D02*
X109180000Y-120004819D01*
X109180000Y-120004819D02*
X109084762Y-120052438D01*
X109084762Y-120052438D02*
X109037143Y-120100057D01*
X109037143Y-120100057D02*
X108941905Y-120242914D01*
X108941905Y-120242914D02*
X108894286Y-120433390D01*
X108894286Y-120433390D02*
X108894286Y-120814342D01*
X108894286Y-120814342D02*
X108941905Y-120909580D01*
X108941905Y-120909580D02*
X108989524Y-120957200D01*
X108989524Y-120957200D02*
X109084762Y-121004819D01*
X109084762Y-121004819D02*
X109275238Y-121004819D01*
X109275238Y-121004819D02*
X109370476Y-120957200D01*
X109370476Y-120957200D02*
X109418095Y-120909580D01*
X109418095Y-120909580D02*
X109465714Y-120814342D01*
X109465714Y-120814342D02*
X109465714Y-120576247D01*
X109465714Y-120576247D02*
X109418095Y-120481009D01*
X109418095Y-120481009D02*
X109370476Y-120433390D01*
X109370476Y-120433390D02*
X109275238Y-120385771D01*
X109275238Y-120385771D02*
X109084762Y-120385771D01*
X109084762Y-120385771D02*
X108989524Y-120433390D01*
X108989524Y-120433390D02*
X108941905Y-120481009D01*
X108941905Y-120481009D02*
X108894286Y-120576247D01*
D10*
X106202381Y-124226109D02*
X105916667Y-124226109D01*
X106059524Y-124226109D02*
X106059524Y-123726109D01*
X106059524Y-123726109D02*
X106011905Y-123797538D01*
X106011905Y-123797538D02*
X105964286Y-123845157D01*
X105964286Y-123845157D02*
X105916667Y-123868966D01*
X106511904Y-123726109D02*
X106559523Y-123726109D01*
X106559523Y-123726109D02*
X106607142Y-123749919D01*
X106607142Y-123749919D02*
X106630952Y-123773728D01*
X106630952Y-123773728D02*
X106654761Y-123821347D01*
X106654761Y-123821347D02*
X106678571Y-123916585D01*
X106678571Y-123916585D02*
X106678571Y-124035633D01*
X106678571Y-124035633D02*
X106654761Y-124130871D01*
X106654761Y-124130871D02*
X106630952Y-124178490D01*
X106630952Y-124178490D02*
X106607142Y-124202300D01*
X106607142Y-124202300D02*
X106559523Y-124226109D01*
X106559523Y-124226109D02*
X106511904Y-124226109D01*
X106511904Y-124226109D02*
X106464285Y-124202300D01*
X106464285Y-124202300D02*
X106440476Y-124178490D01*
X106440476Y-124178490D02*
X106416666Y-124130871D01*
X106416666Y-124130871D02*
X106392857Y-124035633D01*
X106392857Y-124035633D02*
X106392857Y-123916585D01*
X106392857Y-123916585D02*
X106416666Y-123821347D01*
X106416666Y-123821347D02*
X106440476Y-123773728D01*
X106440476Y-123773728D02*
X106464285Y-123749919D01*
X106464285Y-123749919D02*
X106511904Y-123726109D01*
X106892856Y-124226109D02*
X106892856Y-123726109D01*
X106940475Y-124035633D02*
X107083332Y-124226109D01*
X107083332Y-123892776D02*
X106892856Y-124083252D01*
D11*
X95533333Y-130929580D02*
X95485714Y-130977200D01*
X95485714Y-130977200D02*
X95342857Y-131024819D01*
X95342857Y-131024819D02*
X95247619Y-131024819D01*
X95247619Y-131024819D02*
X95104762Y-130977200D01*
X95104762Y-130977200D02*
X95009524Y-130881961D01*
X95009524Y-130881961D02*
X94961905Y-130786723D01*
X94961905Y-130786723D02*
X94914286Y-130596247D01*
X94914286Y-130596247D02*
X94914286Y-130453390D01*
X94914286Y-130453390D02*
X94961905Y-130262914D01*
X94961905Y-130262914D02*
X95009524Y-130167676D01*
X95009524Y-130167676D02*
X95104762Y-130072438D01*
X95104762Y-130072438D02*
X95247619Y-130024819D01*
X95247619Y-130024819D02*
X95342857Y-130024819D01*
X95342857Y-130024819D02*
X95485714Y-130072438D01*
X95485714Y-130072438D02*
X95533333Y-130120057D01*
X96390476Y-130358152D02*
X96390476Y-131024819D01*
X96152381Y-129977200D02*
X95914286Y-130691485D01*
X95914286Y-130691485D02*
X96533333Y-130691485D01*
D10*
X95092858Y-133703728D02*
X95116667Y-133679919D01*
X95116667Y-133679919D02*
X95164286Y-133656109D01*
X95164286Y-133656109D02*
X95283334Y-133656109D01*
X95283334Y-133656109D02*
X95330953Y-133679919D01*
X95330953Y-133679919D02*
X95354762Y-133703728D01*
X95354762Y-133703728D02*
X95378572Y-133751347D01*
X95378572Y-133751347D02*
X95378572Y-133798966D01*
X95378572Y-133798966D02*
X95354762Y-133870395D01*
X95354762Y-133870395D02*
X95069048Y-134156109D01*
X95069048Y-134156109D02*
X95378572Y-134156109D01*
X95569048Y-133703728D02*
X95592857Y-133679919D01*
X95592857Y-133679919D02*
X95640476Y-133656109D01*
X95640476Y-133656109D02*
X95759524Y-133656109D01*
X95759524Y-133656109D02*
X95807143Y-133679919D01*
X95807143Y-133679919D02*
X95830952Y-133703728D01*
X95830952Y-133703728D02*
X95854762Y-133751347D01*
X95854762Y-133751347D02*
X95854762Y-133798966D01*
X95854762Y-133798966D02*
X95830952Y-133870395D01*
X95830952Y-133870395D02*
X95545238Y-134156109D01*
X95545238Y-134156109D02*
X95854762Y-134156109D01*
X96069047Y-133822776D02*
X96069047Y-134322776D01*
X96069047Y-133846585D02*
X96116666Y-133822776D01*
X96116666Y-133822776D02*
X96211904Y-133822776D01*
X96211904Y-133822776D02*
X96259523Y-133846585D01*
X96259523Y-133846585D02*
X96283333Y-133870395D01*
X96283333Y-133870395D02*
X96307142Y-133918014D01*
X96307142Y-133918014D02*
X96307142Y-134060871D01*
X96307142Y-134060871D02*
X96283333Y-134108490D01*
X96283333Y-134108490D02*
X96259523Y-134132300D01*
X96259523Y-134132300D02*
X96211904Y-134156109D01*
X96211904Y-134156109D02*
X96116666Y-134156109D01*
X96116666Y-134156109D02*
X96069047Y-134132300D01*
D11*
X83276666Y-142304819D02*
X83276666Y-143019104D01*
X83276666Y-143019104D02*
X83229047Y-143161961D01*
X83229047Y-143161961D02*
X83133809Y-143257200D01*
X83133809Y-143257200D02*
X82990952Y-143304819D01*
X82990952Y-143304819D02*
X82895714Y-143304819D01*
X83657619Y-142304819D02*
X84276666Y-142304819D01*
X84276666Y-142304819D02*
X83943333Y-142685771D01*
X83943333Y-142685771D02*
X84086190Y-142685771D01*
X84086190Y-142685771D02*
X84181428Y-142733390D01*
X84181428Y-142733390D02*
X84229047Y-142781009D01*
X84229047Y-142781009D02*
X84276666Y-142876247D01*
X84276666Y-142876247D02*
X84276666Y-143114342D01*
X84276666Y-143114342D02*
X84229047Y-143209580D01*
X84229047Y-143209580D02*
X84181428Y-143257200D01*
X84181428Y-143257200D02*
X84086190Y-143304819D01*
X84086190Y-143304819D02*
X83800476Y-143304819D01*
X83800476Y-143304819D02*
X83705238Y-143257200D01*
X83705238Y-143257200D02*
X83657619Y-143209580D01*
X138833333Y-133359580D02*
X138785714Y-133407200D01*
X138785714Y-133407200D02*
X138642857Y-133454819D01*
X138642857Y-133454819D02*
X138547619Y-133454819D01*
X138547619Y-133454819D02*
X138404762Y-133407200D01*
X138404762Y-133407200D02*
X138309524Y-133311961D01*
X138309524Y-133311961D02*
X138261905Y-133216723D01*
X138261905Y-133216723D02*
X138214286Y-133026247D01*
X138214286Y-133026247D02*
X138214286Y-132883390D01*
X138214286Y-132883390D02*
X138261905Y-132692914D01*
X138261905Y-132692914D02*
X138309524Y-132597676D01*
X138309524Y-132597676D02*
X138404762Y-132502438D01*
X138404762Y-132502438D02*
X138547619Y-132454819D01*
X138547619Y-132454819D02*
X138642857Y-132454819D01*
X138642857Y-132454819D02*
X138785714Y-132502438D01*
X138785714Y-132502438D02*
X138833333Y-132550057D01*
X139309524Y-133454819D02*
X139500000Y-133454819D01*
X139500000Y-133454819D02*
X139595238Y-133407200D01*
X139595238Y-133407200D02*
X139642857Y-133359580D01*
X139642857Y-133359580D02*
X139738095Y-133216723D01*
X139738095Y-133216723D02*
X139785714Y-133026247D01*
X139785714Y-133026247D02*
X139785714Y-132645295D01*
X139785714Y-132645295D02*
X139738095Y-132550057D01*
X139738095Y-132550057D02*
X139690476Y-132502438D01*
X139690476Y-132502438D02*
X139595238Y-132454819D01*
X139595238Y-132454819D02*
X139404762Y-132454819D01*
X139404762Y-132454819D02*
X139309524Y-132502438D01*
X139309524Y-132502438D02*
X139261905Y-132550057D01*
X139261905Y-132550057D02*
X139214286Y-132645295D01*
X139214286Y-132645295D02*
X139214286Y-132883390D01*
X139214286Y-132883390D02*
X139261905Y-132978628D01*
X139261905Y-132978628D02*
X139309524Y-133026247D01*
X139309524Y-133026247D02*
X139404762Y-133073866D01*
X139404762Y-133073866D02*
X139595238Y-133073866D01*
X139595238Y-133073866D02*
X139690476Y-133026247D01*
X139690476Y-133026247D02*
X139738095Y-132978628D01*
X139738095Y-132978628D02*
X139785714Y-132883390D01*
D10*
X139032857Y-129226109D02*
X139080476Y-129226109D01*
X139080476Y-129226109D02*
X139128095Y-129249919D01*
X139128095Y-129249919D02*
X139151905Y-129273728D01*
X139151905Y-129273728D02*
X139175714Y-129321347D01*
X139175714Y-129321347D02*
X139199524Y-129416585D01*
X139199524Y-129416585D02*
X139199524Y-129535633D01*
X139199524Y-129535633D02*
X139175714Y-129630871D01*
X139175714Y-129630871D02*
X139151905Y-129678490D01*
X139151905Y-129678490D02*
X139128095Y-129702300D01*
X139128095Y-129702300D02*
X139080476Y-129726109D01*
X139080476Y-129726109D02*
X139032857Y-129726109D01*
X139032857Y-129726109D02*
X138985238Y-129702300D01*
X138985238Y-129702300D02*
X138961429Y-129678490D01*
X138961429Y-129678490D02*
X138937619Y-129630871D01*
X138937619Y-129630871D02*
X138913810Y-129535633D01*
X138913810Y-129535633D02*
X138913810Y-129416585D01*
X138913810Y-129416585D02*
X138937619Y-129321347D01*
X138937619Y-129321347D02*
X138961429Y-129273728D01*
X138961429Y-129273728D02*
X138985238Y-129249919D01*
X138985238Y-129249919D02*
X139032857Y-129226109D01*
X139413809Y-129678490D02*
X139437619Y-129702300D01*
X139437619Y-129702300D02*
X139413809Y-129726109D01*
X139413809Y-129726109D02*
X139390000Y-129702300D01*
X139390000Y-129702300D02*
X139413809Y-129678490D01*
X139413809Y-129678490D02*
X139413809Y-129726109D01*
X139913809Y-129726109D02*
X139628095Y-129726109D01*
X139770952Y-129726109D02*
X139770952Y-129226109D01*
X139770952Y-129226109D02*
X139723333Y-129297538D01*
X139723333Y-129297538D02*
X139675714Y-129345157D01*
X139675714Y-129345157D02*
X139628095Y-129368966D01*
X140342380Y-129392776D02*
X140342380Y-129726109D01*
X140128094Y-129392776D02*
X140128094Y-129654680D01*
X140128094Y-129654680D02*
X140151904Y-129702300D01*
X140151904Y-129702300D02*
X140199523Y-129726109D01*
X140199523Y-129726109D02*
X140270951Y-129726109D01*
X140270951Y-129726109D02*
X140318570Y-129702300D01*
X140318570Y-129702300D02*
X140342380Y-129678490D01*
D11*
X127183333Y-148684819D02*
X126850000Y-148208628D01*
X126611905Y-148684819D02*
X126611905Y-147684819D01*
X126611905Y-147684819D02*
X126992857Y-147684819D01*
X126992857Y-147684819D02*
X127088095Y-147732438D01*
X127088095Y-147732438D02*
X127135714Y-147780057D01*
X127135714Y-147780057D02*
X127183333Y-147875295D01*
X127183333Y-147875295D02*
X127183333Y-148018152D01*
X127183333Y-148018152D02*
X127135714Y-148113390D01*
X127135714Y-148113390D02*
X127088095Y-148161009D01*
X127088095Y-148161009D02*
X126992857Y-148208628D01*
X126992857Y-148208628D02*
X126611905Y-148208628D01*
X127564286Y-147780057D02*
X127611905Y-147732438D01*
X127611905Y-147732438D02*
X127707143Y-147684819D01*
X127707143Y-147684819D02*
X127945238Y-147684819D01*
X127945238Y-147684819D02*
X128040476Y-147732438D01*
X128040476Y-147732438D02*
X128088095Y-147780057D01*
X128088095Y-147780057D02*
X128135714Y-147875295D01*
X128135714Y-147875295D02*
X128135714Y-147970533D01*
X128135714Y-147970533D02*
X128088095Y-148113390D01*
X128088095Y-148113390D02*
X127516667Y-148684819D01*
X127516667Y-148684819D02*
X128135714Y-148684819D01*
D10*
X132702381Y-148426109D02*
X132416667Y-148426109D01*
X132559524Y-148426109D02*
X132559524Y-147926109D01*
X132559524Y-147926109D02*
X132511905Y-147997538D01*
X132511905Y-147997538D02*
X132464286Y-148045157D01*
X132464286Y-148045157D02*
X132416667Y-148068966D01*
X133011904Y-147926109D02*
X133059523Y-147926109D01*
X133059523Y-147926109D02*
X133107142Y-147949919D01*
X133107142Y-147949919D02*
X133130952Y-147973728D01*
X133130952Y-147973728D02*
X133154761Y-148021347D01*
X133154761Y-148021347D02*
X133178571Y-148116585D01*
X133178571Y-148116585D02*
X133178571Y-148235633D01*
X133178571Y-148235633D02*
X133154761Y-148330871D01*
X133154761Y-148330871D02*
X133130952Y-148378490D01*
X133130952Y-148378490D02*
X133107142Y-148402300D01*
X133107142Y-148402300D02*
X133059523Y-148426109D01*
X133059523Y-148426109D02*
X133011904Y-148426109D01*
X133011904Y-148426109D02*
X132964285Y-148402300D01*
X132964285Y-148402300D02*
X132940476Y-148378490D01*
X132940476Y-148378490D02*
X132916666Y-148330871D01*
X132916666Y-148330871D02*
X132892857Y-148235633D01*
X132892857Y-148235633D02*
X132892857Y-148116585D01*
X132892857Y-148116585D02*
X132916666Y-148021347D01*
X132916666Y-148021347D02*
X132940476Y-147973728D01*
X132940476Y-147973728D02*
X132964285Y-147949919D01*
X132964285Y-147949919D02*
X133011904Y-147926109D01*
X133392856Y-148426109D02*
X133392856Y-147926109D01*
X133440475Y-148235633D02*
X133583332Y-148426109D01*
X133583332Y-148092776D02*
X133392856Y-148283252D01*
D11*
X138872709Y-136338628D02*
X138872709Y-136814819D01*
X138539376Y-135814819D02*
X138872709Y-136338628D01*
X138872709Y-136338628D02*
X139206042Y-135814819D01*
X139491757Y-135910057D02*
X139539376Y-135862438D01*
X139539376Y-135862438D02*
X139634614Y-135814819D01*
X139634614Y-135814819D02*
X139872709Y-135814819D01*
X139872709Y-135814819D02*
X139967947Y-135862438D01*
X139967947Y-135862438D02*
X140015566Y-135910057D01*
X140015566Y-135910057D02*
X140063185Y-136005295D01*
X140063185Y-136005295D02*
X140063185Y-136100533D01*
X140063185Y-136100533D02*
X140015566Y-136243390D01*
X140015566Y-136243390D02*
X139444138Y-136814819D01*
X139444138Y-136814819D02*
X140063185Y-136814819D01*
D10*
X136366109Y-143822855D02*
X136366109Y-143513331D01*
X136366109Y-143513331D02*
X136556585Y-143679998D01*
X136556585Y-143679998D02*
X136556585Y-143608569D01*
X136556585Y-143608569D02*
X136580395Y-143560950D01*
X136580395Y-143560950D02*
X136604204Y-143537141D01*
X136604204Y-143537141D02*
X136651823Y-143513331D01*
X136651823Y-143513331D02*
X136770871Y-143513331D01*
X136770871Y-143513331D02*
X136818490Y-143537141D01*
X136818490Y-143537141D02*
X136842300Y-143560950D01*
X136842300Y-143560950D02*
X136866109Y-143608569D01*
X136866109Y-143608569D02*
X136866109Y-143751426D01*
X136866109Y-143751426D02*
X136842300Y-143799045D01*
X136842300Y-143799045D02*
X136818490Y-143822855D01*
X136413728Y-143322855D02*
X136389919Y-143299046D01*
X136389919Y-143299046D02*
X136366109Y-143251427D01*
X136366109Y-143251427D02*
X136366109Y-143132379D01*
X136366109Y-143132379D02*
X136389919Y-143084760D01*
X136389919Y-143084760D02*
X136413728Y-143060951D01*
X136413728Y-143060951D02*
X136461347Y-143037141D01*
X136461347Y-143037141D02*
X136508966Y-143037141D01*
X136508966Y-143037141D02*
X136580395Y-143060951D01*
X136580395Y-143060951D02*
X136866109Y-143346665D01*
X136866109Y-143346665D02*
X136866109Y-143037141D01*
X136818490Y-142822856D02*
X136842300Y-142799046D01*
X136842300Y-142799046D02*
X136866109Y-142822856D01*
X136866109Y-142822856D02*
X136842300Y-142846665D01*
X136842300Y-142846665D02*
X136818490Y-142822856D01*
X136818490Y-142822856D02*
X136866109Y-142822856D01*
X136366109Y-142632380D02*
X136366109Y-142299047D01*
X136366109Y-142299047D02*
X136866109Y-142513332D01*
X136366109Y-141894285D02*
X136366109Y-141989523D01*
X136366109Y-141989523D02*
X136389919Y-142037142D01*
X136389919Y-142037142D02*
X136413728Y-142060952D01*
X136413728Y-142060952D02*
X136485157Y-142108571D01*
X136485157Y-142108571D02*
X136580395Y-142132380D01*
X136580395Y-142132380D02*
X136770871Y-142132380D01*
X136770871Y-142132380D02*
X136818490Y-142108571D01*
X136818490Y-142108571D02*
X136842300Y-142084761D01*
X136842300Y-142084761D02*
X136866109Y-142037142D01*
X136866109Y-142037142D02*
X136866109Y-141941904D01*
X136866109Y-141941904D02*
X136842300Y-141894285D01*
X136842300Y-141894285D02*
X136818490Y-141870476D01*
X136818490Y-141870476D02*
X136770871Y-141846666D01*
X136770871Y-141846666D02*
X136651823Y-141846666D01*
X136651823Y-141846666D02*
X136604204Y-141870476D01*
X136604204Y-141870476D02*
X136580395Y-141894285D01*
X136580395Y-141894285D02*
X136556585Y-141941904D01*
X136556585Y-141941904D02*
X136556585Y-142037142D01*
X136556585Y-142037142D02*
X136580395Y-142084761D01*
X136580395Y-142084761D02*
X136604204Y-142108571D01*
X136604204Y-142108571D02*
X136651823Y-142132380D01*
X136580395Y-141560952D02*
X136556585Y-141608571D01*
X136556585Y-141608571D02*
X136532776Y-141632381D01*
X136532776Y-141632381D02*
X136485157Y-141656190D01*
X136485157Y-141656190D02*
X136461347Y-141656190D01*
X136461347Y-141656190D02*
X136413728Y-141632381D01*
X136413728Y-141632381D02*
X136389919Y-141608571D01*
X136389919Y-141608571D02*
X136366109Y-141560952D01*
X136366109Y-141560952D02*
X136366109Y-141465714D01*
X136366109Y-141465714D02*
X136389919Y-141418095D01*
X136389919Y-141418095D02*
X136413728Y-141394286D01*
X136413728Y-141394286D02*
X136461347Y-141370476D01*
X136461347Y-141370476D02*
X136485157Y-141370476D01*
X136485157Y-141370476D02*
X136532776Y-141394286D01*
X136532776Y-141394286D02*
X136556585Y-141418095D01*
X136556585Y-141418095D02*
X136580395Y-141465714D01*
X136580395Y-141465714D02*
X136580395Y-141560952D01*
X136580395Y-141560952D02*
X136604204Y-141608571D01*
X136604204Y-141608571D02*
X136628014Y-141632381D01*
X136628014Y-141632381D02*
X136675633Y-141656190D01*
X136675633Y-141656190D02*
X136770871Y-141656190D01*
X136770871Y-141656190D02*
X136818490Y-141632381D01*
X136818490Y-141632381D02*
X136842300Y-141608571D01*
X136842300Y-141608571D02*
X136866109Y-141560952D01*
X136866109Y-141560952D02*
X136866109Y-141465714D01*
X136866109Y-141465714D02*
X136842300Y-141418095D01*
X136842300Y-141418095D02*
X136818490Y-141394286D01*
X136818490Y-141394286D02*
X136770871Y-141370476D01*
X136770871Y-141370476D02*
X136675633Y-141370476D01*
X136675633Y-141370476D02*
X136628014Y-141394286D01*
X136628014Y-141394286D02*
X136604204Y-141418095D01*
X136604204Y-141418095D02*
X136580395Y-141465714D01*
X136866109Y-140775239D02*
X136366109Y-140775239D01*
X136866109Y-140489525D02*
X136580395Y-140703810D01*
X136366109Y-140489525D02*
X136651823Y-140775239D01*
X136866109Y-140275239D02*
X136366109Y-140275239D01*
X136604204Y-140275239D02*
X136604204Y-139989525D01*
X136866109Y-139989525D02*
X136366109Y-139989525D01*
X136532776Y-139799048D02*
X136532776Y-139537143D01*
X136532776Y-139537143D02*
X136866109Y-139799048D01*
X136866109Y-139799048D02*
X136866109Y-139537143D01*
D11*
X137763333Y-124934819D02*
X137430000Y-124458628D01*
X137191905Y-124934819D02*
X137191905Y-123934819D01*
X137191905Y-123934819D02*
X137572857Y-123934819D01*
X137572857Y-123934819D02*
X137668095Y-123982438D01*
X137668095Y-123982438D02*
X137715714Y-124030057D01*
X137715714Y-124030057D02*
X137763333Y-124125295D01*
X137763333Y-124125295D02*
X137763333Y-124268152D01*
X137763333Y-124268152D02*
X137715714Y-124363390D01*
X137715714Y-124363390D02*
X137668095Y-124411009D01*
X137668095Y-124411009D02*
X137572857Y-124458628D01*
X137572857Y-124458628D02*
X137191905Y-124458628D01*
X138620476Y-124268152D02*
X138620476Y-124934819D01*
X138382381Y-123887200D02*
X138144286Y-124601485D01*
X138144286Y-124601485D02*
X138763333Y-124601485D01*
D10*
X136392776Y-128464284D02*
X136726109Y-128464284D01*
X136202300Y-128583332D02*
X136559442Y-128702379D01*
X136559442Y-128702379D02*
X136559442Y-128392856D01*
X136678490Y-128202380D02*
X136702300Y-128178570D01*
X136702300Y-128178570D02*
X136726109Y-128202380D01*
X136726109Y-128202380D02*
X136702300Y-128226189D01*
X136702300Y-128226189D02*
X136678490Y-128202380D01*
X136678490Y-128202380D02*
X136726109Y-128202380D01*
X136226109Y-128011904D02*
X136226109Y-127678571D01*
X136226109Y-127678571D02*
X136726109Y-127892856D01*
X136726109Y-127488095D02*
X136226109Y-127488095D01*
X136535633Y-127440476D02*
X136726109Y-127297619D01*
X136392776Y-127297619D02*
X136583252Y-127488095D01*
D11*
X131149195Y-127404819D02*
X131149195Y-128214342D01*
X131149195Y-128214342D02*
X131196814Y-128309580D01*
X131196814Y-128309580D02*
X131244433Y-128357200D01*
X131244433Y-128357200D02*
X131339671Y-128404819D01*
X131339671Y-128404819D02*
X131530147Y-128404819D01*
X131530147Y-128404819D02*
X131625385Y-128357200D01*
X131625385Y-128357200D02*
X131673004Y-128309580D01*
X131673004Y-128309580D02*
X131720623Y-128214342D01*
X131720623Y-128214342D02*
X131720623Y-127404819D01*
X132720623Y-128404819D02*
X132149195Y-128404819D01*
X132434909Y-128404819D02*
X132434909Y-127404819D01*
X132434909Y-127404819D02*
X132339671Y-127547676D01*
X132339671Y-127547676D02*
X132244433Y-127642914D01*
X132244433Y-127642914D02*
X132149195Y-127690533D01*
D10*
X130125387Y-134523728D02*
X130149196Y-134499919D01*
X130149196Y-134499919D02*
X130196815Y-134476109D01*
X130196815Y-134476109D02*
X130315863Y-134476109D01*
X130315863Y-134476109D02*
X130363482Y-134499919D01*
X130363482Y-134499919D02*
X130387291Y-134523728D01*
X130387291Y-134523728D02*
X130411101Y-134571347D01*
X130411101Y-134571347D02*
X130411101Y-134618966D01*
X130411101Y-134618966D02*
X130387291Y-134690395D01*
X130387291Y-134690395D02*
X130101577Y-134976109D01*
X130101577Y-134976109D02*
X130411101Y-134976109D01*
X130839672Y-134642776D02*
X130839672Y-134976109D01*
X130720624Y-134452300D02*
X130601577Y-134809442D01*
X130601577Y-134809442D02*
X130911100Y-134809442D01*
X131339671Y-134976109D02*
X131101576Y-134976109D01*
X131101576Y-134976109D02*
X131101576Y-134476109D01*
X131792052Y-134928490D02*
X131768243Y-134952300D01*
X131768243Y-134952300D02*
X131696814Y-134976109D01*
X131696814Y-134976109D02*
X131649195Y-134976109D01*
X131649195Y-134976109D02*
X131577767Y-134952300D01*
X131577767Y-134952300D02*
X131530148Y-134904680D01*
X131530148Y-134904680D02*
X131506338Y-134857061D01*
X131506338Y-134857061D02*
X131482529Y-134761823D01*
X131482529Y-134761823D02*
X131482529Y-134690395D01*
X131482529Y-134690395D02*
X131506338Y-134595157D01*
X131506338Y-134595157D02*
X131530148Y-134547538D01*
X131530148Y-134547538D02*
X131577767Y-134499919D01*
X131577767Y-134499919D02*
X131649195Y-134476109D01*
X131649195Y-134476109D02*
X131696814Y-134476109D01*
X131696814Y-134476109D02*
X131768243Y-134499919D01*
X131768243Y-134499919D02*
X131792052Y-134523728D01*
X132268243Y-134976109D02*
X131982529Y-134976109D01*
X132125386Y-134976109D02*
X132125386Y-134476109D01*
X132125386Y-134476109D02*
X132077767Y-134547538D01*
X132077767Y-134547538D02*
X132030148Y-134595157D01*
X132030148Y-134595157D02*
X131982529Y-134618966D01*
X132577766Y-134476109D02*
X132625385Y-134476109D01*
X132625385Y-134476109D02*
X132673004Y-134499919D01*
X132673004Y-134499919D02*
X132696814Y-134523728D01*
X132696814Y-134523728D02*
X132720623Y-134571347D01*
X132720623Y-134571347D02*
X132744433Y-134666585D01*
X132744433Y-134666585D02*
X132744433Y-134785633D01*
X132744433Y-134785633D02*
X132720623Y-134880871D01*
X132720623Y-134880871D02*
X132696814Y-134928490D01*
X132696814Y-134928490D02*
X132673004Y-134952300D01*
X132673004Y-134952300D02*
X132625385Y-134976109D01*
X132625385Y-134976109D02*
X132577766Y-134976109D01*
X132577766Y-134976109D02*
X132530147Y-134952300D01*
X132530147Y-134952300D02*
X132506338Y-134928490D01*
X132506338Y-134928490D02*
X132482528Y-134880871D01*
X132482528Y-134880871D02*
X132458719Y-134785633D01*
X132458719Y-134785633D02*
X132458719Y-134666585D01*
X132458719Y-134666585D02*
X132482528Y-134571347D01*
X132482528Y-134571347D02*
X132506338Y-134523728D01*
X132506338Y-134523728D02*
X132530147Y-134499919D01*
X132530147Y-134499919D02*
X132577766Y-134476109D01*
X132934909Y-134523728D02*
X132958718Y-134499919D01*
X132958718Y-134499919D02*
X133006337Y-134476109D01*
X133006337Y-134476109D02*
X133125385Y-134476109D01*
X133125385Y-134476109D02*
X133173004Y-134499919D01*
X133173004Y-134499919D02*
X133196813Y-134523728D01*
X133196813Y-134523728D02*
X133220623Y-134571347D01*
X133220623Y-134571347D02*
X133220623Y-134618966D01*
X133220623Y-134618966D02*
X133196813Y-134690395D01*
X133196813Y-134690395D02*
X132911099Y-134976109D01*
X132911099Y-134976109D02*
X133220623Y-134976109D01*
X133673003Y-134476109D02*
X133434908Y-134476109D01*
X133434908Y-134476109D02*
X133411099Y-134714204D01*
X133411099Y-134714204D02*
X133434908Y-134690395D01*
X133434908Y-134690395D02*
X133482527Y-134666585D01*
X133482527Y-134666585D02*
X133601575Y-134666585D01*
X133601575Y-134666585D02*
X133649194Y-134690395D01*
X133649194Y-134690395D02*
X133673003Y-134714204D01*
X133673003Y-134714204D02*
X133696813Y-134761823D01*
X133696813Y-134761823D02*
X133696813Y-134880871D01*
X133696813Y-134880871D02*
X133673003Y-134928490D01*
X133673003Y-134928490D02*
X133649194Y-134952300D01*
X133649194Y-134952300D02*
X133601575Y-134976109D01*
X133601575Y-134976109D02*
X133482527Y-134976109D01*
X133482527Y-134976109D02*
X133434908Y-134952300D01*
X133434908Y-134952300D02*
X133411099Y-134928490D01*
D11*
X119973333Y-126709580D02*
X119925714Y-126757200D01*
X119925714Y-126757200D02*
X119782857Y-126804819D01*
X119782857Y-126804819D02*
X119687619Y-126804819D01*
X119687619Y-126804819D02*
X119544762Y-126757200D01*
X119544762Y-126757200D02*
X119449524Y-126661961D01*
X119449524Y-126661961D02*
X119401905Y-126566723D01*
X119401905Y-126566723D02*
X119354286Y-126376247D01*
X119354286Y-126376247D02*
X119354286Y-126233390D01*
X119354286Y-126233390D02*
X119401905Y-126042914D01*
X119401905Y-126042914D02*
X119449524Y-125947676D01*
X119449524Y-125947676D02*
X119544762Y-125852438D01*
X119544762Y-125852438D02*
X119687619Y-125804819D01*
X119687619Y-125804819D02*
X119782857Y-125804819D01*
X119782857Y-125804819D02*
X119925714Y-125852438D01*
X119925714Y-125852438D02*
X119973333Y-125900057D01*
X120306667Y-125804819D02*
X120973333Y-125804819D01*
X120973333Y-125804819D02*
X120544762Y-126804819D01*
D10*
X125678572Y-126586109D02*
X125392858Y-126586109D01*
X125535715Y-126586109D02*
X125535715Y-126086109D01*
X125535715Y-126086109D02*
X125488096Y-126157538D01*
X125488096Y-126157538D02*
X125440477Y-126205157D01*
X125440477Y-126205157D02*
X125392858Y-126228966D01*
X125988095Y-126086109D02*
X126035714Y-126086109D01*
X126035714Y-126086109D02*
X126083333Y-126109919D01*
X126083333Y-126109919D02*
X126107143Y-126133728D01*
X126107143Y-126133728D02*
X126130952Y-126181347D01*
X126130952Y-126181347D02*
X126154762Y-126276585D01*
X126154762Y-126276585D02*
X126154762Y-126395633D01*
X126154762Y-126395633D02*
X126130952Y-126490871D01*
X126130952Y-126490871D02*
X126107143Y-126538490D01*
X126107143Y-126538490D02*
X126083333Y-126562300D01*
X126083333Y-126562300D02*
X126035714Y-126586109D01*
X126035714Y-126586109D02*
X125988095Y-126586109D01*
X125988095Y-126586109D02*
X125940476Y-126562300D01*
X125940476Y-126562300D02*
X125916667Y-126538490D01*
X125916667Y-126538490D02*
X125892857Y-126490871D01*
X125892857Y-126490871D02*
X125869048Y-126395633D01*
X125869048Y-126395633D02*
X125869048Y-126276585D01*
X125869048Y-126276585D02*
X125892857Y-126181347D01*
X125892857Y-126181347D02*
X125916667Y-126133728D01*
X125916667Y-126133728D02*
X125940476Y-126109919D01*
X125940476Y-126109919D02*
X125988095Y-126086109D01*
X126583333Y-126252776D02*
X126583333Y-126586109D01*
X126369047Y-126252776D02*
X126369047Y-126514680D01*
X126369047Y-126514680D02*
X126392857Y-126562300D01*
X126392857Y-126562300D02*
X126440476Y-126586109D01*
X126440476Y-126586109D02*
X126511904Y-126586109D01*
X126511904Y-126586109D02*
X126559523Y-126562300D01*
X126559523Y-126562300D02*
X126583333Y-126538490D01*
D11*
X112203333Y-122804819D02*
X111870000Y-122328628D01*
X111631905Y-122804819D02*
X111631905Y-121804819D01*
X111631905Y-121804819D02*
X112012857Y-121804819D01*
X112012857Y-121804819D02*
X112108095Y-121852438D01*
X112108095Y-121852438D02*
X112155714Y-121900057D01*
X112155714Y-121900057D02*
X112203333Y-121995295D01*
X112203333Y-121995295D02*
X112203333Y-122138152D01*
X112203333Y-122138152D02*
X112155714Y-122233390D01*
X112155714Y-122233390D02*
X112108095Y-122281009D01*
X112108095Y-122281009D02*
X112012857Y-122328628D01*
X112012857Y-122328628D02*
X111631905Y-122328628D01*
X113108095Y-121804819D02*
X112631905Y-121804819D01*
X112631905Y-121804819D02*
X112584286Y-122281009D01*
X112584286Y-122281009D02*
X112631905Y-122233390D01*
X112631905Y-122233390D02*
X112727143Y-122185771D01*
X112727143Y-122185771D02*
X112965238Y-122185771D01*
X112965238Y-122185771D02*
X113060476Y-122233390D01*
X113060476Y-122233390D02*
X113108095Y-122281009D01*
X113108095Y-122281009D02*
X113155714Y-122376247D01*
X113155714Y-122376247D02*
X113155714Y-122614342D01*
X113155714Y-122614342D02*
X113108095Y-122709580D01*
X113108095Y-122709580D02*
X113060476Y-122757200D01*
X113060476Y-122757200D02*
X112965238Y-122804819D01*
X112965238Y-122804819D02*
X112727143Y-122804819D01*
X112727143Y-122804819D02*
X112631905Y-122757200D01*
X112631905Y-122757200D02*
X112584286Y-122709580D01*
D10*
X114407143Y-120346109D02*
X114716667Y-120346109D01*
X114716667Y-120346109D02*
X114550000Y-120536585D01*
X114550000Y-120536585D02*
X114621429Y-120536585D01*
X114621429Y-120536585D02*
X114669048Y-120560395D01*
X114669048Y-120560395D02*
X114692857Y-120584204D01*
X114692857Y-120584204D02*
X114716667Y-120631823D01*
X114716667Y-120631823D02*
X114716667Y-120750871D01*
X114716667Y-120750871D02*
X114692857Y-120798490D01*
X114692857Y-120798490D02*
X114669048Y-120822300D01*
X114669048Y-120822300D02*
X114621429Y-120846109D01*
X114621429Y-120846109D02*
X114478572Y-120846109D01*
X114478572Y-120846109D02*
X114430953Y-120822300D01*
X114430953Y-120822300D02*
X114407143Y-120798490D01*
X114883333Y-120346109D02*
X115192857Y-120346109D01*
X115192857Y-120346109D02*
X115026190Y-120536585D01*
X115026190Y-120536585D02*
X115097619Y-120536585D01*
X115097619Y-120536585D02*
X115145238Y-120560395D01*
X115145238Y-120560395D02*
X115169047Y-120584204D01*
X115169047Y-120584204D02*
X115192857Y-120631823D01*
X115192857Y-120631823D02*
X115192857Y-120750871D01*
X115192857Y-120750871D02*
X115169047Y-120798490D01*
X115169047Y-120798490D02*
X115145238Y-120822300D01*
X115145238Y-120822300D02*
X115097619Y-120846109D01*
X115097619Y-120846109D02*
X114954762Y-120846109D01*
X114954762Y-120846109D02*
X114907143Y-120822300D01*
X114907143Y-120822300D02*
X114883333Y-120798490D01*
X115502380Y-120346109D02*
X115549999Y-120346109D01*
X115549999Y-120346109D02*
X115597618Y-120369919D01*
X115597618Y-120369919D02*
X115621428Y-120393728D01*
X115621428Y-120393728D02*
X115645237Y-120441347D01*
X115645237Y-120441347D02*
X115669047Y-120536585D01*
X115669047Y-120536585D02*
X115669047Y-120655633D01*
X115669047Y-120655633D02*
X115645237Y-120750871D01*
X115645237Y-120750871D02*
X115621428Y-120798490D01*
X115621428Y-120798490D02*
X115597618Y-120822300D01*
X115597618Y-120822300D02*
X115549999Y-120846109D01*
X115549999Y-120846109D02*
X115502380Y-120846109D01*
X115502380Y-120846109D02*
X115454761Y-120822300D01*
X115454761Y-120822300D02*
X115430952Y-120798490D01*
X115430952Y-120798490D02*
X115407142Y-120750871D01*
X115407142Y-120750871D02*
X115383333Y-120655633D01*
X115383333Y-120655633D02*
X115383333Y-120536585D01*
X115383333Y-120536585D02*
X115407142Y-120441347D01*
X115407142Y-120441347D02*
X115430952Y-120393728D01*
X115430952Y-120393728D02*
X115454761Y-120369919D01*
X115454761Y-120369919D02*
X115502380Y-120346109D01*
D11*
X112919195Y-134234819D02*
X112919195Y-135044342D01*
X112919195Y-135044342D02*
X112966814Y-135139580D01*
X112966814Y-135139580D02*
X113014433Y-135187200D01*
X113014433Y-135187200D02*
X113109671Y-135234819D01*
X113109671Y-135234819D02*
X113300147Y-135234819D01*
X113300147Y-135234819D02*
X113395385Y-135187200D01*
X113395385Y-135187200D02*
X113443004Y-135139580D01*
X113443004Y-135139580D02*
X113490623Y-135044342D01*
X113490623Y-135044342D02*
X113490623Y-134234819D01*
X113871576Y-134234819D02*
X114490623Y-134234819D01*
X114490623Y-134234819D02*
X114157290Y-134615771D01*
X114157290Y-134615771D02*
X114300147Y-134615771D01*
X114300147Y-134615771D02*
X114395385Y-134663390D01*
X114395385Y-134663390D02*
X114443004Y-134711009D01*
X114443004Y-134711009D02*
X114490623Y-134806247D01*
X114490623Y-134806247D02*
X114490623Y-135044342D01*
X114490623Y-135044342D02*
X114443004Y-135139580D01*
X114443004Y-135139580D02*
X114395385Y-135187200D01*
X114395385Y-135187200D02*
X114300147Y-135234819D01*
X114300147Y-135234819D02*
X114014433Y-135234819D01*
X114014433Y-135234819D02*
X113919195Y-135187200D01*
X113919195Y-135187200D02*
X113871576Y-135139580D01*
D10*
X110645387Y-128583252D02*
X110883482Y-128583252D01*
X110597768Y-128726109D02*
X110764434Y-128226109D01*
X110764434Y-128226109D02*
X110931101Y-128726109D01*
X111026339Y-128226109D02*
X111312053Y-128226109D01*
X111169196Y-128726109D02*
X111169196Y-128226109D01*
X111478719Y-128726109D02*
X111478719Y-128226109D01*
X111478719Y-128226109D02*
X111645386Y-128583252D01*
X111645386Y-128583252D02*
X111812052Y-128226109D01*
X111812052Y-128226109D02*
X111812052Y-128726109D01*
X112050148Y-128464204D02*
X112216815Y-128464204D01*
X112288243Y-128726109D02*
X112050148Y-128726109D01*
X112050148Y-128726109D02*
X112050148Y-128226109D01*
X112050148Y-128226109D02*
X112288243Y-128226109D01*
X112764434Y-128249919D02*
X112716815Y-128226109D01*
X112716815Y-128226109D02*
X112645386Y-128226109D01*
X112645386Y-128226109D02*
X112573958Y-128249919D01*
X112573958Y-128249919D02*
X112526339Y-128297538D01*
X112526339Y-128297538D02*
X112502529Y-128345157D01*
X112502529Y-128345157D02*
X112478720Y-128440395D01*
X112478720Y-128440395D02*
X112478720Y-128511823D01*
X112478720Y-128511823D02*
X112502529Y-128607061D01*
X112502529Y-128607061D02*
X112526339Y-128654680D01*
X112526339Y-128654680D02*
X112573958Y-128702300D01*
X112573958Y-128702300D02*
X112645386Y-128726109D01*
X112645386Y-128726109D02*
X112693005Y-128726109D01*
X112693005Y-128726109D02*
X112764434Y-128702300D01*
X112764434Y-128702300D02*
X112788243Y-128678490D01*
X112788243Y-128678490D02*
X112788243Y-128511823D01*
X112788243Y-128511823D02*
X112693005Y-128511823D01*
X112978720Y-128583252D02*
X113216815Y-128583252D01*
X112931101Y-128726109D02*
X113097767Y-128226109D01*
X113097767Y-128226109D02*
X113264434Y-128726109D01*
X113383481Y-128226109D02*
X113693005Y-128226109D01*
X113693005Y-128226109D02*
X113526338Y-128416585D01*
X113526338Y-128416585D02*
X113597767Y-128416585D01*
X113597767Y-128416585D02*
X113645386Y-128440395D01*
X113645386Y-128440395D02*
X113669195Y-128464204D01*
X113669195Y-128464204D02*
X113693005Y-128511823D01*
X113693005Y-128511823D02*
X113693005Y-128630871D01*
X113693005Y-128630871D02*
X113669195Y-128678490D01*
X113669195Y-128678490D02*
X113645386Y-128702300D01*
X113645386Y-128702300D02*
X113597767Y-128726109D01*
X113597767Y-128726109D02*
X113454910Y-128726109D01*
X113454910Y-128726109D02*
X113407291Y-128702300D01*
X113407291Y-128702300D02*
X113383481Y-128678490D01*
X113883481Y-128273728D02*
X113907290Y-128249919D01*
X113907290Y-128249919D02*
X113954909Y-128226109D01*
X113954909Y-128226109D02*
X114073957Y-128226109D01*
X114073957Y-128226109D02*
X114121576Y-128249919D01*
X114121576Y-128249919D02*
X114145385Y-128273728D01*
X114145385Y-128273728D02*
X114169195Y-128321347D01*
X114169195Y-128321347D02*
X114169195Y-128368966D01*
X114169195Y-128368966D02*
X114145385Y-128440395D01*
X114145385Y-128440395D02*
X113859671Y-128726109D01*
X113859671Y-128726109D02*
X114169195Y-128726109D01*
X114454909Y-128440395D02*
X114407290Y-128416585D01*
X114407290Y-128416585D02*
X114383480Y-128392776D01*
X114383480Y-128392776D02*
X114359671Y-128345157D01*
X114359671Y-128345157D02*
X114359671Y-128321347D01*
X114359671Y-128321347D02*
X114383480Y-128273728D01*
X114383480Y-128273728D02*
X114407290Y-128249919D01*
X114407290Y-128249919D02*
X114454909Y-128226109D01*
X114454909Y-128226109D02*
X114550147Y-128226109D01*
X114550147Y-128226109D02*
X114597766Y-128249919D01*
X114597766Y-128249919D02*
X114621575Y-128273728D01*
X114621575Y-128273728D02*
X114645385Y-128321347D01*
X114645385Y-128321347D02*
X114645385Y-128345157D01*
X114645385Y-128345157D02*
X114621575Y-128392776D01*
X114621575Y-128392776D02*
X114597766Y-128416585D01*
X114597766Y-128416585D02*
X114550147Y-128440395D01*
X114550147Y-128440395D02*
X114454909Y-128440395D01*
X114454909Y-128440395D02*
X114407290Y-128464204D01*
X114407290Y-128464204D02*
X114383480Y-128488014D01*
X114383480Y-128488014D02*
X114359671Y-128535633D01*
X114359671Y-128535633D02*
X114359671Y-128630871D01*
X114359671Y-128630871D02*
X114383480Y-128678490D01*
X114383480Y-128678490D02*
X114407290Y-128702300D01*
X114407290Y-128702300D02*
X114454909Y-128726109D01*
X114454909Y-128726109D02*
X114550147Y-128726109D01*
X114550147Y-128726109D02*
X114597766Y-128702300D01*
X114597766Y-128702300D02*
X114621575Y-128678490D01*
X114621575Y-128678490D02*
X114645385Y-128630871D01*
X114645385Y-128630871D02*
X114645385Y-128535633D01*
X114645385Y-128535633D02*
X114621575Y-128488014D01*
X114621575Y-128488014D02*
X114597766Y-128464204D01*
X114597766Y-128464204D02*
X114550147Y-128440395D01*
X114859670Y-128726109D02*
X114859670Y-128226109D01*
X114859670Y-128226109D02*
X115050146Y-128226109D01*
X115050146Y-128226109D02*
X115097765Y-128249919D01*
X115097765Y-128249919D02*
X115121575Y-128273728D01*
X115121575Y-128273728D02*
X115145384Y-128321347D01*
X115145384Y-128321347D02*
X115145384Y-128392776D01*
X115145384Y-128392776D02*
X115121575Y-128440395D01*
X115121575Y-128440395D02*
X115097765Y-128464204D01*
X115097765Y-128464204D02*
X115050146Y-128488014D01*
X115050146Y-128488014D02*
X114859670Y-128488014D01*
X115359670Y-128535633D02*
X115740623Y-128535633D01*
X115954909Y-128583252D02*
X116193004Y-128583252D01*
X115907290Y-128726109D02*
X116073956Y-128226109D01*
X116073956Y-128226109D02*
X116240623Y-128726109D01*
X116407289Y-128226109D02*
X116407289Y-128630871D01*
X116407289Y-128630871D02*
X116431099Y-128678490D01*
X116431099Y-128678490D02*
X116454908Y-128702300D01*
X116454908Y-128702300D02*
X116502527Y-128726109D01*
X116502527Y-128726109D02*
X116597765Y-128726109D01*
X116597765Y-128726109D02*
X116645384Y-128702300D01*
X116645384Y-128702300D02*
X116669194Y-128678490D01*
X116669194Y-128678490D02*
X116693003Y-128630871D01*
X116693003Y-128630871D02*
X116693003Y-128226109D01*
D11*
X108067700Y-130653819D02*
X108067700Y-130891914D01*
X107829605Y-130796676D02*
X108067700Y-130891914D01*
X108067700Y-130891914D02*
X108305795Y-130796676D01*
X107924843Y-131082390D02*
X108067700Y-130891914D01*
X108067700Y-130891914D02*
X108210557Y-131082390D01*
X108067700Y-130653819D02*
X108067700Y-130891914D01*
X107829605Y-130796676D02*
X108067700Y-130891914D01*
X108067700Y-130891914D02*
X108305795Y-130796676D01*
X107924843Y-131082390D02*
X108067700Y-130891914D01*
X108067700Y-130891914D02*
X108210557Y-131082390D01*
X82166666Y-127954819D02*
X82166666Y-128669104D01*
X82166666Y-128669104D02*
X82119047Y-128811961D01*
X82119047Y-128811961D02*
X82023809Y-128907200D01*
X82023809Y-128907200D02*
X81880952Y-128954819D01*
X81880952Y-128954819D02*
X81785714Y-128954819D01*
X83071428Y-128288152D02*
X83071428Y-128954819D01*
X82833333Y-127907200D02*
X82595238Y-128621485D01*
X82595238Y-128621485D02*
X83214285Y-128621485D01*
X140233333Y-124984819D02*
X139900000Y-124508628D01*
X139661905Y-124984819D02*
X139661905Y-123984819D01*
X139661905Y-123984819D02*
X140042857Y-123984819D01*
X140042857Y-123984819D02*
X140138095Y-124032438D01*
X140138095Y-124032438D02*
X140185714Y-124080057D01*
X140185714Y-124080057D02*
X140233333Y-124175295D01*
X140233333Y-124175295D02*
X140233333Y-124318152D01*
X140233333Y-124318152D02*
X140185714Y-124413390D01*
X140185714Y-124413390D02*
X140138095Y-124461009D01*
X140138095Y-124461009D02*
X140042857Y-124508628D01*
X140042857Y-124508628D02*
X139661905Y-124508628D01*
X140566667Y-123984819D02*
X141185714Y-123984819D01*
X141185714Y-123984819D02*
X140852381Y-124365771D01*
X140852381Y-124365771D02*
X140995238Y-124365771D01*
X140995238Y-124365771D02*
X141090476Y-124413390D01*
X141090476Y-124413390D02*
X141138095Y-124461009D01*
X141138095Y-124461009D02*
X141185714Y-124556247D01*
X141185714Y-124556247D02*
X141185714Y-124794342D01*
X141185714Y-124794342D02*
X141138095Y-124889580D01*
X141138095Y-124889580D02*
X141090476Y-124937200D01*
X141090476Y-124937200D02*
X140995238Y-124984819D01*
X140995238Y-124984819D02*
X140709524Y-124984819D01*
X140709524Y-124984819D02*
X140614286Y-124937200D01*
X140614286Y-124937200D02*
X140566667Y-124889580D01*
D10*
X141392776Y-128464284D02*
X141726109Y-128464284D01*
X141202300Y-128583332D02*
X141559442Y-128702379D01*
X141559442Y-128702379D02*
X141559442Y-128392856D01*
X141678490Y-128202380D02*
X141702300Y-128178570D01*
X141702300Y-128178570D02*
X141726109Y-128202380D01*
X141726109Y-128202380D02*
X141702300Y-128226189D01*
X141702300Y-128226189D02*
X141678490Y-128202380D01*
X141678490Y-128202380D02*
X141726109Y-128202380D01*
X141226109Y-128011904D02*
X141226109Y-127678571D01*
X141226109Y-127678571D02*
X141726109Y-127892856D01*
X141726109Y-127488095D02*
X141226109Y-127488095D01*
X141535633Y-127440476D02*
X141726109Y-127297619D01*
X141392776Y-127297619D02*
X141583252Y-127488095D01*
D11*
X131149195Y-119134819D02*
X131149195Y-119944342D01*
X131149195Y-119944342D02*
X131196814Y-120039580D01*
X131196814Y-120039580D02*
X131244433Y-120087200D01*
X131244433Y-120087200D02*
X131339671Y-120134819D01*
X131339671Y-120134819D02*
X131530147Y-120134819D01*
X131530147Y-120134819D02*
X131625385Y-120087200D01*
X131625385Y-120087200D02*
X131673004Y-120039580D01*
X131673004Y-120039580D02*
X131720623Y-119944342D01*
X131720623Y-119944342D02*
X131720623Y-119134819D01*
X132149195Y-119230057D02*
X132196814Y-119182438D01*
X132196814Y-119182438D02*
X132292052Y-119134819D01*
X132292052Y-119134819D02*
X132530147Y-119134819D01*
X132530147Y-119134819D02*
X132625385Y-119182438D01*
X132625385Y-119182438D02*
X132673004Y-119230057D01*
X132673004Y-119230057D02*
X132720623Y-119325295D01*
X132720623Y-119325295D02*
X132720623Y-119420533D01*
X132720623Y-119420533D02*
X132673004Y-119563390D01*
X132673004Y-119563390D02*
X132101576Y-120134819D01*
X132101576Y-120134819D02*
X132720623Y-120134819D01*
D10*
X130125387Y-126253728D02*
X130149196Y-126229919D01*
X130149196Y-126229919D02*
X130196815Y-126206109D01*
X130196815Y-126206109D02*
X130315863Y-126206109D01*
X130315863Y-126206109D02*
X130363482Y-126229919D01*
X130363482Y-126229919D02*
X130387291Y-126253728D01*
X130387291Y-126253728D02*
X130411101Y-126301347D01*
X130411101Y-126301347D02*
X130411101Y-126348966D01*
X130411101Y-126348966D02*
X130387291Y-126420395D01*
X130387291Y-126420395D02*
X130101577Y-126706109D01*
X130101577Y-126706109D02*
X130411101Y-126706109D01*
X130839672Y-126372776D02*
X130839672Y-126706109D01*
X130720624Y-126182300D02*
X130601577Y-126539442D01*
X130601577Y-126539442D02*
X130911100Y-126539442D01*
X131339671Y-126706109D02*
X131101576Y-126706109D01*
X131101576Y-126706109D02*
X131101576Y-126206109D01*
X131792052Y-126658490D02*
X131768243Y-126682300D01*
X131768243Y-126682300D02*
X131696814Y-126706109D01*
X131696814Y-126706109D02*
X131649195Y-126706109D01*
X131649195Y-126706109D02*
X131577767Y-126682300D01*
X131577767Y-126682300D02*
X131530148Y-126634680D01*
X131530148Y-126634680D02*
X131506338Y-126587061D01*
X131506338Y-126587061D02*
X131482529Y-126491823D01*
X131482529Y-126491823D02*
X131482529Y-126420395D01*
X131482529Y-126420395D02*
X131506338Y-126325157D01*
X131506338Y-126325157D02*
X131530148Y-126277538D01*
X131530148Y-126277538D02*
X131577767Y-126229919D01*
X131577767Y-126229919D02*
X131649195Y-126206109D01*
X131649195Y-126206109D02*
X131696814Y-126206109D01*
X131696814Y-126206109D02*
X131768243Y-126229919D01*
X131768243Y-126229919D02*
X131792052Y-126253728D01*
X132268243Y-126706109D02*
X131982529Y-126706109D01*
X132125386Y-126706109D02*
X132125386Y-126206109D01*
X132125386Y-126206109D02*
X132077767Y-126277538D01*
X132077767Y-126277538D02*
X132030148Y-126325157D01*
X132030148Y-126325157D02*
X131982529Y-126348966D01*
X132577766Y-126206109D02*
X132625385Y-126206109D01*
X132625385Y-126206109D02*
X132673004Y-126229919D01*
X132673004Y-126229919D02*
X132696814Y-126253728D01*
X132696814Y-126253728D02*
X132720623Y-126301347D01*
X132720623Y-126301347D02*
X132744433Y-126396585D01*
X132744433Y-126396585D02*
X132744433Y-126515633D01*
X132744433Y-126515633D02*
X132720623Y-126610871D01*
X132720623Y-126610871D02*
X132696814Y-126658490D01*
X132696814Y-126658490D02*
X132673004Y-126682300D01*
X132673004Y-126682300D02*
X132625385Y-126706109D01*
X132625385Y-126706109D02*
X132577766Y-126706109D01*
X132577766Y-126706109D02*
X132530147Y-126682300D01*
X132530147Y-126682300D02*
X132506338Y-126658490D01*
X132506338Y-126658490D02*
X132482528Y-126610871D01*
X132482528Y-126610871D02*
X132458719Y-126515633D01*
X132458719Y-126515633D02*
X132458719Y-126396585D01*
X132458719Y-126396585D02*
X132482528Y-126301347D01*
X132482528Y-126301347D02*
X132506338Y-126253728D01*
X132506338Y-126253728D02*
X132530147Y-126229919D01*
X132530147Y-126229919D02*
X132577766Y-126206109D01*
X132934909Y-126253728D02*
X132958718Y-126229919D01*
X132958718Y-126229919D02*
X133006337Y-126206109D01*
X133006337Y-126206109D02*
X133125385Y-126206109D01*
X133125385Y-126206109D02*
X133173004Y-126229919D01*
X133173004Y-126229919D02*
X133196813Y-126253728D01*
X133196813Y-126253728D02*
X133220623Y-126301347D01*
X133220623Y-126301347D02*
X133220623Y-126348966D01*
X133220623Y-126348966D02*
X133196813Y-126420395D01*
X133196813Y-126420395D02*
X132911099Y-126706109D01*
X132911099Y-126706109D02*
X133220623Y-126706109D01*
X133673003Y-126206109D02*
X133434908Y-126206109D01*
X133434908Y-126206109D02*
X133411099Y-126444204D01*
X133411099Y-126444204D02*
X133434908Y-126420395D01*
X133434908Y-126420395D02*
X133482527Y-126396585D01*
X133482527Y-126396585D02*
X133601575Y-126396585D01*
X133601575Y-126396585D02*
X133649194Y-126420395D01*
X133649194Y-126420395D02*
X133673003Y-126444204D01*
X133673003Y-126444204D02*
X133696813Y-126491823D01*
X133696813Y-126491823D02*
X133696813Y-126610871D01*
X133696813Y-126610871D02*
X133673003Y-126658490D01*
X133673003Y-126658490D02*
X133649194Y-126682300D01*
X133649194Y-126682300D02*
X133601575Y-126706109D01*
X133601575Y-126706109D02*
X133482527Y-126706109D01*
X133482527Y-126706109D02*
X133434908Y-126682300D01*
X133434908Y-126682300D02*
X133411099Y-126658490D01*
D12*
%TO.C,C5*%
X120845000Y-139751252D02*
X120845000Y-139228748D01*
X122315000Y-139751252D02*
X122315000Y-139228748D01*
%TO.C,C2*%
X123079848Y-133985000D02*
X123602352Y-133985000D01*
X123079848Y-135455000D02*
X123602352Y-135455000D01*
D13*
%TO.C,U4*%
X129449100Y-143878900D02*
X133690900Y-143878900D01*
X133690900Y-138621100D02*
X129449100Y-138621100D01*
D12*
%TO.C,D1*%
X113505000Y-123850000D02*
X113505000Y-125770000D01*
X113505000Y-125770000D02*
X116190000Y-125770000D01*
X116190000Y-123850000D02*
X113505000Y-123850000D01*
%TO.C,C6*%
X123371252Y-120475000D02*
X122848748Y-120475000D01*
X123371252Y-121945000D02*
X122848748Y-121945000D01*
%TO.C,C3*%
X95961252Y-137675000D02*
X95438748Y-137675000D01*
X95961252Y-139145000D02*
X95438748Y-139145000D01*
%TO.C,Y1*%
X98930000Y-132880000D02*
X98930000Y-140130000D01*
X98930000Y-140130000D02*
X102530000Y-140130000D01*
X102530000Y-140130000D02*
X102530000Y-132880000D01*
%TO.C,J1*%
X82280000Y-119410000D02*
X82280000Y-122070000D01*
X89960000Y-119410000D02*
X82280000Y-119410000D01*
X89960000Y-119410000D02*
X89960000Y-122070000D01*
X89960000Y-122070000D02*
X82280000Y-122070000D01*
X91230000Y-119410000D02*
X92560000Y-119410000D01*
X92560000Y-119410000D02*
X92560000Y-120740000D01*
%TO.C,J2*%
X93990000Y-122070000D02*
X93990000Y-120740000D01*
X95320000Y-122070000D02*
X93990000Y-122070000D01*
X96590000Y-119410000D02*
X104270000Y-119410000D01*
X96590000Y-122070000D02*
X96590000Y-119410000D01*
X96590000Y-122070000D02*
X104270000Y-122070000D01*
X104270000Y-122070000D02*
X104270000Y-119410000D01*
%TO.C,R1*%
X129942936Y-144565000D02*
X130397064Y-144565000D01*
X129942936Y-146035000D02*
X130397064Y-146035000D01*
%TO.C,BT1*%
X106835000Y-145710000D02*
X108165000Y-145710000D01*
X106835000Y-147040000D02*
X106835000Y-145710000D01*
X106835000Y-148310000D02*
X106835000Y-148370000D01*
X106835000Y-148310000D02*
X109435000Y-148310000D01*
X106835000Y-148370000D02*
X112035000Y-148370000D01*
X109435000Y-145710000D02*
X112035000Y-145710000D01*
X109435000Y-148310000D02*
X109435000Y-145710000D01*
X112035000Y-145710000D02*
X112035000Y-148370000D01*
%TO.C,D2*%
X115295000Y-144380000D02*
X115295000Y-146300000D01*
X115295000Y-146300000D02*
X117980000Y-146300000D01*
X117980000Y-144380000D02*
X115295000Y-144380000D01*
%TO.C,C8*%
X138748748Y-120515000D02*
X139271252Y-120515000D01*
X138748748Y-121985000D02*
X139271252Y-121985000D01*
%TO.C,R7*%
X116712936Y-142055000D02*
X117167064Y-142055000D01*
X116712936Y-143525000D02*
X117167064Y-143525000D01*
%TO.C,C1*%
X123371252Y-122955000D02*
X122848748Y-122955000D01*
X123371252Y-124425000D02*
X122848748Y-124425000D01*
%TO.C,R6*%
X107836100Y-123267064D02*
X107836100Y-122812936D01*
X109306100Y-123267064D02*
X109306100Y-122812936D01*
%TO.C,C4*%
X95438748Y-131515000D02*
X95961252Y-131515000D01*
X95438748Y-132985000D02*
X95961252Y-132985000D01*
%TO.C,J3*%
X82300000Y-148440000D02*
X82300000Y-147110000D01*
X83630000Y-148440000D02*
X82300000Y-148440000D01*
X84900000Y-145780000D02*
X105280000Y-145780000D01*
X84900000Y-148440000D02*
X84900000Y-145780000D01*
X84900000Y-148440000D02*
X105280000Y-148440000D01*
X105280000Y-148440000D02*
X105280000Y-145780000D01*
%TO.C,C9*%
X139901252Y-130215000D02*
X139378748Y-130215000D01*
X139901252Y-131685000D02*
X139378748Y-131685000D01*
%TO.C,R2*%
X130397064Y-147515000D02*
X129942936Y-147515000D01*
X130397064Y-148985000D02*
X129942936Y-148985000D01*
%TO.C,Y2*%
X137640000Y-137130000D02*
X137640000Y-144380000D01*
X141240000Y-137130000D02*
X137640000Y-137130000D01*
X141240000Y-144380000D02*
X141240000Y-137130000D01*
%TO.C,R4*%
X137095000Y-127057064D02*
X137095000Y-126602936D01*
X138565000Y-127057064D02*
X138565000Y-126602936D01*
%TO.C,U1*%
X131911100Y-128790000D02*
X129961100Y-128790000D01*
X131911100Y-128790000D02*
X133861100Y-128790000D01*
X131911100Y-133910000D02*
X129961100Y-133910000D01*
X131911100Y-133910000D02*
X133861100Y-133910000D01*
X129211100Y-128885000D02*
X128971100Y-128555000D01*
X129451100Y-128555000D01*
X129211100Y-128885000D01*
G36*
X129211100Y-128885000D02*
G01*
X128971100Y-128555000D01*
X129451100Y-128555000D01*
X129211100Y-128885000D01*
G37*
%TO.C,C7*%
X123371252Y-125535000D02*
X122848748Y-125535000D01*
X123371252Y-127005000D02*
X122848748Y-127005000D01*
%TO.C,R5*%
X114922936Y-121485000D02*
X115377064Y-121485000D01*
X114922936Y-122955000D02*
X115377064Y-122955000D01*
D13*
%TO.C,U3*%
X109998100Y-131097000D02*
X109998100Y-131393261D01*
X109998100Y-138166739D02*
X109998100Y-138463000D01*
X109998100Y-138463000D02*
X110294361Y-138463000D01*
X110294361Y-131097000D02*
X109998100Y-131097000D01*
X117067839Y-138463000D02*
X117364100Y-138463000D01*
X117364100Y-131097000D02*
X117067839Y-131097000D01*
X117364100Y-131393261D02*
X117364100Y-131097000D01*
X117364100Y-138463000D02*
X117364100Y-138166739D01*
D14*
G36*
X111871599Y-140266400D02*
G01*
X111490599Y-140266400D01*
X111490599Y-140012400D01*
X111871599Y-140012400D01*
X111871599Y-140266400D01*
G37*
G36*
X112671600Y-129547600D02*
G01*
X112290600Y-129547600D01*
X112290600Y-129293600D01*
X112671600Y-129293600D01*
X112671600Y-129547600D01*
G37*
G36*
X119167500Y-135370499D02*
G01*
X118913500Y-135370499D01*
X118913500Y-134989499D01*
X119167500Y-134989499D01*
X119167500Y-135370499D01*
G37*
D12*
%TO.C,J4*%
X82300000Y-129850000D02*
X83630000Y-129850000D01*
X82300000Y-131180000D02*
X82300000Y-129850000D01*
X82300000Y-132450000D02*
X82300000Y-137590000D01*
X82300000Y-132450000D02*
X84900000Y-132450000D01*
X82300000Y-137590000D02*
X87500000Y-137590000D01*
X84900000Y-129850000D02*
X87500000Y-129850000D01*
X84900000Y-132450000D02*
X84900000Y-129850000D01*
X87500000Y-129850000D02*
X87500000Y-137590000D01*
%TO.C,R3*%
X139655000Y-127047064D02*
X139655000Y-126592936D01*
X141125000Y-127047064D02*
X141125000Y-126592936D01*
%TO.C,U2*%
X131911100Y-120520000D02*
X129961100Y-120520000D01*
X131911100Y-120520000D02*
X133861100Y-120520000D01*
X131911100Y-125640000D02*
X129961100Y-125640000D01*
X131911100Y-125640000D02*
X133861100Y-125640000D01*
X129211100Y-120615000D02*
X128971100Y-120285000D01*
X129451100Y-120285000D01*
X129211100Y-120615000D01*
G36*
X129211100Y-120615000D02*
G01*
X128971100Y-120285000D01*
X129451100Y-120285000D01*
X129211100Y-120615000D01*
G37*
%TD*%
M02*
