M48
; DRILL file {KiCad 8.0.8} date 2025-09-08T13:39:18+0300
; FORMAT={-:-/ absolute / inch / decimal}
; #@! TF.CreationDate,2025-09-08T13:39:18+03:00
; #@! TF.GenerationSoftware,Kicad,Pcbnew,8.0.8
; #@! TF.FileFunction,Plated,1,2,PTH
FMAT,2
INCH
; #@! TA.AperFunction,Plated,PTH,ViaDrill
T1C0.0157
; #@! TA.AperFunction,Plated,PTH,ViaDrill
T2C0.0197
; #@! TA.AperFunction,Plated,PTH,ComponentDrill
T3C0.0394
%
G90
G05
T1
X3.3678Y-4.8245
X3.4843Y-5.4331
X3.4843Y-5.4921
X3.4843Y-5.5512
X3.6024Y-4.9606
X3.6614Y-4.9606
X3.7205Y-4.9606
X4.0551Y-5.5512
X4.1142Y-5.5512
X4.1732Y-5.5512
X4.2213Y-4.674
X4.3206Y-4.9463
X4.4283Y-5.2366
X4.4472Y-5.3398
X4.5638Y-5.3157
X4.6106Y-5.0311
X4.6114Y-5.7965
X4.8622Y-4.6654
X4.8819Y-5.1378
X4.9213Y-4.6654
X4.9213Y-5.1772
X4.9232Y-5.3827
X4.9409Y-5.5906
X4.9409Y-5.6496
X4.9409Y-5.7087
X4.9606Y-4.9213
X4.9606Y-5.2165
X4.9803Y-4.6654
X5.0Y-4.9213
X5.0197Y-4.9606
X5.1575Y-5.4941
X5.2953Y-5.374
X5.3346Y-5.3346
X5.3614Y-5.1453
X5.374Y-4.8228
X5.3937Y-5.3346
X5.5315Y-5.2441
T2
X3.6543Y-5.4476
X3.9866Y-4.8116
X4.2079Y-5.2555
X4.361Y-5.7173
X4.6598Y-5.5433
X4.7335Y-5.2429
X4.7862Y-5.3949
X5.1354Y-5.0382
X5.1638Y-5.1472
X5.2303Y-5.7795
X5.2957Y-5.0264
X5.4205Y-5.0815
T3
X3.2917Y-4.7535
X3.2925Y-5.1646
X3.2925Y-5.2646
X3.2925Y-5.3646
X3.2925Y-5.7917
X3.3917Y-4.7535
X3.3925Y-5.1646
X3.3925Y-5.2646
X3.3925Y-5.3646
X3.3925Y-5.7917
X3.4917Y-4.7535
X3.4925Y-5.7917
X3.5917Y-4.7535
X3.5925Y-5.7917
X3.6925Y-5.7917
X3.7528Y-4.7535
X3.7925Y-5.7917
X3.8528Y-4.7535
X3.8925Y-5.7917
X3.9528Y-4.7535
X3.9925Y-5.7917
X4.0528Y-4.7535
X4.0925Y-5.7917
X4.2585Y-5.789
X4.3585Y-5.789
M30
