%TF.GenerationSoftware,KiCad,Pcbnew,8.0.8*%
%TF.CreationDate,2025-09-08T13:39:14+03:00*%
%TF.ProjectId,MCU datalogger,4d435520-6461-4746-916c-6f676765722e,rev?*%
%TF.SameCoordinates,Original*%
%TF.FileFunction,Copper,L1,Top*%
%TF.FilePolarity,Positive*%
%FSLAX46Y46*%
G04 Gerber Fmt 4.6, Leading zero omitted, Abs format (unit mm)*
G04 Created by KiCad (PCBNEW 8.0.8) date 2025-09-08 13:39:14*
%MOMM*%
%LPD*%
G01*
G04 APERTURE LIST*
G04 Aperture macros list*
%AMRoundRect*
0 Rectangle with rounded corners*
0 $1 Rounding radius*
0 $2 $3 $4 $5 $6 $7 $8 $9 X,Y pos of 4 corners*
0 Add a 4 corners polygon primitive as box body*
4,1,4,$2,$3,$4,$5,$6,$7,$8,$9,$2,$3,0*
0 Add four circle primitives for the rounded corners*
1,1,$1+$1,$2,$3*
1,1,$1+$1,$4,$5*
1,1,$1+$1,$6,$7*
1,1,$1+$1,$8,$9*
0 Add four rect primitives between the rounded corners*
20,1,$1+$1,$2,$3,$4,$5,0*
20,1,$1+$1,$4,$5,$6,$7,0*
20,1,$1+$1,$6,$7,$8,$9,0*
20,1,$1+$1,$8,$9,$2,$3,0*%
G04 Aperture macros list end*
%TA.AperFunction,SMDPad,CuDef*%
%ADD10RoundRect,0.250000X0.475000X-0.250000X0.475000X0.250000X-0.475000X0.250000X-0.475000X-0.250000X0*%
%TD*%
%TA.AperFunction,SMDPad,CuDef*%
%ADD11RoundRect,0.250000X-0.250000X-0.475000X0.250000X-0.475000X0.250000X0.475000X-0.250000X0.475000X0*%
%TD*%
%TA.AperFunction,SMDPad,CuDef*%
%ADD12R,1.454899X0.532600*%
%TD*%
%TA.AperFunction,SMDPad,CuDef*%
%ADD13RoundRect,0.243750X-0.243750X-0.456250X0.243750X-0.456250X0.243750X0.456250X-0.243750X0.456250X0*%
%TD*%
%TA.AperFunction,SMDPad,CuDef*%
%ADD14RoundRect,0.250000X0.250000X0.475000X-0.250000X0.475000X-0.250000X-0.475000X0.250000X-0.475000X0*%
%TD*%
%TA.AperFunction,SMDPad,CuDef*%
%ADD15R,2.400000X3.500000*%
%TD*%
%TA.AperFunction,ComponentPad*%
%ADD16R,1.700000X1.700000*%
%TD*%
%TA.AperFunction,ComponentPad*%
%ADD17O,1.700000X1.700000*%
%TD*%
%TA.AperFunction,SMDPad,CuDef*%
%ADD18RoundRect,0.250000X-0.262500X-0.450000X0.262500X-0.450000X0.262500X0.450000X-0.262500X0.450000X0*%
%TD*%
%TA.AperFunction,SMDPad,CuDef*%
%ADD19RoundRect,0.250000X0.450000X-0.262500X0.450000X0.262500X-0.450000X0.262500X-0.450000X-0.262500X0*%
%TD*%
%TA.AperFunction,SMDPad,CuDef*%
%ADD20RoundRect,0.250000X0.262500X0.450000X-0.262500X0.450000X-0.262500X-0.450000X0.262500X-0.450000X0*%
%TD*%
%TA.AperFunction,SMDPad,CuDef*%
%ADD21RoundRect,0.150000X-0.825000X-0.150000X0.825000X-0.150000X0.825000X0.150000X-0.825000X0.150000X0*%
%TD*%
%TA.AperFunction,SMDPad,CuDef*%
%ADD22R,1.422400X0.508000*%
%TD*%
%TA.AperFunction,SMDPad,CuDef*%
%ADD23R,0.508000X1.422400*%
%TD*%
%TA.AperFunction,ViaPad*%
%ADD24C,0.900000*%
%TD*%
%TA.AperFunction,ViaPad*%
%ADD25C,1.100000*%
%TD*%
%TA.AperFunction,Conductor*%
%ADD26C,0.500000*%
%TD*%
%TA.AperFunction,Conductor*%
%ADD27C,0.350000*%
%TD*%
G04 APERTURE END LIST*
D10*
%TO.P,C5,1*%
%TO.N,/Vcc*%
X121580000Y-140440000D03*
%TO.P,C5,2*%
%TO.N,GND*%
X121580000Y-138540000D03*
%TD*%
D11*
%TO.P,C2,1*%
%TO.N,Net-(U3-AREF)*%
X122391100Y-134720000D03*
%TO.P,C2,2*%
%TO.N,GND*%
X124291100Y-134720000D03*
%TD*%
D12*
%TO.P,U4,1,X1*%
%TO.N,Net-(U4-X1)*%
X134291348Y-143155000D03*
%TO.P,U4,2,X2*%
%TO.N,Net-(U4-X2)*%
X134291348Y-141885000D03*
%TO.P,U4,3,\u002AINTA*%
%TO.N,/inta*%
X134291348Y-140615000D03*
%TO.P,U4,4,GND*%
%TO.N,GND*%
X134291348Y-139345000D03*
%TO.P,U4,5,SDA*%
%TO.N,/SDA*%
X128848652Y-139345000D03*
%TO.P,U4,6,SCL*%
%TO.N,/SCK*%
X128848652Y-140615000D03*
%TO.P,U4,7,SQW/\u002AINTB*%
%TO.N,Net-(U4-SQW{slash}\u002AINTB)*%
X128848652Y-141885000D03*
%TO.P,U4,8,VCC*%
%TO.N,/Vcc*%
X128848652Y-143155000D03*
%TD*%
D13*
%TO.P,D1,1,K*%
%TO.N,Net-(D1-K)*%
X114252500Y-124810000D03*
%TO.P,D1,2,A*%
%TO.N,/SCK*%
X116127500Y-124810000D03*
%TD*%
D14*
%TO.P,C6,1*%
%TO.N,/Vcc*%
X124060000Y-121210000D03*
%TO.P,C6,2*%
%TO.N,GND*%
X122160000Y-121210000D03*
%TD*%
%TO.P,C3,1*%
%TO.N,Net-(U3-PB7(PCINT7{slash}XTAL2{slash}TOSC2))*%
X96650000Y-138410000D03*
%TO.P,C3,2*%
%TO.N,GND*%
X94750000Y-138410000D03*
%TD*%
D15*
%TO.P,Y1,1,1*%
%TO.N,Net-(U3-PB7(PCINT7{slash}XTAL2{slash}TOSC2))*%
X100730000Y-138180000D03*
%TO.P,Y1,2,2*%
%TO.N,Net-(U3-PB6(PCINT6{slash}XTAL1{slash}TOSC1))*%
X100730000Y-132980000D03*
%TD*%
D16*
%TO.P,J1,1,Pin_1*%
%TO.N,GND*%
X91230000Y-120740000D03*
D17*
%TO.P,J1,2,Pin_2*%
%TO.N,/Vcc*%
X88690000Y-120740000D03*
%TO.P,J1,3,Pin_3*%
%TO.N,/SDA*%
X86150000Y-120740000D03*
%TO.P,J1,4,Pin_4*%
%TO.N,/SCK*%
X83610000Y-120740000D03*
%TD*%
D16*
%TO.P,J2,1,Pin_1*%
%TO.N,/TX*%
X95320000Y-120740000D03*
D17*
%TO.P,J2,2,Pin_2*%
%TO.N,/RX*%
X97860000Y-120740000D03*
%TO.P,J2,3,Pin_3*%
%TO.N,GND*%
X100400000Y-120740000D03*
%TO.P,J2,4,Pin_4*%
%TO.N,/Vcc*%
X102940000Y-120740000D03*
%TD*%
D18*
%TO.P,R1,1*%
%TO.N,/Vcc*%
X129257500Y-145300000D03*
%TO.P,R1,2*%
%TO.N,/inta*%
X131082500Y-145300000D03*
%TD*%
D16*
%TO.P,BT1,1,+*%
%TO.N,/Vcc*%
X108165000Y-147040000D03*
D17*
%TO.P,BT1,2,-*%
%TO.N,GND*%
X110705000Y-147040000D03*
%TD*%
D13*
%TO.P,D2,1,K*%
%TO.N,Net-(D2-K)*%
X116042500Y-145340000D03*
%TO.P,D2,2,A*%
%TO.N,/Vcc*%
X117917500Y-145340000D03*
%TD*%
D11*
%TO.P,C8,1*%
%TO.N,/Vcc*%
X138060000Y-121250000D03*
%TO.P,C8,2*%
%TO.N,GND*%
X139960000Y-121250000D03*
%TD*%
D18*
%TO.P,R7,1*%
%TO.N,Net-(D2-K)*%
X116027500Y-142790000D03*
%TO.P,R7,2*%
%TO.N,GND*%
X117852500Y-142790000D03*
%TD*%
D14*
%TO.P,C1,1*%
%TO.N,/Vcc*%
X124060000Y-123690000D03*
%TO.P,C1,2*%
%TO.N,GND*%
X122160000Y-123690000D03*
%TD*%
D19*
%TO.P,R6,1*%
%TO.N,/RESET*%
X108571100Y-123952500D03*
%TO.P,R6,2*%
%TO.N,/Vcc*%
X108571100Y-122127500D03*
%TD*%
D11*
%TO.P,C4,1*%
%TO.N,GND*%
X94750000Y-132250000D03*
%TO.P,C4,2*%
%TO.N,Net-(U3-PB6(PCINT6{slash}XTAL1{slash}TOSC1))*%
X96650000Y-132250000D03*
%TD*%
D16*
%TO.P,J3,1,Pin_1*%
%TO.N,GND*%
X83630000Y-147110000D03*
D17*
%TO.P,J3,2,Pin_2*%
%TO.N,/D2*%
X86170000Y-147110000D03*
%TO.P,J3,3,Pin_3*%
%TO.N,/D3*%
X88710000Y-147110000D03*
%TO.P,J3,4,Pin_4*%
%TO.N,/D4*%
X91250000Y-147110000D03*
%TO.P,J3,5,Pin_5*%
%TO.N,/D5*%
X93790000Y-147110000D03*
%TO.P,J3,6,Pin_6*%
%TO.N,/D6*%
X96330000Y-147110000D03*
%TO.P,J3,7,Pin_7*%
%TO.N,/D7*%
X98870000Y-147110000D03*
%TO.P,J3,8,Pin_8*%
%TO.N,/D8*%
X101410000Y-147110000D03*
%TO.P,J3,9,Pin_9*%
%TO.N,/Vcc*%
X103950000Y-147110000D03*
%TD*%
D14*
%TO.P,C9,1*%
%TO.N,/Vcc*%
X140590000Y-130950000D03*
%TO.P,C9,2*%
%TO.N,GND*%
X138690000Y-130950000D03*
%TD*%
D20*
%TO.P,R2,1*%
%TO.N,/Vcc*%
X131082500Y-148250000D03*
%TO.P,R2,2*%
%TO.N,Net-(U4-SQW{slash}\u002AINTB)*%
X129257500Y-148250000D03*
%TD*%
D15*
%TO.P,Y2,1,1*%
%TO.N,Net-(U4-X2)*%
X139440000Y-139080000D03*
%TO.P,Y2,2,2*%
%TO.N,Net-(U4-X1)*%
X139440000Y-144280000D03*
%TD*%
D19*
%TO.P,R4,1*%
%TO.N,/Vcc*%
X137830000Y-127742500D03*
%TO.P,R4,2*%
%TO.N,/SDA*%
X137830000Y-125917500D03*
%TD*%
D21*
%TO.P,U1,1,A0*%
%TO.N,/Vcc*%
X129436100Y-129445000D03*
%TO.P,U1,2,A1*%
%TO.N,GND*%
X129436100Y-130715000D03*
%TO.P,U1,3,A2*%
%TO.N,/Vcc*%
X129436100Y-131985000D03*
%TO.P,U1,4,GND*%
%TO.N,GND*%
X129436100Y-133255000D03*
%TO.P,U1,5,SDA*%
%TO.N,/SDA*%
X134386100Y-133255000D03*
%TO.P,U1,6,SCL*%
%TO.N,/SCK*%
X134386100Y-131985000D03*
%TO.P,U1,7,WP*%
%TO.N,GND*%
X134386100Y-130715000D03*
%TO.P,U1,8,VCC*%
%TO.N,/Vcc*%
X134386100Y-129445000D03*
%TD*%
D14*
%TO.P,C7,1*%
%TO.N,/Vcc*%
X124060000Y-126270000D03*
%TO.P,C7,2*%
%TO.N,GND*%
X122160000Y-126270000D03*
%TD*%
D18*
%TO.P,R5,1*%
%TO.N,Net-(D1-K)*%
X114237500Y-122220000D03*
%TO.P,R5,2*%
%TO.N,GND*%
X116062500Y-122220000D03*
%TD*%
D22*
%TO.P,U3,1,PD3(PCINT19/OC2B/INT1)*%
%TO.N,/D3*%
X109413900Y-131980001D03*
%TO.P,U3,2,PD4(PCINT20/XCK/T0)*%
%TO.N,/D4*%
X109413900Y-132779999D03*
%TO.P,U3,3,GND*%
%TO.N,GND*%
X109413900Y-133580000D03*
%TO.P,U3,4,VCC*%
%TO.N,/Vcc*%
X109413900Y-134380001D03*
%TO.P,U3,5,GND*%
%TO.N,GND*%
X109413900Y-135179999D03*
%TO.P,U3,6,VCC*%
%TO.N,unconnected-(U3-VCC-Pad6)*%
X109413900Y-135980000D03*
%TO.P,U3,7,PB6(PCINT6/XTAL1/TOSC1)*%
%TO.N,Net-(U3-PB6(PCINT6{slash}XTAL1{slash}TOSC1))*%
X109413900Y-136779999D03*
%TO.P,U3,8,PB7(PCINT7/XTAL2/TOSC2)*%
%TO.N,Net-(U3-PB7(PCINT7{slash}XTAL2{slash}TOSC2))*%
X109413900Y-137579999D03*
D23*
%TO.P,U3,9,PD5(PCINT21/OC0B/T1)*%
%TO.N,/D5*%
X110881101Y-139047200D03*
%TO.P,U3,10,PD6(PCINT22/OC0A/AIN0)*%
%TO.N,/D6*%
X111681099Y-139047200D03*
%TO.P,U3,11,PD7(PCINT23/AIN1)*%
%TO.N,/D7*%
X112481100Y-139047200D03*
%TO.P,U3,12,PB0(PCINT0/CLKO/ICP1)*%
%TO.N,/D8*%
X113281101Y-139047200D03*
%TO.P,U3,13,PB1(PCINT1/OC1A)*%
%TO.N,unconnected-(U3-PB1(PCINT1{slash}OC1A)-Pad13)*%
X114081099Y-139047200D03*
%TO.P,U3,14,PB2(PCINT2/\u002ASS/OC1B)*%
%TO.N,unconnected-(U3-PB2(PCINT2{slash}\u002ASS{slash}OC1B)-Pad14)*%
X114881100Y-139047200D03*
%TO.P,U3,15,PB3(PCINT3/OC2A/MOSI)*%
%TO.N,/MOSI*%
X115681099Y-139047200D03*
%TO.P,U3,16,PB4(PCINT4/MISO)*%
%TO.N,/MISO*%
X116481099Y-139047200D03*
D22*
%TO.P,U3,17,PB5(SCK/PCINT5)*%
%TO.N,/SCK*%
X117948300Y-137579999D03*
%TO.P,U3,18,AVCC*%
%TO.N,/Vcc*%
X117948300Y-136780001D03*
%TO.P,U3,19,ADC6*%
%TO.N,unconnected-(U3-ADC6-Pad19)*%
X117948300Y-135980000D03*
%TO.P,U3,20,AREF*%
%TO.N,Net-(U3-AREF)*%
X117948300Y-135179999D03*
%TO.P,U3,21,GND*%
%TO.N,GND*%
X117948300Y-134380001D03*
%TO.P,U3,22,ADC7*%
%TO.N,unconnected-(U3-ADC7-Pad22)*%
X117948300Y-133580000D03*
%TO.P,U3,23,PC0(ADC0/PCINT8)*%
%TO.N,unconnected-(U3-PC0(ADC0{slash}PCINT8)-Pad23)*%
X117948300Y-132780001D03*
%TO.P,U3,24,PC1(ADC1/PCINT9)*%
%TO.N,unconnected-(U3-PC1(ADC1{slash}PCINT9)-Pad24)*%
X117948300Y-131980001D03*
D23*
%TO.P,U3,25,PC2(ADC2/PCINT10)*%
%TO.N,unconnected-(U3-PC2(ADC2{slash}PCINT10)-Pad25)*%
X116481099Y-130512800D03*
%TO.P,U3,26,PC3(ADC3/PCINT11)*%
%TO.N,unconnected-(U3-PC3(ADC3{slash}PCINT11)-Pad26)*%
X115681101Y-130512800D03*
%TO.P,U3,27,PC4(ADC4/SDA/PCINT12)*%
%TO.N,/SDA*%
X114881100Y-130512800D03*
%TO.P,U3,28,PC5(ADC5/SCL/PCINT13)*%
%TO.N,/SCK*%
X114081099Y-130512800D03*
%TO.P,U3,29,PC6(\u002ARESET/PCINT14)*%
%TO.N,/RESET*%
X113281101Y-130512800D03*
%TO.P,U3,30,PD0(RXD/PCINT16)*%
%TO.N,/RX*%
X112481100Y-130512800D03*
%TO.P,U3,31,PD1(TXD/PCINT17)*%
%TO.N,/TX*%
X111681101Y-130512800D03*
%TO.P,U3,32,PD2(INT0/PCINT18)*%
%TO.N,/D2*%
X110881101Y-130512800D03*
%TD*%
D16*
%TO.P,J4,1,Pin_1*%
%TO.N,/MISO*%
X83630000Y-131180000D03*
D17*
%TO.P,J4,2,Pin_2*%
%TO.N,/Vcc*%
X86170000Y-131180000D03*
%TO.P,J4,3,Pin_3*%
%TO.N,/SCK*%
X83630000Y-133720000D03*
%TO.P,J4,4,Pin_4*%
%TO.N,/MOSI*%
X86170000Y-133720000D03*
%TO.P,J4,5,Pin_5*%
%TO.N,/RESET*%
X83630000Y-136260000D03*
%TO.P,J4,6,Pin_6*%
%TO.N,GND*%
X86170000Y-136260000D03*
%TD*%
D19*
%TO.P,R3,1*%
%TO.N,/Vcc*%
X140390000Y-127732500D03*
%TO.P,R3,2*%
%TO.N,/SCK*%
X140390000Y-125907500D03*
%TD*%
D21*
%TO.P,U2,1,A0*%
%TO.N,/Vcc*%
X129436100Y-121175000D03*
%TO.P,U2,2,A1*%
X129436100Y-122445000D03*
%TO.P,U2,3,A2*%
X129436100Y-123715000D03*
%TO.P,U2,4,GND*%
%TO.N,GND*%
X129436100Y-124985000D03*
%TO.P,U2,5,SDA*%
%TO.N,/SDA*%
X134386100Y-124985000D03*
%TO.P,U2,6,SCL*%
%TO.N,/SCK*%
X134386100Y-123715000D03*
%TO.P,U2,7,WP*%
%TO.N,GND*%
X134386100Y-122445000D03*
%TO.P,U2,8,VCC*%
%TO.N,/Vcc*%
X134386100Y-121175000D03*
%TD*%
D24*
%TO.N,GND*%
X131000000Y-139550000D03*
X125000000Y-118500000D03*
X106000000Y-141000000D03*
X125050000Y-136720000D03*
X94500000Y-126000000D03*
X88500000Y-139500000D03*
X104500000Y-141000000D03*
D25*
X110770000Y-145220000D03*
X118360000Y-140800000D03*
D24*
X91500000Y-126000000D03*
X127500000Y-126000000D03*
D25*
X120230000Y-133170000D03*
D24*
X103000000Y-141000000D03*
X123500000Y-118500000D03*
X127000000Y-125000000D03*
X140500000Y-133200000D03*
X93000000Y-126000000D03*
D25*
X121570000Y-137030000D03*
D24*
X126000000Y-125000000D03*
D25*
X101260000Y-122215000D03*
X92820000Y-138370000D03*
D24*
X88500000Y-141000000D03*
X124000000Y-130500000D03*
X125000000Y-131500000D03*
D25*
X106880000Y-133490000D03*
D24*
X134500000Y-136500000D03*
X88500000Y-138000000D03*
X126500000Y-118500000D03*
X135500000Y-135500000D03*
X136180000Y-130690000D03*
X137000000Y-135500000D03*
X126000000Y-132500000D03*
D25*
X131160000Y-130740000D03*
D24*
X136500000Y-122500000D03*
X125500000Y-142000000D03*
X125500000Y-145000000D03*
X125500000Y-143500000D03*
%TO.N,/Vcc*%
X112960000Y-135630000D03*
X117130000Y-147230000D03*
D25*
X132850000Y-146800000D03*
X134510000Y-127670000D03*
X137680000Y-129070000D03*
D24*
X115920000Y-135020000D03*
D25*
X130440000Y-127970000D03*
D24*
%TO.N,/SCK*%
X112480000Y-133010000D03*
X85543248Y-122543248D03*
%TO.N,/SDA*%
X107220000Y-118720000D03*
X117110000Y-127790000D03*
%TO.N,/RESET*%
X109743364Y-125636636D03*
%TD*%
D26*
%TO.N,GND*%
X100400000Y-121355000D02*
X101260000Y-122215000D01*
X138690000Y-131390000D02*
X140500000Y-133200000D01*
X83630000Y-147110000D02*
X83630000Y-142570000D01*
X124291100Y-135961100D02*
X125050000Y-136720000D01*
X134386100Y-130715000D02*
X136155000Y-130715000D01*
X133757706Y-122445000D02*
X134386100Y-122445000D01*
X107679999Y-135179999D02*
X106880000Y-134380000D01*
X124291100Y-134720000D02*
X124291100Y-135961100D01*
X119019999Y-134380001D02*
X120230000Y-133170000D01*
X117852500Y-141307500D02*
X118360000Y-140800000D01*
X134291348Y-139345000D02*
X134291348Y-136708652D01*
X109413900Y-133580000D02*
X106970000Y-133580000D01*
X136155000Y-130715000D02*
X136180000Y-130690000D01*
X92860000Y-138410000D02*
X92820000Y-138370000D01*
X136445000Y-122445000D02*
X136500000Y-122500000D01*
X117948300Y-134380001D02*
X119019999Y-134380001D01*
X138690000Y-130950000D02*
X138690000Y-131390000D01*
X86170000Y-140030000D02*
X86170000Y-136260000D01*
X100400000Y-120740000D02*
X100400000Y-121355000D01*
X109413900Y-135179999D02*
X107679999Y-135179999D01*
X134386100Y-122445000D02*
X136445000Y-122445000D01*
X110705000Y-147040000D02*
X110705000Y-145285000D01*
X129436100Y-130715000D02*
X131135000Y-130715000D01*
X121580000Y-137040000D02*
X121570000Y-137030000D01*
X83630000Y-142570000D02*
X86170000Y-140030000D01*
X131135000Y-130715000D02*
X131160000Y-130740000D01*
X134291348Y-136708652D02*
X134500000Y-136500000D01*
X121580000Y-138540000D02*
X121580000Y-137040000D01*
X110705000Y-145285000D02*
X110770000Y-145220000D01*
X106880000Y-134380000D02*
X106880000Y-133490000D01*
X94750000Y-138410000D02*
X94750000Y-139100000D01*
X106970000Y-133580000D02*
X106880000Y-133490000D01*
X94750000Y-138410000D02*
X92860000Y-138410000D01*
X117852500Y-142790000D02*
X117852500Y-141307500D01*
%TO.N,/Vcc*%
X140390000Y-127732500D02*
X140390000Y-130750000D01*
X107183600Y-120740000D02*
X108571100Y-122127500D01*
X129436100Y-129445000D02*
X128461101Y-129445000D01*
X134510000Y-129321100D02*
X134386100Y-129445000D01*
D27*
X117130000Y-147230000D02*
X117130000Y-146127500D01*
X115920000Y-135666900D02*
X117033101Y-136780001D01*
D26*
X129257500Y-143563848D02*
X128848652Y-143155000D01*
X86170000Y-123260000D02*
X88690000Y-120740000D01*
X129436100Y-122445000D02*
X129436100Y-123715000D01*
X108095000Y-147110000D02*
X108165000Y-147040000D01*
D27*
X117033101Y-136780001D02*
X117948300Y-136780001D01*
X111710001Y-134380001D02*
X112960000Y-135630000D01*
D26*
X124060000Y-121210000D02*
X123952588Y-121210000D01*
D27*
X119230001Y-136780001D02*
X117948300Y-136780001D01*
D26*
X129436100Y-121175000D02*
X129436100Y-122445000D01*
X129257500Y-145300000D02*
X129257500Y-143563848D01*
X129436100Y-128973900D02*
X129436100Y-129445000D01*
D27*
X119890000Y-137420000D02*
X119870000Y-137420000D01*
D26*
X127235000Y-129445000D02*
X129436100Y-129445000D01*
X124060000Y-126270000D02*
X127235000Y-129445000D01*
X131082500Y-148250000D02*
X131400000Y-148250000D01*
D27*
X115920000Y-135020000D02*
X115920000Y-135666900D01*
D26*
X134510000Y-127670000D02*
X134510000Y-129321100D01*
D27*
X119870000Y-137420000D02*
X119230001Y-136780001D01*
D26*
X131082500Y-147125000D02*
X129257500Y-145300000D01*
X124060000Y-121210000D02*
X124060000Y-123690000D01*
X129436100Y-121175000D02*
X134386100Y-121175000D01*
X100840000Y-118640000D02*
X102940000Y-120740000D01*
X129401100Y-121210000D02*
X129436100Y-121175000D01*
X124060000Y-121210000D02*
X129401100Y-121210000D01*
X122727588Y-119985000D02*
X110713600Y-119985000D01*
X137830000Y-128920000D02*
X137680000Y-129070000D01*
X131082500Y-148250000D02*
X131082500Y-147125000D01*
X130440000Y-127970000D02*
X129436100Y-128973900D01*
D27*
X121580000Y-141677500D02*
X117917500Y-145340000D01*
D26*
X127815000Y-131985000D02*
X129436100Y-131985000D01*
X127150000Y-130756101D02*
X127150000Y-131320000D01*
X128461101Y-129445000D02*
X127150000Y-130756101D01*
X140390000Y-130750000D02*
X140590000Y-130950000D01*
X138060000Y-121250000D02*
X134461100Y-121250000D01*
X124060000Y-123690000D02*
X124060000Y-126270000D01*
X86170000Y-131180000D02*
X86170000Y-123260000D01*
D27*
X121580000Y-140440000D02*
X121580000Y-141677500D01*
D26*
X103950000Y-147110000D02*
X108095000Y-147110000D01*
X110713600Y-119985000D02*
X108571100Y-122127500D01*
D27*
X121580000Y-140440000D02*
X119890000Y-138750000D01*
D26*
X134461100Y-121250000D02*
X134386100Y-121175000D01*
D27*
X109413900Y-134380001D02*
X111710001Y-134380001D01*
D26*
X131400000Y-148250000D02*
X132850000Y-146800000D01*
X88690000Y-120740000D02*
X90790000Y-118640000D01*
X137830000Y-127742500D02*
X137830000Y-128920000D01*
X140390000Y-127732500D02*
X137840000Y-127732500D01*
X102940000Y-120740000D02*
X107183600Y-120740000D01*
X90790000Y-118640000D02*
X100840000Y-118640000D01*
X127150000Y-131320000D02*
X127815000Y-131985000D01*
D27*
X119890000Y-138750000D02*
X119890000Y-137420000D01*
D26*
X123952588Y-121210000D02*
X122727588Y-119985000D01*
X137840000Y-127732500D02*
X137830000Y-127742500D01*
D27*
X117130000Y-146127500D02*
X117917500Y-145340000D01*
%TO.N,Net-(U3-AREF)*%
X121931101Y-135179999D02*
X117948300Y-135179999D01*
X122391100Y-134720000D02*
X121931101Y-135179999D01*
%TO.N,Net-(U3-PB7(PCINT7{slash}XTAL2{slash}TOSC2))*%
X100500000Y-138410000D02*
X100730000Y-138180000D01*
X100730000Y-138180000D02*
X108813899Y-138180000D01*
X96650000Y-138410000D02*
X100500000Y-138410000D01*
X108813899Y-138180000D02*
X109413900Y-137579999D01*
%TO.N,Net-(U3-PB6(PCINT6{slash}XTAL1{slash}TOSC1))*%
X97380000Y-132980000D02*
X100730000Y-132980000D01*
X100730000Y-132980000D02*
X104529999Y-136779999D01*
X96650000Y-132250000D02*
X97380000Y-132980000D01*
X104529999Y-136779999D02*
X109413900Y-136779999D01*
%TO.N,/SCK*%
X127720000Y-139947497D02*
X127720000Y-138199482D01*
X140390000Y-125907500D02*
X138197500Y-123715000D01*
X84855000Y-129955000D02*
X84855000Y-132495000D01*
X84290000Y-121420000D02*
X83610000Y-120740000D01*
X83610000Y-128710000D02*
X84855000Y-129955000D01*
X133411101Y-131985000D02*
X132620000Y-131193899D01*
X116887100Y-137579999D02*
X114081099Y-134773998D01*
X127720000Y-136462378D02*
X127720000Y-138199482D01*
X114081099Y-134771099D02*
X114081099Y-134773998D01*
X114081099Y-134773998D02*
X114081099Y-130512800D01*
X112480000Y-133170000D02*
X114081099Y-134771099D01*
X134386100Y-131985000D02*
X133411101Y-131985000D01*
X118222622Y-126965000D02*
X127720000Y-136462378D01*
X133595000Y-123715000D02*
X134386100Y-123715000D01*
X117948300Y-137579999D02*
X116887100Y-137579999D01*
X132620000Y-124690000D02*
X133595000Y-123715000D01*
X116296099Y-126965000D02*
X118222622Y-126965000D01*
X128848652Y-140615000D02*
X128387503Y-140615000D01*
X127720000Y-138199482D02*
X133934482Y-131985000D01*
X133934482Y-131985000D02*
X134386100Y-131985000D01*
X114081099Y-126856401D02*
X114081099Y-129180000D01*
X83610000Y-120740000D02*
X83610000Y-128710000D01*
X114081099Y-129180000D02*
X114081099Y-130512800D01*
X112480000Y-133010000D02*
X112480000Y-133170000D01*
X116127500Y-124810000D02*
X114081099Y-126856401D01*
X84855000Y-132495000D02*
X83630000Y-133720000D01*
X114081099Y-129180000D02*
X116296099Y-126965000D01*
X128387503Y-140615000D02*
X127720000Y-139947497D01*
X132620000Y-131193899D02*
X132620000Y-124690000D01*
X85413248Y-122543248D02*
X84290000Y-121420000D01*
X85543248Y-122543248D02*
X85413248Y-122543248D01*
X138197500Y-123715000D02*
X134386100Y-123715000D01*
%TO.N,Net-(D1-K)*%
X114237500Y-122220000D02*
X114237500Y-124795000D01*
X114237500Y-124795000D02*
X114252500Y-124810000D01*
%TO.N,Net-(D2-K)*%
X116042500Y-145340000D02*
X116042500Y-142805000D01*
X116042500Y-142805000D02*
X116027500Y-142790000D01*
%TO.N,/SDA*%
X118153455Y-128866545D02*
X117866910Y-128580000D01*
X126145000Y-150115000D02*
X123266100Y-147236100D01*
X106090000Y-117590000D02*
X107220000Y-118720000D01*
X117866910Y-128580000D02*
X115630000Y-128580000D01*
X135318600Y-125917500D02*
X134386100Y-124985000D01*
X123266100Y-147236100D02*
X123266100Y-133979190D01*
X141400000Y-145835000D02*
X137120000Y-150115000D01*
X123266100Y-133979190D02*
X118153455Y-128866545D01*
X128848652Y-139345000D02*
X128848652Y-138792448D01*
X89300000Y-117590000D02*
X106090000Y-117590000D01*
X137830000Y-125917500D02*
X135318600Y-125917500D01*
X134386100Y-133255000D02*
X137315000Y-133255000D01*
X137315000Y-133255000D02*
X141400000Y-137340000D01*
X136310000Y-129078859D02*
X136310000Y-127437500D01*
X137120000Y-150115000D02*
X126145000Y-150115000D01*
X118153455Y-128833455D02*
X118153455Y-128866545D01*
X115630000Y-128580000D02*
X114881100Y-129328900D01*
X128848652Y-138792448D02*
X134386100Y-133255000D01*
X137430000Y-130198859D02*
X136310000Y-129078859D01*
X86150000Y-120740000D02*
X89300000Y-117590000D01*
X136310000Y-127437500D02*
X137830000Y-125917500D01*
X114881100Y-129328900D02*
X114881100Y-130512800D01*
X137430000Y-131186099D02*
X137430000Y-130198859D01*
X141400000Y-137340000D02*
X141400000Y-145835000D01*
X135361099Y-133255000D02*
X137430000Y-131186099D01*
X134386100Y-133255000D02*
X135361099Y-133255000D01*
X117110000Y-127790000D02*
X118153455Y-128833455D01*
%TO.N,/TX*%
X111681101Y-129518919D02*
X105902182Y-123740000D01*
X98320000Y-123740000D02*
X95320000Y-120740000D01*
X111681101Y-130512800D02*
X111681101Y-129518919D01*
X105902182Y-123740000D02*
X98320000Y-123740000D01*
%TO.N,/RX*%
X100310000Y-123190000D02*
X106130000Y-123190000D01*
X106130000Y-123190000D02*
X112481100Y-129541100D01*
X112481100Y-129541100D02*
X112481100Y-130512800D01*
X97860000Y-120740000D02*
X100310000Y-123190000D01*
%TO.N,/D8*%
X113281101Y-139047200D02*
X113281101Y-140108400D01*
X113281101Y-140108400D02*
X108989501Y-144400000D01*
X108989501Y-144400000D02*
X104120000Y-144400000D01*
X104120000Y-144400000D02*
X101410000Y-147110000D01*
%TO.N,/D4*%
X109413900Y-132779999D02*
X108498698Y-132779999D01*
X104812182Y-128750000D02*
X94387818Y-128750000D01*
X91250000Y-131887818D02*
X91250000Y-147110000D01*
X94387818Y-128750000D02*
X91250000Y-131887818D01*
X108327700Y-132265518D02*
X104812182Y-128750000D01*
X108327700Y-132609001D02*
X108327700Y-132265518D01*
X108498698Y-132779999D02*
X108327700Y-132609001D01*
%TO.N,/D2*%
X90150000Y-140792182D02*
X86170000Y-144772182D01*
X86170000Y-144772182D02*
X86170000Y-147110000D01*
X108130618Y-130512800D02*
X105267818Y-127650000D01*
X110881101Y-130512800D02*
X108130618Y-130512800D01*
X105267818Y-127650000D02*
X93932182Y-127650000D01*
X90150000Y-131432182D02*
X90150000Y-140792182D01*
X93932182Y-127650000D02*
X90150000Y-131432182D01*
%TO.N,/D3*%
X105040000Y-128200000D02*
X94160000Y-128200000D01*
X88710000Y-143010000D02*
X88710000Y-147110000D01*
X90700000Y-141020000D02*
X88710000Y-143010000D01*
X94160000Y-128200000D02*
X90700000Y-131660000D01*
X90700000Y-131660000D02*
X90700000Y-141020000D01*
X108820001Y-131980001D02*
X105040000Y-128200000D01*
X109413900Y-131980001D02*
X108820001Y-131980001D01*
%TO.N,/D7*%
X112481100Y-140108400D02*
X108739500Y-143850000D01*
X112481100Y-139047200D02*
X112481100Y-140108400D01*
X102130000Y-143850000D02*
X98870000Y-147110000D01*
X108739500Y-143850000D02*
X102130000Y-143850000D01*
%TO.N,/D5*%
X110881101Y-140152763D02*
X108300000Y-142733864D01*
X98166136Y-142733864D02*
X93790000Y-147110000D01*
X110881101Y-139047200D02*
X110881101Y-140152763D01*
X108300000Y-142733864D02*
X98166136Y-142733864D01*
%TO.N,/D6*%
X108511682Y-143300000D02*
X100140000Y-143300000D01*
X100140000Y-143300000D02*
X96330000Y-147110000D01*
X111681099Y-140130583D02*
X108511682Y-143300000D01*
X111681099Y-139047200D02*
X111681099Y-140130583D01*
%TO.N,/MISO*%
X80945000Y-133865000D02*
X83630000Y-131180000D01*
X110302818Y-150115000D02*
X83062781Y-150115000D01*
X112530000Y-147887818D02*
X110302818Y-150115000D01*
X116481099Y-139047200D02*
X116481099Y-140108400D01*
X116481099Y-140108400D02*
X112530000Y-144059499D01*
X80945000Y-147997219D02*
X80945000Y-133865000D01*
X112530000Y-144059499D02*
X112530000Y-147887818D01*
X83062781Y-150115000D02*
X80945000Y-147997219D01*
%TO.N,/RESET*%
X108571100Y-123952500D02*
X109292500Y-123952500D01*
X109292500Y-123952500D02*
X110400000Y-125060000D01*
X110400000Y-125060000D02*
X113281101Y-127941101D01*
X109743364Y-125636636D02*
X110320000Y-125060000D01*
X113281101Y-127941101D02*
X113281101Y-130512800D01*
X110320000Y-125060000D02*
X110400000Y-125060000D01*
%TO.N,/MOSI*%
X84945000Y-134945000D02*
X86170000Y-133720000D01*
X81580000Y-147854401D02*
X81580000Y-135690000D01*
X81580000Y-135690000D02*
X82325000Y-134945000D01*
X115681099Y-139047200D02*
X115681099Y-139858901D01*
X111980000Y-143560000D02*
X111980000Y-147660000D01*
X83290599Y-149565000D02*
X81580000Y-147854401D01*
X115681099Y-139858901D02*
X111980000Y-143560000D01*
X111980000Y-147660000D02*
X110075000Y-149565000D01*
X110075000Y-149565000D02*
X83290599Y-149565000D01*
X82325000Y-134945000D02*
X84945000Y-134945000D01*
%TO.N,/inta*%
X131082500Y-143362699D02*
X131082500Y-145300000D01*
X134291348Y-140615000D02*
X133830199Y-140615000D01*
X133830199Y-140615000D02*
X131082500Y-143362699D01*
%TO.N,Net-(U4-SQW{slash}\u002AINTB)*%
X128848652Y-141885000D02*
X128387503Y-141885000D01*
X128387503Y-141885000D02*
X127696203Y-142576300D01*
X127696203Y-146688703D02*
X129257500Y-148250000D01*
X127696203Y-142576300D02*
X127696203Y-146688703D01*
%TO.N,Net-(U4-X2)*%
X136635000Y-141885000D02*
X134291348Y-141885000D01*
X139440000Y-139080000D02*
X136635000Y-141885000D01*
%TO.N,Net-(U4-X1)*%
X135416348Y-144280000D02*
X134291348Y-143155000D01*
X139440000Y-144280000D02*
X135416348Y-144280000D01*
%TD*%
%TA.AperFunction,Conductor*%
%TO.N,GND*%
G36*
X124484139Y-134739685D02*
G01*
X124529894Y-134792489D01*
X124541100Y-134844000D01*
X124541100Y-135944999D01*
X124591072Y-135944999D01*
X124591086Y-135944998D01*
X124693797Y-135934505D01*
X124860219Y-135879358D01*
X124860224Y-135879356D01*
X125009445Y-135787315D01*
X125133415Y-135663345D01*
X125225456Y-135514124D01*
X125225458Y-135514119D01*
X125280605Y-135347697D01*
X125280606Y-135347689D01*
X125288326Y-135272124D01*
X125314721Y-135207432D01*
X125371902Y-135167280D01*
X125441713Y-135164416D01*
X125499365Y-135197044D01*
X127008181Y-136705860D01*
X127041666Y-136767183D01*
X127044500Y-136793541D01*
X127044500Y-140014032D01*
X127070457Y-140144525D01*
X127070459Y-140144533D01*
X127121378Y-140267462D01*
X127121383Y-140267472D01*
X127195304Y-140378102D01*
X127195307Y-140378106D01*
X127584383Y-140767181D01*
X127617868Y-140828504D01*
X127620702Y-140854860D01*
X127620702Y-140929169D01*
X127620703Y-140929176D01*
X127627110Y-140988783D01*
X127677404Y-141123628D01*
X127677408Y-141123635D01*
X127716376Y-141175690D01*
X127740793Y-141241154D01*
X127725941Y-141309427D01*
X127716376Y-141324310D01*
X127677408Y-141376364D01*
X127677404Y-141376371D01*
X127627110Y-141511217D01*
X127624041Y-141539770D01*
X127620703Y-141570823D01*
X127620702Y-141570835D01*
X127620702Y-141645137D01*
X127601017Y-141712176D01*
X127584383Y-141732818D01*
X127171510Y-142145690D01*
X127171507Y-142145694D01*
X127097586Y-142256324D01*
X127097581Y-142256334D01*
X127046662Y-142379263D01*
X127046660Y-142379271D01*
X127025624Y-142485029D01*
X127025624Y-142485032D01*
X127020703Y-142509768D01*
X127020703Y-146755238D01*
X127046660Y-146885731D01*
X127046662Y-146885739D01*
X127097581Y-147008668D01*
X127097586Y-147008678D01*
X127171507Y-147119308D01*
X127171510Y-147119312D01*
X128208181Y-148155982D01*
X128241666Y-148217305D01*
X128244500Y-148243663D01*
X128244500Y-148750001D01*
X128244501Y-148750019D01*
X128255000Y-148852796D01*
X128255001Y-148852799D01*
X128310185Y-149019331D01*
X128310187Y-149019336D01*
X128344999Y-149075776D01*
X128351291Y-149085977D01*
X128402289Y-149168657D01*
X128461451Y-149227819D01*
X128494936Y-149289142D01*
X128489952Y-149358834D01*
X128448080Y-149414767D01*
X128382616Y-149439184D01*
X128373770Y-149439500D01*
X126476163Y-149439500D01*
X126409124Y-149419815D01*
X126388482Y-149403181D01*
X123977919Y-146992618D01*
X123944434Y-146931295D01*
X123941600Y-146904937D01*
X123941600Y-136068998D01*
X123961285Y-136001959D01*
X124014089Y-135956204D01*
X124034289Y-135951809D01*
X124041100Y-135944998D01*
X124041100Y-134844000D01*
X124060785Y-134776961D01*
X124113589Y-134731206D01*
X124165100Y-134720000D01*
X124417100Y-134720000D01*
X124484139Y-134739685D01*
G37*
%TD.AperFunction*%
%TA.AperFunction,Conductor*%
G36*
X83880000Y-148460000D02*
G01*
X84527828Y-148460000D01*
X84527844Y-148459999D01*
X84587372Y-148453598D01*
X84587379Y-148453596D01*
X84722086Y-148403354D01*
X84722093Y-148403350D01*
X84837187Y-148317190D01*
X84837190Y-148317187D01*
X84923350Y-148202093D01*
X84923354Y-148202086D01*
X84972422Y-148070529D01*
X85014293Y-148014595D01*
X85079757Y-147990178D01*
X85148030Y-148005030D01*
X85176285Y-148026181D01*
X85298599Y-148148495D01*
X85392304Y-148214108D01*
X85492165Y-148284032D01*
X85492167Y-148284033D01*
X85492170Y-148284035D01*
X85706337Y-148383903D01*
X85706343Y-148383904D01*
X85706344Y-148383905D01*
X85741109Y-148393220D01*
X85934592Y-148445063D01*
X86122918Y-148461539D01*
X86169999Y-148465659D01*
X86170000Y-148465659D01*
X86170001Y-148465659D01*
X86209234Y-148462226D01*
X86405408Y-148445063D01*
X86633663Y-148383903D01*
X86847830Y-148284035D01*
X87041401Y-148148495D01*
X87208495Y-147981401D01*
X87338425Y-147795842D01*
X87393002Y-147752217D01*
X87462500Y-147745023D01*
X87524855Y-147776546D01*
X87541575Y-147795842D01*
X87664395Y-147971248D01*
X87671505Y-147981401D01*
X87838599Y-148148495D01*
X87932304Y-148214108D01*
X88032165Y-148284032D01*
X88032167Y-148284033D01*
X88032170Y-148284035D01*
X88246337Y-148383903D01*
X88246343Y-148383904D01*
X88246344Y-148383905D01*
X88281109Y-148393220D01*
X88474592Y-148445063D01*
X88662918Y-148461539D01*
X88709999Y-148465659D01*
X88710000Y-148465659D01*
X88710001Y-148465659D01*
X88749234Y-148462226D01*
X88945408Y-148445063D01*
X89173663Y-148383903D01*
X89387830Y-148284035D01*
X89581401Y-148148495D01*
X89748495Y-147981401D01*
X89878425Y-147795842D01*
X89933002Y-147752217D01*
X90002500Y-147745023D01*
X90064855Y-147776546D01*
X90081575Y-147795842D01*
X90204395Y-147971248D01*
X90211505Y-147981401D01*
X90378599Y-148148495D01*
X90472304Y-148214108D01*
X90572165Y-148284032D01*
X90572167Y-148284033D01*
X90572170Y-148284035D01*
X90786337Y-148383903D01*
X90786343Y-148383904D01*
X90786344Y-148383905D01*
X90821109Y-148393220D01*
X91014592Y-148445063D01*
X91202918Y-148461539D01*
X91249999Y-148465659D01*
X91250000Y-148465659D01*
X91250001Y-148465659D01*
X91289234Y-148462226D01*
X91485408Y-148445063D01*
X91713663Y-148383903D01*
X91927830Y-148284035D01*
X92121401Y-148148495D01*
X92288495Y-147981401D01*
X92418425Y-147795842D01*
X92473002Y-147752217D01*
X92542500Y-147745023D01*
X92604855Y-147776546D01*
X92621575Y-147795842D01*
X92744395Y-147971248D01*
X92751505Y-147981401D01*
X92918599Y-148148495D01*
X93012304Y-148214108D01*
X93112165Y-148284032D01*
X93112167Y-148284033D01*
X93112170Y-148284035D01*
X93326337Y-148383903D01*
X93326343Y-148383904D01*
X93326344Y-148383905D01*
X93361109Y-148393220D01*
X93554592Y-148445063D01*
X93742918Y-148461539D01*
X93789999Y-148465659D01*
X93790000Y-148465659D01*
X93790001Y-148465659D01*
X93829234Y-148462226D01*
X94025408Y-148445063D01*
X94253663Y-148383903D01*
X94467830Y-148284035D01*
X94661401Y-148148495D01*
X94828495Y-147981401D01*
X94958425Y-147795842D01*
X95013002Y-147752217D01*
X95082500Y-147745023D01*
X95144855Y-147776546D01*
X95161575Y-147795842D01*
X95284395Y-147971248D01*
X95291505Y-147981401D01*
X95458599Y-148148495D01*
X95552304Y-148214108D01*
X95652165Y-148284032D01*
X95652167Y-148284033D01*
X95652170Y-148284035D01*
X95866337Y-148383903D01*
X95866343Y-148383904D01*
X95866344Y-148383905D01*
X95901109Y-148393220D01*
X96094592Y-148445063D01*
X96282918Y-148461539D01*
X96329999Y-148465659D01*
X96330000Y-148465659D01*
X96330001Y-148465659D01*
X96369234Y-148462226D01*
X96565408Y-148445063D01*
X96793663Y-148383903D01*
X97007830Y-148284035D01*
X97201401Y-148148495D01*
X97368495Y-147981401D01*
X97498425Y-147795842D01*
X97553002Y-147752217D01*
X97622500Y-147745023D01*
X97684855Y-147776546D01*
X97701575Y-147795842D01*
X97824395Y-147971248D01*
X97831505Y-147981401D01*
X97998599Y-148148495D01*
X98092304Y-148214108D01*
X98192165Y-148284032D01*
X98192167Y-148284033D01*
X98192170Y-148284035D01*
X98406337Y-148383903D01*
X98406343Y-148383904D01*
X98406344Y-148383905D01*
X98441109Y-148393220D01*
X98634592Y-148445063D01*
X98822918Y-148461539D01*
X98869999Y-148465659D01*
X98870000Y-148465659D01*
X98870001Y-148465659D01*
X98909234Y-148462226D01*
X99105408Y-148445063D01*
X99333663Y-148383903D01*
X99547830Y-148284035D01*
X99741401Y-148148495D01*
X99908495Y-147981401D01*
X100038425Y-147795842D01*
X100093002Y-147752217D01*
X100162500Y-147745023D01*
X100224855Y-147776546D01*
X100241575Y-147795842D01*
X100364395Y-147971248D01*
X100371505Y-147981401D01*
X100538599Y-148148495D01*
X100632304Y-148214108D01*
X100732165Y-148284032D01*
X100732167Y-148284033D01*
X100732170Y-148284035D01*
X100946337Y-148383903D01*
X100946343Y-148383904D01*
X100946344Y-148383905D01*
X100981109Y-148393220D01*
X101174592Y-148445063D01*
X101362918Y-148461539D01*
X101409999Y-148465659D01*
X101410000Y-148465659D01*
X101410001Y-148465659D01*
X101449234Y-148462226D01*
X101645408Y-148445063D01*
X101873663Y-148383903D01*
X102087830Y-148284035D01*
X102281401Y-148148495D01*
X102448495Y-147981401D01*
X102578425Y-147795842D01*
X102633002Y-147752217D01*
X102702500Y-147745023D01*
X102764855Y-147776546D01*
X102781575Y-147795842D01*
X102904395Y-147971248D01*
X102911505Y-147981401D01*
X103078599Y-148148495D01*
X103172304Y-148214108D01*
X103272165Y-148284032D01*
X103272167Y-148284033D01*
X103272170Y-148284035D01*
X103486337Y-148383903D01*
X103486343Y-148383904D01*
X103486344Y-148383905D01*
X103521109Y-148393220D01*
X103714592Y-148445063D01*
X103902918Y-148461539D01*
X103949999Y-148465659D01*
X103950000Y-148465659D01*
X103950001Y-148465659D01*
X103989234Y-148462226D01*
X104185408Y-148445063D01*
X104413663Y-148383903D01*
X104627830Y-148284035D01*
X104821401Y-148148495D01*
X104988495Y-147981401D01*
X105036127Y-147913376D01*
X105090704Y-147869751D01*
X105137701Y-147860500D01*
X106694799Y-147860500D01*
X106761838Y-147880185D01*
X106807593Y-147932989D01*
X106818089Y-147971248D01*
X106820908Y-147997483D01*
X106871202Y-148132328D01*
X106871206Y-148132335D01*
X106957452Y-148247544D01*
X106957455Y-148247547D01*
X107072664Y-148333793D01*
X107072671Y-148333797D01*
X107207517Y-148384091D01*
X107207516Y-148384091D01*
X107214444Y-148384835D01*
X107267127Y-148390500D01*
X109062872Y-148390499D01*
X109122483Y-148384091D01*
X109257331Y-148333796D01*
X109372546Y-148247546D01*
X109458796Y-148132331D01*
X109508002Y-148000401D01*
X109549872Y-147944468D01*
X109615337Y-147920050D01*
X109683610Y-147934901D01*
X109711865Y-147956053D01*
X109833917Y-148078105D01*
X110027421Y-148213600D01*
X110169504Y-148279854D01*
X110221943Y-148326026D01*
X110241095Y-148393220D01*
X110220879Y-148460101D01*
X110204780Y-148479917D01*
X109831518Y-148853181D01*
X109770195Y-148886666D01*
X109743837Y-148889500D01*
X83621762Y-148889500D01*
X83554723Y-148869815D01*
X83534081Y-148853181D01*
X83348131Y-148667231D01*
X83314646Y-148605908D01*
X83319630Y-148536216D01*
X83348131Y-148491869D01*
X83380000Y-148460000D01*
X83380000Y-147543012D01*
X83437007Y-147575925D01*
X83564174Y-147610000D01*
X83695826Y-147610000D01*
X83822993Y-147575925D01*
X83880000Y-147543012D01*
X83880000Y-148460000D01*
G37*
%TD.AperFunction*%
%TA.AperFunction,Conductor*%
G36*
X94038038Y-119410185D02*
G01*
X94083793Y-119462989D01*
X94093737Y-119532147D01*
X94070265Y-119588810D01*
X94050238Y-119615562D01*
X94026204Y-119647668D01*
X94026202Y-119647671D01*
X93975908Y-119782517D01*
X93969501Y-119842116D01*
X93969500Y-119842135D01*
X93969500Y-121637870D01*
X93969501Y-121637876D01*
X93975908Y-121697483D01*
X94026202Y-121832328D01*
X94026206Y-121832335D01*
X94112452Y-121947544D01*
X94112455Y-121947547D01*
X94227664Y-122033793D01*
X94227671Y-122033797D01*
X94362517Y-122084091D01*
X94362516Y-122084091D01*
X94369444Y-122084835D01*
X94422127Y-122090500D01*
X95663836Y-122090499D01*
X95730875Y-122110184D01*
X95751517Y-122126818D01*
X97795305Y-124170606D01*
X97889394Y-124264695D01*
X97889397Y-124264697D01*
X97889398Y-124264698D01*
X98000020Y-124338613D01*
X98000024Y-124338615D01*
X98000031Y-124338620D01*
X98036037Y-124353534D01*
X98122964Y-124389541D01*
X98226749Y-124410185D01*
X98253464Y-124415499D01*
X98253468Y-124415500D01*
X98253469Y-124415500D01*
X105571019Y-124415500D01*
X105638058Y-124435185D01*
X105658700Y-124451819D01*
X110386471Y-129179590D01*
X110419956Y-129240913D01*
X110414972Y-129310605D01*
X110373102Y-129366537D01*
X110269553Y-129444055D01*
X110183307Y-129559264D01*
X110183303Y-129559271D01*
X110133009Y-129694116D01*
X110129522Y-129726556D01*
X110102784Y-129791107D01*
X110045391Y-129830955D01*
X110006233Y-129837300D01*
X108461781Y-129837300D01*
X108394742Y-129817615D01*
X108374100Y-129800981D01*
X105698427Y-127125307D01*
X105698423Y-127125304D01*
X105587793Y-127051383D01*
X105587783Y-127051378D01*
X105464854Y-127000459D01*
X105464846Y-127000457D01*
X105334353Y-126974500D01*
X105334349Y-126974500D01*
X93998713Y-126974500D01*
X93865651Y-126974500D01*
X93865649Y-126974500D01*
X93735151Y-127000458D01*
X93735141Y-127000461D01*
X93612220Y-127051376D01*
X93612202Y-127051386D01*
X93501580Y-127125301D01*
X93501572Y-127125307D01*
X89625307Y-131001572D01*
X89625304Y-131001576D01*
X89551383Y-131112206D01*
X89551378Y-131112216D01*
X89500459Y-131235145D01*
X89500457Y-131235153D01*
X89479791Y-131339051D01*
X89479791Y-131339053D01*
X89477145Y-131352352D01*
X89474500Y-131365650D01*
X89474500Y-140461018D01*
X89454815Y-140528057D01*
X89438181Y-140548699D01*
X85645307Y-144341572D01*
X85645304Y-144341576D01*
X85571383Y-144452206D01*
X85571378Y-144452216D01*
X85520459Y-144575145D01*
X85520457Y-144575153D01*
X85497522Y-144690457D01*
X85497522Y-144690461D01*
X85494500Y-144705651D01*
X85494500Y-145869783D01*
X85474815Y-145936822D01*
X85441624Y-145971358D01*
X85298597Y-146071505D01*
X85176284Y-146193819D01*
X85114961Y-146227303D01*
X85045269Y-146222319D01*
X84989336Y-146180447D01*
X84972421Y-146149470D01*
X84923354Y-146017913D01*
X84923350Y-146017906D01*
X84837190Y-145902812D01*
X84837187Y-145902809D01*
X84722093Y-145816649D01*
X84722086Y-145816645D01*
X84587379Y-145766403D01*
X84587372Y-145766401D01*
X84527844Y-145760000D01*
X83880000Y-145760000D01*
X83880000Y-146676988D01*
X83822993Y-146644075D01*
X83695826Y-146610000D01*
X83564174Y-146610000D01*
X83437007Y-146644075D01*
X83380000Y-146676988D01*
X83380000Y-145760000D01*
X82732155Y-145760000D01*
X82672627Y-145766401D01*
X82672620Y-145766403D01*
X82537913Y-145816645D01*
X82537910Y-145816647D01*
X82453811Y-145879604D01*
X82388347Y-145904021D01*
X82320074Y-145889169D01*
X82270668Y-145839764D01*
X82255500Y-145780337D01*
X82255500Y-137044814D01*
X82275185Y-136977775D01*
X82327989Y-136932020D01*
X82397147Y-136922076D01*
X82460703Y-136951101D01*
X82481075Y-136973691D01*
X82591281Y-137131082D01*
X82591505Y-137131401D01*
X82758599Y-137298495D01*
X82837106Y-137353466D01*
X82952165Y-137434032D01*
X82952167Y-137434033D01*
X82952170Y-137434035D01*
X83166337Y-137533903D01*
X83166343Y-137533904D01*
X83166344Y-137533905D01*
X83189095Y-137540001D01*
X83394592Y-137595063D01*
X83571034Y-137610500D01*
X83629999Y-137615659D01*
X83630000Y-137615659D01*
X83630001Y-137615659D01*
X83688966Y-137610500D01*
X83865408Y-137595063D01*
X84093663Y-137533903D01*
X84307830Y-137434035D01*
X84501401Y-137298495D01*
X84668495Y-137131401D01*
X84798730Y-136945405D01*
X84853307Y-136901781D01*
X84922805Y-136894587D01*
X84985160Y-136926110D01*
X85001879Y-136945405D01*
X85131890Y-137131078D01*
X85298917Y-137298105D01*
X85492421Y-137433600D01*
X85706507Y-137533429D01*
X85706516Y-137533433D01*
X85920000Y-137590634D01*
X85920000Y-136693012D01*
X85977007Y-136725925D01*
X86104174Y-136760000D01*
X86235826Y-136760000D01*
X86362993Y-136725925D01*
X86420000Y-136693012D01*
X86420000Y-137590633D01*
X86633483Y-137533433D01*
X86633492Y-137533429D01*
X86847578Y-137433600D01*
X87041082Y-137298105D01*
X87208105Y-137131082D01*
X87343600Y-136937578D01*
X87443429Y-136723492D01*
X87443432Y-136723486D01*
X87500636Y-136510000D01*
X86603012Y-136510000D01*
X86635925Y-136452993D01*
X86670000Y-136325826D01*
X86670000Y-136194174D01*
X86635925Y-136067007D01*
X86603012Y-136010000D01*
X87500636Y-136010000D01*
X87500635Y-136009999D01*
X87443432Y-135796513D01*
X87443429Y-135796507D01*
X87343600Y-135582422D01*
X87343599Y-135582420D01*
X87208113Y-135388926D01*
X87208108Y-135388920D01*
X87041078Y-135221890D01*
X86855405Y-135091879D01*
X86811780Y-135037302D01*
X86804588Y-134967804D01*
X86836110Y-134905449D01*
X86855406Y-134888730D01*
X86919287Y-134844000D01*
X87041401Y-134758495D01*
X87208495Y-134591401D01*
X87344035Y-134397830D01*
X87443903Y-134183663D01*
X87505063Y-133955408D01*
X87525659Y-133720000D01*
X87525484Y-133718005D01*
X87516542Y-133615797D01*
X87505063Y-133484592D01*
X87449742Y-133278127D01*
X87443905Y-133256344D01*
X87443904Y-133256343D01*
X87443903Y-133256337D01*
X87344035Y-133042171D01*
X87318007Y-133004998D01*
X87208494Y-132848597D01*
X87041402Y-132681506D01*
X87041396Y-132681501D01*
X86855842Y-132551575D01*
X86812217Y-132496998D01*
X86805023Y-132427500D01*
X86836546Y-132365145D01*
X86855842Y-132348425D01*
X86950888Y-132281873D01*
X87041401Y-132218495D01*
X87208495Y-132051401D01*
X87344035Y-131857830D01*
X87443903Y-131643663D01*
X87505063Y-131415408D01*
X87525659Y-131180000D01*
X87505063Y-130944592D01*
X87443903Y-130716337D01*
X87344035Y-130502171D01*
X87327573Y-130478660D01*
X87208494Y-130308597D01*
X87041404Y-130141507D01*
X86973375Y-130093872D01*
X86929751Y-130039294D01*
X86920500Y-129992298D01*
X86920500Y-123622228D01*
X86940185Y-123555189D01*
X86956814Y-123534552D01*
X88378498Y-122112867D01*
X88439819Y-122079384D01*
X88476983Y-122077022D01*
X88616449Y-122089224D01*
X88689999Y-122095659D01*
X88690000Y-122095659D01*
X88690001Y-122095659D01*
X88748966Y-122090500D01*
X88925408Y-122075063D01*
X89153663Y-122013903D01*
X89367830Y-121914035D01*
X89561401Y-121778495D01*
X89683717Y-121656178D01*
X89745036Y-121622696D01*
X89814728Y-121627680D01*
X89870662Y-121669551D01*
X89887577Y-121700528D01*
X89936646Y-121832088D01*
X89936649Y-121832093D01*
X90022809Y-121947187D01*
X90022812Y-121947190D01*
X90137906Y-122033350D01*
X90137913Y-122033354D01*
X90272620Y-122083596D01*
X90272627Y-122083598D01*
X90332155Y-122089999D01*
X90332172Y-122090000D01*
X90980000Y-122090000D01*
X90980000Y-121173012D01*
X91037007Y-121205925D01*
X91164174Y-121240000D01*
X91295826Y-121240000D01*
X91422993Y-121205925D01*
X91480000Y-121173012D01*
X91480000Y-122090000D01*
X92127828Y-122090000D01*
X92127844Y-122089999D01*
X92187372Y-122083598D01*
X92187379Y-122083596D01*
X92322086Y-122033354D01*
X92322093Y-122033350D01*
X92437187Y-121947190D01*
X92437190Y-121947187D01*
X92523350Y-121832093D01*
X92523354Y-121832086D01*
X92573596Y-121697379D01*
X92573598Y-121697372D01*
X92579999Y-121637844D01*
X92580000Y-121637827D01*
X92580000Y-120990000D01*
X91663012Y-120990000D01*
X91695925Y-120932993D01*
X91730000Y-120805826D01*
X91730000Y-120674174D01*
X91695925Y-120547007D01*
X91663012Y-120490000D01*
X92580000Y-120490000D01*
X92580000Y-119842172D01*
X92579999Y-119842155D01*
X92573598Y-119782627D01*
X92573596Y-119782620D01*
X92523354Y-119647913D01*
X92523352Y-119647910D01*
X92479111Y-119588812D01*
X92454693Y-119523348D01*
X92469544Y-119455074D01*
X92518949Y-119405669D01*
X92578377Y-119390500D01*
X93970999Y-119390500D01*
X94038038Y-119410185D01*
G37*
%TD.AperFunction*%
%TA.AperFunction,Conductor*%
G36*
X111267183Y-143180133D02*
G01*
X111323116Y-143222005D01*
X111347533Y-143287469D01*
X111338411Y-143343766D01*
X111330459Y-143362962D01*
X111330459Y-143362964D01*
X111310983Y-143460879D01*
X111310983Y-143460880D01*
X111304500Y-143493468D01*
X111304500Y-145641412D01*
X111284815Y-145708451D01*
X111232011Y-145754206D01*
X111162853Y-145764150D01*
X111148406Y-145761187D01*
X110955000Y-145709364D01*
X110955000Y-146606988D01*
X110897993Y-146574075D01*
X110770826Y-146540000D01*
X110639174Y-146540000D01*
X110512007Y-146574075D01*
X110455000Y-146606988D01*
X110455000Y-145709364D01*
X110454999Y-145709364D01*
X110241513Y-145766567D01*
X110241507Y-145766570D01*
X110027422Y-145866399D01*
X110027420Y-145866400D01*
X109833926Y-146001886D01*
X109711865Y-146123947D01*
X109650542Y-146157431D01*
X109580850Y-146152447D01*
X109524917Y-146110575D01*
X109508002Y-146079598D01*
X109507358Y-146077872D01*
X109479018Y-146001886D01*
X109458797Y-145947671D01*
X109458793Y-145947664D01*
X109372547Y-145832455D01*
X109372544Y-145832452D01*
X109257335Y-145746206D01*
X109257328Y-145746202D01*
X109122482Y-145695908D01*
X109122483Y-145695908D01*
X109062883Y-145689501D01*
X109062881Y-145689500D01*
X109062873Y-145689500D01*
X109062864Y-145689500D01*
X107267129Y-145689500D01*
X107267123Y-145689501D01*
X107207516Y-145695908D01*
X107072671Y-145746202D01*
X107072664Y-145746206D01*
X106957455Y-145832452D01*
X106957452Y-145832455D01*
X106871206Y-145947664D01*
X106871202Y-145947671D01*
X106820908Y-146082517D01*
X106814501Y-146142116D01*
X106814500Y-146142135D01*
X106814500Y-146235500D01*
X106794815Y-146302539D01*
X106742011Y-146348294D01*
X106690500Y-146359500D01*
X105137701Y-146359500D01*
X105070662Y-146339815D01*
X105036126Y-146306623D01*
X104988494Y-146238597D01*
X104821402Y-146071506D01*
X104821395Y-146071501D01*
X104627834Y-145935967D01*
X104627830Y-145935965D01*
X104598562Y-145922317D01*
X104413663Y-145836097D01*
X104413659Y-145836096D01*
X104413655Y-145836094D01*
X104185413Y-145774938D01*
X104185403Y-145774936D01*
X104004291Y-145759090D01*
X103939222Y-145733637D01*
X103898244Y-145677046D01*
X103894366Y-145607284D01*
X103927416Y-145547883D01*
X104363482Y-145111819D01*
X104424805Y-145078334D01*
X104451163Y-145075500D01*
X109056033Y-145075500D01*
X109056034Y-145075499D01*
X109186537Y-145049541D01*
X109309470Y-144998620D01*
X109420107Y-144924695D01*
X111136168Y-143208634D01*
X111197491Y-143175149D01*
X111267183Y-143180133D01*
G37*
%TD.AperFunction*%
%TA.AperFunction,Conductor*%
G36*
X104548058Y-129445185D02*
G01*
X104568700Y-129461819D01*
X107615881Y-132509000D01*
X107649366Y-132570323D01*
X107652200Y-132596681D01*
X107652200Y-132675536D01*
X107678157Y-132806029D01*
X107678159Y-132806037D01*
X107729078Y-132928966D01*
X107729083Y-132928976D01*
X107803004Y-133039606D01*
X107803007Y-133039610D01*
X107974003Y-133210605D01*
X108068092Y-133304694D01*
X108068095Y-133304696D01*
X108068096Y-133304697D01*
X108178726Y-133378618D01*
X108178730Y-133378620D01*
X108209939Y-133391547D01*
X108209940Y-133391547D01*
X108301662Y-133429540D01*
X108402419Y-133449581D01*
X108452536Y-133471931D01*
X108460369Y-133477795D01*
X108460370Y-133477795D01*
X108464297Y-133480735D01*
X108506166Y-133536671D01*
X108511147Y-133606363D01*
X108477659Y-133667684D01*
X108464294Y-133679265D01*
X108345154Y-133768454D01*
X108345150Y-133768458D01*
X108336280Y-133780309D01*
X108280347Y-133822181D01*
X108237012Y-133830000D01*
X108202700Y-133830000D01*
X108202700Y-133881844D01*
X108209101Y-133941372D01*
X108210887Y-133948930D01*
X108208056Y-133949598D01*
X108212061Y-134005653D01*
X108209948Y-134012848D01*
X108208608Y-134018521D01*
X108202201Y-134078118D01*
X108202200Y-134078137D01*
X108202200Y-134681871D01*
X108202201Y-134681877D01*
X108208609Y-134741488D01*
X108210392Y-134749032D01*
X108207955Y-134749607D01*
X108212059Y-134807088D01*
X108210872Y-134811132D01*
X108209101Y-134818626D01*
X108202700Y-134878154D01*
X108202700Y-134929999D01*
X108237009Y-134929999D01*
X108304048Y-134949684D01*
X108336275Y-134979687D01*
X108345150Y-134991543D01*
X108345152Y-134991545D01*
X108345154Y-134991547D01*
X108345157Y-134991549D01*
X108464291Y-135080734D01*
X108506162Y-135136668D01*
X108511146Y-135206359D01*
X108477660Y-135267682D01*
X108464292Y-135279266D01*
X108345154Y-135368453D01*
X108345150Y-135368457D01*
X108336280Y-135380308D01*
X108280347Y-135422180D01*
X108237012Y-135429999D01*
X108202700Y-135429999D01*
X108202700Y-135481843D01*
X108209101Y-135541371D01*
X108210887Y-135548929D01*
X108208056Y-135549597D01*
X108212061Y-135605652D01*
X108209948Y-135612847D01*
X108208608Y-135618520D01*
X108207374Y-135630000D01*
X108202200Y-135678127D01*
X108202200Y-135879814D01*
X108202201Y-135980499D01*
X108182517Y-136047538D01*
X108129713Y-136093293D01*
X108078201Y-136104499D01*
X104861162Y-136104499D01*
X104794123Y-136084814D01*
X104773481Y-136068180D01*
X102466818Y-133761517D01*
X102433333Y-133700194D01*
X102430499Y-133673836D01*
X102430499Y-131182129D01*
X102430498Y-131182123D01*
X102430497Y-131182116D01*
X102425299Y-131133757D01*
X102424091Y-131122516D01*
X102373797Y-130987671D01*
X102373793Y-130987664D01*
X102287547Y-130872455D01*
X102287544Y-130872452D01*
X102172335Y-130786206D01*
X102172328Y-130786202D01*
X102037482Y-130735908D01*
X102037483Y-130735908D01*
X101977883Y-130729501D01*
X101977881Y-130729500D01*
X101977873Y-130729500D01*
X101977864Y-130729500D01*
X99482129Y-130729500D01*
X99482123Y-130729501D01*
X99422516Y-130735908D01*
X99287671Y-130786202D01*
X99287664Y-130786206D01*
X99172455Y-130872452D01*
X99172452Y-130872455D01*
X99086206Y-130987664D01*
X99086202Y-130987671D01*
X99035908Y-131122517D01*
X99029501Y-131182116D01*
X99029501Y-131182123D01*
X99029500Y-131182135D01*
X99029500Y-132180500D01*
X99009815Y-132247539D01*
X98957011Y-132293294D01*
X98905500Y-132304500D01*
X97774499Y-132304500D01*
X97707460Y-132284815D01*
X97661705Y-132232011D01*
X97650499Y-132180500D01*
X97650499Y-131724998D01*
X97650498Y-131724981D01*
X97639999Y-131622203D01*
X97639998Y-131622200D01*
X97624227Y-131574606D01*
X97584814Y-131455666D01*
X97492712Y-131306344D01*
X97368656Y-131182288D01*
X97219334Y-131090186D01*
X97052797Y-131035001D01*
X97052795Y-131035000D01*
X96950010Y-131024500D01*
X96349998Y-131024500D01*
X96349980Y-131024501D01*
X96247203Y-131035000D01*
X96247200Y-131035001D01*
X96080668Y-131090185D01*
X96080663Y-131090187D01*
X95931342Y-131182289D01*
X95807288Y-131306343D01*
X95807283Y-131306349D01*
X95805241Y-131309661D01*
X95803247Y-131311453D01*
X95802807Y-131312011D01*
X95802711Y-131311935D01*
X95753291Y-131356383D01*
X95684328Y-131367602D01*
X95620247Y-131339755D01*
X95594168Y-131309656D01*
X95592319Y-131306659D01*
X95592316Y-131306655D01*
X95468345Y-131182684D01*
X95319124Y-131090643D01*
X95319119Y-131090641D01*
X95152697Y-131035494D01*
X95152690Y-131035493D01*
X95049986Y-131025000D01*
X95000000Y-131025000D01*
X95000000Y-133474999D01*
X95049972Y-133474999D01*
X95049986Y-133474998D01*
X95152697Y-133464505D01*
X95319119Y-133409358D01*
X95319124Y-133409356D01*
X95468345Y-133317315D01*
X95592318Y-133193342D01*
X95594165Y-133190348D01*
X95595969Y-133188724D01*
X95596798Y-133187677D01*
X95596976Y-133187818D01*
X95646110Y-133143621D01*
X95715073Y-133132396D01*
X95779156Y-133160236D01*
X95805243Y-133190341D01*
X95807288Y-133193656D01*
X95931344Y-133317712D01*
X96080666Y-133409814D01*
X96247203Y-133464999D01*
X96349991Y-133475500D01*
X96869450Y-133475499D01*
X96936489Y-133495183D01*
X96948113Y-133503644D01*
X96949394Y-133504695D01*
X97060024Y-133578616D01*
X97060028Y-133578618D01*
X97060031Y-133578620D01*
X97182964Y-133629541D01*
X97297316Y-133652287D01*
X97313464Y-133655499D01*
X97313468Y-133655500D01*
X97313469Y-133655500D01*
X97446531Y-133655500D01*
X98905501Y-133655500D01*
X98972540Y-133675185D01*
X99018295Y-133727989D01*
X99029501Y-133779500D01*
X99029501Y-134777876D01*
X99035908Y-134837483D01*
X99086202Y-134972328D01*
X99086206Y-134972335D01*
X99172452Y-135087544D01*
X99172455Y-135087547D01*
X99287664Y-135173793D01*
X99287671Y-135173797D01*
X99422517Y-135224091D01*
X99422516Y-135224091D01*
X99429444Y-135224835D01*
X99482127Y-135230500D01*
X101973836Y-135230499D01*
X102040875Y-135250184D01*
X102061517Y-135266818D01*
X104005304Y-137210605D01*
X104072821Y-137278122D01*
X104087518Y-137292819D01*
X104121002Y-137354143D01*
X104116018Y-137423834D01*
X104074146Y-137479768D01*
X104008681Y-137504184D01*
X103999836Y-137504500D01*
X102554499Y-137504500D01*
X102487460Y-137484815D01*
X102441705Y-137432011D01*
X102430499Y-137380500D01*
X102430499Y-136382129D01*
X102430498Y-136382123D01*
X102430497Y-136382116D01*
X102424091Y-136322517D01*
X102421226Y-136314836D01*
X102373797Y-136187671D01*
X102373793Y-136187664D01*
X102287547Y-136072455D01*
X102287544Y-136072452D01*
X102172335Y-135986206D01*
X102172328Y-135986202D01*
X102037482Y-135935908D01*
X102037483Y-135935908D01*
X101977883Y-135929501D01*
X101977881Y-135929500D01*
X101977873Y-135929500D01*
X101977864Y-135929500D01*
X99482129Y-135929500D01*
X99482123Y-135929501D01*
X99422516Y-135935908D01*
X99287671Y-135986202D01*
X99287664Y-135986206D01*
X99172455Y-136072452D01*
X99172452Y-136072455D01*
X99086206Y-136187664D01*
X99086202Y-136187671D01*
X99035908Y-136322517D01*
X99032562Y-136353643D01*
X99029501Y-136382123D01*
X99029500Y-136382135D01*
X99029500Y-137610500D01*
X99009815Y-137677539D01*
X98957011Y-137723294D01*
X98905500Y-137734500D01*
X97713733Y-137734500D01*
X97646694Y-137714815D01*
X97600939Y-137662011D01*
X97596028Y-137649506D01*
X97587886Y-137624937D01*
X97584814Y-137615666D01*
X97492712Y-137466344D01*
X97368656Y-137342288D01*
X97271101Y-137282116D01*
X97219336Y-137250187D01*
X97219331Y-137250185D01*
X97217862Y-137249698D01*
X97052797Y-137195001D01*
X97052795Y-137195000D01*
X96950010Y-137184500D01*
X96349998Y-137184500D01*
X96349980Y-137184501D01*
X96247203Y-137195000D01*
X96247200Y-137195001D01*
X96080668Y-137250185D01*
X96080663Y-137250187D01*
X95931342Y-137342289D01*
X95807288Y-137466343D01*
X95807283Y-137466349D01*
X95805241Y-137469661D01*
X95803247Y-137471453D01*
X95802807Y-137472011D01*
X95802711Y-137471935D01*
X95753291Y-137516383D01*
X95684328Y-137527602D01*
X95620247Y-137499755D01*
X95594168Y-137469656D01*
X95592319Y-137466659D01*
X95592316Y-137466655D01*
X95468345Y-137342684D01*
X95319124Y-137250643D01*
X95319119Y-137250641D01*
X95152697Y-137195494D01*
X95152690Y-137195493D01*
X95049986Y-137185000D01*
X95000000Y-137185000D01*
X95000000Y-139634999D01*
X95049972Y-139634999D01*
X95049986Y-139634998D01*
X95152697Y-139624505D01*
X95319119Y-139569358D01*
X95319124Y-139569356D01*
X95468345Y-139477315D01*
X95592318Y-139353342D01*
X95594165Y-139350348D01*
X95595969Y-139348724D01*
X95596798Y-139347677D01*
X95596976Y-139347818D01*
X95646110Y-139303621D01*
X95715073Y-139292396D01*
X95779156Y-139320236D01*
X95805243Y-139350341D01*
X95807288Y-139353656D01*
X95931344Y-139477712D01*
X96080666Y-139569814D01*
X96247203Y-139624999D01*
X96349991Y-139635500D01*
X96950008Y-139635499D01*
X96950016Y-139635498D01*
X96950019Y-139635498D01*
X97006302Y-139629748D01*
X97052797Y-139624999D01*
X97219334Y-139569814D01*
X97368656Y-139477712D01*
X97492712Y-139353656D01*
X97584814Y-139204334D01*
X97596028Y-139170494D01*
X97635801Y-139113050D01*
X97700317Y-139086228D01*
X97713733Y-139085500D01*
X98905501Y-139085500D01*
X98972540Y-139105185D01*
X99018295Y-139157989D01*
X99029501Y-139209500D01*
X99029501Y-139977876D01*
X99035908Y-140037483D01*
X99086202Y-140172328D01*
X99086206Y-140172335D01*
X99172452Y-140287544D01*
X99172455Y-140287547D01*
X99287664Y-140373793D01*
X99287671Y-140373797D01*
X99422517Y-140424091D01*
X99422516Y-140424091D01*
X99429444Y-140424835D01*
X99482127Y-140430500D01*
X101977872Y-140430499D01*
X102037483Y-140424091D01*
X102172331Y-140373796D01*
X102287546Y-140287546D01*
X102373796Y-140172331D01*
X102424091Y-140037483D01*
X102430500Y-139977873D01*
X102430500Y-138979500D01*
X102450185Y-138912461D01*
X102502989Y-138866706D01*
X102554500Y-138855500D01*
X108880431Y-138855500D01*
X108880432Y-138855499D01*
X109010935Y-138829541D01*
X109133868Y-138778620D01*
X109244505Y-138704695D01*
X109578383Y-138370815D01*
X109639705Y-138337332D01*
X109666063Y-138334498D01*
X110002601Y-138334498D01*
X110069640Y-138354183D01*
X110115395Y-138406987D01*
X110126601Y-138458498D01*
X110126601Y-139806270D01*
X110126602Y-139806276D01*
X110133839Y-139873596D01*
X110131754Y-139873820D01*
X110128597Y-139932788D01*
X110099339Y-139979222D01*
X108056518Y-142022045D01*
X107995195Y-142055530D01*
X107968837Y-142058364D01*
X98099600Y-142058364D01*
X97969107Y-142084321D01*
X97969099Y-142084323D01*
X97846170Y-142135242D01*
X97846160Y-142135247D01*
X97735530Y-142209168D01*
X97735526Y-142209171D01*
X94189878Y-145754819D01*
X94128555Y-145788304D01*
X94070104Y-145786913D01*
X94025413Y-145774938D01*
X94025403Y-145774936D01*
X93790001Y-145754341D01*
X93789999Y-145754341D01*
X93554596Y-145774936D01*
X93554586Y-145774938D01*
X93326344Y-145836094D01*
X93326335Y-145836098D01*
X93112171Y-145935964D01*
X93112169Y-145935965D01*
X92918597Y-146071505D01*
X92751505Y-146238597D01*
X92621575Y-146424158D01*
X92566998Y-146467783D01*
X92497500Y-146474977D01*
X92435145Y-146443454D01*
X92418425Y-146424158D01*
X92288494Y-146238597D01*
X92121402Y-146071506D01*
X92121401Y-146071505D01*
X91978376Y-145971358D01*
X91934752Y-145916781D01*
X91925500Y-145869783D01*
X91925500Y-138934986D01*
X93750001Y-138934986D01*
X93760494Y-139037697D01*
X93815641Y-139204119D01*
X93815643Y-139204124D01*
X93907684Y-139353345D01*
X94031654Y-139477315D01*
X94180875Y-139569356D01*
X94180880Y-139569358D01*
X94347302Y-139624505D01*
X94347309Y-139624506D01*
X94450019Y-139634999D01*
X94499999Y-139634998D01*
X94500000Y-139634998D01*
X94500000Y-138660000D01*
X93750001Y-138660000D01*
X93750001Y-138934986D01*
X91925500Y-138934986D01*
X91925500Y-137885013D01*
X93750000Y-137885013D01*
X93750000Y-138160000D01*
X94500000Y-138160000D01*
X94500000Y-137185000D01*
X94499999Y-137184999D01*
X94450029Y-137185000D01*
X94450011Y-137185001D01*
X94347302Y-137195494D01*
X94180880Y-137250641D01*
X94180875Y-137250643D01*
X94031654Y-137342684D01*
X93907684Y-137466654D01*
X93815643Y-137615875D01*
X93815641Y-137615880D01*
X93760494Y-137782302D01*
X93760493Y-137782309D01*
X93750000Y-137885013D01*
X91925500Y-137885013D01*
X91925500Y-132774986D01*
X93750001Y-132774986D01*
X93760494Y-132877697D01*
X93815641Y-133044119D01*
X93815643Y-133044124D01*
X93907684Y-133193345D01*
X94031654Y-133317315D01*
X94180875Y-133409356D01*
X94180880Y-133409358D01*
X94347302Y-133464505D01*
X94347309Y-133464506D01*
X94450019Y-133474999D01*
X94499999Y-133474998D01*
X94500000Y-133474998D01*
X94500000Y-132500000D01*
X93750001Y-132500000D01*
X93750001Y-132774986D01*
X91925500Y-132774986D01*
X91925500Y-132218981D01*
X91945185Y-132151942D01*
X91961819Y-132131300D01*
X92368106Y-131725013D01*
X93750000Y-131725013D01*
X93750000Y-132000000D01*
X94500000Y-132000000D01*
X94500000Y-131025000D01*
X94499999Y-131024999D01*
X94450029Y-131025000D01*
X94450011Y-131025001D01*
X94347302Y-131035494D01*
X94180880Y-131090641D01*
X94180875Y-131090643D01*
X94031654Y-131182684D01*
X93907684Y-131306654D01*
X93815643Y-131455875D01*
X93815641Y-131455880D01*
X93760494Y-131622302D01*
X93760493Y-131622309D01*
X93750000Y-131725013D01*
X92368106Y-131725013D01*
X94631300Y-129461819D01*
X94692623Y-129428334D01*
X94718981Y-129425500D01*
X104481019Y-129425500D01*
X104548058Y-129445185D01*
G37*
%TD.AperFunction*%
%TA.AperFunction,Conductor*%
G36*
X137050876Y-133950185D02*
G01*
X137071518Y-133966819D01*
X139722518Y-136617819D01*
X139756003Y-136679142D01*
X139751019Y-136748834D01*
X139709147Y-136804767D01*
X139643683Y-136829184D01*
X139634837Y-136829500D01*
X138192129Y-136829500D01*
X138192123Y-136829501D01*
X138132516Y-136835908D01*
X137997671Y-136886202D01*
X137997664Y-136886206D01*
X137882455Y-136972452D01*
X137882452Y-136972455D01*
X137796206Y-137087664D01*
X137796202Y-137087671D01*
X137745908Y-137222517D01*
X137739501Y-137282116D01*
X137739500Y-137282135D01*
X137739500Y-139773836D01*
X137719815Y-139840875D01*
X137703181Y-139861517D01*
X136391518Y-141173181D01*
X136330195Y-141206666D01*
X136303837Y-141209500D01*
X135609160Y-141209500D01*
X135542121Y-141189815D01*
X135496366Y-141137011D01*
X135486422Y-141067853D01*
X135492978Y-141042166D01*
X135512888Y-140988785D01*
X135512887Y-140988785D01*
X135512889Y-140988783D01*
X135519298Y-140929173D01*
X135519297Y-140300828D01*
X135512889Y-140241217D01*
X135505409Y-140221163D01*
X135462595Y-140106371D01*
X135462591Y-140106365D01*
X135423311Y-140053892D01*
X135398894Y-139988428D01*
X135413746Y-139920155D01*
X135423312Y-139905270D01*
X135462150Y-139853389D01*
X135462152Y-139853386D01*
X135512394Y-139718679D01*
X135512396Y-139718672D01*
X135518797Y-139659144D01*
X135518798Y-139659127D01*
X135518798Y-139595000D01*
X133063898Y-139595000D01*
X133063898Y-139659144D01*
X133070299Y-139718672D01*
X133070301Y-139718679D01*
X133120543Y-139853386D01*
X133120547Y-139853393D01*
X133159384Y-139905273D01*
X133183801Y-139970737D01*
X133168949Y-140039010D01*
X133159384Y-140053893D01*
X133120104Y-140106364D01*
X133120100Y-140106371D01*
X133069806Y-140241217D01*
X133063399Y-140300816D01*
X133063399Y-140300823D01*
X133063398Y-140300835D01*
X133063398Y-140375137D01*
X133043713Y-140442176D01*
X133027079Y-140462818D01*
X130557807Y-142932089D01*
X130557804Y-142932093D01*
X130483883Y-143042723D01*
X130483878Y-143042733D01*
X130432959Y-143165662D01*
X130432957Y-143165670D01*
X130414481Y-143258558D01*
X130414481Y-143258560D01*
X130407000Y-143296166D01*
X130407000Y-144153752D01*
X130387315Y-144220791D01*
X130356002Y-144251531D01*
X130357011Y-144252807D01*
X130351343Y-144257288D01*
X130257681Y-144350951D01*
X130196358Y-144384436D01*
X130126666Y-144379452D01*
X130082319Y-144350951D01*
X130044319Y-144312951D01*
X130010834Y-144251628D01*
X130008000Y-144225270D01*
X130008000Y-143717068D01*
X130019285Y-143672867D01*
X130016798Y-143671940D01*
X130019896Y-143663633D01*
X130019898Y-143663631D01*
X130070193Y-143528783D01*
X130076602Y-143469173D01*
X130076601Y-142840828D01*
X130070193Y-142781217D01*
X130060545Y-142755350D01*
X130019899Y-142646371D01*
X130019895Y-142646364D01*
X129980928Y-142594311D01*
X129956510Y-142528847D01*
X129971361Y-142460574D01*
X129980928Y-142445689D01*
X130019895Y-142393635D01*
X130019894Y-142393635D01*
X130019898Y-142393631D01*
X130070193Y-142258783D01*
X130076602Y-142199173D01*
X130076601Y-141570828D01*
X130070193Y-141511217D01*
X130067401Y-141503732D01*
X130019899Y-141376371D01*
X130019895Y-141376364D01*
X129980928Y-141324311D01*
X129956510Y-141258847D01*
X129971361Y-141190574D01*
X129980928Y-141175689D01*
X130019895Y-141123635D01*
X130019894Y-141123635D01*
X130019898Y-141123631D01*
X130070193Y-140988783D01*
X130076602Y-140929173D01*
X130076601Y-140300828D01*
X130070193Y-140241217D01*
X130062713Y-140221163D01*
X130019899Y-140106371D01*
X130019895Y-140106364D01*
X129980928Y-140054311D01*
X129956510Y-139988847D01*
X129971361Y-139920574D01*
X129980928Y-139905689D01*
X130019895Y-139853635D01*
X130019894Y-139853635D01*
X130019898Y-139853631D01*
X130070193Y-139718783D01*
X130076602Y-139659173D01*
X130076601Y-139030855D01*
X133063898Y-139030855D01*
X133063898Y-139095000D01*
X134041348Y-139095000D01*
X134541348Y-139095000D01*
X135518798Y-139095000D01*
X135518798Y-139030872D01*
X135518797Y-139030855D01*
X135512396Y-138971327D01*
X135512394Y-138971320D01*
X135462152Y-138836613D01*
X135462148Y-138836606D01*
X135375988Y-138721512D01*
X135375985Y-138721509D01*
X135260891Y-138635349D01*
X135260884Y-138635345D01*
X135126177Y-138585103D01*
X135126170Y-138585101D01*
X135066642Y-138578700D01*
X134541348Y-138578700D01*
X134541348Y-139095000D01*
X134041348Y-139095000D01*
X134041348Y-138578700D01*
X133516053Y-138578700D01*
X133456525Y-138585101D01*
X133456518Y-138585103D01*
X133321811Y-138635345D01*
X133321804Y-138635349D01*
X133206710Y-138721509D01*
X133206707Y-138721512D01*
X133120547Y-138836606D01*
X133120543Y-138836613D01*
X133070301Y-138971320D01*
X133070299Y-138971327D01*
X133063898Y-139030855D01*
X130076601Y-139030855D01*
X130076601Y-139030828D01*
X130070193Y-138971217D01*
X130048278Y-138912461D01*
X130019899Y-138836371D01*
X130019897Y-138836368D01*
X130014787Y-138829542D01*
X129973034Y-138773768D01*
X129948618Y-138708307D01*
X129963469Y-138640034D01*
X129984617Y-138611782D01*
X134504582Y-134091819D01*
X134565905Y-134058334D01*
X134592263Y-134055500D01*
X135276786Y-134055500D01*
X135276794Y-134055500D01*
X135313669Y-134052598D01*
X135313671Y-134052597D01*
X135313673Y-134052597D01*
X135355291Y-134040505D01*
X135471498Y-134006744D01*
X135571221Y-133947767D01*
X135634342Y-133930500D01*
X136983837Y-133930500D01*
X137050876Y-133950185D01*
G37*
%TD.AperFunction*%
%TA.AperFunction,Conductor*%
G36*
X119149925Y-138182619D02*
G01*
X119199331Y-138232024D01*
X119214500Y-138291452D01*
X119214500Y-138816535D01*
X119240457Y-138947028D01*
X119240459Y-138947036D01*
X119291378Y-139069965D01*
X119291383Y-139069975D01*
X119365304Y-139180605D01*
X119365307Y-139180609D01*
X120318181Y-140133482D01*
X120351666Y-140194805D01*
X120354500Y-140221163D01*
X120354500Y-140740001D01*
X120354501Y-140740019D01*
X120365000Y-140842796D01*
X120365001Y-140842799D01*
X120368998Y-140854860D01*
X120420186Y-141009334D01*
X120512288Y-141158656D01*
X120636344Y-141282712D01*
X120739843Y-141346550D01*
X120786567Y-141398498D01*
X120797790Y-141467461D01*
X120769946Y-141531543D01*
X120762427Y-141539770D01*
X119076681Y-143225517D01*
X119015358Y-143259002D01*
X118945666Y-143254018D01*
X118889733Y-143212146D01*
X118865316Y-143146682D01*
X118865000Y-143137836D01*
X118865000Y-143040000D01*
X117976500Y-143040000D01*
X117909461Y-143020315D01*
X117863706Y-142967511D01*
X117852500Y-142916000D01*
X117852500Y-142790000D01*
X117726500Y-142790000D01*
X117659461Y-142770315D01*
X117613706Y-142717511D01*
X117602500Y-142666000D01*
X117602500Y-142540000D01*
X118102500Y-142540000D01*
X118864999Y-142540000D01*
X118864999Y-142290028D01*
X118864998Y-142290013D01*
X118854505Y-142187302D01*
X118799358Y-142020880D01*
X118799356Y-142020875D01*
X118707315Y-141871654D01*
X118583345Y-141747684D01*
X118434124Y-141655643D01*
X118434119Y-141655641D01*
X118267697Y-141600494D01*
X118267690Y-141600493D01*
X118164986Y-141590000D01*
X118102500Y-141590000D01*
X118102500Y-142540000D01*
X117602500Y-142540000D01*
X117602500Y-141590000D01*
X117602499Y-141589999D01*
X117540028Y-141590000D01*
X117540011Y-141590001D01*
X117437302Y-141600494D01*
X117270880Y-141655641D01*
X117270875Y-141655643D01*
X117121657Y-141747682D01*
X117028034Y-141841305D01*
X116966710Y-141874789D01*
X116897019Y-141869805D01*
X116852672Y-141841304D01*
X116758657Y-141747289D01*
X116758656Y-141747288D01*
X116609334Y-141655186D01*
X116442797Y-141600001D01*
X116442795Y-141600000D01*
X116340016Y-141589500D01*
X116340009Y-141589500D01*
X116254661Y-141589500D01*
X116187622Y-141569815D01*
X116141867Y-141517011D01*
X116131923Y-141447853D01*
X116160948Y-141384297D01*
X116166980Y-141377819D01*
X116502634Y-141042166D01*
X117005794Y-140539006D01*
X117034994Y-140495305D01*
X117079719Y-140428369D01*
X117100540Y-140378102D01*
X117103706Y-140370460D01*
X117111594Y-140351414D01*
X117130640Y-140305436D01*
X117156599Y-140174931D01*
X117156599Y-140071786D01*
X117175104Y-140008762D01*
X117174646Y-140008512D01*
X117175797Y-140006402D01*
X117176284Y-140004747D01*
X117178242Y-140001925D01*
X117178896Y-140000729D01*
X117207547Y-139923910D01*
X117229190Y-139865883D01*
X117235599Y-139806273D01*
X117235598Y-138458497D01*
X117255283Y-138391459D01*
X117308086Y-138345704D01*
X117359598Y-138334498D01*
X118707371Y-138334498D01*
X118707372Y-138334498D01*
X118766983Y-138328090D01*
X118901831Y-138277795D01*
X119016191Y-138192184D01*
X119081652Y-138167768D01*
X119149925Y-138182619D01*
G37*
%TD.AperFunction*%
%TA.AperFunction,Conductor*%
G36*
X121812274Y-135873959D02*
G01*
X121821766Y-135879814D01*
X121988303Y-135934999D01*
X122091091Y-135945500D01*
X122466600Y-135945499D01*
X122533639Y-135965183D01*
X122579394Y-136017987D01*
X122590600Y-136069499D01*
X122590600Y-137516992D01*
X122570915Y-137584031D01*
X122518111Y-137629786D01*
X122448953Y-137639730D01*
X122401504Y-137622531D01*
X122374128Y-137605645D01*
X122374119Y-137605641D01*
X122207697Y-137550494D01*
X122207690Y-137550493D01*
X122104986Y-137540000D01*
X121830000Y-137540000D01*
X121830000Y-138416000D01*
X121810315Y-138483039D01*
X121757511Y-138528794D01*
X121706000Y-138540000D01*
X121454000Y-138540000D01*
X121386961Y-138520315D01*
X121341206Y-138467511D01*
X121330000Y-138416000D01*
X121330000Y-137540000D01*
X121055029Y-137540000D01*
X121055012Y-137540001D01*
X120952302Y-137550494D01*
X120785880Y-137605641D01*
X120785873Y-137605644D01*
X120754595Y-137624937D01*
X120687203Y-137643376D01*
X120620539Y-137622452D01*
X120575771Y-137568810D01*
X120565500Y-137519397D01*
X120565500Y-137353466D01*
X120539541Y-137222969D01*
X120539540Y-137222968D01*
X120539540Y-137222964D01*
X120528161Y-137195493D01*
X120488623Y-137100038D01*
X120488622Y-137100037D01*
X120488620Y-137100031D01*
X120480361Y-137087671D01*
X120414698Y-136989398D01*
X120414692Y-136989390D01*
X120320606Y-136895304D01*
X120270485Y-136861815D01*
X120251695Y-136846394D01*
X119660610Y-136255308D01*
X119660606Y-136255305D01*
X119549976Y-136181384D01*
X119549966Y-136181379D01*
X119427037Y-136130460D01*
X119427029Y-136130458D01*
X119296536Y-136104501D01*
X119296532Y-136104501D01*
X119284000Y-136104501D01*
X119216961Y-136084816D01*
X119171206Y-136032012D01*
X119160000Y-135980625D01*
X119159999Y-135979623D01*
X119179617Y-135912564D01*
X119232375Y-135866756D01*
X119283999Y-135855499D01*
X121747179Y-135855499D01*
X121812274Y-135873959D01*
G37*
%TD.AperFunction*%
%TA.AperFunction,Conductor*%
G36*
X139382309Y-128502685D02*
G01*
X139402951Y-128519319D01*
X139471344Y-128587712D01*
X139580597Y-128655099D01*
X139627321Y-128707047D01*
X139639500Y-128760638D01*
X139639500Y-129814477D01*
X139619815Y-129881516D01*
X139567011Y-129927271D01*
X139497853Y-129937215D01*
X139434297Y-129908190D01*
X139427819Y-129902158D01*
X139408345Y-129882684D01*
X139259124Y-129790643D01*
X139259119Y-129790641D01*
X139092697Y-129735494D01*
X139092690Y-129735493D01*
X138989986Y-129725000D01*
X138940000Y-129725000D01*
X138940000Y-132174999D01*
X138989972Y-132174999D01*
X138989986Y-132174998D01*
X139092697Y-132164505D01*
X139259119Y-132109358D01*
X139259124Y-132109356D01*
X139408345Y-132017315D01*
X139532318Y-131893342D01*
X139534165Y-131890348D01*
X139535969Y-131888724D01*
X139536798Y-131887677D01*
X139536976Y-131887818D01*
X139586110Y-131843621D01*
X139655073Y-131832396D01*
X139719156Y-131860236D01*
X139745243Y-131890341D01*
X139747288Y-131893656D01*
X139871344Y-132017712D01*
X140020666Y-132109814D01*
X140187203Y-132164999D01*
X140289991Y-132175500D01*
X140890008Y-132175499D01*
X140890016Y-132175498D01*
X140890019Y-132175498D01*
X140946302Y-132169748D01*
X140992797Y-132164999D01*
X141159334Y-132109814D01*
X141308656Y-132017712D01*
X141417819Y-131908549D01*
X141479142Y-131875064D01*
X141548834Y-131880048D01*
X141604767Y-131921920D01*
X141629184Y-131987384D01*
X141629500Y-131996230D01*
X141629500Y-136314836D01*
X141609815Y-136381875D01*
X141557011Y-136427630D01*
X141487853Y-136437574D01*
X141424297Y-136408549D01*
X141417819Y-136402517D01*
X137745609Y-132730307D01*
X137745605Y-132730304D01*
X137634975Y-132656383D01*
X137634965Y-132656378D01*
X137512036Y-132605459D01*
X137512028Y-132605457D01*
X137381535Y-132579500D01*
X137381531Y-132579500D01*
X137291262Y-132579500D01*
X137224223Y-132559815D01*
X137178468Y-132507011D01*
X137168524Y-132437853D01*
X137197549Y-132374297D01*
X137203581Y-132367819D01*
X137419458Y-132151942D01*
X137675190Y-131896209D01*
X137736511Y-131862726D01*
X137806202Y-131867710D01*
X137850550Y-131896211D01*
X137971654Y-132017315D01*
X138120875Y-132109356D01*
X138120880Y-132109358D01*
X138287302Y-132164505D01*
X138287309Y-132164506D01*
X138390019Y-132174999D01*
X138439999Y-132174998D01*
X138440000Y-132174998D01*
X138440000Y-129844217D01*
X138459685Y-129777178D01*
X138468140Y-129765560D01*
X138557685Y-129656450D01*
X138655232Y-129473954D01*
X138715300Y-129275934D01*
X138735583Y-129070000D01*
X138715300Y-128864066D01*
X138680218Y-128748418D01*
X138679596Y-128678552D01*
X138716844Y-128619439D01*
X138733785Y-128606884D01*
X138748656Y-128597712D01*
X138827049Y-128519319D01*
X138888372Y-128485834D01*
X138914730Y-128483000D01*
X139315270Y-128483000D01*
X139382309Y-128502685D01*
G37*
%TD.AperFunction*%
%TA.AperFunction,Conductor*%
G36*
X142305894Y-114918831D02*
G01*
X142322985Y-114920415D01*
X142579289Y-114962224D01*
X142596000Y-114966154D01*
X142744015Y-115011989D01*
X142844084Y-115042977D01*
X142860092Y-115049178D01*
X143095184Y-115159539D01*
X143110166Y-115167883D01*
X143302874Y-115293452D01*
X143327761Y-115309669D01*
X143341457Y-115320012D01*
X143537381Y-115490502D01*
X143549497Y-115502618D01*
X143719985Y-115698540D01*
X143730330Y-115712238D01*
X143872111Y-115929825D01*
X143880463Y-115944820D01*
X143943004Y-116078046D01*
X143990819Y-116179903D01*
X143997022Y-116195915D01*
X144073844Y-116443996D01*
X144077775Y-116460713D01*
X144119583Y-116717010D01*
X144121168Y-116734109D01*
X144127167Y-116993739D01*
X144126374Y-117010893D01*
X144096446Y-117268859D01*
X144093290Y-117285740D01*
X144028010Y-117537092D01*
X144022553Y-117553373D01*
X143923171Y-117793305D01*
X143915516Y-117808678D01*
X143783944Y-118032566D01*
X143774240Y-118046733D01*
X143612993Y-118250305D01*
X143601424Y-118262996D01*
X143413598Y-118442339D01*
X143400386Y-118453310D01*
X143189587Y-118604982D01*
X143174987Y-118614022D01*
X142945250Y-118735118D01*
X142929540Y-118742054D01*
X142685289Y-118830245D01*
X142668773Y-118834945D01*
X142414661Y-118888550D01*
X142397652Y-118890922D01*
X142134293Y-118909202D01*
X142125707Y-118909500D01*
X142064108Y-118909500D01*
X141936812Y-118943608D01*
X141822686Y-119009500D01*
X141822683Y-119009502D01*
X141729502Y-119102683D01*
X141729500Y-119102686D01*
X141663608Y-119216812D01*
X141629500Y-119344108D01*
X141629500Y-125073770D01*
X141609815Y-125140809D01*
X141557011Y-125186564D01*
X141487853Y-125196508D01*
X141424297Y-125167483D01*
X141417819Y-125161451D01*
X141308657Y-125052289D01*
X141308656Y-125052288D01*
X141213212Y-124993418D01*
X141159336Y-124960187D01*
X141159331Y-124960185D01*
X141157862Y-124959698D01*
X140992797Y-124905001D01*
X140992795Y-124905000D01*
X140890016Y-124894500D01*
X140890009Y-124894500D01*
X140383663Y-124894500D01*
X140316624Y-124874815D01*
X140295982Y-124858181D01*
X138628109Y-123190307D01*
X138628105Y-123190304D01*
X138517475Y-123116383D01*
X138517465Y-123116378D01*
X138394536Y-123065459D01*
X138394528Y-123065457D01*
X138264035Y-123039500D01*
X138264031Y-123039500D01*
X135920781Y-123039500D01*
X135853742Y-123019815D01*
X135807987Y-122967011D01*
X135798043Y-122897853D01*
X135810372Y-122862824D01*
X135809285Y-122862354D01*
X135812380Y-122855200D01*
X135858200Y-122697486D01*
X135858395Y-122695001D01*
X135858395Y-122695000D01*
X132913805Y-122695000D01*
X132913804Y-122695001D01*
X132913999Y-122697486D01*
X132959818Y-122855198D01*
X133043414Y-122996552D01*
X133048200Y-123002722D01*
X133045740Y-123004629D01*
X133072310Y-123053288D01*
X133067326Y-123122980D01*
X133046262Y-123155781D01*
X133047799Y-123156974D01*
X133043015Y-123163140D01*
X132959355Y-123304603D01*
X132959354Y-123304604D01*
X132931079Y-123401928D01*
X132899684Y-123455013D01*
X132095307Y-124259390D01*
X132095304Y-124259394D01*
X132021383Y-124370024D01*
X132021378Y-124370034D01*
X131970459Y-124492963D01*
X131970459Y-124492964D01*
X131946590Y-124612964D01*
X131944500Y-124623468D01*
X131944500Y-131260434D01*
X131970457Y-131390927D01*
X131970459Y-131390935D01*
X132021378Y-131513864D01*
X132021383Y-131513874D01*
X132095304Y-131624504D01*
X132095307Y-131624508D01*
X132629808Y-132159009D01*
X132663293Y-132220332D01*
X132658309Y-132290024D01*
X132629808Y-132334371D01*
X128588214Y-136375966D01*
X128526891Y-136409451D01*
X128457199Y-136404467D01*
X128401266Y-136362595D01*
X128378917Y-136312478D01*
X128369541Y-136265342D01*
X128329408Y-136168453D01*
X128318620Y-136142409D01*
X128318618Y-136142406D01*
X128318616Y-136142402D01*
X128244696Y-136031773D01*
X128199125Y-135986202D01*
X128150606Y-135937683D01*
X125717924Y-133505001D01*
X127963804Y-133505001D01*
X127963999Y-133507486D01*
X128009818Y-133665198D01*
X128093414Y-133806552D01*
X128093421Y-133806561D01*
X128209538Y-133922678D01*
X128209547Y-133922685D01*
X128350903Y-134006282D01*
X128350906Y-134006283D01*
X128508604Y-134052099D01*
X128508610Y-134052100D01*
X128545450Y-134054999D01*
X128545466Y-134055000D01*
X129186100Y-134055000D01*
X129686100Y-134055000D01*
X130326734Y-134055000D01*
X130326749Y-134054999D01*
X130363589Y-134052100D01*
X130363595Y-134052099D01*
X130521293Y-134006283D01*
X130521296Y-134006282D01*
X130662652Y-133922685D01*
X130662661Y-133922678D01*
X130778778Y-133806561D01*
X130778785Y-133806552D01*
X130862381Y-133665198D01*
X130908200Y-133507486D01*
X130908395Y-133505001D01*
X130908395Y-133505000D01*
X129686100Y-133505000D01*
X129686100Y-134055000D01*
X129186100Y-134055000D01*
X129186100Y-133505000D01*
X127963805Y-133505000D01*
X127963804Y-133505001D01*
X125717924Y-133505001D01*
X123418739Y-131205816D01*
X119007910Y-126794986D01*
X121160001Y-126794986D01*
X121170494Y-126897697D01*
X121225641Y-127064119D01*
X121225643Y-127064124D01*
X121317684Y-127213345D01*
X121441654Y-127337315D01*
X121590875Y-127429356D01*
X121590880Y-127429358D01*
X121757302Y-127484505D01*
X121757309Y-127484506D01*
X121860019Y-127494999D01*
X121909999Y-127494998D01*
X121910000Y-127494998D01*
X121910000Y-126520000D01*
X121160001Y-126520000D01*
X121160001Y-126794986D01*
X119007910Y-126794986D01*
X118653231Y-126440307D01*
X118653227Y-126440304D01*
X118542597Y-126366383D01*
X118542587Y-126366378D01*
X118419658Y-126315459D01*
X118419650Y-126315457D01*
X118289157Y-126289500D01*
X118289153Y-126289500D01*
X116362630Y-126289500D01*
X116229568Y-126289500D01*
X116229566Y-126289500D01*
X116099068Y-126315458D01*
X116099058Y-126315461D01*
X115976137Y-126366376D01*
X115976119Y-126366386D01*
X115865497Y-126440301D01*
X115865489Y-126440307D01*
X114968280Y-127337517D01*
X114906957Y-127371002D01*
X114837265Y-127366018D01*
X114781332Y-127324146D01*
X114756915Y-127258682D01*
X114756599Y-127249836D01*
X114756599Y-127187564D01*
X114776284Y-127120525D01*
X114792918Y-127099883D01*
X115845982Y-126046819D01*
X115907305Y-126013334D01*
X115933663Y-126010500D01*
X116420843Y-126010500D01*
X116420848Y-126010500D01*
X116522775Y-126000087D01*
X116687925Y-125945362D01*
X116836003Y-125854026D01*
X116945016Y-125745013D01*
X121160000Y-125745013D01*
X121160000Y-126020000D01*
X121910000Y-126020000D01*
X121910000Y-125026142D01*
X121899196Y-125006357D01*
X121904180Y-124936665D01*
X121910000Y-124927609D01*
X121910000Y-123940000D01*
X121160001Y-123940000D01*
X121160001Y-124214986D01*
X121170494Y-124317697D01*
X121225641Y-124484119D01*
X121225643Y-124484124D01*
X121317684Y-124633345D01*
X121441654Y-124757315D01*
X121590876Y-124849356D01*
X121629915Y-124862292D01*
X121687361Y-124902064D01*
X121714185Y-124966580D01*
X121701871Y-125035356D01*
X121654329Y-125086556D01*
X121629920Y-125097704D01*
X121590882Y-125110640D01*
X121590875Y-125110643D01*
X121441654Y-125202684D01*
X121317684Y-125326654D01*
X121225643Y-125475875D01*
X121225641Y-125475880D01*
X121170494Y-125642302D01*
X121170493Y-125642309D01*
X121160000Y-125745013D01*
X116945016Y-125745013D01*
X116959026Y-125731003D01*
X117050362Y-125582925D01*
X117105087Y-125417775D01*
X117115500Y-125315848D01*
X117115500Y-124304152D01*
X117105087Y-124202225D01*
X117050362Y-124037075D01*
X117050358Y-124037069D01*
X117050357Y-124037066D01*
X116959028Y-123889000D01*
X116959025Y-123888996D01*
X116836003Y-123765974D01*
X116835999Y-123765971D01*
X116687933Y-123674642D01*
X116687927Y-123674639D01*
X116687925Y-123674638D01*
X116623571Y-123653313D01*
X116537965Y-123624946D01*
X116480521Y-123585173D01*
X116453698Y-123520657D01*
X116466013Y-123451881D01*
X116513556Y-123400681D01*
X116537966Y-123389534D01*
X116644119Y-123354358D01*
X116644124Y-123354356D01*
X116793345Y-123262315D01*
X116890647Y-123165013D01*
X121160000Y-123165013D01*
X121160000Y-123440000D01*
X121910000Y-123440000D01*
X121910000Y-121460000D01*
X121160001Y-121460000D01*
X121160001Y-121734986D01*
X121170494Y-121837697D01*
X121225641Y-122004119D01*
X121225643Y-122004124D01*
X121317684Y-122153345D01*
X121441654Y-122277315D01*
X121550514Y-122344461D01*
X121597239Y-122396409D01*
X121608460Y-122465372D01*
X121580617Y-122529454D01*
X121550514Y-122555539D01*
X121441654Y-122622684D01*
X121317684Y-122746654D01*
X121225643Y-122895875D01*
X121225641Y-122895880D01*
X121170494Y-123062302D01*
X121170493Y-123062309D01*
X121160000Y-123165013D01*
X116890647Y-123165013D01*
X116917315Y-123138345D01*
X117009356Y-122989124D01*
X117009358Y-122989119D01*
X117064505Y-122822697D01*
X117064506Y-122822690D01*
X117074999Y-122719986D01*
X117075000Y-122719973D01*
X117075000Y-122470000D01*
X116186500Y-122470000D01*
X116119461Y-122450315D01*
X116073706Y-122397511D01*
X116062500Y-122346000D01*
X116062500Y-122220000D01*
X115936500Y-122220000D01*
X115869461Y-122200315D01*
X115823706Y-122147511D01*
X115812500Y-122096000D01*
X115812500Y-121970000D01*
X116312500Y-121970000D01*
X117074999Y-121970000D01*
X117074999Y-121720028D01*
X117074998Y-121720013D01*
X117064505Y-121617302D01*
X117009358Y-121450880D01*
X117009356Y-121450875D01*
X116917315Y-121301654D01*
X116793345Y-121177684D01*
X116644124Y-121085643D01*
X116644119Y-121085641D01*
X116477697Y-121030494D01*
X116477690Y-121030493D01*
X116374986Y-121020000D01*
X116312500Y-121020000D01*
X116312500Y-121970000D01*
X115812500Y-121970000D01*
X115812500Y-121020000D01*
X115812499Y-121019999D01*
X115750028Y-121020000D01*
X115750011Y-121020001D01*
X115647302Y-121030494D01*
X115480880Y-121085641D01*
X115480875Y-121085643D01*
X115331657Y-121177682D01*
X115238034Y-121271305D01*
X115176710Y-121304789D01*
X115107019Y-121299805D01*
X115062672Y-121271304D01*
X114968657Y-121177289D01*
X114968656Y-121177288D01*
X114819334Y-121085186D01*
X114652797Y-121030001D01*
X114652795Y-121030000D01*
X114550010Y-121019500D01*
X113924998Y-121019500D01*
X113924980Y-121019501D01*
X113822203Y-121030000D01*
X113822200Y-121030001D01*
X113655668Y-121085185D01*
X113655663Y-121085187D01*
X113506342Y-121177289D01*
X113382289Y-121301342D01*
X113290187Y-121450663D01*
X113290185Y-121450668D01*
X113290115Y-121450880D01*
X113235001Y-121617203D01*
X113235001Y-121617204D01*
X113235000Y-121617204D01*
X113224500Y-121719983D01*
X113224500Y-122720001D01*
X113224501Y-122720019D01*
X113235000Y-122822796D01*
X113235001Y-122822799D01*
X113290185Y-122989331D01*
X113290187Y-122989336D01*
X113299620Y-123004629D01*
X113382096Y-123138345D01*
X113382289Y-123138657D01*
X113506345Y-123262713D01*
X113512013Y-123267195D01*
X113510570Y-123269019D01*
X113549820Y-123312654D01*
X113562000Y-123366248D01*
X113562000Y-123696608D01*
X113542315Y-123763647D01*
X113525682Y-123784289D01*
X113420971Y-123889000D01*
X113329642Y-124037066D01*
X113329637Y-124037077D01*
X113274913Y-124202223D01*
X113264500Y-124304144D01*
X113264500Y-125315855D01*
X113274913Y-125417776D01*
X113329637Y-125582922D01*
X113329642Y-125582933D01*
X113420971Y-125730999D01*
X113420974Y-125731003D01*
X113543996Y-125854025D01*
X113544000Y-125854028D01*
X113692066Y-125945357D01*
X113692069Y-125945358D01*
X113692075Y-125945362D01*
X113760199Y-125967936D01*
X113817643Y-126007707D01*
X113844466Y-126072223D01*
X113832151Y-126140999D01*
X113808875Y-126173322D01*
X113556406Y-126425791D01*
X113556403Y-126425795D01*
X113482482Y-126536425D01*
X113482477Y-126536435D01*
X113431558Y-126659364D01*
X113431556Y-126659372D01*
X113409012Y-126772711D01*
X113409012Y-126772714D01*
X113405599Y-126789870D01*
X113405599Y-126810936D01*
X113385914Y-126877975D01*
X113333110Y-126923730D01*
X113263952Y-126933674D01*
X113200396Y-126904649D01*
X113193918Y-126898617D01*
X109746492Y-123451191D01*
X109716467Y-123402514D01*
X109712166Y-123389534D01*
X109705914Y-123370666D01*
X109613812Y-123221344D01*
X109520149Y-123127681D01*
X109486664Y-123066358D01*
X109491648Y-122996666D01*
X109520149Y-122952319D01*
X109563719Y-122908749D01*
X109613812Y-122858656D01*
X109705914Y-122709334D01*
X109761099Y-122542797D01*
X109771600Y-122440009D01*
X109771599Y-122039728D01*
X109791283Y-121972690D01*
X109807913Y-121952053D01*
X110988148Y-120771819D01*
X111049471Y-120738334D01*
X111075829Y-120735500D01*
X121036000Y-120735500D01*
X121103039Y-120755185D01*
X121148794Y-120807989D01*
X121160000Y-120859500D01*
X121160000Y-120960000D01*
X122036000Y-120960000D01*
X122103039Y-120979685D01*
X122148794Y-121032489D01*
X122160000Y-121084000D01*
X122160000Y-121210000D01*
X122286000Y-121210000D01*
X122353039Y-121229685D01*
X122398794Y-121282489D01*
X122410000Y-121334000D01*
X122410000Y-124933855D01*
X122420804Y-124953641D01*
X122415820Y-125023333D01*
X122410000Y-125032389D01*
X122410000Y-127494999D01*
X122459972Y-127494999D01*
X122459986Y-127494998D01*
X122562697Y-127484505D01*
X122729119Y-127429358D01*
X122729124Y-127429356D01*
X122878345Y-127337315D01*
X123002318Y-127213342D01*
X123004165Y-127210348D01*
X123005969Y-127208724D01*
X123006798Y-127207677D01*
X123006976Y-127207818D01*
X123056110Y-127163621D01*
X123125073Y-127152396D01*
X123189156Y-127180236D01*
X123215243Y-127210341D01*
X123217288Y-127213656D01*
X123341344Y-127337712D01*
X123490666Y-127429814D01*
X123657203Y-127484999D01*
X123759991Y-127495500D01*
X124172769Y-127495499D01*
X124239808Y-127515183D01*
X124260450Y-127531818D01*
X126699000Y-129970369D01*
X126732485Y-130031692D01*
X126727501Y-130101384D01*
X126699001Y-130145731D01*
X126567047Y-130277686D01*
X126541604Y-130315763D01*
X126541605Y-130315764D01*
X126484914Y-130400609D01*
X126428343Y-130537183D01*
X126428340Y-130537193D01*
X126399500Y-130682180D01*
X126399500Y-130682183D01*
X126399500Y-131393918D01*
X126399500Y-131393920D01*
X126399499Y-131393920D01*
X126428340Y-131538907D01*
X126428343Y-131538917D01*
X126484913Y-131675490D01*
X126484914Y-131675491D01*
X126484916Y-131675495D01*
X126501624Y-131700500D01*
X126566093Y-131796987D01*
X126567051Y-131798420D01*
X127336578Y-132567947D01*
X127336585Y-132567953D01*
X127392715Y-132605457D01*
X127392717Y-132605458D01*
X127392720Y-132605460D01*
X127459505Y-132650084D01*
X127459506Y-132650084D01*
X127459507Y-132650085D01*
X127588335Y-132703447D01*
X127596087Y-132706658D01*
X127596091Y-132706658D01*
X127596092Y-132706659D01*
X127741079Y-132735500D01*
X127741082Y-132735500D01*
X127741083Y-132735500D01*
X127876421Y-132735500D01*
X127943460Y-132755185D01*
X127989215Y-132807989D01*
X127999159Y-132877147D01*
X127995497Y-132894095D01*
X127964000Y-133002505D01*
X127963999Y-133002511D01*
X127963804Y-133004998D01*
X127963805Y-133005000D01*
X130908395Y-133005000D01*
X130908395Y-133004998D01*
X130908200Y-133002513D01*
X130862381Y-132844801D01*
X130778785Y-132703447D01*
X130774000Y-132697278D01*
X130776466Y-132695364D01*
X130749902Y-132646776D01*
X130754849Y-132577082D01*
X130775956Y-132544232D01*
X130774401Y-132543026D01*
X130779177Y-132536868D01*
X130779181Y-132536865D01*
X130862844Y-132395398D01*
X130896605Y-132279191D01*
X130908697Y-132237573D01*
X130908698Y-132237567D01*
X130909135Y-132232011D01*
X130911600Y-132200694D01*
X130911600Y-131769306D01*
X130908698Y-131732431D01*
X130906538Y-131724998D01*
X130862845Y-131574606D01*
X130862844Y-131574603D01*
X130862844Y-131574602D01*
X130779181Y-131433135D01*
X130779178Y-131433132D01*
X130774398Y-131426969D01*
X130776735Y-131425155D01*
X130749898Y-131376050D01*
X130754856Y-131306356D01*
X130775654Y-131273998D01*
X130774003Y-131272717D01*
X130778786Y-131266550D01*
X130862381Y-131125198D01*
X130908200Y-130967486D01*
X130908395Y-130965001D01*
X130908395Y-130965000D01*
X129560100Y-130965000D01*
X129493061Y-130945315D01*
X129447306Y-130892511D01*
X129436100Y-130841000D01*
X129436100Y-130589000D01*
X129455785Y-130521961D01*
X129508589Y-130476206D01*
X129560100Y-130465000D01*
X130908395Y-130465000D01*
X130908395Y-130464998D01*
X130908200Y-130462513D01*
X130862381Y-130304801D01*
X130778785Y-130163447D01*
X130774000Y-130157278D01*
X130776466Y-130155364D01*
X130749902Y-130106776D01*
X130754849Y-130037082D01*
X130775956Y-130004232D01*
X130774401Y-130003026D01*
X130779177Y-129996868D01*
X130779181Y-129996865D01*
X130862844Y-129855398D01*
X130900276Y-129726556D01*
X130908697Y-129697573D01*
X130908698Y-129697567D01*
X130911600Y-129660694D01*
X130911600Y-129229306D01*
X130908698Y-129192431D01*
X130865882Y-129045058D01*
X130866081Y-128975190D01*
X130904023Y-128916520D01*
X130926490Y-128901114D01*
X131026450Y-128847685D01*
X131186410Y-128716410D01*
X131317685Y-128556450D01*
X131415232Y-128373954D01*
X131475300Y-128175934D01*
X131495583Y-127970000D01*
X131475300Y-127764066D01*
X131415232Y-127566046D01*
X131317685Y-127383550D01*
X131263236Y-127317203D01*
X131186410Y-127223589D01*
X131048362Y-127110298D01*
X131026450Y-127092315D01*
X130843954Y-126994768D01*
X130645934Y-126934700D01*
X130645932Y-126934699D01*
X130645934Y-126934699D01*
X130440000Y-126914417D01*
X130234067Y-126934699D01*
X130036043Y-126994769D01*
X129930141Y-127051376D01*
X129853550Y-127092315D01*
X129853548Y-127092316D01*
X129853547Y-127092317D01*
X129693589Y-127223589D01*
X129562317Y-127383547D01*
X129464769Y-127566043D01*
X129404699Y-127764067D01*
X129389397Y-127919429D01*
X129363236Y-127984216D01*
X129353675Y-127994955D01*
X128853150Y-128495481D01*
X128853147Y-128495485D01*
X128819009Y-128546575D01*
X128819010Y-128546576D01*
X128791526Y-128587710D01*
X128790403Y-128589390D01*
X128736791Y-128634196D01*
X128687300Y-128644500D01*
X128545398Y-128644500D01*
X128508532Y-128647401D01*
X128508526Y-128647402D01*
X128363367Y-128689576D01*
X128328772Y-128694500D01*
X127597230Y-128694500D01*
X127530191Y-128674815D01*
X127509549Y-128658181D01*
X125096818Y-126245450D01*
X125063333Y-126184127D01*
X125060499Y-126157769D01*
X125060499Y-125744998D01*
X125060498Y-125744981D01*
X125049999Y-125642203D01*
X125049998Y-125642200D01*
X125030355Y-125582922D01*
X124994814Y-125475666D01*
X124902712Y-125326344D01*
X124846819Y-125270451D01*
X124827462Y-125235001D01*
X127963804Y-125235001D01*
X127963999Y-125237486D01*
X128009818Y-125395198D01*
X128093414Y-125536552D01*
X128093421Y-125536561D01*
X128209538Y-125652678D01*
X128209547Y-125652685D01*
X128350903Y-125736282D01*
X128350906Y-125736283D01*
X128508604Y-125782099D01*
X128508610Y-125782100D01*
X128545450Y-125784999D01*
X128545466Y-125785000D01*
X129186100Y-125785000D01*
X129686100Y-125785000D01*
X130326734Y-125785000D01*
X130326749Y-125784999D01*
X130363589Y-125782100D01*
X130363595Y-125782099D01*
X130521293Y-125736283D01*
X130521296Y-125736282D01*
X130662652Y-125652685D01*
X130662661Y-125652678D01*
X130778778Y-125536561D01*
X130778785Y-125536552D01*
X130862381Y-125395198D01*
X130908200Y-125237486D01*
X130908395Y-125235001D01*
X130908395Y-125235000D01*
X129686100Y-125235000D01*
X129686100Y-125785000D01*
X129186100Y-125785000D01*
X129186100Y-125235000D01*
X127963805Y-125235000D01*
X127963804Y-125235001D01*
X124827462Y-125235001D01*
X124813334Y-125209128D01*
X124810500Y-125182770D01*
X124810500Y-124777230D01*
X124830185Y-124710191D01*
X124846819Y-124689549D01*
X124902712Y-124633656D01*
X124994814Y-124484334D01*
X125049999Y-124317797D01*
X125060500Y-124215009D01*
X125060499Y-123164992D01*
X125060309Y-123163135D01*
X125049999Y-123062203D01*
X125049998Y-123062200D01*
X125033907Y-123013642D01*
X124994814Y-122895666D01*
X124902712Y-122746344D01*
X124846819Y-122690451D01*
X124813334Y-122629128D01*
X124810500Y-122602770D01*
X124810500Y-122297230D01*
X124830185Y-122230191D01*
X124846819Y-122209549D01*
X124868379Y-122187989D01*
X124902712Y-122153656D01*
X124985519Y-122019402D01*
X125037467Y-121972679D01*
X125091058Y-121960500D01*
X127865732Y-121960500D01*
X127932771Y-121980185D01*
X127978526Y-122032989D01*
X127988470Y-122102147D01*
X127984808Y-122119095D01*
X127963502Y-122192426D01*
X127963501Y-122192432D01*
X127960600Y-122229298D01*
X127960600Y-122660701D01*
X127963501Y-122697567D01*
X127963502Y-122697573D01*
X128009354Y-122855393D01*
X128009355Y-122855396D01*
X128009356Y-122855398D01*
X128013470Y-122862354D01*
X128093017Y-122996862D01*
X128097802Y-123003031D01*
X128095356Y-123004927D01*
X128121957Y-123053642D01*
X128116973Y-123123334D01*
X128096169Y-123155703D01*
X128097802Y-123156969D01*
X128093017Y-123163137D01*
X128009355Y-123304603D01*
X128009354Y-123304606D01*
X127963502Y-123462426D01*
X127963501Y-123462432D01*
X127960600Y-123499298D01*
X127960600Y-123930701D01*
X127963501Y-123967567D01*
X127963502Y-123967573D01*
X128009354Y-124125393D01*
X128009355Y-124125396D01*
X128093017Y-124266862D01*
X128097802Y-124273031D01*
X128095469Y-124274840D01*
X128122310Y-124323995D01*
X128117326Y-124393687D01*
X128096570Y-124426021D01*
X128098197Y-124427283D01*
X128093413Y-124433449D01*
X128009818Y-124574801D01*
X127963999Y-124732513D01*
X127963804Y-124734998D01*
X127963805Y-124735000D01*
X130908395Y-124735000D01*
X130908395Y-124734998D01*
X130908200Y-124732513D01*
X130862381Y-124574801D01*
X130778785Y-124433447D01*
X130774000Y-124427278D01*
X130776466Y-124425364D01*
X130749902Y-124376776D01*
X130754849Y-124307082D01*
X130775956Y-124274232D01*
X130774401Y-124273026D01*
X130779177Y-124266868D01*
X130779181Y-124266865D01*
X130862844Y-124125398D01*
X130908698Y-123967569D01*
X130911600Y-123930694D01*
X130911600Y-123499306D01*
X130908698Y-123462431D01*
X130905432Y-123451191D01*
X130862845Y-123304606D01*
X130862844Y-123304602D01*
X130779181Y-123163135D01*
X130779178Y-123163132D01*
X130774398Y-123156969D01*
X130776850Y-123155066D01*
X130750255Y-123106421D01*
X130755204Y-123036726D01*
X130776040Y-123004304D01*
X130774398Y-123003031D01*
X130779175Y-122996870D01*
X130779181Y-122996865D01*
X130862844Y-122855398D01*
X130902189Y-122719973D01*
X130908697Y-122697573D01*
X130908698Y-122697567D01*
X130911600Y-122660694D01*
X130911600Y-122229306D01*
X130908698Y-122192431D01*
X130908094Y-122190351D01*
X130877224Y-122084095D01*
X130877423Y-122014225D01*
X130915365Y-121955555D01*
X130979004Y-121926712D01*
X130996300Y-121925500D01*
X132826421Y-121925500D01*
X132893460Y-121945185D01*
X132939215Y-121997989D01*
X132949159Y-122067147D01*
X132945497Y-122084095D01*
X132914000Y-122192505D01*
X132913999Y-122192511D01*
X132913804Y-122194998D01*
X132913805Y-122195000D01*
X135858395Y-122195000D01*
X135858395Y-122194998D01*
X135858200Y-122192511D01*
X135858199Y-122192508D01*
X135848492Y-122159093D01*
X135848693Y-122089224D01*
X135886635Y-122030555D01*
X135950274Y-122001712D01*
X135967569Y-122000500D01*
X137028942Y-122000500D01*
X137095981Y-122020185D01*
X137134479Y-122059401D01*
X137217288Y-122193656D01*
X137341344Y-122317712D01*
X137490666Y-122409814D01*
X137657203Y-122464999D01*
X137759991Y-122475500D01*
X138360008Y-122475499D01*
X138360016Y-122475498D01*
X138360019Y-122475498D01*
X138416302Y-122469748D01*
X138462797Y-122464999D01*
X138629334Y-122409814D01*
X138778656Y-122317712D01*
X138902712Y-122193656D01*
X138904752Y-122190347D01*
X138906745Y-122188555D01*
X138907193Y-122187989D01*
X138907289Y-122188065D01*
X138956694Y-122143623D01*
X139025656Y-122132395D01*
X139089740Y-122160234D01*
X139115829Y-122190339D01*
X139117681Y-122193341D01*
X139117683Y-122193344D01*
X139241654Y-122317315D01*
X139390875Y-122409356D01*
X139390880Y-122409358D01*
X139557302Y-122464505D01*
X139557309Y-122464506D01*
X139660019Y-122474999D01*
X140210000Y-122474999D01*
X140259972Y-122474999D01*
X140259986Y-122474998D01*
X140362697Y-122464505D01*
X140529119Y-122409358D01*
X140529124Y-122409356D01*
X140678345Y-122317315D01*
X140802315Y-122193345D01*
X140894356Y-122044124D01*
X140894358Y-122044119D01*
X140949505Y-121877697D01*
X140949506Y-121877690D01*
X140959999Y-121774986D01*
X140960000Y-121774973D01*
X140960000Y-121500000D01*
X140210000Y-121500000D01*
X140210000Y-122474999D01*
X139660019Y-122474999D01*
X139709999Y-122474998D01*
X139710000Y-122474998D01*
X139710000Y-121000000D01*
X140210000Y-121000000D01*
X140959999Y-121000000D01*
X140959999Y-120725028D01*
X140959998Y-120725013D01*
X140949505Y-120622302D01*
X140894358Y-120455880D01*
X140894356Y-120455875D01*
X140802315Y-120306654D01*
X140678345Y-120182684D01*
X140529124Y-120090643D01*
X140529119Y-120090641D01*
X140362697Y-120035494D01*
X140362690Y-120035493D01*
X140259986Y-120025000D01*
X140210000Y-120025000D01*
X140210000Y-121000000D01*
X139710000Y-121000000D01*
X139710000Y-120025000D01*
X139709999Y-120024999D01*
X139660029Y-120025000D01*
X139660011Y-120025001D01*
X139557302Y-120035494D01*
X139390880Y-120090641D01*
X139390875Y-120090643D01*
X139241654Y-120182684D01*
X139117683Y-120306655D01*
X139117679Y-120306660D01*
X139115826Y-120309665D01*
X139114018Y-120311290D01*
X139113202Y-120312323D01*
X139113025Y-120312183D01*
X139063874Y-120356385D01*
X138994911Y-120367601D01*
X138930831Y-120339752D01*
X138904753Y-120309653D01*
X138904737Y-120309628D01*
X138902712Y-120306344D01*
X138778656Y-120182288D01*
X138685888Y-120125069D01*
X138629336Y-120090187D01*
X138629331Y-120090185D01*
X138583243Y-120074913D01*
X138462797Y-120035001D01*
X138462795Y-120035000D01*
X138360010Y-120024500D01*
X137759998Y-120024500D01*
X137759980Y-120024501D01*
X137657203Y-120035000D01*
X137657200Y-120035001D01*
X137490668Y-120090185D01*
X137490663Y-120090187D01*
X137341342Y-120182289D01*
X137217289Y-120306342D01*
X137214237Y-120311290D01*
X137144410Y-120424500D01*
X137134481Y-120440597D01*
X137082533Y-120487321D01*
X137028942Y-120499500D01*
X135634342Y-120499500D01*
X135571221Y-120482232D01*
X135471498Y-120423256D01*
X135471497Y-120423255D01*
X135471496Y-120423255D01*
X135471493Y-120423254D01*
X135313673Y-120377402D01*
X135313667Y-120377401D01*
X135276801Y-120374500D01*
X135276794Y-120374500D01*
X133495406Y-120374500D01*
X133495398Y-120374500D01*
X133458532Y-120377401D01*
X133458526Y-120377402D01*
X133313367Y-120419576D01*
X133278772Y-120424500D01*
X130543428Y-120424500D01*
X130508833Y-120419576D01*
X130363673Y-120377402D01*
X130363667Y-120377401D01*
X130326801Y-120374500D01*
X130326794Y-120374500D01*
X128545406Y-120374500D01*
X128545398Y-120374500D01*
X128508532Y-120377401D01*
X128508526Y-120377402D01*
X128350706Y-120423254D01*
X128350705Y-120423254D01*
X128350702Y-120423256D01*
X128318612Y-120442233D01*
X128255494Y-120459500D01*
X125091058Y-120459500D01*
X125024019Y-120439815D01*
X124985519Y-120400597D01*
X124902712Y-120266344D01*
X124778656Y-120142288D01*
X124648762Y-120062169D01*
X124629336Y-120050187D01*
X124629331Y-120050185D01*
X124627862Y-120049698D01*
X124462797Y-119995001D01*
X124462795Y-119995000D01*
X124360016Y-119984500D01*
X124360009Y-119984500D01*
X123839818Y-119984500D01*
X123772779Y-119964815D01*
X123752137Y-119948181D01*
X123206009Y-119402052D01*
X123206002Y-119402046D01*
X123119289Y-119344107D01*
X123119289Y-119344108D01*
X123083083Y-119319916D01*
X123083080Y-119319914D01*
X123083079Y-119319914D01*
X122946505Y-119263343D01*
X122946495Y-119263340D01*
X122801508Y-119234500D01*
X122801506Y-119234500D01*
X110639682Y-119234500D01*
X110639676Y-119234500D01*
X110610842Y-119240234D01*
X110610843Y-119240235D01*
X110494693Y-119263339D01*
X110494683Y-119263342D01*
X110414681Y-119296479D01*
X110414682Y-119296480D01*
X110358110Y-119319914D01*
X110358105Y-119319916D01*
X110321899Y-119344108D01*
X110296698Y-119360947D01*
X110235182Y-119402049D01*
X110235179Y-119402052D01*
X108658780Y-120978450D01*
X108597457Y-121011935D01*
X108527765Y-121006951D01*
X108483418Y-120978450D01*
X107662021Y-120157052D01*
X107662020Y-120157051D01*
X107639925Y-120142288D01*
X107562358Y-120090460D01*
X107562358Y-120090459D01*
X107539095Y-120074916D01*
X107539090Y-120074913D01*
X107402517Y-120018343D01*
X107402507Y-120018340D01*
X107257520Y-119989500D01*
X107257518Y-119989500D01*
X104127701Y-119989500D01*
X104060662Y-119969815D01*
X104026126Y-119936623D01*
X103978494Y-119868597D01*
X103811402Y-119701506D01*
X103811395Y-119701501D01*
X103617834Y-119565967D01*
X103617830Y-119565965D01*
X103617828Y-119565964D01*
X103403663Y-119466097D01*
X103403659Y-119466096D01*
X103403655Y-119466094D01*
X103175413Y-119404938D01*
X103175403Y-119404936D01*
X102940001Y-119384341D01*
X102939998Y-119384341D01*
X102726985Y-119402977D01*
X102658485Y-119389210D01*
X102628497Y-119367130D01*
X101738549Y-118477181D01*
X101705064Y-118415858D01*
X101710048Y-118346166D01*
X101751920Y-118290233D01*
X101817384Y-118265816D01*
X101826230Y-118265500D01*
X105758837Y-118265500D01*
X105825876Y-118285185D01*
X105846518Y-118301819D01*
X106233549Y-118688850D01*
X106267034Y-118750173D01*
X106269271Y-118764376D01*
X106283253Y-118906332D01*
X106283253Y-118906333D01*
X106337604Y-119085502D01*
X106425862Y-119250623D01*
X106425864Y-119250626D01*
X106544642Y-119395357D01*
X106689373Y-119514135D01*
X106689376Y-119514137D01*
X106829085Y-119588812D01*
X106854499Y-119602396D01*
X107033666Y-119656746D01*
X107033668Y-119656747D01*
X107050374Y-119658392D01*
X107220000Y-119675099D01*
X107406331Y-119656747D01*
X107585501Y-119602396D01*
X107750625Y-119514136D01*
X107895357Y-119395357D01*
X108014136Y-119250625D01*
X108102396Y-119085501D01*
X108156747Y-118906331D01*
X108175099Y-118720000D01*
X108156747Y-118533669D01*
X108102396Y-118354499D01*
X108074238Y-118301819D01*
X108014137Y-118189376D01*
X108014135Y-118189373D01*
X107895357Y-118044642D01*
X107750626Y-117925864D01*
X107750623Y-117925862D01*
X107585502Y-117837604D01*
X107406332Y-117783253D01*
X107264376Y-117769271D01*
X107199589Y-117743110D01*
X107188850Y-117733549D01*
X107077482Y-117622181D01*
X107043997Y-117560858D01*
X107048981Y-117491166D01*
X107090853Y-117435233D01*
X107156317Y-117410816D01*
X107165163Y-117410500D01*
X139695890Y-117410500D01*
X139695892Y-117410500D01*
X139823186Y-117376392D01*
X139937314Y-117310500D01*
X140030500Y-117217314D01*
X140096392Y-117103186D01*
X140130500Y-116975892D01*
X140130500Y-116914292D01*
X140130798Y-116905706D01*
X140137604Y-116807648D01*
X140829500Y-116807648D01*
X140829500Y-117012351D01*
X140861522Y-117214534D01*
X140924781Y-117409223D01*
X141017715Y-117591613D01*
X141138028Y-117757213D01*
X141282786Y-117901971D01*
X141437749Y-118014556D01*
X141448390Y-118022287D01*
X141564607Y-118081503D01*
X141630776Y-118115218D01*
X141630778Y-118115218D01*
X141630781Y-118115220D01*
X141735137Y-118149127D01*
X141825465Y-118178477D01*
X141894272Y-118189375D01*
X142027648Y-118210500D01*
X142027649Y-118210500D01*
X142232351Y-118210500D01*
X142232352Y-118210500D01*
X142434534Y-118178477D01*
X142629219Y-118115220D01*
X142811610Y-118022287D01*
X142944329Y-117925862D01*
X142977213Y-117901971D01*
X142977215Y-117901968D01*
X142977219Y-117901966D01*
X143121966Y-117757219D01*
X143121968Y-117757215D01*
X143121971Y-117757213D01*
X143174732Y-117684590D01*
X143242287Y-117591610D01*
X143335220Y-117409219D01*
X143398477Y-117214534D01*
X143430500Y-117012352D01*
X143430500Y-116807648D01*
X143416144Y-116717010D01*
X143398477Y-116605465D01*
X143335218Y-116410776D01*
X143301503Y-116344607D01*
X143242287Y-116228390D01*
X143212722Y-116187697D01*
X143121971Y-116062786D01*
X142977213Y-115918028D01*
X142811613Y-115797715D01*
X142811612Y-115797714D01*
X142811610Y-115797713D01*
X142737494Y-115759949D01*
X142629223Y-115704781D01*
X142434534Y-115641522D01*
X142259995Y-115613878D01*
X142232352Y-115609500D01*
X142027648Y-115609500D01*
X142003329Y-115613351D01*
X141825465Y-115641522D01*
X141630776Y-115704781D01*
X141448386Y-115797715D01*
X141282786Y-115918028D01*
X141138028Y-116062786D01*
X141017715Y-116228386D01*
X140924781Y-116410776D01*
X140861522Y-116605465D01*
X140829500Y-116807648D01*
X140137604Y-116807648D01*
X140149078Y-116642336D01*
X140151447Y-116625348D01*
X140205057Y-116371214D01*
X140209750Y-116354723D01*
X140297948Y-116110449D01*
X140304876Y-116094758D01*
X140425984Y-115864999D01*
X140435009Y-115850423D01*
X140586694Y-115639605D01*
X140597654Y-115626407D01*
X140777011Y-115438567D01*
X140789685Y-115427013D01*
X140993273Y-115265753D01*
X141007425Y-115256060D01*
X141231336Y-115124475D01*
X141246683Y-115116832D01*
X141486626Y-115017446D01*
X141502902Y-115011990D01*
X141754265Y-114946707D01*
X141771133Y-114943554D01*
X142029119Y-114913624D01*
X142046248Y-114912832D01*
X142305894Y-114918831D01*
G37*
%TD.AperFunction*%
%TA.AperFunction,Conductor*%
G36*
X117602786Y-129275185D02*
G01*
X117623428Y-129291819D01*
X121754187Y-133422578D01*
X121787672Y-133483901D01*
X121782688Y-133553593D01*
X121740816Y-133609526D01*
X121731604Y-133615797D01*
X121672444Y-133652287D01*
X121548389Y-133776342D01*
X121456287Y-133925663D01*
X121456285Y-133925668D01*
X121448161Y-133950185D01*
X121401101Y-134092203D01*
X121401101Y-134092204D01*
X121401100Y-134092204D01*
X121390600Y-134194983D01*
X121390600Y-134380499D01*
X121370915Y-134447538D01*
X121318111Y-134493293D01*
X121266600Y-134504499D01*
X118972886Y-134504499D01*
X118905847Y-134484814D01*
X118898510Y-134479717D01*
X118897843Y-134479217D01*
X118856009Y-134423256D01*
X118851070Y-134353561D01*
X118884596Y-134292260D01*
X118897908Y-134280732D01*
X118901828Y-134277796D01*
X118901831Y-134277796D01*
X119017046Y-134191546D01*
X119019186Y-134188687D01*
X119025920Y-134179692D01*
X119081853Y-134137820D01*
X119125188Y-134130001D01*
X119159500Y-134130001D01*
X119159500Y-134078173D01*
X119159499Y-134078156D01*
X119153098Y-134018628D01*
X119151314Y-134011077D01*
X119154143Y-134010408D01*
X119150138Y-133954347D01*
X119152250Y-133947154D01*
X119153588Y-133941490D01*
X119153591Y-133941483D01*
X119160000Y-133881873D01*
X119159999Y-133278128D01*
X119153591Y-133218517D01*
X119153590Y-133218515D01*
X119153590Y-133218512D01*
X119151808Y-133210969D01*
X119154458Y-133210342D01*
X119150402Y-133153644D01*
X119152014Y-133148155D01*
X119153588Y-133141491D01*
X119153591Y-133141484D01*
X119160000Y-133081874D01*
X119159999Y-132478129D01*
X119153591Y-132418518D01*
X119153590Y-132418515D01*
X119153590Y-132418513D01*
X119151808Y-132410970D01*
X119154461Y-132410342D01*
X119150399Y-132353662D01*
X119152009Y-132348179D01*
X119153589Y-132341489D01*
X119153588Y-132341489D01*
X119153591Y-132341484D01*
X119160000Y-132281874D01*
X119159999Y-131678129D01*
X119154235Y-131624505D01*
X119153591Y-131618517D01*
X119103297Y-131483672D01*
X119103293Y-131483665D01*
X119017047Y-131368456D01*
X119017044Y-131368453D01*
X118901835Y-131282207D01*
X118901828Y-131282203D01*
X118766982Y-131231909D01*
X118766983Y-131231909D01*
X118707383Y-131225502D01*
X118707381Y-131225501D01*
X118707373Y-131225501D01*
X118707365Y-131225501D01*
X117359598Y-131225501D01*
X117292559Y-131205816D01*
X117246804Y-131153012D01*
X117235598Y-131101501D01*
X117235598Y-129753729D01*
X117235597Y-129753723D01*
X117235071Y-129748834D01*
X117229190Y-129694117D01*
X117215142Y-129656453D01*
X117178896Y-129559271D01*
X117178894Y-129559268D01*
X117178891Y-129559264D01*
X117099948Y-129453809D01*
X117075531Y-129388348D01*
X117090382Y-129320074D01*
X117139787Y-129270669D01*
X117199215Y-129255500D01*
X117535747Y-129255500D01*
X117602786Y-129275185D01*
G37*
%TD.AperFunction*%
%TA.AperFunction,Conductor*%
G36*
X135996288Y-129731681D02*
G01*
X136032782Y-129756942D01*
X136718181Y-130442341D01*
X136751666Y-130503664D01*
X136754500Y-130530022D01*
X136754500Y-130854936D01*
X136734815Y-130921975D01*
X136718181Y-130942617D01*
X136022642Y-131638155D01*
X135961319Y-131671640D01*
X135891627Y-131666656D01*
X135835694Y-131624784D01*
X135815884Y-131585065D01*
X135812845Y-131574605D01*
X135812844Y-131574603D01*
X135812844Y-131574602D01*
X135729181Y-131433135D01*
X135729178Y-131433132D01*
X135724398Y-131426969D01*
X135726735Y-131425155D01*
X135699898Y-131376050D01*
X135704856Y-131306356D01*
X135725654Y-131273998D01*
X135724003Y-131272717D01*
X135728786Y-131266550D01*
X135812381Y-131125198D01*
X135858200Y-130967486D01*
X135858395Y-130965001D01*
X135858395Y-130965000D01*
X134510100Y-130965000D01*
X134443061Y-130945315D01*
X134397306Y-130892511D01*
X134386100Y-130841000D01*
X134386100Y-130589000D01*
X134405785Y-130521961D01*
X134458589Y-130476206D01*
X134510100Y-130465000D01*
X135858395Y-130465000D01*
X135858395Y-130464998D01*
X135858200Y-130462513D01*
X135812381Y-130304801D01*
X135728785Y-130163447D01*
X135724000Y-130157278D01*
X135726466Y-130155364D01*
X135699902Y-130106776D01*
X135704849Y-130037082D01*
X135725956Y-130004232D01*
X135724401Y-130003026D01*
X135729177Y-129996868D01*
X135729181Y-129996865D01*
X135812844Y-129855398D01*
X135826025Y-129810027D01*
X135863630Y-129751144D01*
X135927102Y-129721936D01*
X135996288Y-129731681D01*
G37*
%TD.AperFunction*%
%TA.AperFunction,Conductor*%
G36*
X100650000Y-122070633D02*
G01*
X100863483Y-122013433D01*
X100863492Y-122013429D01*
X101077578Y-121913600D01*
X101271082Y-121778105D01*
X101438105Y-121611082D01*
X101568119Y-121425405D01*
X101622696Y-121381781D01*
X101692195Y-121374588D01*
X101754549Y-121406110D01*
X101771269Y-121425405D01*
X101901505Y-121611401D01*
X102068599Y-121778495D01*
X102153148Y-121837697D01*
X102262165Y-121914032D01*
X102262167Y-121914033D01*
X102262170Y-121914035D01*
X102476337Y-122013903D01*
X102476343Y-122013904D01*
X102476344Y-122013905D01*
X102531285Y-122028626D01*
X102704592Y-122075063D01*
X102881034Y-122090500D01*
X102939999Y-122095659D01*
X102940000Y-122095659D01*
X102940001Y-122095659D01*
X102998966Y-122090500D01*
X103175408Y-122075063D01*
X103403663Y-122013903D01*
X103617830Y-121914035D01*
X103811401Y-121778495D01*
X103978495Y-121611401D01*
X104026127Y-121543376D01*
X104080704Y-121499751D01*
X104127701Y-121490500D01*
X106821370Y-121490500D01*
X106888409Y-121510185D01*
X106909051Y-121526819D01*
X107334281Y-121952048D01*
X107367766Y-122013371D01*
X107370600Y-122039729D01*
X107370600Y-122440001D01*
X107370601Y-122440019D01*
X107381100Y-122542796D01*
X107381101Y-122542799D01*
X107436285Y-122709331D01*
X107436287Y-122709336D01*
X107446799Y-122726378D01*
X107526378Y-122855398D01*
X107528389Y-122858657D01*
X107622051Y-122952319D01*
X107655536Y-123013642D01*
X107650552Y-123083334D01*
X107622051Y-123127681D01*
X107528388Y-123221343D01*
X107528385Y-123221347D01*
X107453637Y-123342533D01*
X107401689Y-123389258D01*
X107332727Y-123400479D01*
X107268645Y-123372636D01*
X107260418Y-123365117D01*
X106560609Y-122665307D01*
X106560605Y-122665304D01*
X106449975Y-122591383D01*
X106449965Y-122591378D01*
X106327036Y-122540459D01*
X106327028Y-122540457D01*
X106196535Y-122514500D01*
X106196531Y-122514500D01*
X100641163Y-122514500D01*
X100574124Y-122494815D01*
X100553482Y-122478181D01*
X100186319Y-122111018D01*
X100152834Y-122049695D01*
X100150000Y-122023337D01*
X100150000Y-121173012D01*
X100207007Y-121205925D01*
X100334174Y-121240000D01*
X100465826Y-121240000D01*
X100592993Y-121205925D01*
X100650000Y-121173012D01*
X100650000Y-122070633D01*
G37*
%TD.AperFunction*%
%TD*%
M02*
