%TF.GenerationSoftware,KiCad,Pcbnew,8.0.8*%
%TF.CreationDate,2025-09-08T13:39:14+03:00*%
%TF.ProjectId,MCU datalogger,4d435520-6461-4746-916c-6f676765722e,rev?*%
%TF.SameCoordinates,Original*%
%TF.FileFunction,Legend,Bot*%
%TF.FilePolarity,Positive*%
%FSLAX46Y46*%
G04 Gerber Fmt 4.6, Leading zero omitted, Abs format (unit mm)*
G04 Created by KiCad (PCBNEW 8.0.8) date 2025-09-08 13:39:14*
%MOMM*%
%LPD*%
G01*
G04 APERTURE LIST*
%ADD10C,0.100000*%
G04 APERTURE END LIST*
D10*
X116196115Y-129372419D02*
X116196115Y-128372419D01*
X116196115Y-128372419D02*
X115958020Y-128372419D01*
X115958020Y-128372419D02*
X115815163Y-128420038D01*
X115815163Y-128420038D02*
X115719925Y-128515276D01*
X115719925Y-128515276D02*
X115672306Y-128610514D01*
X115672306Y-128610514D02*
X115624687Y-128800990D01*
X115624687Y-128800990D02*
X115624687Y-128943847D01*
X115624687Y-128943847D02*
X115672306Y-129134323D01*
X115672306Y-129134323D02*
X115719925Y-129229561D01*
X115719925Y-129229561D02*
X115815163Y-129324800D01*
X115815163Y-129324800D02*
X115958020Y-129372419D01*
X115958020Y-129372419D02*
X116196115Y-129372419D01*
X115243734Y-129086704D02*
X114767544Y-129086704D01*
X115338972Y-129372419D02*
X115005639Y-128372419D01*
X115005639Y-128372419D02*
X114672306Y-129372419D01*
X114481829Y-128372419D02*
X113910401Y-128372419D01*
X114196115Y-129372419D02*
X114196115Y-128372419D01*
X113624686Y-129086704D02*
X113148496Y-129086704D01*
X113719924Y-129372419D02*
X113386591Y-128372419D01*
X113386591Y-128372419D02*
X113053258Y-129372419D01*
X112243734Y-129372419D02*
X112719924Y-129372419D01*
X112719924Y-129372419D02*
X112719924Y-128372419D01*
X111719924Y-128372419D02*
X111529448Y-128372419D01*
X111529448Y-128372419D02*
X111434210Y-128420038D01*
X111434210Y-128420038D02*
X111338972Y-128515276D01*
X111338972Y-128515276D02*
X111291353Y-128705752D01*
X111291353Y-128705752D02*
X111291353Y-129039085D01*
X111291353Y-129039085D02*
X111338972Y-129229561D01*
X111338972Y-129229561D02*
X111434210Y-129324800D01*
X111434210Y-129324800D02*
X111529448Y-129372419D01*
X111529448Y-129372419D02*
X111719924Y-129372419D01*
X111719924Y-129372419D02*
X111815162Y-129324800D01*
X111815162Y-129324800D02*
X111910400Y-129229561D01*
X111910400Y-129229561D02*
X111958019Y-129039085D01*
X111958019Y-129039085D02*
X111958019Y-128705752D01*
X111958019Y-128705752D02*
X111910400Y-128515276D01*
X111910400Y-128515276D02*
X111815162Y-128420038D01*
X111815162Y-128420038D02*
X111719924Y-128372419D01*
X110338972Y-128420038D02*
X110434210Y-128372419D01*
X110434210Y-128372419D02*
X110577067Y-128372419D01*
X110577067Y-128372419D02*
X110719924Y-128420038D01*
X110719924Y-128420038D02*
X110815162Y-128515276D01*
X110815162Y-128515276D02*
X110862781Y-128610514D01*
X110862781Y-128610514D02*
X110910400Y-128800990D01*
X110910400Y-128800990D02*
X110910400Y-128943847D01*
X110910400Y-128943847D02*
X110862781Y-129134323D01*
X110862781Y-129134323D02*
X110815162Y-129229561D01*
X110815162Y-129229561D02*
X110719924Y-129324800D01*
X110719924Y-129324800D02*
X110577067Y-129372419D01*
X110577067Y-129372419D02*
X110481829Y-129372419D01*
X110481829Y-129372419D02*
X110338972Y-129324800D01*
X110338972Y-129324800D02*
X110291353Y-129277180D01*
X110291353Y-129277180D02*
X110291353Y-128943847D01*
X110291353Y-128943847D02*
X110481829Y-128943847D01*
X109338972Y-128420038D02*
X109434210Y-128372419D01*
X109434210Y-128372419D02*
X109577067Y-128372419D01*
X109577067Y-128372419D02*
X109719924Y-128420038D01*
X109719924Y-128420038D02*
X109815162Y-128515276D01*
X109815162Y-128515276D02*
X109862781Y-128610514D01*
X109862781Y-128610514D02*
X109910400Y-128800990D01*
X109910400Y-128800990D02*
X109910400Y-128943847D01*
X109910400Y-128943847D02*
X109862781Y-129134323D01*
X109862781Y-129134323D02*
X109815162Y-129229561D01*
X109815162Y-129229561D02*
X109719924Y-129324800D01*
X109719924Y-129324800D02*
X109577067Y-129372419D01*
X109577067Y-129372419D02*
X109481829Y-129372419D01*
X109481829Y-129372419D02*
X109338972Y-129324800D01*
X109338972Y-129324800D02*
X109291353Y-129277180D01*
X109291353Y-129277180D02*
X109291353Y-128943847D01*
X109291353Y-128943847D02*
X109481829Y-128943847D01*
X108862781Y-128848609D02*
X108529448Y-128848609D01*
X108386591Y-129372419D02*
X108862781Y-129372419D01*
X108862781Y-129372419D02*
X108862781Y-128372419D01*
X108862781Y-128372419D02*
X108386591Y-128372419D01*
X107386591Y-129372419D02*
X107719924Y-128896228D01*
X107958019Y-129372419D02*
X107958019Y-128372419D01*
X107958019Y-128372419D02*
X107577067Y-128372419D01*
X107577067Y-128372419D02*
X107481829Y-128420038D01*
X107481829Y-128420038D02*
X107434210Y-128467657D01*
X107434210Y-128467657D02*
X107386591Y-128562895D01*
X107386591Y-128562895D02*
X107386591Y-128705752D01*
X107386591Y-128705752D02*
X107434210Y-128800990D01*
X107434210Y-128800990D02*
X107481829Y-128848609D01*
X107481829Y-128848609D02*
X107577067Y-128896228D01*
X107577067Y-128896228D02*
X107958019Y-128896228D01*
X106291352Y-128372419D02*
X106053257Y-129372419D01*
X106053257Y-129372419D02*
X105862781Y-128658133D01*
X105862781Y-128658133D02*
X105672305Y-129372419D01*
X105672305Y-129372419D02*
X105434210Y-128372419D01*
X105053257Y-129372419D02*
X105053257Y-128372419D01*
X104719924Y-128372419D02*
X104148496Y-128372419D01*
X104434210Y-129372419D02*
X104434210Y-128372419D01*
X103815162Y-129372419D02*
X103815162Y-128372419D01*
X103815162Y-128848609D02*
X103243734Y-128848609D01*
X103243734Y-129372419D02*
X103243734Y-128372419D01*
X102053257Y-129086704D02*
X101577067Y-129086704D01*
X102148495Y-129372419D02*
X101815162Y-128372419D01*
X101815162Y-128372419D02*
X101481829Y-129372419D01*
X101291352Y-128372419D02*
X100719924Y-128372419D01*
X101005638Y-129372419D02*
X101005638Y-128372419D01*
X100386590Y-129372419D02*
X100386590Y-128372419D01*
X100386590Y-128372419D02*
X100053257Y-129086704D01*
X100053257Y-129086704D02*
X99719924Y-128372419D01*
X99719924Y-128372419D02*
X99719924Y-129372419D01*
X99243733Y-128848609D02*
X98910400Y-128848609D01*
X98767543Y-129372419D02*
X99243733Y-129372419D01*
X99243733Y-129372419D02*
X99243733Y-128372419D01*
X99243733Y-128372419D02*
X98767543Y-128372419D01*
X97815162Y-128420038D02*
X97910400Y-128372419D01*
X97910400Y-128372419D02*
X98053257Y-128372419D01*
X98053257Y-128372419D02*
X98196114Y-128420038D01*
X98196114Y-128420038D02*
X98291352Y-128515276D01*
X98291352Y-128515276D02*
X98338971Y-128610514D01*
X98338971Y-128610514D02*
X98386590Y-128800990D01*
X98386590Y-128800990D02*
X98386590Y-128943847D01*
X98386590Y-128943847D02*
X98338971Y-129134323D01*
X98338971Y-129134323D02*
X98291352Y-129229561D01*
X98291352Y-129229561D02*
X98196114Y-129324800D01*
X98196114Y-129324800D02*
X98053257Y-129372419D01*
X98053257Y-129372419D02*
X97958019Y-129372419D01*
X97958019Y-129372419D02*
X97815162Y-129324800D01*
X97815162Y-129324800D02*
X97767543Y-129277180D01*
X97767543Y-129277180D02*
X97767543Y-128943847D01*
X97767543Y-128943847D02*
X97958019Y-128943847D01*
X97386590Y-129086704D02*
X96910400Y-129086704D01*
X97481828Y-129372419D02*
X97148495Y-128372419D01*
X97148495Y-128372419D02*
X96815162Y-129372419D01*
X96577066Y-128372419D02*
X95958019Y-128372419D01*
X95958019Y-128372419D02*
X96291352Y-128753371D01*
X96291352Y-128753371D02*
X96148495Y-128753371D01*
X96148495Y-128753371D02*
X96053257Y-128800990D01*
X96053257Y-128800990D02*
X96005638Y-128848609D01*
X96005638Y-128848609D02*
X95958019Y-128943847D01*
X95958019Y-128943847D02*
X95958019Y-129181942D01*
X95958019Y-129181942D02*
X96005638Y-129277180D01*
X96005638Y-129277180D02*
X96053257Y-129324800D01*
X96053257Y-129324800D02*
X96148495Y-129372419D01*
X96148495Y-129372419D02*
X96434209Y-129372419D01*
X96434209Y-129372419D02*
X96529447Y-129324800D01*
X96529447Y-129324800D02*
X96577066Y-129277180D01*
X95577066Y-128467657D02*
X95529447Y-128420038D01*
X95529447Y-128420038D02*
X95434209Y-128372419D01*
X95434209Y-128372419D02*
X95196114Y-128372419D01*
X95196114Y-128372419D02*
X95100876Y-128420038D01*
X95100876Y-128420038D02*
X95053257Y-128467657D01*
X95053257Y-128467657D02*
X95005638Y-128562895D01*
X95005638Y-128562895D02*
X95005638Y-128658133D01*
X95005638Y-128658133D02*
X95053257Y-128800990D01*
X95053257Y-128800990D02*
X95624685Y-129372419D01*
X95624685Y-129372419D02*
X95005638Y-129372419D01*
X94434209Y-128800990D02*
X94529447Y-128753371D01*
X94529447Y-128753371D02*
X94577066Y-128705752D01*
X94577066Y-128705752D02*
X94624685Y-128610514D01*
X94624685Y-128610514D02*
X94624685Y-128562895D01*
X94624685Y-128562895D02*
X94577066Y-128467657D01*
X94577066Y-128467657D02*
X94529447Y-128420038D01*
X94529447Y-128420038D02*
X94434209Y-128372419D01*
X94434209Y-128372419D02*
X94243733Y-128372419D01*
X94243733Y-128372419D02*
X94148495Y-128420038D01*
X94148495Y-128420038D02*
X94100876Y-128467657D01*
X94100876Y-128467657D02*
X94053257Y-128562895D01*
X94053257Y-128562895D02*
X94053257Y-128610514D01*
X94053257Y-128610514D02*
X94100876Y-128705752D01*
X94100876Y-128705752D02*
X94148495Y-128753371D01*
X94148495Y-128753371D02*
X94243733Y-128800990D01*
X94243733Y-128800990D02*
X94434209Y-128800990D01*
X94434209Y-128800990D02*
X94529447Y-128848609D01*
X94529447Y-128848609D02*
X94577066Y-128896228D01*
X94577066Y-128896228D02*
X94624685Y-128991466D01*
X94624685Y-128991466D02*
X94624685Y-129181942D01*
X94624685Y-129181942D02*
X94577066Y-129277180D01*
X94577066Y-129277180D02*
X94529447Y-129324800D01*
X94529447Y-129324800D02*
X94434209Y-129372419D01*
X94434209Y-129372419D02*
X94243733Y-129372419D01*
X94243733Y-129372419D02*
X94148495Y-129324800D01*
X94148495Y-129324800D02*
X94100876Y-129277180D01*
X94100876Y-129277180D02*
X94053257Y-129181942D01*
X94053257Y-129181942D02*
X94053257Y-128991466D01*
X94053257Y-128991466D02*
X94100876Y-128896228D01*
X94100876Y-128896228D02*
X94148495Y-128848609D01*
X94148495Y-128848609D02*
X94243733Y-128800990D01*
X93624685Y-129372419D02*
X93624685Y-128372419D01*
X93624685Y-128372419D02*
X93243733Y-128372419D01*
X93243733Y-128372419D02*
X93148495Y-128420038D01*
X93148495Y-128420038D02*
X93100876Y-128467657D01*
X93100876Y-128467657D02*
X93053257Y-128562895D01*
X93053257Y-128562895D02*
X93053257Y-128705752D01*
X93053257Y-128705752D02*
X93100876Y-128800990D01*
X93100876Y-128800990D02*
X93148495Y-128848609D01*
X93148495Y-128848609D02*
X93243733Y-128896228D01*
X93243733Y-128896228D02*
X93624685Y-128896228D01*
X92624685Y-128991466D02*
X91862781Y-128991466D01*
X91434209Y-129086704D02*
X90958019Y-129086704D01*
X91529447Y-129372419D02*
X91196114Y-128372419D01*
X91196114Y-128372419D02*
X90862781Y-129372419D01*
X90529447Y-128372419D02*
X90529447Y-129181942D01*
X90529447Y-129181942D02*
X90481828Y-129277180D01*
X90481828Y-129277180D02*
X90434209Y-129324800D01*
X90434209Y-129324800D02*
X90338971Y-129372419D01*
X90338971Y-129372419D02*
X90148495Y-129372419D01*
X90148495Y-129372419D02*
X90053257Y-129324800D01*
X90053257Y-129324800D02*
X90005638Y-129277180D01*
X90005638Y-129277180D02*
X89958019Y-129181942D01*
X89958019Y-129181942D02*
X89958019Y-128372419D01*
X115624687Y-131277180D02*
X115672306Y-131324800D01*
X115672306Y-131324800D02*
X115815163Y-131372419D01*
X115815163Y-131372419D02*
X115910401Y-131372419D01*
X115910401Y-131372419D02*
X116053258Y-131324800D01*
X116053258Y-131324800D02*
X116148496Y-131229561D01*
X116148496Y-131229561D02*
X116196115Y-131134323D01*
X116196115Y-131134323D02*
X116243734Y-130943847D01*
X116243734Y-130943847D02*
X116243734Y-130800990D01*
X116243734Y-130800990D02*
X116196115Y-130610514D01*
X116196115Y-130610514D02*
X116148496Y-130515276D01*
X116148496Y-130515276D02*
X116053258Y-130420038D01*
X116053258Y-130420038D02*
X115910401Y-130372419D01*
X115910401Y-130372419D02*
X115815163Y-130372419D01*
X115815163Y-130372419D02*
X115672306Y-130420038D01*
X115672306Y-130420038D02*
X115624687Y-130467657D01*
X114624687Y-131372419D02*
X114958020Y-130896228D01*
X115196115Y-131372419D02*
X115196115Y-130372419D01*
X115196115Y-130372419D02*
X114815163Y-130372419D01*
X114815163Y-130372419D02*
X114719925Y-130420038D01*
X114719925Y-130420038D02*
X114672306Y-130467657D01*
X114672306Y-130467657D02*
X114624687Y-130562895D01*
X114624687Y-130562895D02*
X114624687Y-130705752D01*
X114624687Y-130705752D02*
X114672306Y-130800990D01*
X114672306Y-130800990D02*
X114719925Y-130848609D01*
X114719925Y-130848609D02*
X114815163Y-130896228D01*
X114815163Y-130896228D02*
X115196115Y-130896228D01*
X114196115Y-130848609D02*
X113862782Y-130848609D01*
X113719925Y-131372419D02*
X114196115Y-131372419D01*
X114196115Y-131372419D02*
X114196115Y-130372419D01*
X114196115Y-130372419D02*
X113719925Y-130372419D01*
X113338972Y-131086704D02*
X112862782Y-131086704D01*
X113434210Y-131372419D02*
X113100877Y-130372419D01*
X113100877Y-130372419D02*
X112767544Y-131372419D01*
X112577067Y-130372419D02*
X112005639Y-130372419D01*
X112291353Y-131372419D02*
X112291353Y-130372419D01*
X111672305Y-130848609D02*
X111338972Y-130848609D01*
X111196115Y-131372419D02*
X111672305Y-131372419D01*
X111672305Y-131372419D02*
X111672305Y-130372419D01*
X111672305Y-130372419D02*
X111196115Y-130372419D01*
X110767543Y-131372419D02*
X110767543Y-130372419D01*
X110767543Y-130372419D02*
X110529448Y-130372419D01*
X110529448Y-130372419D02*
X110386591Y-130420038D01*
X110386591Y-130420038D02*
X110291353Y-130515276D01*
X110291353Y-130515276D02*
X110243734Y-130610514D01*
X110243734Y-130610514D02*
X110196115Y-130800990D01*
X110196115Y-130800990D02*
X110196115Y-130943847D01*
X110196115Y-130943847D02*
X110243734Y-131134323D01*
X110243734Y-131134323D02*
X110291353Y-131229561D01*
X110291353Y-131229561D02*
X110386591Y-131324800D01*
X110386591Y-131324800D02*
X110529448Y-131372419D01*
X110529448Y-131372419D02*
X110767543Y-131372419D01*
X108672305Y-130848609D02*
X108529448Y-130896228D01*
X108529448Y-130896228D02*
X108481829Y-130943847D01*
X108481829Y-130943847D02*
X108434210Y-131039085D01*
X108434210Y-131039085D02*
X108434210Y-131181942D01*
X108434210Y-131181942D02*
X108481829Y-131277180D01*
X108481829Y-131277180D02*
X108529448Y-131324800D01*
X108529448Y-131324800D02*
X108624686Y-131372419D01*
X108624686Y-131372419D02*
X109005638Y-131372419D01*
X109005638Y-131372419D02*
X109005638Y-130372419D01*
X109005638Y-130372419D02*
X108672305Y-130372419D01*
X108672305Y-130372419D02*
X108577067Y-130420038D01*
X108577067Y-130420038D02*
X108529448Y-130467657D01*
X108529448Y-130467657D02*
X108481829Y-130562895D01*
X108481829Y-130562895D02*
X108481829Y-130658133D01*
X108481829Y-130658133D02*
X108529448Y-130753371D01*
X108529448Y-130753371D02*
X108577067Y-130800990D01*
X108577067Y-130800990D02*
X108672305Y-130848609D01*
X108672305Y-130848609D02*
X109005638Y-130848609D01*
X107815162Y-130896228D02*
X107815162Y-131372419D01*
X108148495Y-130372419D02*
X107815162Y-130896228D01*
X107815162Y-130896228D02*
X107481829Y-130372419D01*
X106434209Y-131324800D02*
X106291352Y-131372419D01*
X106291352Y-131372419D02*
X106053257Y-131372419D01*
X106053257Y-131372419D02*
X105958019Y-131324800D01*
X105958019Y-131324800D02*
X105910400Y-131277180D01*
X105910400Y-131277180D02*
X105862781Y-131181942D01*
X105862781Y-131181942D02*
X105862781Y-131086704D01*
X105862781Y-131086704D02*
X105910400Y-130991466D01*
X105910400Y-130991466D02*
X105958019Y-130943847D01*
X105958019Y-130943847D02*
X106053257Y-130896228D01*
X106053257Y-130896228D02*
X106243733Y-130848609D01*
X106243733Y-130848609D02*
X106338971Y-130800990D01*
X106338971Y-130800990D02*
X106386590Y-130753371D01*
X106386590Y-130753371D02*
X106434209Y-130658133D01*
X106434209Y-130658133D02*
X106434209Y-130562895D01*
X106434209Y-130562895D02*
X106386590Y-130467657D01*
X106386590Y-130467657D02*
X106338971Y-130420038D01*
X106338971Y-130420038D02*
X106243733Y-130372419D01*
X106243733Y-130372419D02*
X106005638Y-130372419D01*
X106005638Y-130372419D02*
X105862781Y-130420038D01*
X105481828Y-131086704D02*
X105005638Y-131086704D01*
X105577066Y-131372419D02*
X105243733Y-130372419D01*
X105243733Y-130372419D02*
X104910400Y-131372419D01*
X104577066Y-131372419D02*
X104577066Y-130372419D01*
X104577066Y-130372419D02*
X104338971Y-130372419D01*
X104338971Y-130372419D02*
X104196114Y-130420038D01*
X104196114Y-130420038D02*
X104100876Y-130515276D01*
X104100876Y-130515276D02*
X104053257Y-130610514D01*
X104053257Y-130610514D02*
X104005638Y-130800990D01*
X104005638Y-130800990D02*
X104005638Y-130943847D01*
X104005638Y-130943847D02*
X104053257Y-131134323D01*
X104053257Y-131134323D02*
X104100876Y-131229561D01*
X104100876Y-131229561D02*
X104196114Y-131324800D01*
X104196114Y-131324800D02*
X104338971Y-131372419D01*
X104338971Y-131372419D02*
X104577066Y-131372419D01*
X103577066Y-131372419D02*
X103577066Y-130372419D01*
X103100876Y-131372419D02*
X103100876Y-130372419D01*
X102529448Y-131372419D02*
X102958019Y-130800990D01*
X102529448Y-130372419D02*
X103100876Y-130943847D01*
X101005638Y-130848609D02*
X100862781Y-130896228D01*
X100862781Y-130896228D02*
X100815162Y-130943847D01*
X100815162Y-130943847D02*
X100767543Y-131039085D01*
X100767543Y-131039085D02*
X100767543Y-131181942D01*
X100767543Y-131181942D02*
X100815162Y-131277180D01*
X100815162Y-131277180D02*
X100862781Y-131324800D01*
X100862781Y-131324800D02*
X100958019Y-131372419D01*
X100958019Y-131372419D02*
X101338971Y-131372419D01*
X101338971Y-131372419D02*
X101338971Y-130372419D01*
X101338971Y-130372419D02*
X101005638Y-130372419D01*
X101005638Y-130372419D02*
X100910400Y-130420038D01*
X100910400Y-130420038D02*
X100862781Y-130467657D01*
X100862781Y-130467657D02*
X100815162Y-130562895D01*
X100815162Y-130562895D02*
X100815162Y-130658133D01*
X100815162Y-130658133D02*
X100862781Y-130753371D01*
X100862781Y-130753371D02*
X100910400Y-130800990D01*
X100910400Y-130800990D02*
X101005638Y-130848609D01*
X101005638Y-130848609D02*
X101338971Y-130848609D01*
X100386590Y-131086704D02*
X99910400Y-131086704D01*
X100481828Y-131372419D02*
X100148495Y-130372419D01*
X100148495Y-130372419D02*
X99815162Y-131372419D01*
X99005638Y-131372419D02*
X99481828Y-131372419D01*
X99481828Y-131372419D02*
X99481828Y-130372419D01*
M02*
