%TF.GenerationSoftware,KiCad,Pcbnew,8.0.8*%
%TF.CreationDate,2025-09-08T13:39:14+03:00*%
%TF.ProjectId,MCU datalogger,4d435520-6461-4746-916c-6f676765722e,rev?*%
%TF.SameCoordinates,Original*%
%TF.FileFunction,Copper,L2,Bot*%
%TF.FilePolarity,Positive*%
%FSLAX46Y46*%
G04 Gerber Fmt 4.6, Leading zero omitted, Abs format (unit mm)*
G04 Created by KiCad (PCBNEW 8.0.8) date 2025-09-08 13:39:14*
%MOMM*%
%LPD*%
G01*
G04 APERTURE LIST*
%TA.AperFunction,ComponentPad*%
%ADD10R,1.700000X1.700000*%
%TD*%
%TA.AperFunction,ComponentPad*%
%ADD11O,1.700000X1.700000*%
%TD*%
%TA.AperFunction,ViaPad*%
%ADD12C,0.900000*%
%TD*%
%TA.AperFunction,ViaPad*%
%ADD13C,1.100000*%
%TD*%
%TA.AperFunction,Conductor*%
%ADD14C,0.500000*%
%TD*%
%TA.AperFunction,Conductor*%
%ADD15C,0.350000*%
%TD*%
G04 APERTURE END LIST*
D10*
%TO.P,J1,1,Pin_1*%
%TO.N,GND*%
X91230000Y-120740000D03*
D11*
%TO.P,J1,2,Pin_2*%
%TO.N,/Vcc*%
X88690000Y-120740000D03*
%TO.P,J1,3,Pin_3*%
%TO.N,/SDA*%
X86150000Y-120740000D03*
%TO.P,J1,4,Pin_4*%
%TO.N,/SCK*%
X83610000Y-120740000D03*
%TD*%
D10*
%TO.P,J2,1,Pin_1*%
%TO.N,/TX*%
X95320000Y-120740000D03*
D11*
%TO.P,J2,2,Pin_2*%
%TO.N,/RX*%
X97860000Y-120740000D03*
%TO.P,J2,3,Pin_3*%
%TO.N,GND*%
X100400000Y-120740000D03*
%TO.P,J2,4,Pin_4*%
%TO.N,/Vcc*%
X102940000Y-120740000D03*
%TD*%
D10*
%TO.P,BT1,1,+*%
%TO.N,/Vcc*%
X108165000Y-147040000D03*
D11*
%TO.P,BT1,2,-*%
%TO.N,GND*%
X110705000Y-147040000D03*
%TD*%
D10*
%TO.P,J3,1,Pin_1*%
%TO.N,GND*%
X83630000Y-147110000D03*
D11*
%TO.P,J3,2,Pin_2*%
%TO.N,/D2*%
X86170000Y-147110000D03*
%TO.P,J3,3,Pin_3*%
%TO.N,/D3*%
X88710000Y-147110000D03*
%TO.P,J3,4,Pin_4*%
%TO.N,/D4*%
X91250000Y-147110000D03*
%TO.P,J3,5,Pin_5*%
%TO.N,/D5*%
X93790000Y-147110000D03*
%TO.P,J3,6,Pin_6*%
%TO.N,/D6*%
X96330000Y-147110000D03*
%TO.P,J3,7,Pin_7*%
%TO.N,/D7*%
X98870000Y-147110000D03*
%TO.P,J3,8,Pin_8*%
%TO.N,/D8*%
X101410000Y-147110000D03*
%TO.P,J3,9,Pin_9*%
%TO.N,/Vcc*%
X103950000Y-147110000D03*
%TD*%
D10*
%TO.P,J4,1,Pin_1*%
%TO.N,/MISO*%
X83630000Y-131180000D03*
D11*
%TO.P,J4,2,Pin_2*%
%TO.N,/Vcc*%
X86170000Y-131180000D03*
%TO.P,J4,3,Pin_3*%
%TO.N,/SCK*%
X83630000Y-133720000D03*
%TO.P,J4,4,Pin_4*%
%TO.N,/MOSI*%
X86170000Y-133720000D03*
%TO.P,J4,5,Pin_5*%
%TO.N,/RESET*%
X83630000Y-136260000D03*
%TO.P,J4,6,Pin_6*%
%TO.N,GND*%
X86170000Y-136260000D03*
%TD*%
D12*
%TO.N,GND*%
X131000000Y-139550000D03*
X125000000Y-118500000D03*
X106000000Y-141000000D03*
X125050000Y-136720000D03*
X94500000Y-126000000D03*
X88500000Y-139500000D03*
X104500000Y-141000000D03*
D13*
X110770000Y-145220000D03*
X118360000Y-140800000D03*
D12*
X91500000Y-126000000D03*
X127500000Y-126000000D03*
D13*
X120230000Y-133170000D03*
D12*
X103000000Y-141000000D03*
X123500000Y-118500000D03*
X127000000Y-125000000D03*
X140500000Y-133200000D03*
X93000000Y-126000000D03*
D13*
X121570000Y-137030000D03*
D12*
X126000000Y-125000000D03*
D13*
X101260000Y-122215000D03*
X92820000Y-138370000D03*
D12*
X88500000Y-141000000D03*
X124000000Y-130500000D03*
X125000000Y-131500000D03*
D13*
X106880000Y-133490000D03*
D12*
X134500000Y-136500000D03*
X88500000Y-138000000D03*
X126500000Y-118500000D03*
X135500000Y-135500000D03*
X136180000Y-130690000D03*
X137000000Y-135500000D03*
X126000000Y-132500000D03*
D13*
X131160000Y-130740000D03*
D12*
X136500000Y-122500000D03*
X125500000Y-142000000D03*
X125500000Y-145000000D03*
X125500000Y-143500000D03*
%TO.N,/Vcc*%
X112960000Y-135630000D03*
X117130000Y-147230000D03*
D13*
X132850000Y-146800000D03*
X134510000Y-127670000D03*
X137680000Y-129070000D03*
D12*
X115920000Y-135020000D03*
D13*
X130440000Y-127970000D03*
D12*
%TO.N,/SCK*%
X112480000Y-133010000D03*
X85543248Y-122543248D03*
%TO.N,/SDA*%
X107220000Y-118720000D03*
X117110000Y-127790000D03*
%TO.N,/RESET*%
X109743364Y-125636636D03*
%TD*%
D14*
%TO.N,/Vcc*%
X81020000Y-135559189D02*
X81020000Y-130220000D01*
X83050000Y-128190000D02*
X84780000Y-128190000D01*
D15*
X115040000Y-149270000D02*
X117080000Y-147230000D01*
D14*
X136280000Y-127670000D02*
X137680000Y-129070000D01*
X81020000Y-130220000D02*
X83050000Y-128190000D01*
X134510000Y-129090000D02*
X132850000Y-130750000D01*
X132850000Y-130750000D02*
X132850000Y-146800000D01*
X91220811Y-145760000D02*
X81020000Y-135559189D01*
D15*
X112960000Y-135630000D02*
X115310000Y-135630000D01*
D14*
X134210000Y-127970000D02*
X134510000Y-127670000D01*
X86170000Y-129580000D02*
X86170000Y-131180000D01*
X134510000Y-127670000D02*
X134510000Y-129090000D01*
X84780000Y-128190000D02*
X86170000Y-129580000D01*
D15*
X110405000Y-149280000D02*
X115030000Y-149280000D01*
X117080000Y-147230000D02*
X117130000Y-147230000D01*
X108165000Y-147040000D02*
X110405000Y-149280000D01*
D14*
X130440000Y-127970000D02*
X134210000Y-127970000D01*
X134510000Y-127670000D02*
X136280000Y-127670000D01*
X102600000Y-145760000D02*
X91220811Y-145760000D01*
X103950000Y-147110000D02*
X102600000Y-145760000D01*
D15*
X115310000Y-135630000D02*
X115920000Y-135020000D01*
X115030000Y-149280000D02*
X115040000Y-149270000D01*
%TO.N,/SCK*%
X85543248Y-122543248D02*
X87230000Y-124230000D01*
X112480000Y-127206545D02*
X112480000Y-133010000D01*
X109503455Y-124230000D02*
X112480000Y-127206545D01*
X87230000Y-124230000D02*
X109503455Y-124230000D01*
%TO.N,/SDA*%
X114670000Y-126750000D02*
X113410000Y-126750000D01*
X112570000Y-125910000D02*
X112570000Y-124070000D01*
X115710000Y-127790000D02*
X114670000Y-126750000D01*
X112570000Y-124070000D02*
X107220000Y-118720000D01*
X113410000Y-126750000D02*
X112570000Y-125910000D01*
X117110000Y-127790000D02*
X115710000Y-127790000D01*
%TO.N,/RESET*%
X100395000Y-134985000D02*
X109743364Y-125636636D01*
X83630000Y-136260000D02*
X84905000Y-134985000D01*
X84905000Y-134985000D02*
X100395000Y-134985000D01*
%TD*%
%TA.AperFunction,Conductor*%
%TO.N,GND*%
G36*
X142305894Y-114918831D02*
G01*
X142322985Y-114920415D01*
X142579289Y-114962224D01*
X142596000Y-114966154D01*
X142744015Y-115011989D01*
X142844084Y-115042977D01*
X142860092Y-115049178D01*
X143095184Y-115159539D01*
X143110166Y-115167883D01*
X143302874Y-115293452D01*
X143327761Y-115309669D01*
X143341457Y-115320012D01*
X143537381Y-115490502D01*
X143549497Y-115502618D01*
X143719985Y-115698540D01*
X143730330Y-115712238D01*
X143872111Y-115929825D01*
X143880463Y-115944820D01*
X143943004Y-116078046D01*
X143990819Y-116179903D01*
X143997022Y-116195915D01*
X144073844Y-116443996D01*
X144077775Y-116460713D01*
X144119583Y-116717010D01*
X144121168Y-116734109D01*
X144127167Y-116993739D01*
X144126374Y-117010893D01*
X144096446Y-117268859D01*
X144093290Y-117285740D01*
X144028010Y-117537092D01*
X144022553Y-117553373D01*
X143923171Y-117793305D01*
X143915516Y-117808678D01*
X143783944Y-118032566D01*
X143774240Y-118046733D01*
X143612993Y-118250305D01*
X143601424Y-118262996D01*
X143413598Y-118442339D01*
X143400386Y-118453310D01*
X143189587Y-118604982D01*
X143174987Y-118614022D01*
X142945250Y-118735118D01*
X142929540Y-118742054D01*
X142685289Y-118830245D01*
X142668773Y-118834945D01*
X142414661Y-118888550D01*
X142397652Y-118890922D01*
X142134293Y-118909202D01*
X142125707Y-118909500D01*
X142064108Y-118909500D01*
X141936812Y-118943608D01*
X141822686Y-119009500D01*
X141822683Y-119009502D01*
X141729502Y-119102683D01*
X141729500Y-119102686D01*
X141663608Y-119216812D01*
X141654549Y-119250623D01*
X141629500Y-119344108D01*
X141629500Y-148214108D01*
X141629500Y-148345892D01*
X141639735Y-148384091D01*
X141663608Y-148473187D01*
X141669382Y-148483187D01*
X141729500Y-148587314D01*
X141822686Y-148680500D01*
X141936814Y-148746392D01*
X142064108Y-148780500D01*
X142125707Y-148780500D01*
X142134293Y-148780798D01*
X142399045Y-148799174D01*
X142416032Y-148801543D01*
X142671513Y-148855436D01*
X142688015Y-148860131D01*
X142933587Y-148948800D01*
X142949286Y-148955732D01*
X143180257Y-149077478D01*
X143194846Y-149086512D01*
X143199682Y-149089991D01*
X143406775Y-149238995D01*
X143419987Y-149249966D01*
X143608811Y-149430263D01*
X143620380Y-149442954D01*
X143782492Y-149647618D01*
X143792195Y-149661783D01*
X143924473Y-149886874D01*
X143932123Y-149902237D01*
X144032036Y-150143450D01*
X144037493Y-150159732D01*
X144103119Y-150412420D01*
X144106275Y-150429299D01*
X144136364Y-150688644D01*
X144137157Y-150705799D01*
X144131126Y-150966812D01*
X144129541Y-150983911D01*
X144087510Y-151241575D01*
X144083579Y-151258292D01*
X144006347Y-151507696D01*
X144000143Y-151523709D01*
X143889201Y-151760040D01*
X143880845Y-151775042D01*
X143738314Y-151993783D01*
X143727965Y-152007487D01*
X143556581Y-152204438D01*
X143544438Y-152216581D01*
X143347487Y-152387965D01*
X143333783Y-152398314D01*
X143115042Y-152540845D01*
X143100040Y-152549201D01*
X142863709Y-152660143D01*
X142847696Y-152666347D01*
X142598292Y-152743579D01*
X142581575Y-152747510D01*
X142323911Y-152789541D01*
X142306812Y-152791126D01*
X142045799Y-152797157D01*
X142028644Y-152796364D01*
X141769299Y-152766275D01*
X141752420Y-152763119D01*
X141499732Y-152697493D01*
X141483450Y-152692036D01*
X141242237Y-152592123D01*
X141226874Y-152584473D01*
X141001783Y-152452195D01*
X140987618Y-152442492D01*
X140782954Y-152280380D01*
X140770263Y-152268811D01*
X140589966Y-152079987D01*
X140578995Y-152066775D01*
X140532004Y-152001464D01*
X140426512Y-151854846D01*
X140417478Y-151840257D01*
X140295732Y-151609286D01*
X140288798Y-151593582D01*
X140263569Y-151523709D01*
X140200131Y-151348015D01*
X140195436Y-151331513D01*
X140141543Y-151076032D01*
X140139174Y-151059045D01*
X140120798Y-150794293D01*
X140120500Y-150785707D01*
X140120500Y-150724110D01*
X140120500Y-150724108D01*
X140110731Y-150687648D01*
X140829500Y-150687648D01*
X140829500Y-150892351D01*
X140861522Y-151094534D01*
X140924781Y-151289223D01*
X141017715Y-151471613D01*
X141138028Y-151637213D01*
X141282786Y-151781971D01*
X141383099Y-151854851D01*
X141448390Y-151902287D01*
X141530029Y-151943884D01*
X141630776Y-151995218D01*
X141630778Y-151995218D01*
X141630781Y-151995220D01*
X141735137Y-152029127D01*
X141825465Y-152058477D01*
X141920935Y-152073598D01*
X142027648Y-152090500D01*
X142027649Y-152090500D01*
X142232351Y-152090500D01*
X142232352Y-152090500D01*
X142434534Y-152058477D01*
X142629219Y-151995220D01*
X142811610Y-151902287D01*
X142904590Y-151834732D01*
X142977213Y-151781971D01*
X142977215Y-151781968D01*
X142977219Y-151781966D01*
X143121966Y-151637219D01*
X143121968Y-151637215D01*
X143121971Y-151637213D01*
X143207060Y-151520096D01*
X143242287Y-151471610D01*
X143335220Y-151289219D01*
X143398477Y-151094534D01*
X143430500Y-150892352D01*
X143430500Y-150687648D01*
X143398477Y-150485466D01*
X143380825Y-150431140D01*
X143335218Y-150290776D01*
X143301503Y-150224607D01*
X143242287Y-150108390D01*
X143234556Y-150097749D01*
X143121971Y-149942786D01*
X142977213Y-149798028D01*
X142811613Y-149677715D01*
X142811612Y-149677714D01*
X142811610Y-149677713D01*
X142737494Y-149639949D01*
X142629223Y-149584781D01*
X142434534Y-149521522D01*
X142259995Y-149493878D01*
X142232352Y-149489500D01*
X142027648Y-149489500D01*
X142003329Y-149493351D01*
X141825465Y-149521522D01*
X141630776Y-149584781D01*
X141448386Y-149677715D01*
X141282786Y-149798028D01*
X141138028Y-149942786D01*
X141017715Y-150108386D01*
X140924781Y-150290776D01*
X140861522Y-150485465D01*
X140829500Y-150687648D01*
X140110731Y-150687648D01*
X140086392Y-150596814D01*
X140020500Y-150482686D01*
X139927314Y-150389500D01*
X139870250Y-150356554D01*
X139813187Y-150323608D01*
X139749539Y-150306554D01*
X139685892Y-150289500D01*
X82835892Y-150289500D01*
X82704108Y-150289500D01*
X82576812Y-150323608D01*
X82462686Y-150389500D01*
X82462683Y-150389502D01*
X82369502Y-150482683D01*
X82369500Y-150482686D01*
X82303608Y-150596812D01*
X82269500Y-150724108D01*
X82269500Y-150785707D01*
X82269202Y-150794293D01*
X82250922Y-151057652D01*
X82248550Y-151074661D01*
X82194945Y-151328773D01*
X82190245Y-151345289D01*
X82102054Y-151589540D01*
X82095118Y-151605250D01*
X81974022Y-151834987D01*
X81964982Y-151849587D01*
X81813310Y-152060386D01*
X81802339Y-152073598D01*
X81622996Y-152261424D01*
X81610305Y-152272993D01*
X81406733Y-152434240D01*
X81392566Y-152443944D01*
X81168678Y-152575516D01*
X81153305Y-152583171D01*
X80913373Y-152682553D01*
X80897092Y-152688010D01*
X80645740Y-152753290D01*
X80628859Y-152756446D01*
X80370893Y-152786374D01*
X80353739Y-152787167D01*
X80094109Y-152781168D01*
X80077010Y-152779583D01*
X79820713Y-152737775D01*
X79803996Y-152733844D01*
X79555915Y-152657022D01*
X79539903Y-152650819D01*
X79486203Y-152625610D01*
X79304820Y-152540463D01*
X79289829Y-152532113D01*
X79167182Y-152452196D01*
X79072238Y-152390330D01*
X79058540Y-152379985D01*
X78862618Y-152209497D01*
X78850502Y-152197381D01*
X78680012Y-152001457D01*
X78669669Y-151987761D01*
X78653452Y-151962874D01*
X78527883Y-151770166D01*
X78519539Y-151755184D01*
X78409178Y-151520092D01*
X78402977Y-151504084D01*
X78352143Y-151339926D01*
X78326154Y-151256000D01*
X78322224Y-151239286D01*
X78295595Y-151076043D01*
X78280415Y-150982985D01*
X78278831Y-150965890D01*
X78272832Y-150706248D01*
X78273624Y-150689119D01*
X78273795Y-150687648D01*
X78969500Y-150687648D01*
X78969500Y-150892351D01*
X79001522Y-151094534D01*
X79064781Y-151289223D01*
X79157715Y-151471613D01*
X79278028Y-151637213D01*
X79422786Y-151781971D01*
X79523099Y-151854851D01*
X79588390Y-151902287D01*
X79670029Y-151943884D01*
X79770776Y-151995218D01*
X79770778Y-151995218D01*
X79770781Y-151995220D01*
X79875137Y-152029127D01*
X79965465Y-152058477D01*
X80060935Y-152073598D01*
X80167648Y-152090500D01*
X80167649Y-152090500D01*
X80372351Y-152090500D01*
X80372352Y-152090500D01*
X80574534Y-152058477D01*
X80769219Y-151995220D01*
X80951610Y-151902287D01*
X81044590Y-151834732D01*
X81117213Y-151781971D01*
X81117215Y-151781968D01*
X81117219Y-151781966D01*
X81261966Y-151637219D01*
X81261968Y-151637215D01*
X81261971Y-151637213D01*
X81347060Y-151520096D01*
X81382287Y-151471610D01*
X81475220Y-151289219D01*
X81538477Y-151094534D01*
X81570500Y-150892352D01*
X81570500Y-150687648D01*
X81538477Y-150485466D01*
X81520825Y-150431140D01*
X81475218Y-150290776D01*
X81441503Y-150224607D01*
X81382287Y-150108390D01*
X81374556Y-150097749D01*
X81261971Y-149942786D01*
X81117213Y-149798028D01*
X80951613Y-149677715D01*
X80951612Y-149677714D01*
X80951610Y-149677713D01*
X80877494Y-149639949D01*
X80769223Y-149584781D01*
X80574534Y-149521522D01*
X80399995Y-149493878D01*
X80372352Y-149489500D01*
X80167648Y-149489500D01*
X80143329Y-149493351D01*
X79965465Y-149521522D01*
X79770776Y-149584781D01*
X79588386Y-149677715D01*
X79422786Y-149798028D01*
X79278028Y-149942786D01*
X79157715Y-150108386D01*
X79064781Y-150290776D01*
X79001522Y-150485465D01*
X78969500Y-150687648D01*
X78273795Y-150687648D01*
X78303554Y-150431133D01*
X78306709Y-150414259D01*
X78313140Y-150389500D01*
X78371990Y-150162902D01*
X78377446Y-150146626D01*
X78455558Y-149958046D01*
X78476832Y-149906683D01*
X78484475Y-149891336D01*
X78616060Y-149667425D01*
X78625753Y-149653273D01*
X78787013Y-149449685D01*
X78798567Y-149437011D01*
X78986407Y-149257654D01*
X78999605Y-149246694D01*
X79210423Y-149095009D01*
X79224999Y-149085984D01*
X79454758Y-148964876D01*
X79470449Y-148957948D01*
X79714723Y-148869750D01*
X79731214Y-148865057D01*
X79985348Y-148811447D01*
X80002336Y-148809078D01*
X80265707Y-148790798D01*
X80274293Y-148790500D01*
X80335890Y-148790500D01*
X80335892Y-148790500D01*
X80463186Y-148756392D01*
X80577314Y-148690500D01*
X80670500Y-148597314D01*
X80736392Y-148483186D01*
X80770500Y-148355892D01*
X80770500Y-148224108D01*
X80770500Y-136670418D01*
X80790185Y-136603379D01*
X80842989Y-136557624D01*
X80912147Y-136547680D01*
X80975703Y-136576705D01*
X80982181Y-136582737D01*
X90337092Y-145937649D01*
X90370577Y-145998972D01*
X90365593Y-146068664D01*
X90337092Y-146113011D01*
X90211505Y-146238597D01*
X90081575Y-146424158D01*
X90026998Y-146467783D01*
X89957500Y-146474977D01*
X89895145Y-146443454D01*
X89878425Y-146424158D01*
X89748494Y-146238597D01*
X89581402Y-146071506D01*
X89581395Y-146071501D01*
X89577343Y-146068664D01*
X89504854Y-146017906D01*
X89387834Y-145935967D01*
X89387830Y-145935965D01*
X89316727Y-145902809D01*
X89173663Y-145836097D01*
X89173659Y-145836096D01*
X89173655Y-145836094D01*
X88945413Y-145774938D01*
X88945403Y-145774936D01*
X88710001Y-145754341D01*
X88709999Y-145754341D01*
X88474596Y-145774936D01*
X88474586Y-145774938D01*
X88246344Y-145836094D01*
X88246335Y-145836098D01*
X88032171Y-145935964D01*
X88032169Y-145935965D01*
X87838597Y-146071505D01*
X87671505Y-146238597D01*
X87541575Y-146424158D01*
X87486998Y-146467783D01*
X87417500Y-146474977D01*
X87355145Y-146443454D01*
X87338425Y-146424158D01*
X87208494Y-146238597D01*
X87041402Y-146071506D01*
X87041395Y-146071501D01*
X87037343Y-146068664D01*
X86964854Y-146017906D01*
X86847834Y-145935967D01*
X86847830Y-145935965D01*
X86776727Y-145902809D01*
X86633663Y-145836097D01*
X86633659Y-145836096D01*
X86633655Y-145836094D01*
X86405413Y-145774938D01*
X86405403Y-145774936D01*
X86170001Y-145754341D01*
X86169999Y-145754341D01*
X85934596Y-145774936D01*
X85934586Y-145774938D01*
X85706344Y-145836094D01*
X85706335Y-145836098D01*
X85492171Y-145935964D01*
X85492169Y-145935965D01*
X85298600Y-146071503D01*
X85176284Y-146193819D01*
X85114961Y-146227303D01*
X85045269Y-146222319D01*
X84989336Y-146180447D01*
X84972421Y-146149470D01*
X84923354Y-146017913D01*
X84923350Y-146017906D01*
X84837190Y-145902812D01*
X84837187Y-145902809D01*
X84722093Y-145816649D01*
X84722086Y-145816645D01*
X84587379Y-145766403D01*
X84587372Y-145766401D01*
X84527844Y-145760000D01*
X83880000Y-145760000D01*
X83880000Y-146676988D01*
X83822993Y-146644075D01*
X83695826Y-146610000D01*
X83564174Y-146610000D01*
X83437007Y-146644075D01*
X83380000Y-146676988D01*
X83380000Y-145760000D01*
X82732155Y-145760000D01*
X82672627Y-145766401D01*
X82672620Y-145766403D01*
X82537913Y-145816645D01*
X82537906Y-145816649D01*
X82422812Y-145902809D01*
X82422809Y-145902812D01*
X82336649Y-146017906D01*
X82336645Y-146017913D01*
X82286403Y-146152620D01*
X82286401Y-146152627D01*
X82280000Y-146212155D01*
X82280000Y-146860000D01*
X83196988Y-146860000D01*
X83164075Y-146917007D01*
X83130000Y-147044174D01*
X83130000Y-147175826D01*
X83164075Y-147302993D01*
X83196988Y-147360000D01*
X82280000Y-147360000D01*
X82280000Y-148007844D01*
X82286401Y-148067372D01*
X82286403Y-148067379D01*
X82336645Y-148202086D01*
X82336649Y-148202093D01*
X82422809Y-148317187D01*
X82422812Y-148317190D01*
X82537906Y-148403350D01*
X82537913Y-148403354D01*
X82672620Y-148453596D01*
X82672627Y-148453598D01*
X82732155Y-148459999D01*
X82732172Y-148460000D01*
X83380000Y-148460000D01*
X83380000Y-147543012D01*
X83437007Y-147575925D01*
X83564174Y-147610000D01*
X83695826Y-147610000D01*
X83822993Y-147575925D01*
X83880000Y-147543012D01*
X83880000Y-148460000D01*
X84527828Y-148460000D01*
X84527844Y-148459999D01*
X84587372Y-148453598D01*
X84587379Y-148453596D01*
X84722086Y-148403354D01*
X84722093Y-148403350D01*
X84837187Y-148317190D01*
X84837190Y-148317187D01*
X84923350Y-148202093D01*
X84923354Y-148202086D01*
X84972422Y-148070529D01*
X85014293Y-148014595D01*
X85079757Y-147990178D01*
X85148030Y-148005030D01*
X85176285Y-148026181D01*
X85298599Y-148148495D01*
X85392304Y-148214108D01*
X85492165Y-148284032D01*
X85492167Y-148284033D01*
X85492170Y-148284035D01*
X85706337Y-148383903D01*
X85706343Y-148383904D01*
X85706344Y-148383905D01*
X85761285Y-148398626D01*
X85934592Y-148445063D01*
X86105319Y-148460000D01*
X86169999Y-148465659D01*
X86170000Y-148465659D01*
X86170001Y-148465659D01*
X86234681Y-148460000D01*
X86405408Y-148445063D01*
X86633663Y-148383903D01*
X86847830Y-148284035D01*
X87041401Y-148148495D01*
X87208495Y-147981401D01*
X87338425Y-147795842D01*
X87393002Y-147752217D01*
X87462500Y-147745023D01*
X87524855Y-147776546D01*
X87541575Y-147795842D01*
X87671500Y-147981395D01*
X87671505Y-147981401D01*
X87838599Y-148148495D01*
X87932304Y-148214108D01*
X88032165Y-148284032D01*
X88032167Y-148284033D01*
X88032170Y-148284035D01*
X88246337Y-148383903D01*
X88246343Y-148383904D01*
X88246344Y-148383905D01*
X88301285Y-148398626D01*
X88474592Y-148445063D01*
X88645319Y-148460000D01*
X88709999Y-148465659D01*
X88710000Y-148465659D01*
X88710001Y-148465659D01*
X88774681Y-148460000D01*
X88945408Y-148445063D01*
X89173663Y-148383903D01*
X89387830Y-148284035D01*
X89581401Y-148148495D01*
X89748495Y-147981401D01*
X89878425Y-147795842D01*
X89933002Y-147752217D01*
X90002500Y-147745023D01*
X90064855Y-147776546D01*
X90081575Y-147795842D01*
X90211500Y-147981395D01*
X90211505Y-147981401D01*
X90378599Y-148148495D01*
X90472304Y-148214108D01*
X90572165Y-148284032D01*
X90572167Y-148284033D01*
X90572170Y-148284035D01*
X90786337Y-148383903D01*
X90786343Y-148383904D01*
X90786344Y-148383905D01*
X90841285Y-148398626D01*
X91014592Y-148445063D01*
X91185319Y-148460000D01*
X91249999Y-148465659D01*
X91250000Y-148465659D01*
X91250001Y-148465659D01*
X91314681Y-148460000D01*
X91485408Y-148445063D01*
X91713663Y-148383903D01*
X91927830Y-148284035D01*
X92121401Y-148148495D01*
X92288495Y-147981401D01*
X92418425Y-147795842D01*
X92473002Y-147752217D01*
X92542500Y-147745023D01*
X92604855Y-147776546D01*
X92621575Y-147795842D01*
X92751500Y-147981395D01*
X92751505Y-147981401D01*
X92918599Y-148148495D01*
X93012304Y-148214108D01*
X93112165Y-148284032D01*
X93112167Y-148284033D01*
X93112170Y-148284035D01*
X93326337Y-148383903D01*
X93326343Y-148383904D01*
X93326344Y-148383905D01*
X93381285Y-148398626D01*
X93554592Y-148445063D01*
X93725319Y-148460000D01*
X93789999Y-148465659D01*
X93790000Y-148465659D01*
X93790001Y-148465659D01*
X93854681Y-148460000D01*
X94025408Y-148445063D01*
X94253663Y-148383903D01*
X94467830Y-148284035D01*
X94661401Y-148148495D01*
X94828495Y-147981401D01*
X94958425Y-147795842D01*
X95013002Y-147752217D01*
X95082500Y-147745023D01*
X95144855Y-147776546D01*
X95161575Y-147795842D01*
X95291500Y-147981395D01*
X95291505Y-147981401D01*
X95458599Y-148148495D01*
X95552304Y-148214108D01*
X95652165Y-148284032D01*
X95652167Y-148284033D01*
X95652170Y-148284035D01*
X95866337Y-148383903D01*
X95866343Y-148383904D01*
X95866344Y-148383905D01*
X95921285Y-148398626D01*
X96094592Y-148445063D01*
X96265319Y-148460000D01*
X96329999Y-148465659D01*
X96330000Y-148465659D01*
X96330001Y-148465659D01*
X96394681Y-148460000D01*
X96565408Y-148445063D01*
X96793663Y-148383903D01*
X97007830Y-148284035D01*
X97201401Y-148148495D01*
X97368495Y-147981401D01*
X97498425Y-147795842D01*
X97553002Y-147752217D01*
X97622500Y-147745023D01*
X97684855Y-147776546D01*
X97701575Y-147795842D01*
X97831500Y-147981395D01*
X97831505Y-147981401D01*
X97998599Y-148148495D01*
X98092304Y-148214108D01*
X98192165Y-148284032D01*
X98192167Y-148284033D01*
X98192170Y-148284035D01*
X98406337Y-148383903D01*
X98406343Y-148383904D01*
X98406344Y-148383905D01*
X98461285Y-148398626D01*
X98634592Y-148445063D01*
X98805319Y-148460000D01*
X98869999Y-148465659D01*
X98870000Y-148465659D01*
X98870001Y-148465659D01*
X98934681Y-148460000D01*
X99105408Y-148445063D01*
X99333663Y-148383903D01*
X99547830Y-148284035D01*
X99741401Y-148148495D01*
X99908495Y-147981401D01*
X100038425Y-147795842D01*
X100093002Y-147752217D01*
X100162500Y-147745023D01*
X100224855Y-147776546D01*
X100241575Y-147795842D01*
X100371500Y-147981395D01*
X100371505Y-147981401D01*
X100538599Y-148148495D01*
X100632304Y-148214108D01*
X100732165Y-148284032D01*
X100732167Y-148284033D01*
X100732170Y-148284035D01*
X100946337Y-148383903D01*
X100946343Y-148383904D01*
X100946344Y-148383905D01*
X101001285Y-148398626D01*
X101174592Y-148445063D01*
X101345319Y-148460000D01*
X101409999Y-148465659D01*
X101410000Y-148465659D01*
X101410001Y-148465659D01*
X101474681Y-148460000D01*
X101645408Y-148445063D01*
X101873663Y-148383903D01*
X102087830Y-148284035D01*
X102281401Y-148148495D01*
X102448495Y-147981401D01*
X102578425Y-147795842D01*
X102633002Y-147752217D01*
X102702500Y-147745023D01*
X102764855Y-147776546D01*
X102781575Y-147795842D01*
X102911500Y-147981395D01*
X102911505Y-147981401D01*
X103078599Y-148148495D01*
X103172304Y-148214108D01*
X103272165Y-148284032D01*
X103272167Y-148284033D01*
X103272170Y-148284035D01*
X103486337Y-148383903D01*
X103486343Y-148383904D01*
X103486344Y-148383905D01*
X103541285Y-148398626D01*
X103714592Y-148445063D01*
X103885319Y-148460000D01*
X103949999Y-148465659D01*
X103950000Y-148465659D01*
X103950001Y-148465659D01*
X104014681Y-148460000D01*
X104185408Y-148445063D01*
X104413663Y-148383903D01*
X104627830Y-148284035D01*
X104821401Y-148148495D01*
X104988495Y-147981401D01*
X105124035Y-147787830D01*
X105223903Y-147573663D01*
X105285063Y-147345408D01*
X105305659Y-147110000D01*
X105285063Y-146874592D01*
X105223903Y-146646337D01*
X105124035Y-146432171D01*
X105118425Y-146424158D01*
X104988494Y-146238597D01*
X104892031Y-146142135D01*
X106814500Y-146142135D01*
X106814500Y-147937870D01*
X106814501Y-147937876D01*
X106820908Y-147997483D01*
X106871202Y-148132328D01*
X106871206Y-148132335D01*
X106957452Y-148247544D01*
X106957455Y-148247547D01*
X107072664Y-148333793D01*
X107072671Y-148333797D01*
X107207517Y-148384091D01*
X107207516Y-148384091D01*
X107214444Y-148384835D01*
X107267127Y-148390500D01*
X108508836Y-148390499D01*
X108575875Y-148410184D01*
X108596517Y-148426818D01*
X109880305Y-149710606D01*
X109974394Y-149804695D01*
X109974397Y-149804697D01*
X109974398Y-149804698D01*
X110085020Y-149878613D01*
X110085023Y-149878614D01*
X110085031Y-149878620D01*
X110085037Y-149878622D01*
X110085038Y-149878623D01*
X110133620Y-149898746D01*
X110207964Y-149929540D01*
X110207968Y-149929540D01*
X110207969Y-149929541D01*
X110338466Y-149955500D01*
X110338469Y-149955500D01*
X115096532Y-149955500D01*
X115096533Y-149955499D01*
X115227036Y-149929541D01*
X115349969Y-149878620D01*
X115460606Y-149804695D01*
X115564695Y-149700606D01*
X117043882Y-148221417D01*
X117105205Y-148187933D01*
X117123959Y-148185916D01*
X117123938Y-148185696D01*
X117129999Y-148185098D01*
X117130000Y-148185099D01*
X117316331Y-148166747D01*
X117495501Y-148112396D01*
X117660625Y-148024136D01*
X117805357Y-147905357D01*
X117924136Y-147760625D01*
X118012396Y-147595501D01*
X118066747Y-147416331D01*
X118085099Y-147230000D01*
X118066747Y-147043669D01*
X118066746Y-147043667D01*
X118066746Y-147043666D01*
X118065634Y-147040000D01*
X118012396Y-146864499D01*
X118009991Y-146860000D01*
X117924137Y-146699376D01*
X117924135Y-146699373D01*
X117805357Y-146554642D01*
X117660626Y-146435864D01*
X117660623Y-146435862D01*
X117495502Y-146347604D01*
X117316333Y-146293253D01*
X117316331Y-146293252D01*
X117130000Y-146274901D01*
X116943668Y-146293252D01*
X116943666Y-146293253D01*
X116764497Y-146347604D01*
X116599376Y-146435862D01*
X116599373Y-146435864D01*
X116454642Y-146554642D01*
X116335864Y-146699373D01*
X116335862Y-146699376D01*
X116247604Y-146864497D01*
X116193253Y-147043666D01*
X116193253Y-147043667D01*
X116184733Y-147130161D01*
X116158571Y-147194948D01*
X116149011Y-147205686D01*
X114786518Y-148568181D01*
X114725195Y-148601666D01*
X114698837Y-148604500D01*
X111024081Y-148604500D01*
X110957042Y-148584815D01*
X110911287Y-148532011D01*
X110901343Y-148462853D01*
X110930368Y-148399297D01*
X110989146Y-148361523D01*
X110991988Y-148360725D01*
X111168483Y-148313433D01*
X111168492Y-148313429D01*
X111382578Y-148213600D01*
X111576082Y-148078105D01*
X111743105Y-147911082D01*
X111878600Y-147717578D01*
X111978429Y-147503492D01*
X111978432Y-147503486D01*
X112035636Y-147290000D01*
X111138012Y-147290000D01*
X111170925Y-147232993D01*
X111205000Y-147105826D01*
X111205000Y-146974174D01*
X111170925Y-146847007D01*
X111138012Y-146790000D01*
X112035636Y-146790000D01*
X112035635Y-146789999D01*
X111978432Y-146576513D01*
X111978429Y-146576507D01*
X111878600Y-146362422D01*
X111878599Y-146362420D01*
X111743113Y-146168926D01*
X111743108Y-146168920D01*
X111576082Y-146001894D01*
X111382578Y-145866399D01*
X111168492Y-145766570D01*
X111168486Y-145766567D01*
X110955000Y-145709364D01*
X110955000Y-146606988D01*
X110897993Y-146574075D01*
X110770826Y-146540000D01*
X110639174Y-146540000D01*
X110512007Y-146574075D01*
X110455000Y-146606988D01*
X110455000Y-145709364D01*
X110454999Y-145709364D01*
X110241513Y-145766567D01*
X110241507Y-145766570D01*
X110027422Y-145866399D01*
X110027420Y-145866400D01*
X109833926Y-146001886D01*
X109711865Y-146123947D01*
X109650542Y-146157431D01*
X109580850Y-146152447D01*
X109524917Y-146110575D01*
X109508002Y-146079598D01*
X109458797Y-145947671D01*
X109458793Y-145947664D01*
X109372547Y-145832455D01*
X109372544Y-145832452D01*
X109257335Y-145746206D01*
X109257328Y-145746202D01*
X109122482Y-145695908D01*
X109122483Y-145695908D01*
X109062883Y-145689501D01*
X109062881Y-145689500D01*
X109062873Y-145689500D01*
X109062864Y-145689500D01*
X107267129Y-145689500D01*
X107267123Y-145689501D01*
X107207516Y-145695908D01*
X107072671Y-145746202D01*
X107072664Y-145746206D01*
X106957455Y-145832452D01*
X106957452Y-145832455D01*
X106871206Y-145947664D01*
X106871202Y-145947671D01*
X106820908Y-146082517D01*
X106814501Y-146142116D01*
X106814500Y-146142135D01*
X104892031Y-146142135D01*
X104821402Y-146071506D01*
X104821395Y-146071501D01*
X104817343Y-146068664D01*
X104744854Y-146017906D01*
X104627834Y-145935967D01*
X104627830Y-145935965D01*
X104556727Y-145902809D01*
X104413663Y-145836097D01*
X104413659Y-145836096D01*
X104413655Y-145836094D01*
X104185413Y-145774938D01*
X104185403Y-145774936D01*
X103950001Y-145754341D01*
X103949998Y-145754341D01*
X103736985Y-145772977D01*
X103668485Y-145759210D01*
X103638497Y-145737130D01*
X103078421Y-145177052D01*
X103078414Y-145177046D01*
X103004729Y-145127812D01*
X103004729Y-145127813D01*
X102955491Y-145094913D01*
X102818917Y-145038343D01*
X102818907Y-145038340D01*
X102673920Y-145009500D01*
X102673918Y-145009500D01*
X91583040Y-145009500D01*
X91516001Y-144989815D01*
X91495359Y-144973181D01*
X84193254Y-137671075D01*
X84159769Y-137609752D01*
X84164753Y-137540060D01*
X84206625Y-137484127D01*
X84228517Y-137471019D01*
X84307830Y-137434035D01*
X84501401Y-137298495D01*
X84668495Y-137131401D01*
X84798730Y-136945405D01*
X84853307Y-136901781D01*
X84922805Y-136894587D01*
X84985160Y-136926110D01*
X85001879Y-136945405D01*
X85131890Y-137131078D01*
X85298917Y-137298105D01*
X85492421Y-137433600D01*
X85706507Y-137533429D01*
X85706516Y-137533433D01*
X85920000Y-137590634D01*
X85920000Y-136693012D01*
X85977007Y-136725925D01*
X86104174Y-136760000D01*
X86235826Y-136760000D01*
X86362993Y-136725925D01*
X86420000Y-136693012D01*
X86420000Y-137590633D01*
X86633483Y-137533433D01*
X86633492Y-137533429D01*
X86847578Y-137433600D01*
X87041082Y-137298105D01*
X87208105Y-137131082D01*
X87343600Y-136937578D01*
X87443429Y-136723492D01*
X87443432Y-136723486D01*
X87500636Y-136510000D01*
X86603012Y-136510000D01*
X86635925Y-136452993D01*
X86670000Y-136325826D01*
X86670000Y-136194174D01*
X86635925Y-136067007D01*
X86603012Y-136010000D01*
X87500636Y-136010000D01*
X87500635Y-136009999D01*
X87448813Y-135816594D01*
X87450476Y-135746744D01*
X87489638Y-135688881D01*
X87553867Y-135661377D01*
X87568588Y-135660500D01*
X100461532Y-135660500D01*
X100461533Y-135660499D01*
X100592036Y-135634541D01*
X100602999Y-135630000D01*
X112004901Y-135630000D01*
X112023252Y-135816331D01*
X112023253Y-135816333D01*
X112077604Y-135995502D01*
X112165862Y-136160623D01*
X112165864Y-136160626D01*
X112284642Y-136305357D01*
X112429373Y-136424135D01*
X112429376Y-136424137D01*
X112562716Y-136495408D01*
X112594499Y-136512396D01*
X112743595Y-136557624D01*
X112773666Y-136566746D01*
X112773668Y-136566747D01*
X112790374Y-136568392D01*
X112960000Y-136585099D01*
X113146331Y-136566747D01*
X113325501Y-136512396D01*
X113490625Y-136424136D01*
X113600886Y-136333647D01*
X113665196Y-136306334D01*
X113679551Y-136305500D01*
X115376532Y-136305500D01*
X115376533Y-136305499D01*
X115507036Y-136279541D01*
X115629969Y-136228620D01*
X115740606Y-136154695D01*
X115888851Y-136006448D01*
X115950172Y-135972964D01*
X115964370Y-135970728D01*
X116106331Y-135956747D01*
X116285501Y-135902396D01*
X116450625Y-135814136D01*
X116595357Y-135695357D01*
X116714136Y-135550625D01*
X116802396Y-135385501D01*
X116856747Y-135206331D01*
X116875099Y-135020000D01*
X116856747Y-134833669D01*
X116802396Y-134654499D01*
X116768670Y-134591401D01*
X116714137Y-134489376D01*
X116714135Y-134489373D01*
X116595357Y-134344642D01*
X116450626Y-134225864D01*
X116450623Y-134225862D01*
X116285502Y-134137604D01*
X116106333Y-134083253D01*
X116106331Y-134083252D01*
X115920000Y-134064901D01*
X115733668Y-134083252D01*
X115733666Y-134083253D01*
X115554497Y-134137604D01*
X115389376Y-134225862D01*
X115389373Y-134225864D01*
X115244642Y-134344642D01*
X115125864Y-134489373D01*
X115125862Y-134489376D01*
X115037604Y-134654497D01*
X114983253Y-134833666D01*
X114983252Y-134833669D01*
X114982368Y-134842653D01*
X114956208Y-134907441D01*
X114899173Y-134947800D01*
X114858965Y-134954500D01*
X113679551Y-134954500D01*
X113612512Y-134934815D01*
X113600886Y-134926353D01*
X113490626Y-134835864D01*
X113490623Y-134835862D01*
X113325502Y-134747604D01*
X113146333Y-134693253D01*
X113146331Y-134693252D01*
X112960000Y-134674901D01*
X112773668Y-134693252D01*
X112773666Y-134693253D01*
X112594497Y-134747604D01*
X112429376Y-134835862D01*
X112429373Y-134835864D01*
X112284642Y-134954642D01*
X112165864Y-135099373D01*
X112165862Y-135099376D01*
X112077604Y-135264497D01*
X112023253Y-135443666D01*
X112023252Y-135443668D01*
X112004901Y-135630000D01*
X100602999Y-135630000D01*
X100714969Y-135583620D01*
X100825606Y-135509695D01*
X109712216Y-126623083D01*
X109773537Y-126589600D01*
X109787734Y-126587364D01*
X109929695Y-126573383D01*
X110108865Y-126519032D01*
X110273989Y-126430772D01*
X110418721Y-126311993D01*
X110427227Y-126301627D01*
X110484968Y-126262293D01*
X110554813Y-126260419D01*
X110610763Y-126292609D01*
X111768181Y-127450027D01*
X111801666Y-127511350D01*
X111804500Y-127537708D01*
X111804500Y-132290449D01*
X111784815Y-132357488D01*
X111776353Y-132369114D01*
X111685864Y-132479373D01*
X111685862Y-132479376D01*
X111597604Y-132644497D01*
X111543253Y-132823666D01*
X111543252Y-132823668D01*
X111524901Y-133010000D01*
X111543252Y-133196331D01*
X111543253Y-133196333D01*
X111597604Y-133375502D01*
X111685862Y-133540623D01*
X111685864Y-133540626D01*
X111804642Y-133685357D01*
X111949373Y-133804135D01*
X111949376Y-133804137D01*
X112114497Y-133892395D01*
X112114499Y-133892396D01*
X112293666Y-133946746D01*
X112293668Y-133946747D01*
X112310374Y-133948392D01*
X112480000Y-133965099D01*
X112666331Y-133946747D01*
X112845501Y-133892396D01*
X113010625Y-133804136D01*
X113155357Y-133685357D01*
X113274136Y-133540625D01*
X113362396Y-133375501D01*
X113416747Y-133196331D01*
X113435099Y-133010000D01*
X113416747Y-132823669D01*
X113362396Y-132644499D01*
X113319733Y-132564681D01*
X113274137Y-132479376D01*
X113274135Y-132479373D01*
X113183647Y-132369114D01*
X113156334Y-132304804D01*
X113155500Y-132290449D01*
X113155500Y-127539204D01*
X113175185Y-127472165D01*
X113227989Y-127426410D01*
X113297147Y-127416466D01*
X113303652Y-127417579D01*
X113343469Y-127425500D01*
X113476531Y-127425500D01*
X114338837Y-127425500D01*
X114405876Y-127445185D01*
X114426518Y-127461819D01*
X115185305Y-128220606D01*
X115279394Y-128314695D01*
X115279397Y-128314697D01*
X115279398Y-128314698D01*
X115390020Y-128388613D01*
X115390023Y-128388614D01*
X115390031Y-128388620D01*
X115512964Y-128439540D01*
X115512968Y-128439540D01*
X115512969Y-128439541D01*
X115643466Y-128465500D01*
X115643469Y-128465500D01*
X116390449Y-128465500D01*
X116457488Y-128485185D01*
X116469114Y-128493647D01*
X116579373Y-128584135D01*
X116579376Y-128584137D01*
X116732613Y-128666043D01*
X116744499Y-128672396D01*
X116889593Y-128716410D01*
X116923666Y-128726746D01*
X116923668Y-128726747D01*
X116940374Y-128728392D01*
X117110000Y-128745099D01*
X117296331Y-128726747D01*
X117475501Y-128672396D01*
X117640625Y-128584136D01*
X117785357Y-128465357D01*
X117904136Y-128320625D01*
X117992396Y-128155501D01*
X118046747Y-127976331D01*
X118047371Y-127970000D01*
X129384417Y-127970000D01*
X129404699Y-128175932D01*
X129418251Y-128220606D01*
X129464768Y-128373954D01*
X129562315Y-128556450D01*
X129562317Y-128556452D01*
X129693589Y-128716410D01*
X129732871Y-128748647D01*
X129853550Y-128847685D01*
X130036046Y-128945232D01*
X130234066Y-129005300D01*
X130234065Y-129005300D01*
X130252529Y-129007118D01*
X130440000Y-129025583D01*
X130645934Y-129005300D01*
X130843954Y-128945232D01*
X131026450Y-128847685D01*
X131147129Y-128748647D01*
X131211439Y-128721334D01*
X131225794Y-128720500D01*
X133518770Y-128720500D01*
X133585809Y-128740185D01*
X133631564Y-128792989D01*
X133641508Y-128862147D01*
X133612483Y-128925703D01*
X133606451Y-128932181D01*
X132267050Y-130271580D01*
X132267044Y-130271588D01*
X132217812Y-130345268D01*
X132217813Y-130345269D01*
X132184921Y-130394496D01*
X132184914Y-130394508D01*
X132128342Y-130531086D01*
X132128340Y-130531092D01*
X132099500Y-130676079D01*
X132099500Y-146014205D01*
X132079815Y-146081244D01*
X132071354Y-146092869D01*
X131972311Y-146213555D01*
X131874769Y-146396041D01*
X131814699Y-146594067D01*
X131794417Y-146800000D01*
X131814699Y-147005932D01*
X131826300Y-147044174D01*
X131874768Y-147203954D01*
X131972315Y-147386450D01*
X131972317Y-147386452D01*
X132103589Y-147546410D01*
X132163408Y-147595501D01*
X132263550Y-147677685D01*
X132446046Y-147775232D01*
X132644066Y-147835300D01*
X132644065Y-147835300D01*
X132662529Y-147837118D01*
X132850000Y-147855583D01*
X133055934Y-147835300D01*
X133253954Y-147775232D01*
X133436450Y-147677685D01*
X133596410Y-147546410D01*
X133727685Y-147386450D01*
X133825232Y-147203954D01*
X133885300Y-147005934D01*
X133905583Y-146800000D01*
X133885300Y-146594066D01*
X133825232Y-146396046D01*
X133825230Y-146396043D01*
X133825230Y-146396041D01*
X133727688Y-146213555D01*
X133727687Y-146213553D01*
X133727685Y-146213550D01*
X133645176Y-146113011D01*
X133628646Y-146092869D01*
X133601334Y-146028559D01*
X133600500Y-146014205D01*
X133600500Y-131112229D01*
X133620185Y-131045190D01*
X133636819Y-131024548D01*
X135092950Y-129568417D01*
X135092952Y-129568415D01*
X135159044Y-129469500D01*
X135175084Y-129445495D01*
X135198518Y-129388920D01*
X135231659Y-129308912D01*
X135254029Y-129196451D01*
X135260500Y-129163919D01*
X135260500Y-128544500D01*
X135280185Y-128477461D01*
X135332989Y-128431706D01*
X135384500Y-128420500D01*
X135917770Y-128420500D01*
X135984809Y-128440185D01*
X136005451Y-128456819D01*
X136593675Y-129045043D01*
X136627160Y-129106366D01*
X136629397Y-129120569D01*
X136644699Y-129275932D01*
X136670529Y-129361082D01*
X136704768Y-129473954D01*
X136802315Y-129656450D01*
X136802317Y-129656452D01*
X136933589Y-129816410D01*
X137018632Y-129886202D01*
X137093550Y-129947685D01*
X137276046Y-130045232D01*
X137474066Y-130105300D01*
X137474065Y-130105300D01*
X137492529Y-130107118D01*
X137680000Y-130125583D01*
X137885934Y-130105300D01*
X138083954Y-130045232D01*
X138266450Y-129947685D01*
X138426410Y-129816410D01*
X138557685Y-129656450D01*
X138655232Y-129473954D01*
X138715300Y-129275934D01*
X138735583Y-129070000D01*
X138715300Y-128864066D01*
X138655232Y-128666046D01*
X138557685Y-128483550D01*
X138479781Y-128388623D01*
X138426410Y-128323589D01*
X138266452Y-128192317D01*
X138266453Y-128192317D01*
X138266450Y-128192315D01*
X138083954Y-128094768D01*
X137984944Y-128064734D01*
X137885932Y-128034699D01*
X137730569Y-128019397D01*
X137665782Y-127993236D01*
X137655043Y-127983675D01*
X136758421Y-127087052D01*
X136758414Y-127087046D01*
X136684729Y-127037812D01*
X136684729Y-127037813D01*
X136635491Y-127004913D01*
X136498917Y-126948343D01*
X136498907Y-126948340D01*
X136353920Y-126919500D01*
X136353918Y-126919500D01*
X135295794Y-126919500D01*
X135228755Y-126899815D01*
X135217129Y-126891353D01*
X135096453Y-126792317D01*
X135096451Y-126792316D01*
X135096450Y-126792315D01*
X134913954Y-126694768D01*
X134715934Y-126634700D01*
X134715932Y-126634699D01*
X134715934Y-126634699D01*
X134510000Y-126614417D01*
X134304067Y-126634699D01*
X134106043Y-126694769D01*
X133995898Y-126753643D01*
X133923550Y-126792315D01*
X133923548Y-126792316D01*
X133923547Y-126792317D01*
X133763589Y-126923589D01*
X133632315Y-127083549D01*
X133632311Y-127083555D01*
X133594683Y-127153953D01*
X133545721Y-127203797D01*
X133485325Y-127219500D01*
X131225794Y-127219500D01*
X131158755Y-127199815D01*
X131147129Y-127191353D01*
X131026453Y-127092317D01*
X131026451Y-127092316D01*
X131026450Y-127092315D01*
X130862934Y-127004913D01*
X130843956Y-126994769D01*
X130843955Y-126994768D01*
X130843954Y-126994768D01*
X130645934Y-126934700D01*
X130645932Y-126934699D01*
X130645934Y-126934699D01*
X130440000Y-126914417D01*
X130234067Y-126934699D01*
X130036043Y-126994769D01*
X129955517Y-127037812D01*
X129853550Y-127092315D01*
X129853548Y-127092316D01*
X129853547Y-127092317D01*
X129693589Y-127223589D01*
X129562317Y-127383547D01*
X129464769Y-127566043D01*
X129404699Y-127764067D01*
X129384417Y-127970000D01*
X118047371Y-127970000D01*
X118065099Y-127790000D01*
X118046747Y-127603669D01*
X117992396Y-127424499D01*
X117992395Y-127424497D01*
X117904137Y-127259376D01*
X117904135Y-127259373D01*
X117785357Y-127114642D01*
X117640626Y-126995864D01*
X117640623Y-126995862D01*
X117475502Y-126907604D01*
X117296333Y-126853253D01*
X117296331Y-126853252D01*
X117110000Y-126834901D01*
X116923668Y-126853252D01*
X116923666Y-126853253D01*
X116744497Y-126907604D01*
X116579376Y-126995862D01*
X116579373Y-126995864D01*
X116469114Y-127086353D01*
X116404804Y-127113666D01*
X116390449Y-127114500D01*
X116041163Y-127114500D01*
X115974124Y-127094815D01*
X115953482Y-127078181D01*
X115100609Y-126225307D01*
X115100605Y-126225304D01*
X114989975Y-126151383D01*
X114989965Y-126151378D01*
X114867036Y-126100459D01*
X114867028Y-126100457D01*
X114736535Y-126074500D01*
X114736531Y-126074500D01*
X113741163Y-126074500D01*
X113674124Y-126054815D01*
X113653482Y-126038181D01*
X113281819Y-125666518D01*
X113248334Y-125605195D01*
X113245500Y-125578837D01*
X113245500Y-124003467D01*
X113238065Y-123966094D01*
X113226914Y-123910032D01*
X113219541Y-123872964D01*
X113170944Y-123755643D01*
X113169300Y-123751048D01*
X113094698Y-123639398D01*
X113094697Y-123639397D01*
X113094695Y-123639394D01*
X113000606Y-123545305D01*
X108206449Y-118751148D01*
X108172964Y-118689825D01*
X108170727Y-118675620D01*
X108168109Y-118649039D01*
X108156747Y-118533669D01*
X108102396Y-118354499D01*
X108046704Y-118250305D01*
X108014137Y-118189376D01*
X108014135Y-118189373D01*
X107895357Y-118044642D01*
X107750626Y-117925864D01*
X107750623Y-117925862D01*
X107585502Y-117837604D01*
X107406333Y-117783253D01*
X107406331Y-117783252D01*
X107220000Y-117764901D01*
X107033668Y-117783252D01*
X107033666Y-117783253D01*
X106854497Y-117837604D01*
X106689376Y-117925862D01*
X106689373Y-117925864D01*
X106544642Y-118044642D01*
X106425864Y-118189373D01*
X106425862Y-118189376D01*
X106337604Y-118354497D01*
X106283253Y-118533666D01*
X106283252Y-118533668D01*
X106264901Y-118720000D01*
X106283252Y-118906331D01*
X106283253Y-118906333D01*
X106337604Y-119085502D01*
X106425862Y-119250623D01*
X106425864Y-119250626D01*
X106544642Y-119395357D01*
X106689373Y-119514135D01*
X106689376Y-119514137D01*
X106854497Y-119602395D01*
X106854499Y-119602396D01*
X107033669Y-119656747D01*
X107175621Y-119670727D01*
X107240408Y-119696887D01*
X107251148Y-119706449D01*
X111858181Y-124313482D01*
X111891666Y-124374805D01*
X111894500Y-124401163D01*
X111894500Y-125366381D01*
X111874815Y-125433420D01*
X111822011Y-125479175D01*
X111752853Y-125489119D01*
X111689297Y-125460094D01*
X111682819Y-125454062D01*
X109934064Y-123705307D01*
X109934060Y-123705304D01*
X109823430Y-123631383D01*
X109823420Y-123631378D01*
X109700491Y-123580459D01*
X109700483Y-123580457D01*
X109569990Y-123554500D01*
X109569986Y-123554500D01*
X87561163Y-123554500D01*
X87494124Y-123534815D01*
X87473482Y-123518181D01*
X86529697Y-122574396D01*
X86496212Y-122513073D01*
X86493975Y-122498868D01*
X86479995Y-122356917D01*
X86431004Y-122195419D01*
X86430381Y-122125554D01*
X86467629Y-122066441D01*
X86517571Y-122039650D01*
X86613663Y-122013903D01*
X86827830Y-121914035D01*
X87021401Y-121778495D01*
X87188495Y-121611401D01*
X87318426Y-121425841D01*
X87373002Y-121382217D01*
X87442500Y-121375023D01*
X87504855Y-121406546D01*
X87521575Y-121425842D01*
X87651500Y-121611395D01*
X87651505Y-121611401D01*
X87818599Y-121778495D01*
X87915384Y-121846265D01*
X88012165Y-121914032D01*
X88012167Y-121914033D01*
X88012170Y-121914035D01*
X88226337Y-122013903D01*
X88454592Y-122075063D01*
X88631034Y-122090500D01*
X88689999Y-122095659D01*
X88690000Y-122095659D01*
X88690001Y-122095659D01*
X88748966Y-122090500D01*
X88925408Y-122075063D01*
X89153663Y-122013903D01*
X89367830Y-121914035D01*
X89561401Y-121778495D01*
X89683717Y-121656178D01*
X89745036Y-121622696D01*
X89814728Y-121627680D01*
X89870662Y-121669551D01*
X89887577Y-121700528D01*
X89936646Y-121832088D01*
X89936649Y-121832093D01*
X90022809Y-121947187D01*
X90022812Y-121947190D01*
X90137906Y-122033350D01*
X90137913Y-122033354D01*
X90272620Y-122083596D01*
X90272627Y-122083598D01*
X90332155Y-122089999D01*
X90332172Y-122090000D01*
X90980000Y-122090000D01*
X90980000Y-121173012D01*
X91037007Y-121205925D01*
X91164174Y-121240000D01*
X91295826Y-121240000D01*
X91422993Y-121205925D01*
X91480000Y-121173012D01*
X91480000Y-122090000D01*
X92127828Y-122090000D01*
X92127844Y-122089999D01*
X92187372Y-122083598D01*
X92187379Y-122083596D01*
X92322086Y-122033354D01*
X92322093Y-122033350D01*
X92437187Y-121947190D01*
X92437190Y-121947187D01*
X92523350Y-121832093D01*
X92523354Y-121832086D01*
X92573596Y-121697379D01*
X92573598Y-121697372D01*
X92579999Y-121637844D01*
X92580000Y-121637827D01*
X92580000Y-120990000D01*
X91663012Y-120990000D01*
X91695925Y-120932993D01*
X91730000Y-120805826D01*
X91730000Y-120674174D01*
X91695925Y-120547007D01*
X91663012Y-120490000D01*
X92580000Y-120490000D01*
X92580000Y-119842172D01*
X92579999Y-119842155D01*
X92579997Y-119842135D01*
X93969500Y-119842135D01*
X93969500Y-121637870D01*
X93969501Y-121637876D01*
X93975908Y-121697483D01*
X94026202Y-121832328D01*
X94026206Y-121832335D01*
X94112452Y-121947544D01*
X94112455Y-121947547D01*
X94227664Y-122033793D01*
X94227671Y-122033797D01*
X94362517Y-122084091D01*
X94362516Y-122084091D01*
X94369444Y-122084835D01*
X94422127Y-122090500D01*
X96217872Y-122090499D01*
X96277483Y-122084091D01*
X96412331Y-122033796D01*
X96527546Y-121947546D01*
X96613796Y-121832331D01*
X96662810Y-121700916D01*
X96704681Y-121644984D01*
X96770145Y-121620566D01*
X96838418Y-121635417D01*
X96866673Y-121656569D01*
X96988599Y-121778495D01*
X97085384Y-121846265D01*
X97182165Y-121914032D01*
X97182167Y-121914033D01*
X97182170Y-121914035D01*
X97396337Y-122013903D01*
X97624592Y-122075063D01*
X97801034Y-122090500D01*
X97859999Y-122095659D01*
X97860000Y-122095659D01*
X97860001Y-122095659D01*
X97918966Y-122090500D01*
X98095408Y-122075063D01*
X98323663Y-122013903D01*
X98537830Y-121914035D01*
X98731401Y-121778495D01*
X98898495Y-121611401D01*
X99028730Y-121425405D01*
X99083307Y-121381781D01*
X99152805Y-121374587D01*
X99215160Y-121406110D01*
X99231879Y-121425405D01*
X99361890Y-121611078D01*
X99528917Y-121778105D01*
X99722421Y-121913600D01*
X99936507Y-122013429D01*
X99936516Y-122013433D01*
X100150000Y-122070634D01*
X100150000Y-121173012D01*
X100207007Y-121205925D01*
X100334174Y-121240000D01*
X100465826Y-121240000D01*
X100592993Y-121205925D01*
X100650000Y-121173012D01*
X100650000Y-122070633D01*
X100863483Y-122013433D01*
X100863492Y-122013429D01*
X101077578Y-121913600D01*
X101271082Y-121778105D01*
X101438105Y-121611082D01*
X101568119Y-121425405D01*
X101622696Y-121381781D01*
X101692195Y-121374588D01*
X101754549Y-121406110D01*
X101771269Y-121425405D01*
X101901505Y-121611401D01*
X102068599Y-121778495D01*
X102165384Y-121846265D01*
X102262165Y-121914032D01*
X102262167Y-121914033D01*
X102262170Y-121914035D01*
X102476337Y-122013903D01*
X102704592Y-122075063D01*
X102881034Y-122090500D01*
X102939999Y-122095659D01*
X102940000Y-122095659D01*
X102940001Y-122095659D01*
X102998966Y-122090500D01*
X103175408Y-122075063D01*
X103403663Y-122013903D01*
X103617830Y-121914035D01*
X103811401Y-121778495D01*
X103978495Y-121611401D01*
X104114035Y-121417830D01*
X104213903Y-121203663D01*
X104275063Y-120975408D01*
X104295659Y-120740000D01*
X104275063Y-120504592D01*
X104213903Y-120276337D01*
X104114035Y-120062171D01*
X104108731Y-120054595D01*
X103978494Y-119868597D01*
X103811402Y-119701506D01*
X103811395Y-119701501D01*
X103617834Y-119565967D01*
X103617830Y-119565965D01*
X103617828Y-119565964D01*
X103403663Y-119466097D01*
X103403659Y-119466096D01*
X103403655Y-119466094D01*
X103175413Y-119404938D01*
X103175403Y-119404936D01*
X102940001Y-119384341D01*
X102939999Y-119384341D01*
X102704596Y-119404936D01*
X102704586Y-119404938D01*
X102476344Y-119466094D01*
X102476335Y-119466098D01*
X102262171Y-119565964D01*
X102262169Y-119565965D01*
X102068597Y-119701505D01*
X101901508Y-119868594D01*
X101771269Y-120054595D01*
X101716692Y-120098219D01*
X101647193Y-120105412D01*
X101584839Y-120073890D01*
X101568119Y-120054594D01*
X101438113Y-119868926D01*
X101438108Y-119868920D01*
X101271082Y-119701894D01*
X101077578Y-119566399D01*
X100863492Y-119466570D01*
X100863486Y-119466567D01*
X100650000Y-119409364D01*
X100650000Y-120306988D01*
X100592993Y-120274075D01*
X100465826Y-120240000D01*
X100334174Y-120240000D01*
X100207007Y-120274075D01*
X100150000Y-120306988D01*
X100150000Y-119409364D01*
X100149999Y-119409364D01*
X99936513Y-119466567D01*
X99936507Y-119466570D01*
X99722422Y-119566399D01*
X99722420Y-119566400D01*
X99528926Y-119701886D01*
X99528920Y-119701891D01*
X99361891Y-119868920D01*
X99361890Y-119868922D01*
X99231880Y-120054595D01*
X99177303Y-120098219D01*
X99107804Y-120105412D01*
X99045450Y-120073890D01*
X99028730Y-120054594D01*
X98898494Y-119868597D01*
X98731402Y-119701506D01*
X98731395Y-119701501D01*
X98537834Y-119565967D01*
X98537830Y-119565965D01*
X98537828Y-119565964D01*
X98323663Y-119466097D01*
X98323659Y-119466096D01*
X98323655Y-119466094D01*
X98095413Y-119404938D01*
X98095403Y-119404936D01*
X97860001Y-119384341D01*
X97859999Y-119384341D01*
X97624596Y-119404936D01*
X97624586Y-119404938D01*
X97396344Y-119466094D01*
X97396335Y-119466098D01*
X97182171Y-119565964D01*
X97182169Y-119565965D01*
X96988600Y-119701503D01*
X96866673Y-119823430D01*
X96805350Y-119856914D01*
X96735658Y-119851930D01*
X96679725Y-119810058D01*
X96662810Y-119779081D01*
X96613797Y-119647671D01*
X96613793Y-119647664D01*
X96527547Y-119532455D01*
X96527544Y-119532452D01*
X96412335Y-119446206D01*
X96412328Y-119446202D01*
X96277482Y-119395908D01*
X96277483Y-119395908D01*
X96217883Y-119389501D01*
X96217881Y-119389500D01*
X96217873Y-119389500D01*
X96217864Y-119389500D01*
X94422129Y-119389500D01*
X94422123Y-119389501D01*
X94362516Y-119395908D01*
X94227671Y-119446202D01*
X94227664Y-119446206D01*
X94112455Y-119532452D01*
X94112452Y-119532455D01*
X94026206Y-119647664D01*
X94026202Y-119647671D01*
X93975908Y-119782517D01*
X93969501Y-119842116D01*
X93969500Y-119842135D01*
X92579997Y-119842135D01*
X92573598Y-119782627D01*
X92573596Y-119782620D01*
X92523354Y-119647913D01*
X92523350Y-119647906D01*
X92437190Y-119532812D01*
X92437187Y-119532809D01*
X92322093Y-119446649D01*
X92322086Y-119446645D01*
X92187379Y-119396403D01*
X92187372Y-119396401D01*
X92127844Y-119390000D01*
X91480000Y-119390000D01*
X91480000Y-120306988D01*
X91422993Y-120274075D01*
X91295826Y-120240000D01*
X91164174Y-120240000D01*
X91037007Y-120274075D01*
X90980000Y-120306988D01*
X90980000Y-119390000D01*
X90332155Y-119390000D01*
X90272627Y-119396401D01*
X90272620Y-119396403D01*
X90137913Y-119446645D01*
X90137906Y-119446649D01*
X90022812Y-119532809D01*
X90022809Y-119532812D01*
X89936649Y-119647906D01*
X89936645Y-119647913D01*
X89887578Y-119779470D01*
X89845707Y-119835404D01*
X89780242Y-119859821D01*
X89711969Y-119844969D01*
X89683715Y-119823819D01*
X89638977Y-119779081D01*
X89561401Y-119701505D01*
X89561397Y-119701502D01*
X89561396Y-119701501D01*
X89367834Y-119565967D01*
X89367830Y-119565965D01*
X89367828Y-119565964D01*
X89153663Y-119466097D01*
X89153659Y-119466096D01*
X89153655Y-119466094D01*
X88925413Y-119404938D01*
X88925403Y-119404936D01*
X88690001Y-119384341D01*
X88689999Y-119384341D01*
X88454596Y-119404936D01*
X88454586Y-119404938D01*
X88226344Y-119466094D01*
X88226335Y-119466098D01*
X88012171Y-119565964D01*
X88012169Y-119565965D01*
X87818597Y-119701505D01*
X87651505Y-119868597D01*
X87521575Y-120054158D01*
X87466998Y-120097783D01*
X87397500Y-120104977D01*
X87335145Y-120073454D01*
X87318425Y-120054158D01*
X87188494Y-119868597D01*
X87021402Y-119701506D01*
X87021395Y-119701501D01*
X86827834Y-119565967D01*
X86827830Y-119565965D01*
X86827828Y-119565964D01*
X86613663Y-119466097D01*
X86613659Y-119466096D01*
X86613655Y-119466094D01*
X86385413Y-119404938D01*
X86385403Y-119404936D01*
X86150001Y-119384341D01*
X86149999Y-119384341D01*
X85914596Y-119404936D01*
X85914586Y-119404938D01*
X85686344Y-119466094D01*
X85686335Y-119466098D01*
X85472171Y-119565964D01*
X85472169Y-119565965D01*
X85278597Y-119701505D01*
X85111505Y-119868597D01*
X84981575Y-120054158D01*
X84926998Y-120097783D01*
X84857500Y-120104977D01*
X84795145Y-120073454D01*
X84778425Y-120054158D01*
X84648494Y-119868597D01*
X84481402Y-119701506D01*
X84481395Y-119701501D01*
X84287834Y-119565967D01*
X84287830Y-119565965D01*
X84287828Y-119565964D01*
X84073663Y-119466097D01*
X84073659Y-119466096D01*
X84073655Y-119466094D01*
X83845413Y-119404938D01*
X83845403Y-119404936D01*
X83610001Y-119384341D01*
X83609999Y-119384341D01*
X83374596Y-119404936D01*
X83374586Y-119404938D01*
X83146344Y-119466094D01*
X83146335Y-119466098D01*
X82932171Y-119565964D01*
X82932169Y-119565965D01*
X82738597Y-119701505D01*
X82571505Y-119868597D01*
X82435965Y-120062169D01*
X82435964Y-120062171D01*
X82336098Y-120276335D01*
X82336094Y-120276344D01*
X82274938Y-120504586D01*
X82274936Y-120504596D01*
X82254341Y-120739999D01*
X82254341Y-120740000D01*
X82274936Y-120975403D01*
X82274938Y-120975413D01*
X82336094Y-121203655D01*
X82336096Y-121203659D01*
X82336097Y-121203663D01*
X82415801Y-121374588D01*
X82435965Y-121417830D01*
X82435967Y-121417834D01*
X82534526Y-121558590D01*
X82571505Y-121611401D01*
X82738599Y-121778495D01*
X82835384Y-121846265D01*
X82932165Y-121914032D01*
X82932167Y-121914033D01*
X82932170Y-121914035D01*
X83146337Y-122013903D01*
X83374592Y-122075063D01*
X83551034Y-122090500D01*
X83609999Y-122095659D01*
X83610000Y-122095659D01*
X83610001Y-122095659D01*
X83668966Y-122090500D01*
X83845408Y-122075063D01*
X84073663Y-122013903D01*
X84287830Y-121914035D01*
X84481401Y-121778495D01*
X84648495Y-121611401D01*
X84778426Y-121425841D01*
X84833002Y-121382217D01*
X84902500Y-121375023D01*
X84964855Y-121406546D01*
X84981571Y-121425837D01*
X85074527Y-121558591D01*
X85096854Y-121624797D01*
X85079844Y-121692564D01*
X85031408Y-121739071D01*
X85012619Y-121749114D01*
X84867890Y-121867890D01*
X84749112Y-122012621D01*
X84749110Y-122012624D01*
X84660852Y-122177745D01*
X84606501Y-122356914D01*
X84606500Y-122356916D01*
X84588149Y-122543248D01*
X84606500Y-122729579D01*
X84606501Y-122729581D01*
X84660852Y-122908750D01*
X84749110Y-123073871D01*
X84749112Y-123073874D01*
X84867890Y-123218605D01*
X85012621Y-123337383D01*
X85012624Y-123337385D01*
X85177745Y-123425643D01*
X85177747Y-123425644D01*
X85356917Y-123479995D01*
X85498869Y-123493975D01*
X85563656Y-123520135D01*
X85574396Y-123529697D01*
X86705305Y-124660606D01*
X86799394Y-124754695D01*
X86799397Y-124754697D01*
X86799398Y-124754698D01*
X86910020Y-124828613D01*
X86910024Y-124828615D01*
X86910031Y-124828620D01*
X86943539Y-124842499D01*
X86943540Y-124842500D01*
X86980581Y-124857842D01*
X87032964Y-124879541D01*
X87163464Y-124905499D01*
X87163468Y-124905500D01*
X87163469Y-124905500D01*
X108851607Y-124905500D01*
X108918646Y-124925185D01*
X108964401Y-124977989D01*
X108974345Y-125047147D01*
X108951089Y-125099924D01*
X108952614Y-125100943D01*
X108949226Y-125106012D01*
X108860968Y-125271133D01*
X108806617Y-125450302D01*
X108806617Y-125450303D01*
X108792635Y-125592258D01*
X108766474Y-125657045D01*
X108756913Y-125667784D01*
X100151518Y-134273181D01*
X100090195Y-134306666D01*
X100063837Y-134309500D01*
X87571785Y-134309500D01*
X87504746Y-134289815D01*
X87458991Y-134237011D01*
X87449047Y-134167853D01*
X87452010Y-134153407D01*
X87502466Y-133965099D01*
X87505063Y-133955408D01*
X87525659Y-133720000D01*
X87505063Y-133484592D01*
X87443903Y-133256337D01*
X87344035Y-133042171D01*
X87338425Y-133034158D01*
X87208494Y-132848597D01*
X87041402Y-132681506D01*
X87041396Y-132681501D01*
X86855842Y-132551575D01*
X86812217Y-132496998D01*
X86805023Y-132427500D01*
X86836546Y-132365145D01*
X86855842Y-132348425D01*
X86938640Y-132290449D01*
X87041401Y-132218495D01*
X87208495Y-132051401D01*
X87344035Y-131857830D01*
X87443903Y-131643663D01*
X87505063Y-131415408D01*
X87525659Y-131180000D01*
X87505063Y-130944592D01*
X87443903Y-130716337D01*
X87344035Y-130502171D01*
X87338698Y-130494548D01*
X87208494Y-130308597D01*
X87041404Y-130141507D01*
X86973375Y-130093872D01*
X86929751Y-130039294D01*
X86920500Y-129992298D01*
X86920500Y-129506079D01*
X86891659Y-129361092D01*
X86891658Y-129361091D01*
X86891658Y-129361087D01*
X86891656Y-129361082D01*
X86835087Y-129224511D01*
X86835083Y-129224504D01*
X86794601Y-129163918D01*
X86752952Y-129101584D01*
X86025322Y-128373954D01*
X85258421Y-127607052D01*
X85258414Y-127607046D01*
X85184729Y-127557812D01*
X85184729Y-127557813D01*
X85135491Y-127524913D01*
X84998917Y-127468343D01*
X84998907Y-127468340D01*
X84853920Y-127439500D01*
X84853918Y-127439500D01*
X82976082Y-127439500D01*
X82976076Y-127439500D01*
X82947242Y-127445234D01*
X82947243Y-127445235D01*
X82831093Y-127468339D01*
X82831089Y-127468340D01*
X82756806Y-127499110D01*
X82694506Y-127524915D01*
X82612372Y-127579795D01*
X82571585Y-127607047D01*
X82571581Y-127607050D01*
X80982181Y-129196451D01*
X80920858Y-129229936D01*
X80851166Y-129224952D01*
X80795233Y-129183080D01*
X80770816Y-129117616D01*
X80770500Y-129108770D01*
X80770500Y-119344110D01*
X80770500Y-119344108D01*
X80736392Y-119216814D01*
X80670500Y-119102686D01*
X80577314Y-119009500D01*
X80520250Y-118976554D01*
X80463187Y-118943608D01*
X80399539Y-118926554D01*
X80335892Y-118909500D01*
X80335891Y-118909500D01*
X80274293Y-118909500D01*
X80265707Y-118909202D01*
X80002347Y-118890922D01*
X79985338Y-118888550D01*
X79731226Y-118834945D01*
X79714710Y-118830245D01*
X79470459Y-118742054D01*
X79454749Y-118735118D01*
X79225012Y-118614022D01*
X79210412Y-118604982D01*
X78999613Y-118453310D01*
X78986401Y-118442339D01*
X78798575Y-118262996D01*
X78787006Y-118250305D01*
X78738742Y-118189373D01*
X78625758Y-118046732D01*
X78616055Y-118032566D01*
X78484478Y-117808668D01*
X78476828Y-117793305D01*
X78472664Y-117783253D01*
X78377446Y-117553373D01*
X78371989Y-117537092D01*
X78339111Y-117410499D01*
X78306708Y-117285737D01*
X78303553Y-117268859D01*
X78273624Y-117010881D01*
X78272832Y-116993750D01*
X78277132Y-116807648D01*
X78969500Y-116807648D01*
X78969500Y-117012351D01*
X79001522Y-117214534D01*
X79064781Y-117409223D01*
X79157715Y-117591613D01*
X79278028Y-117757213D01*
X79422786Y-117901971D01*
X79577749Y-118014556D01*
X79588390Y-118022287D01*
X79704607Y-118081503D01*
X79770776Y-118115218D01*
X79770778Y-118115218D01*
X79770781Y-118115220D01*
X79875137Y-118149127D01*
X79965465Y-118178477D01*
X80034272Y-118189375D01*
X80167648Y-118210500D01*
X80167649Y-118210500D01*
X80372351Y-118210500D01*
X80372352Y-118210500D01*
X80574534Y-118178477D01*
X80769219Y-118115220D01*
X80951610Y-118022287D01*
X81084329Y-117925862D01*
X81117213Y-117901971D01*
X81117215Y-117901968D01*
X81117219Y-117901966D01*
X81261966Y-117757219D01*
X81261968Y-117757215D01*
X81261971Y-117757213D01*
X81314732Y-117684590D01*
X81382287Y-117591610D01*
X81475220Y-117409219D01*
X81538477Y-117214534D01*
X81570500Y-117012352D01*
X81570500Y-116807648D01*
X81556144Y-116717010D01*
X81538477Y-116605465D01*
X81475218Y-116410776D01*
X81441503Y-116344607D01*
X81382287Y-116228390D01*
X81352722Y-116187697D01*
X81261971Y-116062786D01*
X81117213Y-115918028D01*
X80951613Y-115797715D01*
X80951612Y-115797714D01*
X80951610Y-115797713D01*
X80877494Y-115759949D01*
X80769223Y-115704781D01*
X80574534Y-115641522D01*
X80399995Y-115613878D01*
X80372352Y-115609500D01*
X80167648Y-115609500D01*
X80143329Y-115613351D01*
X79965465Y-115641522D01*
X79770776Y-115704781D01*
X79588386Y-115797715D01*
X79422786Y-115918028D01*
X79278028Y-116062786D01*
X79157715Y-116228386D01*
X79064781Y-116410776D01*
X79001522Y-116605465D01*
X78969500Y-116807648D01*
X78277132Y-116807648D01*
X78278831Y-116734104D01*
X78280416Y-116717010D01*
X78322225Y-116460706D01*
X78326153Y-116444002D01*
X78402977Y-116195912D01*
X78409176Y-116179912D01*
X78519542Y-115944808D01*
X78527879Y-115929839D01*
X78669673Y-115712232D01*
X78680006Y-115698548D01*
X78850509Y-115502610D01*
X78862610Y-115490509D01*
X79058548Y-115320006D01*
X79072232Y-115309673D01*
X79289839Y-115167879D01*
X79304808Y-115159542D01*
X79539912Y-115049176D01*
X79555912Y-115042977D01*
X79804002Y-114966153D01*
X79820706Y-114962225D01*
X80077015Y-114920415D01*
X80094104Y-114918831D01*
X80353750Y-114912832D01*
X80370881Y-114913624D01*
X80628863Y-114943553D01*
X80645737Y-114946708D01*
X80720614Y-114966155D01*
X80897092Y-115011989D01*
X80913373Y-115017446D01*
X81033339Y-115067137D01*
X81153310Y-115116830D01*
X81168668Y-115124478D01*
X81392566Y-115256055D01*
X81406733Y-115265759D01*
X81610305Y-115427006D01*
X81622996Y-115438575D01*
X81802339Y-115626401D01*
X81813310Y-115639613D01*
X81927064Y-115797713D01*
X81964982Y-115850412D01*
X81974022Y-115865012D01*
X82095118Y-116094749D01*
X82102054Y-116110459D01*
X82190245Y-116354710D01*
X82194945Y-116371226D01*
X82248550Y-116625338D01*
X82250922Y-116642347D01*
X82269202Y-116905706D01*
X82269500Y-116914292D01*
X82269500Y-116975892D01*
X82279269Y-117012351D01*
X82303608Y-117103187D01*
X82336554Y-117160250D01*
X82369500Y-117217314D01*
X82462686Y-117310500D01*
X82576814Y-117376392D01*
X82704108Y-117410500D01*
X82704110Y-117410500D01*
X139695890Y-117410500D01*
X139695892Y-117410500D01*
X139823186Y-117376392D01*
X139937314Y-117310500D01*
X140030500Y-117217314D01*
X140096392Y-117103186D01*
X140130500Y-116975892D01*
X140130500Y-116914292D01*
X140130798Y-116905706D01*
X140137604Y-116807648D01*
X140829500Y-116807648D01*
X140829500Y-117012351D01*
X140861522Y-117214534D01*
X140924781Y-117409223D01*
X141017715Y-117591613D01*
X141138028Y-117757213D01*
X141282786Y-117901971D01*
X141437749Y-118014556D01*
X141448390Y-118022287D01*
X141564607Y-118081503D01*
X141630776Y-118115218D01*
X141630778Y-118115218D01*
X141630781Y-118115220D01*
X141735137Y-118149127D01*
X141825465Y-118178477D01*
X141894272Y-118189375D01*
X142027648Y-118210500D01*
X142027649Y-118210500D01*
X142232351Y-118210500D01*
X142232352Y-118210500D01*
X142434534Y-118178477D01*
X142629219Y-118115220D01*
X142811610Y-118022287D01*
X142944329Y-117925862D01*
X142977213Y-117901971D01*
X142977215Y-117901968D01*
X142977219Y-117901966D01*
X143121966Y-117757219D01*
X143121968Y-117757215D01*
X143121971Y-117757213D01*
X143174732Y-117684590D01*
X143242287Y-117591610D01*
X143335220Y-117409219D01*
X143398477Y-117214534D01*
X143430500Y-117012352D01*
X143430500Y-116807648D01*
X143416144Y-116717010D01*
X143398477Y-116605465D01*
X143335218Y-116410776D01*
X143301503Y-116344607D01*
X143242287Y-116228390D01*
X143212722Y-116187697D01*
X143121971Y-116062786D01*
X142977213Y-115918028D01*
X142811613Y-115797715D01*
X142811612Y-115797714D01*
X142811610Y-115797713D01*
X142737494Y-115759949D01*
X142629223Y-115704781D01*
X142434534Y-115641522D01*
X142259995Y-115613878D01*
X142232352Y-115609500D01*
X142027648Y-115609500D01*
X142003329Y-115613351D01*
X141825465Y-115641522D01*
X141630776Y-115704781D01*
X141448386Y-115797715D01*
X141282786Y-115918028D01*
X141138028Y-116062786D01*
X141017715Y-116228386D01*
X140924781Y-116410776D01*
X140861522Y-116605465D01*
X140829500Y-116807648D01*
X140137604Y-116807648D01*
X140149078Y-116642336D01*
X140151447Y-116625348D01*
X140205057Y-116371214D01*
X140209750Y-116354723D01*
X140297948Y-116110449D01*
X140304876Y-116094758D01*
X140425984Y-115864999D01*
X140435009Y-115850423D01*
X140586694Y-115639605D01*
X140597654Y-115626407D01*
X140777011Y-115438567D01*
X140789685Y-115427013D01*
X140993273Y-115265753D01*
X141007425Y-115256060D01*
X141231336Y-115124475D01*
X141246683Y-115116832D01*
X141486626Y-115017446D01*
X141502902Y-115011990D01*
X141754265Y-114946707D01*
X141771133Y-114943554D01*
X142029119Y-114913624D01*
X142046248Y-114912832D01*
X142305894Y-114918831D01*
G37*
%TD.AperFunction*%
%TD*%
M02*
